<svg xmlns="http://www.w3.org/2000/svg" xmlns:xlink="http://www.w3.org/1999/xlink" width="295" height="277.711" viewBox="0 0 295 277.711">
  <defs>
    <clipPath id="clip-path">
      <rect id="Rectángulo_52945" data-name="Rectángulo 52945" width="295" height="277.136" fill="none"/>
    </clipPath>
    <clipPath id="clip-path-2">
      <circle id="Elipse_6160" data-name="Elipse 6160" cx="136.064" cy="136.064" r="136.064" transform="translate(0 272.127) rotate(-89.758)" fill="none"/>
    </clipPath>
  </defs>
  <g id="Grupo_173274" data-name="Grupo 173274" transform="translate(-390 -742.387)">
    <g id="Grupo_172884" data-name="Grupo 172884" transform="translate(390 742.962)" clip-path="url(#clip-path)">
      <path id="Trazado_213885" data-name="Trazado 213885" d="M281.6,136.064A136.064,136.064,0,1,1,145.532,0,136.064,136.064,0,0,1,281.6,136.064" transform="translate(0.22)" fill="#a1c9f4"/>
    </g>
    <g id="Grupo_172886" data-name="Grupo 172886" transform="translate(399.114 742.387)" clip-path="url(#clip-path-2)">
      <path id="Trazado_213886" data-name="Trazado 213886" d="M142.438,132.97,182.4,274.042s111.438-36.311,100.17-141.072Z" transform="translate(-5.8 3.669)" fill="#ffb482"/>
    </g>
    <g id="Grupo_172888" data-name="Grupo 172888" transform="translate(390 742.962)" clip-path="url(#clip-path)">
      <path id="Trazado_213887" data-name="Trazado 213887" d="M68.011,84.329a3.04,3.04,0,0,1-.477,1.69A3.429,3.429,0,0,1,66.221,87.2a3.807,3.807,0,0,1,1.511,1.263,3.248,3.248,0,0,1,.558,1.894A3.434,3.434,0,0,1,67.1,93.112a5.663,5.663,0,0,1-6.466-.005,3.425,3.425,0,0,1-1.2-2.752,3.258,3.258,0,0,1,.558-1.9A3.731,3.731,0,0,1,61.5,87.2a3.4,3.4,0,0,1-1.309-1.179,3.062,3.062,0,0,1-.472-1.69,3.4,3.4,0,0,1,1.114-2.667,5.13,5.13,0,0,1,6.058-.008,3.378,3.378,0,0,1,1.119,2.675m-2.329,5.837a1.887,1.887,0,0,0-.5-1.367,1.979,1.979,0,0,0-2.653,0,2.132,2.132,0,0,0-.008,2.72,2.028,2.028,0,0,0,2.675.018,1.876,1.876,0,0,0,.482-1.367m-.27-5.711a1.8,1.8,0,0,0-.405-1.228,1.647,1.647,0,0,0-2.275-.013,1.787,1.787,0,0,0-.405,1.241,1.875,1.875,0,0,0,.405,1.259,1.6,1.6,0,0,0,2.28,0,1.894,1.894,0,0,0,.4-1.259" transform="translate(1.383 1.877)"/>
      <path id="Trazado_213888" data-name="Trazado 213888" d="M78.616,88.53a6.628,6.628,0,0,1-1.125,4.154,4.492,4.492,0,0,1-6.565.028,6.439,6.439,0,0,1-1.158-4.047V86.254A6.541,6.541,0,0,1,70.9,82.09a4.5,4.5,0,0,1,6.552-.014,6.422,6.422,0,0,1,1.159,4.043Zm-2.6-2.65a4.792,4.792,0,0,0-.446-2.372,1.5,1.5,0,0,0-1.39-.743,1.481,1.481,0,0,0-1.354.706,4.5,4.5,0,0,0-.461,2.211v3.186A5.04,5.04,0,0,0,72.8,91.25a1.486,1.486,0,0,0,1.4.779,1.456,1.456,0,0,0,1.374-.748,4.9,4.9,0,0,0,.442-2.286Z" transform="translate(1.623 1.877)"/>
      <path id="Trazado_213889" data-name="Trazado 213889" d="M80.094,83.368a2.592,2.592,0,0,1,.783-1.956,2.843,2.843,0,0,1,2.051-.75A2.873,2.873,0,0,1,85,81.4a2.633,2.633,0,0,1,.783,2.009v.648A2.555,2.555,0,0,1,85,86.012a3.232,3.232,0,0,1-4.115,0,2.623,2.623,0,0,1-.787-2Zm1.727.7a1.224,1.224,0,0,0,.31.873,1.065,1.065,0,0,0,.813.331,1.021,1.021,0,0,0,.8-.335,1.3,1.3,0,0,0,.3-.9v-.67a1.275,1.275,0,0,0-.3-.877,1.153,1.153,0,0,0-1.619-.005,1.3,1.3,0,0,0-.306.918Zm1.636,8.892L82.19,92.28l6.394-10.235,1.268.684Zm2.9-2.23a2.551,2.551,0,0,1,.791-1.955,2.869,2.869,0,0,1,2.051-.743,2.909,2.909,0,0,1,2.064.733,2.625,2.625,0,0,1,.787,2.019v.648a2.58,2.58,0,0,1-.774,1.948,2.857,2.857,0,0,1-2.06.741,2.887,2.887,0,0,1-2.077-.746,2.608,2.608,0,0,1-.782-1.979Zm1.726.712a1.211,1.211,0,0,0,.323.85,1.053,1.053,0,0,0,.809.353q1.1,0,1.1-1.222v-.687a1.238,1.238,0,0,0-.306-.874,1.159,1.159,0,0,0-1.619,0,1.277,1.277,0,0,0-.306.9Z" transform="translate(1.864 1.877)"/>
      <path id="Trazado_213890" data-name="Trazado 213890" d="M2.447,49l.081,1.125a3.4,3.4,0,0,1,2.8-1.3,2.822,2.822,0,0,1,2.3.909A4.228,4.228,0,0,1,8.4,52.44v6.287H5.8V52.49a1.7,1.7,0,0,0-.359-1.2,1.612,1.612,0,0,0-1.2-.373,1.79,1.79,0,0,0-1.646.937v6.878H0V49Z" transform="translate(0 1.136)"/>
      <path id="Trazado_213891" data-name="Trazado 213891" d="M9.738,53.772a5.759,5.759,0,0,1,.558-2.581A4.078,4.078,0,0,1,11.9,49.437a4.684,4.684,0,0,1,2.432-.62,4.431,4.431,0,0,1,3.215,1.2,4.837,4.837,0,0,1,1.39,3.274l.018.665a5.091,5.091,0,0,1-1.25,3.594,4.346,4.346,0,0,1-3.354,1.353,4.37,4.37,0,0,1-3.359-1.349,5.179,5.179,0,0,1-1.255-3.669Zm2.6.185a3.631,3.631,0,0,0,.522,2.12,1.718,1.718,0,0,0,1.493.735,1.724,1.724,0,0,0,1.475-.725,3.975,3.975,0,0,0,.531-2.32,3.6,3.6,0,0,0-.531-2.107,1.726,1.726,0,0,0-1.493-.748,1.7,1.7,0,0,0-1.475.744,4.041,4.041,0,0,0-.522,2.3" transform="translate(0.227 1.136)"/>
      <path id="Trazado_213892" data-name="Trazado 213892" d="M266.548,220l-.009.315.054.008,2.833-5.972h2.787l-5.873,11.188a6.988,6.988,0,0,1-1.421,1.763,3.138,3.138,0,0,1-2.149.71,2.972,2.972,0,0,1-.572-.054c-.182-.036-.4-.087-.652-.152l.693-1.916c.059.012.132.024.216.036a1.57,1.57,0,0,0,.225.018,1.466,1.466,0,0,0,.958-.338,2.564,2.564,0,0,0,.643-.778l.413-.738-1.232-9.74h2.788Z" transform="translate(6.086 4.988)"/>
      <path id="Trazado_213893" data-name="Trazado 213893" d="M275.122,224.278a3.391,3.391,0,0,1-2.914-1.359,4.349,4.349,0,0,1-.657-3.417l.054-.36a6.506,6.506,0,0,1,1.677-3.615,4.282,4.282,0,0,1,3.215-1.35,3.022,3.022,0,0,1,2.644,1.2,4.217,4.217,0,0,1,.54,3.2l-.225,1.431h-5.378a2.591,2.591,0,0,0,.333,1.639,1.452,1.452,0,0,0,1.3.609,4.563,4.563,0,0,0,1.34-.18,7.138,7.138,0,0,0,1.269-.548l.44,1.623a5.42,5.42,0,0,1-1.578.8,6.407,6.407,0,0,1-2.064.325m1.052-8.077a1.342,1.342,0,0,0-1.066.563,3.74,3.74,0,0,0-.678,1.461l.018.044H277.2l.036-.233a2.248,2.248,0,0,0-.113-1.354.966.966,0,0,0-.949-.481" transform="translate(6.316 4.983)"/>
      <path id="Trazado_213894" data-name="Trazado 213894" d="M285.344,221.407a.8.8,0,0,0-.252-.755,3.111,3.111,0,0,0-1.3-.548,4.8,4.8,0,0,1-2.266-1.039,1.984,1.984,0,0,1-.522-1.876,3.284,3.284,0,0,1,1.331-2.158,4.5,4.5,0,0,1,2.806-.854,3.651,3.651,0,0,1,2.612.881,2.255,2.255,0,0,1,.679,2.194l-.018.054H285.9a1.286,1.286,0,0,0-.167-.962,1.011,1.011,0,0,0-.885-.36,1.36,1.36,0,0,0-.9.315,1.232,1.232,0,0,0-.45.774.776.776,0,0,0,.216.741,3.024,3.024,0,0,0,1.322.509,4.738,4.738,0,0,1,2.321,1.057,2.1,2.1,0,0,1,.513,1.921,3.17,3.17,0,0,1-1.4,2.172,5.078,5.078,0,0,1-2.937.8,3.506,3.506,0,0,1-2.689-1,2.408,2.408,0,0,1-.683-2.231l.017-.053h2.374a1.28,1.28,0,0,0,.266,1.133,1.46,1.46,0,0,0,1.056.351,1.616,1.616,0,0,0,.99-.288,1.212,1.212,0,0,0,.477-.783" transform="translate(6.518 4.983)"/>
      <path id="Trazado_213895" data-name="Trazado 213895" d="M195.716,178.784h-8.975V177l4.235-4.515a10.369,10.369,0,0,0,1.29-1.664,2.671,2.671,0,0,0,.419-1.35,2,2,0,0,0-.441-1.372,1.593,1.593,0,0,0-1.259-.5,1.717,1.717,0,0,0-1.39.607,2.408,2.408,0,0,0-.509,1.6H186.48a4.291,4.291,0,0,1,.571-2.186,4.032,4.032,0,0,1,1.614-1.552,4.924,4.924,0,0,1,2.366-.562,4.647,4.647,0,0,1,3.143.972,3.436,3.436,0,0,1,1.119,2.742,4.4,4.4,0,0,1-.5,1.979,11,11,0,0,1-1.727,2.347l-2.977,3.138h5.63Z" transform="translate(4.339 3.851)"/>
      <path id="Trazado_213896" data-name="Trazado 213896" d="M205.876,173.37a6.628,6.628,0,0,1-1.125,4.154,4.492,4.492,0,0,1-6.565.028,6.439,6.439,0,0,1-1.159-4.047v-2.411a6.548,6.548,0,0,1,1.137-4.164,4.5,4.5,0,0,1,6.552-.014,6.422,6.422,0,0,1,1.16,4.043Zm-2.6-2.65a4.794,4.794,0,0,0-.445-2.372,1.5,1.5,0,0,0-1.39-.743,1.48,1.48,0,0,0-1.354.706,4.489,4.489,0,0,0-.463,2.211v3.186a5.038,5.038,0,0,0,.436,2.381,1.485,1.485,0,0,0,1.4.779,1.457,1.457,0,0,0,1.375-.748,4.9,4.9,0,0,0,.441-2.286Z" transform="translate(4.584 3.851)"/>
      <path id="Trazado_213897" data-name="Trazado 213897" d="M207.353,168.207a2.592,2.592,0,0,1,.783-1.956,2.843,2.843,0,0,1,2.051-.75,2.873,2.873,0,0,1,2.068.743,2.633,2.633,0,0,1,.783,2.009v.648a2.555,2.555,0,0,1-.783,1.951,2.863,2.863,0,0,1-2.051.738,2.892,2.892,0,0,1-2.064-.741,2.626,2.626,0,0,1-.787-2Zm1.727.7a1.224,1.224,0,0,0,.31.873,1.065,1.065,0,0,0,.814.331,1.021,1.021,0,0,0,.8-.335,1.3,1.3,0,0,0,.3-.9v-.67a1.275,1.275,0,0,0-.3-.877,1.153,1.153,0,0,0-1.619-.005,1.3,1.3,0,0,0-.306.918Zm1.636,8.892-1.268-.684,6.394-10.235,1.268.684Zm2.9-2.23a2.551,2.551,0,0,1,.791-1.955,2.872,2.872,0,0,1,2.051-.743,2.909,2.909,0,0,1,2.064.733,2.625,2.625,0,0,1,.787,2.019v.648a2.58,2.58,0,0,1-.774,1.948,2.857,2.857,0,0,1-2.06.741,2.887,2.887,0,0,1-2.077-.746,2.608,2.608,0,0,1-.782-1.979Zm1.726.712a1.211,1.211,0,0,0,.323.85,1.053,1.053,0,0,0,.809.353q1.1,0,1.1-1.222v-.687a1.238,1.238,0,0,0-.306-.874,1.159,1.159,0,0,0-1.619,0,1.277,1.277,0,0,0-.306.9Z" transform="translate(4.825 3.851)"/>
    </g>
  </g>
</svg>
