<svg id="Grupo_173023" data-name="Grupo 173023" xmlns="http://www.w3.org/2000/svg" xmlns:xlink="http://www.w3.org/1999/xlink" width="302.857" height="307.213" viewBox="0 0 302.857 307.213">
  <defs>
    <clipPath id="clip-path">
      <path id="Trazado_214118" data-name="Trazado 214118" d="M22.294,153.233A132.832,132.832,0,1,0,155.126,20.4,132.832,132.832,0,0,0,22.294,153.233" fill="none"/>
    </clipPath>
    <clipPath id="clip-path-2">
      <rect id="Rectángulo_53030" data-name="Rectángulo 53030" width="302.857" height="307.213" fill="none"/>
    </clipPath>
  </defs>
  <g id="Grupo_173020" data-name="Grupo 173020">
    <g id="Grupo_173019" data-name="Grupo 173019" clip-path="url(#clip-path)">
      <path id="Trazado_214113" data-name="Trazado 214113" d="M63.759,57.708l90.653,95.554L196.472,26.1,176.155,9l-46.04,2.5L89.185,21.827,75.64,30.738,61.383,48.2Z" fill="#fc8d62"/>
      <path id="Trazado_214114" data-name="Trazado 214114" d="M225.7,270.906,154.413,153.262l-113.584,73.4,13.307,27.565,30.653,28.99,40.4,8.079,28.277,2.139,27.565-2.852,26.614-6.891,10.693-4.04Z" fill="#e78ac3"/>
      <path id="Trazado_214115" data-name="Trazado 214115" d="M42.967,225.233l111.446-71.97L63.759,57.708l-10.1-8.317L28.71,70.778,16.116,86.936l-7.367,29.7-1.663,44.2L9.7,191.015l10.693,24,16.871,14.02Z" fill="#8da0cb"/>
      <path id="Trazado_214116" data-name="Trazado 214116" d="M223.8,268.243l-69.386-114.98H289.146l13.712,24.445-4.683,27.8-7.6,32.08-19.485,16.633-19.96,10.693s-12.357,5.466-14.02,5.941-13.307-2.614-13.307-2.614" fill="#a6d854"/>
      <path id="Trazado_214117" data-name="Trazado 214117" d="M289.145,153.263H154.412L196.472,26.1l28.039-1.664L250.65,37.035l20.2,16.872,18.3,33.742,4.04,32.079v29.941Z" fill="#66c2a5"/>
    </g>
  </g>
  <path id="Trazado_214119" data-name="Trazado 214119" d="M122.007,82.334h-2.54v-9.8l-3.032.938V71.418l5.3-1.9h.272Z"/>
  <path id="Trazado_214120" data-name="Trazado 214120" d="M134.865,70.955l-4.948,11.379h-2.681l4.957-10.748H125.83V69.537h9.035Z"/>
  <g id="Grupo_173022" data-name="Grupo 173022">
    <g id="Grupo_173021" data-name="Grupo 173021" clip-path="url(#clip-path-2)">
      <path id="Trazado_214121" data-name="Trazado 214121" d="M136.729,81.086a1.277,1.277,0,0,1,.409-.984,1.59,1.59,0,0,1,2.056,0,1.277,1.277,0,0,1,.409.984,1.262,1.262,0,0,1-.4.971,1.61,1.61,0,0,1-2.066,0,1.262,1.262,0,0,1-.4-.971"/>
      <path id="Trazado_214122" data-name="Trazado 214122" d="M150.334,77.043a6.477,6.477,0,0,1-1.1,4.06,4.391,4.391,0,0,1-6.416.028,6.293,6.293,0,0,1-1.133-3.955V74.82a6.4,6.4,0,0,1,1.111-4.07,4.4,4.4,0,0,1,6.4-.014,6.276,6.276,0,0,1,1.134,3.951Zm-2.54-2.59a4.687,4.687,0,0,0-.435-2.318A1.472,1.472,0,0,0,146,71.41a1.446,1.446,0,0,0-1.323.689,4.39,4.39,0,0,0-.452,2.161v3.115a4.91,4.91,0,0,0,.426,2.326,1.45,1.45,0,0,0,1.367.762,1.426,1.426,0,0,0,1.344-.731,4.794,4.794,0,0,0,.431-2.234Z"/>
      <path id="Trazado_214123" data-name="Trazado 214123" d="M152.013,72a2.533,2.533,0,0,1,.765-1.912,2.778,2.778,0,0,1,2-.732,2.807,2.807,0,0,1,2.021.725,2.575,2.575,0,0,1,.765,1.964v.633a2.494,2.494,0,0,1-.765,1.906,2.8,2.8,0,0,1-2,.721,2.826,2.826,0,0,1-2.017-.724,2.561,2.561,0,0,1-.769-1.956Zm1.688.688a1.2,1.2,0,0,0,.3.853,1.041,1.041,0,0,0,.795.323,1,1,0,0,0,.783-.326,1.275,1.275,0,0,0,.29-.875v-.655a1.244,1.244,0,0,0-.29-.857A1.125,1.125,0,0,0,154,71.143a1.274,1.274,0,0,0-.3.9Zm1.6,8.691-1.239-.668,6.249-10,1.239.668Zm2.831-2.179a2.5,2.5,0,0,1,.773-1.912,2.8,2.8,0,0,1,2-.725,2.843,2.843,0,0,1,2.017.715,2.567,2.567,0,0,1,.769,1.974v.633a2.519,2.519,0,0,1-.756,1.9,2.792,2.792,0,0,1-2.013.724,2.82,2.82,0,0,1-2.03-.728,2.549,2.549,0,0,1-.764-1.934Zm1.687.695a1.188,1.188,0,0,0,.316.832,1.032,1.032,0,0,0,.791.344q1.072,0,1.073-1.194V79.2a1.212,1.212,0,0,0-.3-.854,1.133,1.133,0,0,0-1.582,0,1.252,1.252,0,0,0-.3.881Z"/>
      <path id="Trazado_214124" data-name="Trazado 214124" d="M206.727,117.266h-8.771v-1.74l4.139-4.412a10.2,10.2,0,0,0,1.261-1.627,2.61,2.61,0,0,0,.409-1.319,1.958,1.958,0,0,0-.431-1.34,1.558,1.558,0,0,0-1.23-.488,1.678,1.678,0,0,0-1.358.594,2.353,2.353,0,0,0-.5,1.561H197.7a4.187,4.187,0,0,1,.558-2.137,3.931,3.931,0,0,1,1.577-1.516,4.812,4.812,0,0,1,2.312-.549,4.542,4.542,0,0,1,3.072.95,3.355,3.355,0,0,1,1.094,2.679,4.3,4.3,0,0,1-.492,1.934,10.784,10.784,0,0,1-1.688,2.295l-2.909,3.066h5.5Z"/>
      <path id="Trazado_214125" data-name="Trazado 214125" d="M216.9,111.975a6.477,6.477,0,0,1-1.1,4.06,4.388,4.388,0,0,1-6.416.026,6.293,6.293,0,0,1-1.133-3.955V109.75a6.4,6.4,0,0,1,1.111-4.068,4.4,4.4,0,0,1,6.4-.014,6.276,6.276,0,0,1,1.134,3.951Zm-2.54-2.59a4.685,4.685,0,0,0-.435-2.318,1.469,1.469,0,0,0-1.358-.727,1.445,1.445,0,0,0-1.323.691,4.384,4.384,0,0,0-.452,2.161v3.113a4.913,4.913,0,0,0,.426,2.328,1.452,1.452,0,0,0,1.367.76,1.423,1.423,0,0,0,1.344-.731,4.789,4.789,0,0,0,.431-2.234Z"/>
      <path id="Trazado_214126" data-name="Trazado 214126" d="M218.848,116.018a1.277,1.277,0,0,1,.409-.984,1.584,1.584,0,0,1,2.056,0,1.277,1.277,0,0,1,.409.984,1.262,1.262,0,0,1-.4.971,1.617,1.617,0,0,1-2.066,0,1.262,1.262,0,0,1-.4-.971"/>
      <path id="Trazado_214127" data-name="Trazado 214127" d="M230.01,117.266h-2.54v-9.8l-3.032.936V106.35l5.3-1.9h.272Z"/>
      <path id="Trazado_214128" data-name="Trazado 214128" d="M234.131,106.929a2.533,2.533,0,0,1,.765-1.912,2.779,2.779,0,0,1,2-.734,2.808,2.808,0,0,1,2.021.727,2.571,2.571,0,0,1,.765,1.962v.633a2.5,2.5,0,0,1-.765,1.908,2.8,2.8,0,0,1-2,.721,2.826,2.826,0,0,1-2.017-.724,2.564,2.564,0,0,1-.769-1.957Zm1.688.688a1.2,1.2,0,0,0,.3.853,1.041,1.041,0,0,0,.8.323,1,1,0,0,0,.783-.328,1.271,1.271,0,0,0,.29-.875v-.655a1.248,1.248,0,0,0-.29-.857,1.128,1.128,0,0,0-1.582,0,1.265,1.265,0,0,0-.3.9Zm1.6,8.689-1.239-.668,6.249-10,1.239.668Zm2.831-2.179a2.49,2.49,0,0,1,.773-1.91,2.8,2.8,0,0,1,2-.727,2.844,2.844,0,0,1,2.017.717,2.563,2.563,0,0,1,.769,1.972v.633a2.524,2.524,0,0,1-.756,1.905,2.792,2.792,0,0,1-2.013.724,2.822,2.822,0,0,1-2.03-.73,2.549,2.549,0,0,1-.764-1.934Zm1.687.7a1.18,1.18,0,0,0,.316.83,1.027,1.027,0,0,0,.791.346q1.072,0,1.073-1.194v-.671a1.208,1.208,0,0,0-.3-.854,1.133,1.133,0,0,0-1.582,0,1.244,1.244,0,0,0-.3.879Z"/>
      <path id="Trazado_214129" data-name="Trazado 214129" d="M64.153,153.233H55.382v-1.74l4.139-4.412a10.135,10.135,0,0,0,1.261-1.626,2.61,2.61,0,0,0,.409-1.319,1.956,1.956,0,0,0-.431-1.341,1.557,1.557,0,0,0-1.23-.487,1.678,1.678,0,0,0-1.358.593,2.353,2.353,0,0,0-.5,1.561H55.127a4.194,4.194,0,0,1,.558-2.136,3.94,3.94,0,0,1,1.577-1.517,4.812,4.812,0,0,1,2.312-.549,4.542,4.542,0,0,1,3.072.95,3.357,3.357,0,0,1,1.094,2.68,4.3,4.3,0,0,1-.492,1.934,10.747,10.747,0,0,1-1.688,2.294l-2.909,3.067h5.5Z"/>
      <path id="Trazado_214130" data-name="Trazado 214130" d="M74.48,153.233H65.709v-1.74l4.139-4.412a10.135,10.135,0,0,0,1.261-1.626,2.61,2.61,0,0,0,.409-1.319,1.956,1.956,0,0,0-.431-1.341,1.557,1.557,0,0,0-1.23-.487,1.678,1.678,0,0,0-1.358.593,2.353,2.353,0,0,0-.5,1.561H65.454a4.194,4.194,0,0,1,.558-2.136,3.94,3.94,0,0,1,1.577-1.517,4.812,4.812,0,0,1,2.312-.549,4.542,4.542,0,0,1,3.072.95,3.357,3.357,0,0,1,1.094,2.68,4.3,4.3,0,0,1-.492,1.934,10.747,10.747,0,0,1-1.688,2.294l-2.909,3.067h5.5Z"/>
      <path id="Trazado_214131" data-name="Trazado 214131" d="M76.273,151.985a1.277,1.277,0,0,1,.409-.984,1.587,1.587,0,0,1,2.056,0,1.277,1.277,0,0,1,.409.984,1.262,1.262,0,0,1-.4.971,1.614,1.614,0,0,1-2.066,0,1.262,1.262,0,0,1-.4-.971"/>
      <path id="Trazado_214132" data-name="Trazado 214132" d="M89.879,147.942a6.477,6.477,0,0,1-1.1,4.06,4.389,4.389,0,0,1-6.416.027,6.293,6.293,0,0,1-1.133-3.955v-2.356a6.4,6.4,0,0,1,1.111-4.069,4.4,4.4,0,0,1,6.4-.014,6.276,6.276,0,0,1,1.134,3.951Zm-2.54-2.59a4.685,4.685,0,0,0-.435-2.318,1.47,1.47,0,0,0-1.358-.726,1.446,1.446,0,0,0-1.323.69,4.387,4.387,0,0,0-.452,2.161v3.114A4.924,4.924,0,0,0,84.2,150.6a1.452,1.452,0,0,0,1.367.761,1.424,1.424,0,0,0,1.344-.731,4.791,4.791,0,0,0,.431-2.234Z"/>
      <path id="Trazado_214133" data-name="Trazado 214133" d="M91.557,142.9a2.533,2.533,0,0,1,.765-1.912,2.779,2.779,0,0,1,2-.733,2.808,2.808,0,0,1,2.021.726,2.573,2.573,0,0,1,.765,1.963v.633a2.5,2.5,0,0,1-.765,1.907,2.8,2.8,0,0,1-2,.721,2.826,2.826,0,0,1-2.017-.724,2.567,2.567,0,0,1-.769-1.957Zm1.688.688a1.2,1.2,0,0,0,.3.853,1.041,1.041,0,0,0,.8.323,1,1,0,0,0,.783-.327,1.273,1.273,0,0,0,.29-.875V142.9a1.246,1.246,0,0,0-.29-.857,1.126,1.126,0,0,0-1.582-.005,1.269,1.269,0,0,0-.3.9Zm1.6,8.69-1.239-.668,6.249-10,1.239.668Zm2.831-2.179a2.493,2.493,0,0,1,.773-1.911,2.807,2.807,0,0,1,2-.726,2.843,2.843,0,0,1,2.017.716,2.565,2.565,0,0,1,.769,1.973v.633a2.522,2.522,0,0,1-.756,1.9,2.792,2.792,0,0,1-2.013.724,2.821,2.821,0,0,1-2.03-.729,2.549,2.549,0,0,1-.764-1.934Zm1.687.7a1.184,1.184,0,0,0,.316.831,1.029,1.029,0,0,0,.791.345q1.072,0,1.073-1.194V150.1a1.21,1.21,0,0,0-.3-.854,1.133,1.133,0,0,0-1.582,0,1.248,1.248,0,0,0-.3.88Z"/>
      <path id="Trazado_214134" data-name="Trazado 214134" d="M124.609,235.926h-8.771v-1.74l4.139-4.412a10.137,10.137,0,0,0,1.261-1.627,2.61,2.61,0,0,0,.409-1.319,1.953,1.953,0,0,0-.431-1.34,1.558,1.558,0,0,0-1.23-.488,1.679,1.679,0,0,0-1.358.594,2.353,2.353,0,0,0-.5,1.561h-2.548a4.2,4.2,0,0,1,.558-2.137,3.938,3.938,0,0,1,1.577-1.516,4.812,4.812,0,0,1,2.312-.549,4.542,4.542,0,0,1,3.072.95,3.355,3.355,0,0,1,1.094,2.679,4.3,4.3,0,0,1-.492,1.934,10.749,10.749,0,0,1-1.688,2.295l-2.909,3.066h5.5Z"/>
      <path id="Trazado_214135" data-name="Trazado 214135" d="M133.679,231.11h1.45v2.047h-1.45v2.769h-2.54v-2.769h-5.247l-.114-1.6,5.335-8.427h2.566Zm-5.37,0h2.83v-4.518l-.167.289Z"/>
      <path id="Trazado_214136" data-name="Trazado 214136" d="M136.729,234.678a1.277,1.277,0,0,1,.409-.984,1.584,1.584,0,0,1,2.056,0,1.277,1.277,0,0,1,.409.984,1.262,1.262,0,0,1-.4.971,1.617,1.617,0,0,1-2.066,0,1.262,1.262,0,0,1-.4-.971"/>
      <path id="Trazado_214137" data-name="Trazado 214137" d="M148.612,223v2.092h-.247a4.315,4.315,0,0,0-2.773.9,3.647,3.647,0,0,0-1.261,2.418,3.461,3.461,0,0,1,2.575-1.037,3.263,3.263,0,0,1,2.655,1.195,4.794,4.794,0,0,1,.984,3.147,4.714,4.714,0,0,1-.54,2.258,3.884,3.884,0,0,1-1.53,1.574,4.443,4.443,0,0,1-2.237.562,4.148,4.148,0,0,1-3.265-1.406,5.46,5.46,0,0,1-1.243-3.754v-.914a8.226,8.226,0,0,1,.786-3.678,5.773,5.773,0,0,1,2.259-2.468A6.615,6.615,0,0,1,148.19,223Zm-2.479,6.416a2.033,2.033,0,0,0-1.116.32,1.922,1.922,0,0,0-.738.848v.771a3.428,3.428,0,0,0,.5,1.987,1.621,1.621,0,0,0,1.407.715,1.6,1.6,0,0,0,1.322-.645,3.024,3.024,0,0,0,0-3.355,1.665,1.665,0,0,0-1.371-.641"/>
      <path id="Trazado_214138" data-name="Trazado 214138" d="M152.013,225.59a2.533,2.533,0,0,1,.765-1.912,2.779,2.779,0,0,1,2-.734,2.808,2.808,0,0,1,2.021.727,2.57,2.57,0,0,1,.765,1.962v.633a2.5,2.5,0,0,1-.765,1.908,2.8,2.8,0,0,1-2,.721,2.826,2.826,0,0,1-2.017-.724,2.568,2.568,0,0,1-.769-1.957Zm1.688.688a1.2,1.2,0,0,0,.3.853,1.041,1.041,0,0,0,.795.323,1,1,0,0,0,.783-.328,1.271,1.271,0,0,0,.29-.875V225.6a1.248,1.248,0,0,0-.29-.857,1.128,1.128,0,0,0-1.582,0,1.265,1.265,0,0,0-.3.9Zm1.6,8.689-1.239-.668,6.249-10,1.239.668Zm2.831-2.179a2.49,2.49,0,0,1,.773-1.91,2.807,2.807,0,0,1,2-.727,2.844,2.844,0,0,1,2.017.717,2.563,2.563,0,0,1,.769,1.972v.633a2.524,2.524,0,0,1-.756,1.9,2.792,2.792,0,0,1-2.013.724,2.822,2.822,0,0,1-2.03-.73,2.549,2.549,0,0,1-.764-1.934Zm1.687.7a1.18,1.18,0,0,0,.316.83,1.027,1.027,0,0,0,.791.346q1.072,0,1.073-1.194V232.8a1.208,1.208,0,0,0-.3-.854,1.133,1.133,0,0,0-1.582,0,1.244,1.244,0,0,0-.3.879Z"/>
      <path id="Trazado_214139" data-name="Trazado 214139" d="M215.393,197.431h-2.54v-9.805l-3.032.937v-2.048l5.3-1.9h.272Z"/>
      <path id="Trazado_214140" data-name="Trazado 214140" d="M222.135,189.907h1.353a1.912,1.912,0,0,0,1.433-.483,1.776,1.776,0,0,0,.466-1.284,1.569,1.569,0,0,0-.462-1.2,1.787,1.787,0,0,0-1.269-.43,1.877,1.877,0,0,0-1.222.4,1.277,1.277,0,0,0-.493,1.042H219.4a3.129,3.129,0,0,1,.539-1.8,3.606,3.606,0,0,1,1.512-1.243,5.043,5.043,0,0,1,2.141-.448,4.792,4.792,0,0,1,3.181.97,3.32,3.32,0,0,1,1.151,2.677,2.7,2.7,0,0,1-.535,1.617,3.478,3.478,0,0,1-1.407,1.134,3.183,3.183,0,0,1,1.612,1.16,3.145,3.145,0,0,1,.532,1.829,3.369,3.369,0,0,1-1.243,2.733,5.006,5.006,0,0,1-3.291,1.028,4.74,4.74,0,0,1-3.134-1.011,3.3,3.3,0,0,1-1.218-2.671h2.541a1.471,1.471,0,0,0,.541,1.177,2.254,2.254,0,0,0,2.75-.022,1.65,1.65,0,0,0,.515-1.27q0-1.916-2.11-1.916h-1.344Z"/>
      <path id="Trazado_214141" data-name="Trazado 214141" d="M230.115,196.183a1.277,1.277,0,0,1,.409-.984,1.587,1.587,0,0,1,2.056,0,1.277,1.277,0,0,1,.409.984,1.262,1.262,0,0,1-.4.971,1.614,1.614,0,0,1-2.066,0,1.262,1.262,0,0,1-.4-.971"/>
      <path id="Trazado_214142" data-name="Trazado 214142" d="M237.691,189.907h1.354a1.908,1.908,0,0,0,1.432-.483,1.771,1.771,0,0,0,.466-1.284,1.569,1.569,0,0,0-.461-1.2,1.789,1.789,0,0,0-1.27-.43,1.877,1.877,0,0,0-1.222.4,1.278,1.278,0,0,0-.492,1.042h-2.54a3.13,3.13,0,0,1,.54-1.8,3.606,3.606,0,0,1,1.512-1.243,5.041,5.041,0,0,1,2.14-.448,4.793,4.793,0,0,1,3.182.97,3.32,3.32,0,0,1,1.151,2.677,2.694,2.694,0,0,1-.536,1.617,3.475,3.475,0,0,1-1.406,1.134,3.183,3.183,0,0,1,1.612,1.16,3.145,3.145,0,0,1,.532,1.829,3.367,3.367,0,0,1-1.244,2.733,5,5,0,0,1-3.291,1.028,4.737,4.737,0,0,1-3.133-1.011,3.3,3.3,0,0,1-1.218-2.671h2.54a1.471,1.471,0,0,0,.541,1.177,2.255,2.255,0,0,0,2.751-.022,1.65,1.65,0,0,0,.514-1.27q0-1.916-2.109-1.916h-1.345Z"/>
      <path id="Trazado_214143" data-name="Trazado 214143" d="M245.4,187.094a2.533,2.533,0,0,1,.765-1.912,2.779,2.779,0,0,1,2-.733,2.808,2.808,0,0,1,2.021.726,2.573,2.573,0,0,1,.765,1.963v.633a2.5,2.5,0,0,1-.765,1.907,3.159,3.159,0,0,1-4.021,0,2.563,2.563,0,0,1-.769-1.957Zm1.688.688a1.2,1.2,0,0,0,.3.853,1.041,1.041,0,0,0,.795.323,1,1,0,0,0,.783-.327,1.273,1.273,0,0,0,.29-.875V187.1a1.246,1.246,0,0,0-.29-.857,1.126,1.126,0,0,0-1.582-.005,1.269,1.269,0,0,0-.3.9Zm1.6,8.69-1.239-.668,6.249-10,1.239.668Zm2.831-2.179a2.493,2.493,0,0,1,.773-1.911,2.8,2.8,0,0,1,2-.726,2.843,2.843,0,0,1,2.017.716,2.565,2.565,0,0,1,.769,1.973v.633a2.522,2.522,0,0,1-.756,1.9,2.792,2.792,0,0,1-2.013.724,2.821,2.821,0,0,1-2.03-.729,2.549,2.549,0,0,1-.764-1.934Zm1.687.7a1.184,1.184,0,0,0,.316.831,1.029,1.029,0,0,0,.791.345q1.072,0,1.073-1.194V194.3a1.21,1.21,0,0,0-.3-.854,1.133,1.133,0,0,0-1.582,0,1.248,1.248,0,0,0-.3.88Z"/>
      <path id="Trazado_214144" data-name="Trazado 214144" d="M102.565,12.8V0h4.483a5.885,5.885,0,0,1,3.533.893,3.049,3.049,0,0,1,1.2,2.614,2.892,2.892,0,0,1-.483,1.657,2.79,2.79,0,0,1-1.345,1.05,2.7,2.7,0,0,1,1.551.993,2.938,2.938,0,0,1,.567,1.829A3.375,3.375,0,0,1,110.9,11.83a5.3,5.3,0,0,1-3.357.967ZM105.2,5.362h1.951q2-.036,2-1.591a1.472,1.472,0,0,0-.505-1.253,2.665,2.665,0,0,0-1.6-.382H105.2Zm0,1.863v3.454h2.259a2.171,2.171,0,0,0,1.454-.444,1.519,1.519,0,0,0,.523-1.226,1.607,1.607,0,0,0-1.819-1.784Z"/>
      <path id="Trazado_214145" data-name="Trazado 214145" d="M132.506,307.213v-12.8h3.938a5.989,5.989,0,0,1,3.019.76,5.314,5.314,0,0,1,2.078,2.162,6.672,6.672,0,0,1,.748,3.186v.589a6.683,6.683,0,0,1-.734,3.172,5.269,5.269,0,0,1-2.07,2.155,6.037,6.037,0,0,1-3.015.773Zm2.637-10.662v8.543h1.274a2.863,2.863,0,0,0,2.365-1.01,4.57,4.57,0,0,0,.835-2.892v-.676a4.637,4.637,0,0,0-.809-2.957,2.851,2.851,0,0,0-2.364-1.008Z"/>
      <path id="Trazado_214146" data-name="Trazado 214146" d="M276.126,56.973H271.5l-.879,2.636h-2.8l4.764-12.8h2.444l4.79,12.8h-2.8Zm-3.911-2.136h3.2l-1.608-4.79Z"/>
      <path id="Trazado_214147" data-name="Trazado 214147" d="M296.8,227.274h-5.062v3.445h5.941v2.118H289.1v-12.8h8.56v2.135h-5.923v3.05H296.8Z"/>
      <path id="Trazado_214148" data-name="Trazado 214148" d="M10.433,144.455a4.53,4.53,0,0,1-1.525,3.252,5.354,5.354,0,0,1-3.625,1.186,4.813,4.813,0,0,1-3.872-1.656A6.8,6.8,0,0,1,0,142.688v-.782a7.668,7.668,0,0,1,.651-3.252A4.864,4.864,0,0,1,2.51,136.5a5.2,5.2,0,0,1,2.808-.752,5.217,5.217,0,0,1,3.568,1.187,4.869,4.869,0,0,1,1.565,3.331H7.814a2.675,2.675,0,0,0-.69-1.8,2.557,2.557,0,0,0-1.806-.559,2.241,2.241,0,0,0-1.973.945,5.293,5.293,0,0,0-.673,2.931v.967a5.666,5.666,0,0,0,.629,3.032,2.2,2.2,0,0,0,1.982.958,2.6,2.6,0,0,0,1.823-.557,2.52,2.52,0,0,0,.69-1.728Z"/>
    </g>
  </g>
</svg>
