<svg xmlns="http://www.w3.org/2000/svg" xmlns:xlink="http://www.w3.org/1999/xlink" width="1320.786" height="511.266" viewBox="0 0 1320.786 511.266">
  <defs>
    <linearGradient id="linear-gradient" x1="0.5" x2="0.5" y2="1" gradientUnits="objectBoundingBox">
      <stop offset="0" stop-color="#7e53c5"/>
      <stop offset="1" stop-color="#5b14d9"/>
    </linearGradient>
    <linearGradient id="linear-gradient-3" x1="0.404" y1="0.59" x2="1.042" y2="1.097" gradientUnits="objectBoundingBox">
      <stop offset="0" stop-color="#7e53c5"/>
      <stop offset="1" stop-color="#4c1ba0"/>
    </linearGradient>
    <linearGradient id="linear-gradient-5" x1="-0.031" y1="0.042" x2="1.042" y2="1.097" gradientUnits="objectBoundingBox">
      <stop offset="0" stop-color="#252435"/>
      <stop offset="1" stop-color="#12151d"/>
    </linearGradient>
    <clipPath id="clip-path">
      <path id="Rectangle_652" data-name="Rectangle 652" d="M1676.642-1132.4H398.216c-11.48,0-20.787,8.39-20.787,18.749V-644.94c0,10.354,9.307,18.749,20.787,18.749H1676.642c11.48,0,20.787-8.39,20.787-18.749v-468.713C1697.429-1124.012,1688.122-1132.4,1676.642-1132.4Z" transform="translate(-377.429 1132.402)" fill="url(#linear-gradient)"/>
    </clipPath>
    <clipPath id="clip-path-3">
      <path id="Rectangle_652-3" data-name="Rectangle 652" d="M1299.213,0H20.787C9.307,0,0,8.395,0,18.751V487.514c0,10.356,9.307,18.751,20.787,18.751H1299.213c11.48,0,20.787-8.395,20.787-18.751V18.751C1320,8.395,1310.693,0,1299.213,0Z" fill="url(#linear-gradient-3)"/>
    </clipPath>
    <clipPath id="clip-path-4">
      <path id="Rectangle_652-4" data-name="Rectangle 652" d="M1676.642-1132.4H398.216c-11.48,0-20.787,8.39-20.787,18.749v468.712c0,10.354,9.307,18.749,20.787,18.749H1676.642c11.48,0,20.787-8.39,20.787-18.749v-468.712C1697.429-1124.012,1688.122-1132.4,1676.642-1132.4Z" transform="translate(-377.429 1132.402)" fill="url(#linear-gradient)"/>
    </clipPath>
    <linearGradient id="linear-gradient-7" x1="0.374" y1="-0.156" x2="0.588" y2="0.748" gradientUnits="objectBoundingBox">
      <stop offset="0" stop-color="#3d4463"/>
      <stop offset="1" stop-color="#1d253b"/>
    </linearGradient>
    <linearGradient id="linear-gradient-8" x1="1.094" y1="-0.034" x2="0.366" y2="0.894" xlink:href="#linear-gradient-7"/>
  </defs>
  <g id="Grupo_173274" data-name="Grupo 173274" transform="translate(-144.333 -67.605)">
    <g id="Grupo_157188" data-name="Grupo 157188" transform="translate(144.333 67.605)">
      <path id="Rectangle_652-5" data-name="Rectangle 652" d="M1299.213,0H20.787C9.307,0,0,8.394,0,18.749V487.465c0,10.355,9.307,18.749,20.787,18.749H1299.213c11.48,0,20.787-8.394,20.787-18.749V18.749C1320,8.394,1310.693,0,1299.213,0Z" transform="translate(0 2.507)" fill="url(#linear-gradient-5)"/>
    </g>
    <g id="Grupo_157189" data-name="Grupo 157189" transform="translate(144.333 67.605)">
      <path id="Rectangle_652-6" data-name="Rectangle 652" d="M1299.213,0H20.787C9.307,0,0,8.394,0,18.749V487.465c0,10.355,9.307,18.749,20.787,18.749H1299.213c11.48,0,20.787-8.394,20.787-18.749V18.749C1320,8.394,1310.693,0,1299.213,0Z" transform="translate(0 2.507)" fill="url(#linear-gradient-5)"/>
    </g>
    <g id="Enmascarar_grupo_141311" data-name="Enmascarar grupo 141311" transform="translate(144.333 72.606)" clip-path="url(#clip-path-3)">
      <g id="Grupo_157192" data-name="Grupo 157192" transform="translate(0.786 -2.507)" style="isolation: isolate">
        <g id="Grupo_157191" data-name="Grupo 157191" transform="translate(0 0)" clip-path="url(#clip-path-4)">
          <g id="Grupo_157190" data-name="Grupo 157190" transform="translate(-19.332 -101.482)">
            <path id="Trazado_197523" data-name="Trazado 197523" d="M1129.137,23.484c-307.571,180.272-320.69,430.548-623.913,548.6C309.214,648.4,93.612,586.572,9.843,467.056L7.771,34Z" transform="translate(-7.771 -23.484)" fill="url(#linear-gradient-7)"/>
            <path id="Trazado_197524" data-name="Trazado 197524" d="M787.556,218.605c-77.773,3.727-235.216,183.726-94.914,354.229l99.909-15.627Z" transform="translate(557.926 103.26)" fill="url(#linear-gradient-8)"/>
          </g>
        </g>
      </g>
    </g>
    <g id="Grupo_157197" data-name="Grupo 157197" transform="translate(1353.726 457.493)">
      <path id="Trazado_196990" data-name="Trazado 196990" d="M116.877,365.977l-.587-.467,4.545-5.711,4.375,5.5-.587.467L120.835,361Z" transform="translate(-116.29 -359.799)" fill="#fff"/>
      <path id="Trazado_196991" data-name="Trazado 196991" d="M120.665,387.989l-4.375-5.5.587-.467,3.788,4.759,3.958-4.973.587.467Z" transform="translate(-116.29 -359.799)" fill="#fff"/>
    </g>
    <g id="Grupo_78297" data-name="Grupo 78297" transform="translate(11218.248 12523.086)">
      <path id="Trazado_99257" data-name="Trazado 99257" d="M416.049,103.656a.918.918,0,1,1-.918-.877A.9.9,0,0,1,416.049,103.656Z" transform="translate(-11447.97 -12119.038)" fill="#fff"/>
      <path id="Trazado_99258" data-name="Trazado 99258" d="M424.495,103.656a.918.918,0,1,1-.917-.877A.9.9,0,0,1,424.495,103.656Z" transform="translate(-11448.161 -12119.038)" fill="#fff"/>
      <path id="Trazado_99259" data-name="Trazado 99259" d="M432.941,103.656a.918.918,0,1,1-.917-.877A.9.9,0,0,1,432.941,103.656Z" transform="translate(-11448.352 -12119.038)" fill="#fff"/>
      <path id="Trazado_99260" data-name="Trazado 99260" d="M441.388,103.656a.918.918,0,1,1-.918-.877A.9.9,0,0,1,441.388,103.656Z" transform="translate(-11448.543 -12119.038)" fill="#fff"/>
      <path id="Trazado_99261" data-name="Trazado 99261" d="M449.834,103.656a.918.918,0,1,1-.917-.877A.9.9,0,0,1,449.834,103.656Z" transform="translate(-11448.733 -12119.038)" fill="#fff"/>
      <ellipse id="Elipse_3975" data-name="Elipse 3975" cx="0.917" cy="0.877" rx="0.917" ry="0.877" transform="translate(-11033.756 -12009.241)" fill="#fff"/>
      <path id="Trazado_99268" data-name="Trazado 99268" d="M424.495,111.164a.918.918,0,1,1-.917-.877A.9.9,0,0,1,424.495,111.164Z" transform="translate(-11448.161 -12119.528)" fill="#fff"/>
      <ellipse id="Elipse_3976" data-name="Elipse 3976" cx="0.917" cy="0.877" rx="0.917" ry="0.877" transform="translate(-11017.245 -12009.241)" fill="#fff"/>
      <path id="Trazado_99269" data-name="Trazado 99269" d="M441.388,111.164a.918.918,0,1,1-.918-.877A.9.9,0,0,1,441.388,111.164Z" transform="translate(-11448.543 -12119.528)" fill="#fff"/>
      <path id="Trazado_99270" data-name="Trazado 99270" d="M449.834,111.164a.918.918,0,1,1-.917-.877A.9.9,0,0,1,449.834,111.164Z" transform="translate(-11448.733 -12119.528)" fill="#fff"/>
      <path id="Trazado_99274" data-name="Trazado 99274" d="M416.049,118.672a.918.918,0,1,1-.918-.878A.9.9,0,0,1,416.049,118.672Z" transform="translate(-11447.97 -12120.019)" fill="#fff"/>
      <path id="Trazado_99275" data-name="Trazado 99275" d="M424.495,118.672a.918.918,0,1,1-.917-.878A.9.9,0,0,1,424.495,118.672Z" transform="translate(-11448.161 -12120.019)" fill="#fff"/>
      <path id="Trazado_99276" data-name="Trazado 99276" d="M432.941,118.672a.918.918,0,1,1-.917-.878A.9.9,0,0,1,432.941,118.672Z" transform="translate(-11448.352 -12120.019)" fill="#fff"/>
      <path id="Trazado_99277" data-name="Trazado 99277" d="M441.388,118.672a.918.918,0,1,1-.918-.878A.9.9,0,0,1,441.388,118.672Z" transform="translate(-11448.543 -12120.019)" fill="#fff"/>
      <path id="Trazado_99278" data-name="Trazado 99278" d="M449.834,118.672a.918.918,0,1,1-.917-.878A.9.9,0,0,1,449.834,118.672Z" transform="translate(-11448.733 -12120.019)" fill="#fff"/>
      <ellipse id="Elipse_3980" data-name="Elipse 3980" cx="0.917" cy="0.877" rx="0.917" ry="0.877" transform="translate(-11033.756 -11995.206)" fill="#fff"/>
      <path id="Trazado_99285" data-name="Trazado 99285" d="M424.495,126.18a.918.918,0,1,1-.917-.878A.9.9,0,0,1,424.495,126.18Z" transform="translate(-11448.161 -12120.509)" fill="#fff"/>
      <ellipse id="Elipse_3981" data-name="Elipse 3981" cx="0.917" cy="0.877" rx="0.917" ry="0.877" transform="translate(-11017.245 -11995.206)" fill="#fff"/>
      <path id="Trazado_99286" data-name="Trazado 99286" d="M441.388,126.18a.918.918,0,1,1-.918-.878A.9.9,0,0,1,441.388,126.18Z" transform="translate(-11448.543 -12120.509)" fill="#fff"/>
      <path id="Trazado_99287" data-name="Trazado 99287" d="M449.834,126.18a.918.918,0,1,1-.917-.878A.9.9,0,0,1,449.834,126.18Z" transform="translate(-11448.733 -12120.509)" fill="#fff"/>
      <ellipse id="Elipse_3985" data-name="Elipse 3985" cx="0.917" cy="0.877" rx="0.917" ry="0.877" transform="translate(-11033.756 -11988.189)" fill="#fff"/>
      <path id="Trazado_99291" data-name="Trazado 99291" d="M424.495,133.688a.918.918,0,1,1-.917-.878A.9.9,0,0,1,424.495,133.688Z" transform="translate(-11448.161 -12120.999)" fill="#fff"/>
      <ellipse id="Elipse_3986" data-name="Elipse 3986" cx="0.917" cy="0.877" rx="0.917" ry="0.877" transform="translate(-11017.245 -11988.189)" fill="#fff"/>
      <path id="Trazado_99292" data-name="Trazado 99292" d="M441.388,133.688a.918.918,0,1,1-.918-.878A.9.9,0,0,1,441.388,133.688Z" transform="translate(-11448.543 -12120.999)" fill="#fff"/>
      <path id="Trazado_99293" data-name="Trazado 99293" d="M449.834,133.688a.918.918,0,1,1-.917-.878A.9.9,0,0,1,449.834,133.688Z" transform="translate(-11448.733 -12120.999)" fill="#fff"/>
    </g>
  </g>
</svg>
