<svg xmlns="http://www.w3.org/2000/svg" width="384.154" height="181.1" viewBox="0 0 384.154 181.1">
  <g id="Grupo_157249" data-name="Grupo 157249" transform="translate(-1035.846 -291.424)">
    <g id="Grupo_157249-2" data-name="Grupo 157249" transform="translate(954.897 95.685)">
      <path id="Trazado_197562" data-name="Trazado 197562" d="M3.828,0h95.3a3.828,3.828,0,0,1,3.828,3.828V65.621a3.828,3.828,0,0,1-3.828,3.828H3.828A3.828,3.828,0,0,1,0,65.621V3.828A3.828,3.828,0,0,1,3.828,0Z" transform="translate(362.144 195.739)" fill="#fff"/>
      <path id="Trazado_197550" data-name="Trazado 197550" d="M596.477,369.367a5.782,5.782,0,1,1-5.782-5.782,5.782,5.782,0,0,1,5.782,5.782" transform="translate(-217.146 -145.781)" fill="#34a3ed"/>
      <line id="Línea_141" data-name="Línea 141" x2="72.404" transform="translate(383.355 221.324)" fill="none" stroke="#34a3ed" stroke-linecap="round" stroke-linejoin="round" stroke-width="3"/>
      <line id="Línea_142" data-name="Línea 142" x2="41.984" transform="translate(383.355 225.346)" fill="none" stroke="#34a3ed" stroke-linecap="round" stroke-linejoin="round" stroke-width="3"/>
      <path id="Trazado_197551" data-name="Trazado 197551" d="M596.477,409.174a5.782,5.782,0,1,1-5.782-5.782,5.782,5.782,0,0,1,5.782,5.782" transform="translate(-217.146 -169.624)" fill="#34a3ed"/>
      <line id="Línea_143" data-name="Línea 143" x2="72.404" transform="translate(383.355 237.288)" fill="none" stroke="#34a3ed" stroke-linecap="round" stroke-linejoin="round" stroke-width="3"/>
      <line id="Línea_144" data-name="Línea 144" x2="67.627" transform="translate(383.355 241.31)" fill="none" stroke="#34a3ed" stroke-linecap="round" stroke-linejoin="round" stroke-width="3"/>
      <path id="Trazado_197552" data-name="Trazado 197552" d="M596.477,448.981A5.782,5.782,0,1,1,590.7,443.2a5.782,5.782,0,0,1,5.782,5.782" transform="translate(-217.146 -193.467)" fill="#34a3ed"/>
      <line id="Línea_145" data-name="Línea 145" x2="72.404" transform="translate(383.355 253.252)" fill="none" stroke="#34a3ed" stroke-linecap="round" stroke-linejoin="round" stroke-width="3"/>
      <line id="Línea_146" data-name="Línea 146" x2="21.872" transform="translate(383.355 257.274)" fill="none" stroke="#34a3ed" stroke-linecap="round" stroke-linejoin="round" stroke-width="3"/>
      <rect id="Rectángulo_46810" data-name="Rectángulo 46810" width="63.102" height="11.062" rx="5.531" transform="translate(366.762 200.709)" fill="#34a3ed"/>
    </g>
    <path id="Trazado_197562-2" data-name="Trazado 197562" d="M222.82,458.408a41.738,41.738,0,1,0,41.738-41.738,41.738,41.738,0,0,0-41.738,41.738" transform="translate(813.525 -28.121)" fill="#1f507a"/>
    <circle id="Elipse_6072" data-name="Elipse 6072" cx="41.738" cy="41.738" r="41.738" transform="translate(1036.346 388.549)" fill="none" stroke="#276499" stroke-width="1"/>
    <path id="Trazado_197563" data-name="Trazado 197563" d="M294.448,467.095a22.608,22.608,0,0,0-1.4-7.755l6.179-2.276a29.209,29.209,0,0,0-5.123-8.788l-5.035,4.259a22.882,22.882,0,0,0-6.056-5.052l3.283-5.719a29.106,29.106,0,0,0-9.58-3.451L275.6,444.8a22.438,22.438,0,0,0-7.889.024l-1.155-6.485A29.071,29.071,0,0,0,257,441.852l3.316,5.7a22.9,22.9,0,0,0-6.027,5.085l-5.058-4.227a29.186,29.186,0,0,0-5.073,8.82l6.194,2.24A22.611,22.611,0,0,0,249,467.194c0,.015,0,.03,0,.046l-6.58.013a29.221,29.221,0,0,0,1.779,10.016L250.381,475a22.734,22.734,0,0,0,3.965,6.813l-5.042,4.248a29.3,29.3,0,0,0,7.794,6.526l3.295-5.711a22.562,22.562,0,0,0,7.409,2.693l-1.13,6.489a29.54,29.54,0,0,0,5.051.435h.011a29.461,29.461,0,0,0,5.1-.445l-1.143-6.487a22.569,22.569,0,0,0,7.4-2.706l3.306,5.705a29.315,29.315,0,0,0,7.781-6.54l-5.049-4.239a22.732,22.732,0,0,0,3.953-6.823l6.188,2.251a29.278,29.278,0,0,0,1.76-10.065v-.055ZM271.724,453a14.208,14.208,0,1,1-14.209,14.209A14.225,14.225,0,0,1,271.724,453" transform="translate(806.359 -36.035)" fill="#fff"/>
  </g>
</svg>
