<svg id="Grupo_157248" data-name="Grupo 157248" xmlns="http://www.w3.org/2000/svg" xmlns:xlink="http://www.w3.org/1999/xlink" width="491.333" height="325.783" viewBox="0 0 491.333 325.783">
  <defs>
    <clipPath id="clip-path">
      <rect id="Rectángulo_46814" data-name="Rectángulo 46814" width="491.333" height="325.783" fill="none"/>
    </clipPath>
    <clipPath id="clip-path-3">
      <rect id="Rectángulo_46752" data-name="Rectángulo 46752" width="9.823" height="10.641" fill="none"/>
    </clipPath>
    <clipPath id="clip-path-8">
      <rect id="Rectángulo_46764" data-name="Rectángulo 46764" width="54.553" height="3.506" fill="none"/>
    </clipPath>
    <clipPath id="clip-path-9">
      <rect id="Rectángulo_46766" data-name="Rectángulo 46766" width="23.028" height="3.506" fill="none"/>
    </clipPath>
    <clipPath id="clip-path-10">
      <rect id="Rectángulo_46768" data-name="Rectángulo 46768" width="9.339" height="3.505" fill="none"/>
    </clipPath>
    <clipPath id="clip-path-11">
      <rect id="Rectángulo_46770" data-name="Rectángulo 46770" width="40.322" height="3.506" fill="none"/>
    </clipPath>
    <clipPath id="clip-path-12">
      <rect id="Rectángulo_46772" data-name="Rectángulo 46772" width="36.562" height="3.505" fill="none"/>
    </clipPath>
    <clipPath id="clip-path-13">
      <rect id="Rectángulo_46773" data-name="Rectángulo 46773" width="41.59" height="49.082" fill="none"/>
    </clipPath>
    <clipPath id="clip-path-14">
      <rect id="Rectángulo_46774" data-name="Rectángulo 46774" width="25.401" height="28.083" fill="none"/>
    </clipPath>
  </defs>
  <g id="Grupo_157247" data-name="Grupo 157247" clip-path="url(#clip-path)">
    <path id="Trazado_197525" data-name="Trazado 197525" d="M27.411,147.82H22.164l4.575-10.642h5.247Z" transform="translate(-9.006 -55.74)" fill="#34a3ed"/>
    <path id="Trazado_197526" data-name="Trazado 197526" d="M40.232,147.82H34.984l4.576-10.642h5.247Z" transform="translate(-14.215 -55.74)" fill="#34a3ed"/>
    <path id="Trazado_197527" data-name="Trazado 197527" d="M53.052,147.82H47.8l4.575-10.642h5.248Z" transform="translate(-19.424 -55.74)" fill="#34a3ed"/>
    <g id="Grupo_157215" data-name="Grupo 157215">
      <g id="Grupo_157214" data-name="Grupo 157214" clip-path="url(#clip-path)">
        <g id="Grupo_157204" data-name="Grupo 157204" transform="translate(35.991 81.439)" opacity="0.4">
          <g id="Grupo_157203" data-name="Grupo 157203">
            <g id="Grupo_157202" data-name="Grupo 157202" clip-path="url(#clip-path-3)">
              <path id="Trazado_197528" data-name="Trazado 197528" d="M65.872,147.82H60.624L65.2,137.179h5.247Z" transform="translate(-60.624 -137.179)" fill="#34a3ed"/>
            </g>
          </g>
        </g>
        <g id="Grupo_157207" data-name="Grupo 157207" transform="translate(43.602 81.439)" opacity="0.4">
          <g id="Grupo_157206" data-name="Grupo 157206">
            <g id="Grupo_157205" data-name="Grupo 157205" clip-path="url(#clip-path-3)">
              <path id="Trazado_197529" data-name="Trazado 197529" d="M78.693,147.82H73.445l4.575-10.642h5.248Z" transform="translate(-73.445 -137.179)" fill="#34a3ed"/>
            </g>
          </g>
        </g>
        <g id="Grupo_157210" data-name="Grupo 157210" transform="translate(51.213 81.439)" opacity="0.4">
          <g id="Grupo_157209" data-name="Grupo 157209">
            <g id="Grupo_157208" data-name="Grupo 157208" clip-path="url(#clip-path-3)">
              <path id="Trazado_197530" data-name="Trazado 197530" d="M91.513,147.82H86.265l4.575-10.642h5.247Z" transform="translate(-86.265 -137.179)" fill="#34a3ed"/>
            </g>
          </g>
        </g>
        <g id="Grupo_157213" data-name="Grupo 157213" transform="translate(58.824 81.439)" opacity="0.4">
          <g id="Grupo_157212" data-name="Grupo 157212">
            <g id="Grupo_157211" data-name="Grupo 157211" clip-path="url(#clip-path-3)">
              <path id="Trazado_197531" data-name="Trazado 197531" d="M104.333,147.82H99.086l4.575-10.642h5.248Z" transform="translate(-99.086 -137.179)" fill="#34a3ed"/>
            </g>
          </g>
        </g>
        <path id="Rectángulo_46756" data-name="Rectángulo 46756" d="M7.4,0H23.072a7.4,7.4,0,0,1,7.4,7.4v9.846a7.4,7.4,0,0,1-7.4,7.4H7.4a7.4,7.4,0,0,1-7.4-7.4V7.4A7.4,7.4,0,0,1,7.4,0Z" transform="translate(159.992 92.967)" fill="none" stroke="#34a3ed" stroke-miterlimit="10" stroke-width="1"/>
        <rect id="Rectángulo_46757" data-name="Rectángulo 46757" width="8.64" height="2.295" transform="translate(170.906 104.137)" fill="#34a3ed"/>
        <rect id="Rectángulo_46758" data-name="Rectángulo 46758" width="2.295" height="8.639" transform="translate(174.078 100.965)" fill="#34a3ed"/>
        <path id="Trazado_197532" data-name="Trazado 197532" d="M146.876,145.836v-1.391h-2.008a2.894,2.894,0,0,0-.337-.812l1.421-1.421-.984-.984-1.421,1.421a2.883,2.883,0,0,0-.811-.337V140.3h-1.392v2.009a2.9,2.9,0,0,0-.811.337l-1.421-1.421-.984.984,1.421,1.421a2.881,2.881,0,0,0-.337.811H137.2v1.392h2.009a2.874,2.874,0,0,0,.337.811l-1.421,1.421.984.984,1.421-1.421a2.868,2.868,0,0,0,.811.337v2.008h1.391v-2.008a2.921,2.921,0,0,0,.812-.337l1.421,1.421.984-.984-1.421-1.421a2.9,2.9,0,0,0,.338-.812Zm-4.835.629a1.325,1.325,0,1,1,1.324-1.325,1.326,1.326,0,0,1-1.324,1.325" transform="translate(-55.75 -57.01)" fill="#34a3ed"/>
        <path id="Trazado_197533" data-name="Trazado 197533" d="M170.355,176.489H71.29a6.777,6.777,0,0,0-1.624.2l-.265-1.108-2.633,2.635a6.7,6.7,0,0,0-.559.559l-.059.059v.005a6.774,6.774,0,0,0-1.667,4.453V354.958a6.805,6.805,0,0,0,6.806,6.805h99.065a6.8,6.8,0,0,0,6.806-6.805V183.3a6.806,6.806,0,0,0-6.806-6.806" transform="translate(-26.202 -71.345)" fill="#2982bd"/>
        <path id="Rectángulo_46759" data-name="Rectángulo 46759" d="M11.464,0h89.749a11.464,11.464,0,0,1,11.464,11.464V173.81a11.464,11.464,0,0,1-11.464,11.464H11.465A11.465,11.465,0,0,1,0,173.809V11.464A11.464,11.464,0,0,1,11.464,0Z" transform="translate(40.903 102.524)" fill="#34a3ed"/>
        <path id="Trazado_197534" data-name="Trazado 197534" d="M169.373,191.682a1.463,1.463,0,0,1-1.463,1.463H130.581a1.463,1.463,0,1,1,0-2.925H167.91a1.463,1.463,0,0,1,1.463,1.462" transform="translate(-52.465 -77.292)" fill="#fff"/>
        <path id="Trazado_197535" data-name="Trazado 197535" d="M211.555,190.926a2.568,2.568,0,1,1-2.568-2.568,2.568,2.568,0,0,1,2.568,2.568" transform="translate(-83.874 -76.536)" fill="#fff"/>
        <path id="Rectángulo_46760" data-name="Rectángulo 46760" d="M9.921,0h60A9.922,9.922,0,0,1,79.84,9.922V28.139a9.922,9.922,0,0,1-9.922,9.922h-60A9.921,9.921,0,0,1,0,28.14V9.921A9.921,9.921,0,0,1,9.921,0Z" transform="translate(0 133.297)" fill="#ca9834"/>
        <rect id="Rectángulo_46761" data-name="Rectángulo 46761" width="79.84" height="38.061" rx="9.921" transform="translate(1.965 131.332)" fill="#fdbe41"/>
      </g>
    </g>
    <path id="Trazado_197536" data-name="Trazado 197536" d="M45.085,242.4,38,244.827l7.082,2.43v3.973l-11.92-4.324v-4.16l11.92-4.324Zm12.738-9.068H62.5l-7.713,22.016H50.11Zm21.386,9.419v4.16l-11.92,4.324v-3.973l7.081-2.43-7.081-2.43v-3.973Z" transform="translate(-13.476 -94.808)" fill="#1d1d1b"/>
    <g id="Grupo_157238" data-name="Grupo 157238">
      <g id="Grupo_157237" data-name="Grupo 157237" clip-path="url(#clip-path)">
        <g id="Grupo_157218" data-name="Grupo 157218" transform="translate(91.749 129.593)" opacity="0.4" style="mix-blend-mode: overlay;isolation: isolate">
          <g id="Grupo_157217" data-name="Grupo 157217">
            <g id="Grupo_157216" data-name="Grupo 157216" clip-path="url(#clip-path-8)">
              <rect id="Rectángulo_46763" data-name="Rectángulo 46763" width="54.553" height="3.506" transform="translate(0)" fill="#fff"/>
            </g>
          </g>
        </g>
        <g id="Grupo_157221" data-name="Grupo 157221" transform="translate(123.274 136.066)" opacity="0.4" style="mix-blend-mode: overlay;isolation: isolate">
          <g id="Grupo_157220" data-name="Grupo 157220">
            <g id="Grupo_157219" data-name="Grupo 157219" clip-path="url(#clip-path-9)">
              <rect id="Rectángulo_46765" data-name="Rectángulo 46765" width="23.028" height="3.506" transform="translate(0 0.001)" fill="#fff"/>
            </g>
          </g>
        </g>
        <g id="Grupo_157224" data-name="Grupo 157224" transform="translate(136.963 153.055)" opacity="0.4" style="mix-blend-mode: overlay;isolation: isolate">
          <g id="Grupo_157223" data-name="Grupo 157223">
            <g id="Grupo_157222" data-name="Grupo 157222" clip-path="url(#clip-path-10)">
              <rect id="Rectángulo_46767" data-name="Rectángulo 46767" width="9.339" height="3.505" fill="#fff"/>
            </g>
          </g>
        </g>
        <g id="Grupo_157227" data-name="Grupo 157227" transform="translate(105.98 143.142)" opacity="0.4" style="mix-blend-mode: overlay;isolation: isolate">
          <g id="Grupo_157226" data-name="Grupo 157226">
            <g id="Grupo_157225" data-name="Grupo 157225" clip-path="url(#clip-path-11)">
              <rect id="Rectángulo_46769" data-name="Rectángulo 46769" width="40.322" height="3.506" fill="#fff"/>
            </g>
          </g>
        </g>
        <g id="Grupo_157230" data-name="Grupo 157230" transform="translate(94.174 153.055)" opacity="0.4" style="mix-blend-mode: overlay;isolation: isolate">
          <g id="Grupo_157229" data-name="Grupo 157229">
            <g id="Grupo_157228" data-name="Grupo 157228" clip-path="url(#clip-path-12)">
              <rect id="Rectángulo_46771" data-name="Rectángulo 46771" width="36.562" height="3.505" fill="#fff"/>
            </g>
          </g>
        </g>
        <g id="Grupo_157233" data-name="Grupo 157233" transform="translate(65.674 167.07)" opacity="0.4" style="mix-blend-mode: multiply;isolation: isolate">
          <g id="Grupo_157232" data-name="Grupo 157232">
            <g id="Grupo_157231" data-name="Grupo 157231" clip-path="url(#clip-path-13)">
              <path id="Trazado_197537" data-name="Trazado 197537" d="M151.838,281.419v24.869H112.622V330.5" transform="translate(-111.435 -281.419)" fill="none" stroke="#402083" stroke-miterlimit="10" stroke-width="4"/>
            </g>
          </g>
        </g>
        <g id="Grupo_157236" data-name="Grupo 157236" transform="translate(93.97 225.314)" opacity="0.4" style="mix-blend-mode: multiply;isolation: isolate">
          <g id="Grupo_157235" data-name="Grupo 157235">
            <g id="Grupo_157234" data-name="Grupo 157234" clip-path="url(#clip-path-14)">
              <path id="Trazado_197538" data-name="Trazado 197538" d="M182.5,408.424v-26.9H158.286" transform="translate(-158.286 -380.34)" fill="none" stroke="#402083" stroke-miterlimit="10" stroke-width="4"/>
            </g>
          </g>
        </g>
        <path id="Rectángulo_46775" data-name="Rectángulo 46775" d="M9.921,0H60.748a9.921,9.921,0,0,1,9.921,9.921V28.14a9.921,9.921,0,0,1-9.921,9.921H9.922A9.922,9.922,0,0,1,0,28.139V9.921A9.921,9.921,0,0,1,9.921,0Z" transform="translate(20.112 215.528)" fill="#173c5c"/>
        <path id="Rectángulo_46776" data-name="Rectángulo 46776" d="M9.921,0H60.748a9.921,9.921,0,0,1,9.921,9.921V28.14a9.921,9.921,0,0,1-9.921,9.921H9.922A9.922,9.922,0,0,1,0,28.139V9.921A9.921,9.921,0,0,1,9.921,0Z" transform="translate(22.076 213.563)" fill="#1f507a"/>
        <path id="Rectángulo_46777" data-name="Rectángulo 46777" d="M9.921,0H60.748a9.921,9.921,0,0,1,9.921,9.921V28.14a9.921,9.921,0,0,1-9.921,9.921H9.922A9.922,9.922,0,0,1,0,28.139V9.921A9.921,9.921,0,0,1,9.921,0Z" transform="translate(22.076 213.563)" fill="none" stroke="#276499" stroke-width="1"/>
      </g>
    </g>
    <text id="C_" data-name="C++" transform="translate(35.965 238.091)" fill="#fff" font-size="18" font-family="Montserrat-Black, Montserrat" font-weight="800"><tspan x="0" y="0" letter-spacing="0.19em">C</tspan><tspan y="0" letter-spacing="0.21em">+</tspan><tspan y="0">+</tspan></text>
    <g id="Grupo_157240" data-name="Grupo 157240">
      <g id="Grupo_157239" data-name="Grupo 157239" clip-path="url(#clip-path)">
        <rect id="Rectángulo_46779" data-name="Rectángulo 46779" width="1.336" height="2.262" transform="translate(131.063 213.669)" fill="#fff"/>
        <rect id="Rectángulo_46780" data-name="Rectángulo 46780" width="1.336" height="2.262" transform="translate(131.063 209.611)" fill="#fff"/>
        <rect id="Rectángulo_46781" data-name="Rectángulo 46781" width="1.336" height="2.262" transform="translate(131.063 205.567)" fill="#fff"/>
        <rect id="Rectángulo_46782" data-name="Rectángulo 46782" width="1.336" height="2.262" transform="translate(131.063 225.858)" fill="#fff"/>
        <rect id="Rectángulo_46783" data-name="Rectángulo 46783" width="1.336" height="2.262" transform="translate(131.063 221.8)" fill="#fff"/>
        <rect id="Rectángulo_46784" data-name="Rectángulo 46784" width="1.336" height="2.262" transform="translate(131.063 217.755)" fill="#fff"/>
        <rect id="Rectángulo_46785" data-name="Rectángulo 46785" width="1.336" height="2.262" transform="translate(131.063 238.046)" fill="#fff"/>
        <rect id="Rectángulo_46786" data-name="Rectángulo 46786" width="1.336" height="2.262" transform="translate(131.063 233.988)" fill="#fff"/>
        <rect id="Rectángulo_46787" data-name="Rectángulo 46787" width="1.336" height="2.262" transform="translate(131.063 229.944)" fill="#fff"/>
        <rect id="Rectángulo_46788" data-name="Rectángulo 46788" width="1.336" height="2.262" transform="translate(131.063 250.235)" fill="#fff"/>
        <rect id="Rectángulo_46789" data-name="Rectángulo 46789" width="1.336" height="2.262" transform="translate(131.063 246.177)" fill="#fff"/>
        <rect id="Rectángulo_46790" data-name="Rectángulo 46790" width="1.336" height="2.262" transform="translate(131.063 242.132)" fill="#fff"/>
        <path id="Rectángulo_46791" data-name="Rectángulo 46791" d="M9.921,0h60a9.92,9.92,0,0,1,9.92,9.92V28.14a9.921,9.921,0,0,1-9.921,9.921h-60A9.921,9.921,0,0,1,0,28.14V9.921A9.921,9.921,0,0,1,9.921,0Z" transform="translate(121.877 165.997)" fill="#be2057"/>
        <path id="Rectángulo_46792" data-name="Rectángulo 46792" d="M9.921,0h60A9.922,9.922,0,0,1,79.84,9.922V28.14a9.921,9.921,0,0,1-9.921,9.921h-60A9.921,9.921,0,0,1,0,28.14V9.921A9.921,9.921,0,0,1,9.921,0Z" transform="translate(123.841 164.032)" fill="#ee296d"/>
      </g>
    </g>
    <text id="JAVA" transform="translate(136.259 186.537)" fill="#fff" font-size="14" font-family="Montserrat-Black, Montserrat" font-weight="800"><tspan x="0" y="0" letter-spacing="0.185em">J</tspan><tspan y="0" letter-spacing="0.159em">A</tspan><tspan y="0" letter-spacing="0.16em">V</tspan><tspan y="0">A</tspan></text>
    <g id="Grupo_157242" data-name="Grupo 157242">
      <g id="Grupo_157241" data-name="Grupo 157241" clip-path="url(#clip-path)">
        <rect id="Rectángulo_46794" data-name="Rectángulo 46794" width="1.992" height="1.336" transform="translate(68.336 185.518)" fill="#fff"/>
        <rect id="Rectángulo_46795" data-name="Rectángulo 46795" width="1.992" height="1.336" transform="translate(64.763 185.518)" fill="#fff"/>
        <rect id="Rectángulo_46796" data-name="Rectángulo 46796" width="1.992" height="1.336" transform="translate(61.202 185.518)" fill="#fff"/>
        <rect id="Rectángulo_46797" data-name="Rectángulo 46797" width="1.992" height="1.336" transform="translate(79.067 185.518)" fill="#fff"/>
        <rect id="Rectángulo_46798" data-name="Rectángulo 46798" width="1.992" height="1.336" transform="translate(75.494 185.518)" fill="#fff"/>
        <rect id="Rectángulo_46799" data-name="Rectángulo 46799" width="1.992" height="1.336" transform="translate(71.933 185.518)" fill="#fff"/>
        <rect id="Rectángulo_46800" data-name="Rectángulo 46800" width="1.992" height="1.336" transform="translate(89.798 185.518)" fill="#fff"/>
        <rect id="Rectángulo_46801" data-name="Rectángulo 46801" width="1.992" height="1.336" transform="translate(86.225 185.518)" fill="#fff"/>
        <rect id="Rectángulo_46802" data-name="Rectángulo 46802" width="1.992" height="1.336" transform="translate(82.664 185.518)" fill="#fff"/>
        <rect id="Rectángulo_46803" data-name="Rectángulo 46803" width="1.336" height="2.429" transform="translate(60.572 189.578)" fill="#fff"/>
        <rect id="Rectángulo_46804" data-name="Rectángulo 46804" width="1.336" height="2.429" transform="translate(60.572 193.935)" fill="#fff"/>
        <rect id="Rectángulo_46805" data-name="Rectángulo 46805" width="1.336" height="2.429" transform="translate(60.572 198.278)" fill="#fff"/>
        <rect id="Rectángulo_46806" data-name="Rectángulo 46806" width="81.37" height="12.329" transform="translate(58.409 259.183)" fill="#b8dff9"/>
      </g>
    </g>
    <text id="CONNECTED" transform="translate(68.174 265.898)" fill="#1f507a" font-size="5" font-family="Montserrat-ExtraBold, Montserrat" font-weight="800"><tspan x="0" y="0" letter-spacing="0.185em">C</tspan><tspan y="0" letter-spacing="0.199em">O</tspan><tspan y="0" letter-spacing="0.2em">N</tspan><tspan y="0" letter-spacing="0.199em">NE</tspan><tspan y="0" letter-spacing="0.194em">C</tspan><tspan y="0" letter-spacing="0.2em">T</tspan><tspan y="0" letter-spacing="0.199em">E</tspan><tspan y="0">D</tspan></text>
    <g id="Grupo_157244" data-name="Grupo 157244">
      <g id="Grupo_157243" data-name="Grupo 157243" clip-path="url(#clip-path)">
        <path id="Trazado_197539" data-name="Trazado 197539" d="M118.172,447.885a2.793,2.793,0,0,0,2.271-1l-.95-.86a1.564,1.564,0,0,1-1.246.619,1.51,1.51,0,0,1,0-3.018,1.562,1.562,0,0,1,1.246.619l.95-.86a2.8,2.8,0,0,0-2.271-1,2.751,2.751,0,1,0,0,5.493Z" transform="translate(-46.836 -179.757)" fill="none" stroke="#276499" stroke-width="1"/>
        <path id="Trazado_197540" data-name="Trazado 197540" d="M129.933,446.648a1.512,1.512,0,1,1,1.426-1.509A1.414,1.414,0,0,1,129.933,446.648Zm0,1.237A2.753,2.753,0,1,0,127,445.139,2.762,2.762,0,0,0,129.933,447.885Z" transform="translate(-51.603 -179.757)" fill="none" stroke="#276499" stroke-width="1"/>
        <path id="Trazado_197541" data-name="Trazado 197541" d="M144.311,442.571v2.814l-2.331-2.814h-1.23v5.281h1.464v-2.815l2.332,2.815h1.229v-5.281Z" transform="translate(-57.191 -179.83)" fill="none" stroke="#276499" stroke-width="1"/>
        <path id="Trazado_197542" data-name="Trazado 197542" d="M157.1,442.571v2.814l-2.332-2.814h-1.229v5.281H155v-2.815l2.332,2.815h1.229v-5.281Z" transform="translate(-62.386 -179.83)" fill="none" stroke="#276499" stroke-width="1"/>
        <path id="Trazado_197543" data-name="Trazado 197543" d="M167.8,446.7v-.966h2.347v-1.117H167.8v-.89h2.663v-1.154h-4.142v5.281h4.24V446.7Z" transform="translate(-67.582 -179.83)" fill="none" stroke="#276499" stroke-width="1"/>
        <path id="Trazado_197544" data-name="Trazado 197544" d="M179.84,447.885a2.792,2.792,0,0,0,2.271-1l-.95-.86a1.564,1.564,0,0,1-1.245.619,1.51,1.51,0,0,1,0-3.018,1.562,1.562,0,0,1,1.245.619l.95-.86a2.794,2.794,0,0,0-2.271-1,2.751,2.751,0,1,0,0,5.493Z" transform="translate(-71.894 -179.757)" fill="none" stroke="#276499" stroke-width="1"/>
        <path id="Trazado_197545" data-name="Trazado 197545" d="M190.021,447.852h1.494v-4.1h1.614v-1.184H188.4v1.184h1.622Z" transform="translate(-76.552 -179.83)" fill="none" stroke="#276499" stroke-width="1"/>
        <path id="Trazado_197546" data-name="Trazado 197546" d="M201.329,446.7v-.966h2.347v-1.117h-2.347v-.89h2.663v-1.154H199.85v5.281h4.24V446.7Z" transform="translate(-81.205 -179.83)" fill="none" stroke="#276499" stroke-width="1"/>
        <path id="Trazado_197547" data-name="Trazado 197547" d="M212.427,446.66v-2.9h.943a1.45,1.45,0,1,1,0,2.9Zm-1.494,1.192h2.5a2.657,2.657,0,1,0,0-5.281h-2.5Z" transform="translate(-85.708 -179.83)" fill="none" stroke="#276499" stroke-width="1"/>
      </g>
    </g>
    <text id="PYTHON" transform="translate(105.98 90.362)" fill="#34a3ed" font-size="6" font-family="Montserrat-Black, Montserrat" font-weight="800"><tspan x="0" y="0" letter-spacing="0.189em">P</tspan><tspan y="0" letter-spacing="0.18em">Y</tspan><tspan y="0" letter-spacing="0.2em">THO</tspan><tspan y="0">N</tspan></text>
    <g id="Grupo_157246" data-name="Grupo 157246">
      <g id="Grupo_157245" data-name="Grupo 157245" clip-path="url(#clip-path)">
        <path id="Trazado_197548" data-name="Trazado 197548" d="M384.042,70.653c0,1.807-1.038,3.271-2.319,3.271h-71.44c-1.281,0-2.319-1.465-2.319-3.271V3.271C307.963,1.465,309,0,310.282,0h71.44c1.281,0,2.319,1.465,2.319,3.271Z" transform="translate(-125.135 0)" fill="#ee296d"/>
        <path id="Trazado_197549" data-name="Trazado 197549" d="M382.608,66.142H328.977l16.541-40.1L358.048,50.1l7.518-7.017Z" transform="translate(-133.673 -10.582)" fill="none" stroke="#fff" stroke-miterlimit="10" stroke-width="3.573"/>
        <circle id="Elipse_6071" data-name="Elipse 6071" cx="6.767" cy="6.767" r="6.767" transform="translate(223.864 21.011) rotate(-58.283)" fill="none" stroke="#fff" stroke-miterlimit="10" stroke-width="3.573"/>
        <rect id="Rectángulo_46811" data-name="Rectángulo 46811" width="77.986" height="60.496" rx="4.829" transform="translate(362.954 74.553)" fill="#ee296d"/>
        <path id="Trazado_197555" data-name="Trazado 197555" d="M639.473,219.754l-14.335,14.335V220.012Z" transform="translate(-254.012 -89.293)" fill="#ee296d"/>
        <rect id="Rectángulo_46812" data-name="Rectángulo 46812" width="20.07" height="20.07" transform="translate(414.562 81.434)" fill="#fff"/>
        <path id="Trazado_197556" data-name="Trazado 197556" d="M622.481,139.713a1.577,1.577,0,0,0,1.577,1.577H661.9a1.577,1.577,0,0,0,0-3.154H624.058a1.577,1.577,0,0,0-1.577,1.577" transform="translate(-252.933 -56.129)" fill="#fff"/>
        <path id="Trazado_197557" data-name="Trazado 197557" d="M622.481,153.477a1.577,1.577,0,0,0,1.577,1.577H661.9a1.577,1.577,0,1,0,0-3.154H624.058a1.577,1.577,0,0,0-1.577,1.577" transform="translate(-252.933 -61.722)" fill="#fff"/>
        <path id="Trazado_197558" data-name="Trazado 197558" d="M622.481,167.241a1.577,1.577,0,0,0,1.577,1.577H661.9a1.577,1.577,0,0,0,0-3.154H624.058a1.577,1.577,0,0,0-1.577,1.577" transform="translate(-252.933 -67.314)" fill="#fff"/>
        <path id="Trazado_197559" data-name="Trazado 197559" d="M622.481,181.247a1.577,1.577,0,0,0,1.577,1.577h62.36a1.577,1.577,0,0,0,0-3.154h-62.36a1.577,1.577,0,0,0-1.577,1.577" transform="translate(-252.933 -73.005)" fill="#fff"/>
        <path id="Trazado_197560" data-name="Trazado 197560" d="M622.481,195.011a1.577,1.577,0,0,0,1.577,1.577h62.36a1.577,1.577,0,0,0,0-3.154h-62.36a1.577,1.577,0,0,0-1.577,1.577" transform="translate(-252.933 -78.598)" fill="#fff"/>
        <path id="Trazado_197561" data-name="Trazado 197561" d="M622.481,208.775a1.577,1.577,0,0,0,1.577,1.577h62.36a1.577,1.577,0,0,0,0-3.154h-62.36a1.577,1.577,0,0,0-1.577,1.577" transform="translate(-252.933 -84.191)" fill="#fff"/>
      </g>
    </g>
  </g>
</svg>
