<svg xmlns="http://www.w3.org/2000/svg" width="41.181" height="132.423" viewBox="0 0 41.181 132.423">
  <g id="Grupo_172688" data-name="Grupo 172688" transform="translate(0 0)">
    <g id="Grupo_152551" data-name="Grupo 152551" transform="translate(0 132.424) rotate(-90)">
      <rect id="Rectángulo_45220" data-name="Rectángulo 45220" width="95.636" height="28.478" transform="translate(132.423 28.478) rotate(180)" fill="#34a3ed"/>
      <g id="Grupo_152556" data-name="Grupo 152556" transform="translate(0 15.775)">
        <rect id="Rectángulo_45221" data-name="Rectángulo 45221" width="4.839" height="4.839" transform="translate(102.834 20.567)" fill="#12263f"/>
        <rect id="Rectángulo_45222" data-name="Rectángulo 45222" width="4.839" height="4.839" transform="translate(92.551 20.567)" fill="#12263f"/>
        <rect id="Rectángulo_45223" data-name="Rectángulo 45223" width="4.839" height="4.839" transform="translate(82.267 20.567)" fill="#12263f"/>
        <rect id="Rectángulo_45224" data-name="Rectángulo 45224" width="4.839" height="4.839" transform="translate(71.984 20.567)" fill="#12263f"/>
        <rect id="Rectángulo_45225" data-name="Rectángulo 45225" width="4.839" height="4.839" transform="translate(61.701 20.567)" fill="#12263f"/>
        <rect id="Rectángulo_45226" data-name="Rectángulo 45226" width="4.839" height="4.839" transform="translate(51.417 20.567)" fill="#12263f"/>
        <rect id="Rectángulo_45227" data-name="Rectángulo 45227" width="4.839" height="4.839" transform="translate(41.134 20.567)" fill="#12263f"/>
        <rect id="Rectángulo_45228" data-name="Rectángulo 45228" width="4.839" height="4.839" transform="translate(30.85 20.567)" fill="#12263f"/>
        <rect id="Rectángulo_45229" data-name="Rectángulo 45229" width="4.839" height="4.839" transform="translate(20.567 20.567)" fill="#12263f"/>
        <rect id="Rectángulo_45230" data-name="Rectángulo 45230" width="4.839" height="4.839" transform="translate(10.283 20.567)" fill="#12263f"/>
        <rect id="Rectángulo_45231" data-name="Rectángulo 45231" width="4.839" height="4.839" transform="translate(0 20.567)" fill="#12263f"/>
        <rect id="Rectángulo_45232" data-name="Rectángulo 45232" width="4.839" height="4.839" transform="translate(102.834 10.283)" fill="#12263f"/>
        <rect id="Rectángulo_45233" data-name="Rectángulo 45233" width="4.839" height="4.839" transform="translate(92.551 10.283)" fill="#12263f"/>
        <rect id="Rectángulo_45234" data-name="Rectángulo 45234" width="4.839" height="4.839" transform="translate(82.267 10.283)" fill="#12263f"/>
        <rect id="Rectángulo_45235" data-name="Rectángulo 45235" width="4.839" height="4.839" transform="translate(71.984 10.283)" fill="#12263f"/>
        <rect id="Rectángulo_45236" data-name="Rectángulo 45236" width="4.839" height="4.839" transform="translate(61.701 10.283)" fill="#12263f"/>
        <rect id="Rectángulo_45237" data-name="Rectángulo 45237" width="4.839" height="4.839" transform="translate(51.417 10.283)" fill="#12263f"/>
        <rect id="Rectángulo_45238" data-name="Rectángulo 45238" width="4.839" height="4.839" transform="translate(41.134 10.283)" fill="#12263f"/>
        <rect id="Rectángulo_45239" data-name="Rectángulo 45239" width="4.839" height="4.839" transform="translate(30.85 10.283)" fill="#12263f"/>
        <rect id="Rectángulo_45240" data-name="Rectángulo 45240" width="4.839" height="4.839" transform="translate(20.567 10.283)" fill="#12263f"/>
        <rect id="Rectángulo_45241" data-name="Rectángulo 45241" width="4.839" height="4.839" transform="translate(10.283 10.283)" fill="#12263f"/>
        <rect id="Rectángulo_45242" data-name="Rectángulo 45242" width="4.839" height="4.839" transform="translate(0 10.283)" fill="#12263f"/>
        <rect id="Rectángulo_45243" data-name="Rectángulo 45243" width="4.839" height="4.839" transform="translate(102.834)" fill="#12263f"/>
        <rect id="Rectángulo_45244" data-name="Rectángulo 45244" width="4.839" height="4.839" transform="translate(92.551)" fill="#12263f"/>
        <rect id="Rectángulo_45245" data-name="Rectángulo 45245" width="4.839" height="4.839" transform="translate(82.267)" fill="#12263f"/>
        <rect id="Rectángulo_45246" data-name="Rectángulo 45246" width="4.839" height="4.839" transform="translate(71.984)" fill="#12263f"/>
        <rect id="Rectángulo_45247" data-name="Rectángulo 45247" width="4.839" height="4.839" transform="translate(61.701)" fill="#12263f"/>
        <rect id="Rectángulo_45248" data-name="Rectángulo 45248" width="4.839" height="4.839" transform="translate(51.417)" fill="#12263f"/>
        <rect id="Rectángulo_45249" data-name="Rectángulo 45249" width="4.839" height="4.839" transform="translate(41.134)" fill="#12263f"/>
        <rect id="Rectángulo_45250" data-name="Rectángulo 45250" width="4.839" height="4.839" transform="translate(30.85)" fill="#12263f"/>
        <rect id="Rectángulo_45251" data-name="Rectángulo 45251" width="4.839" height="4.839" transform="translate(20.567)" fill="#12263f"/>
        <rect id="Rectángulo_45252" data-name="Rectángulo 45252" width="4.839" height="4.839" transform="translate(10.283)" fill="#12263f"/>
        <rect id="Rectángulo_45253" data-name="Rectángulo 45253" width="4.839" height="4.839" fill="#12263f"/>
      </g>
    </g>
  </g>
</svg>
