<svg id="Grupo_156566" data-name="Grupo 156566" xmlns="http://www.w3.org/2000/svg" width="33.494" height="107.702" viewBox="0 0 33.494 107.702">
  <g id="Grupo_152551" data-name="Grupo 152551" transform="translate(0 107.702) rotate(-90)">
    <rect id="Rectángulo_45220" data-name="Rectángulo 45220" width="77.783" height="23.162" transform="translate(107.702 23.162) rotate(180)" fill="#e8e8e8"/>
    <g id="Grupo_152556" data-name="Grupo 152556" transform="translate(0 12.83)">
      <rect id="Rectángulo_45221" data-name="Rectángulo 45221" width="3.936" height="3.936" transform="translate(83.637 16.727)" fill="#1894f6"/>
      <rect id="Rectángulo_45222" data-name="Rectángulo 45222" width="3.936" height="3.936" transform="translate(75.273 16.727)" fill="#1894f6"/>
      <rect id="Rectángulo_45223" data-name="Rectángulo 45223" width="3.936" height="3.936" transform="translate(66.909 16.727)" fill="#1894f6"/>
      <rect id="Rectángulo_45224" data-name="Rectángulo 45224" width="3.936" height="3.936" transform="translate(58.546 16.727)" fill="#1894f6"/>
      <rect id="Rectángulo_45225" data-name="Rectángulo 45225" width="3.936" height="3.936" transform="translate(50.182 16.727)" fill="#1894f6"/>
      <rect id="Rectángulo_45226" data-name="Rectángulo 45226" width="3.936" height="3.936" transform="translate(41.818 16.727)" fill="#1894f6"/>
      <rect id="Rectángulo_45227" data-name="Rectángulo 45227" width="3.936" height="3.936" transform="translate(33.455 16.727)" fill="#1894f6"/>
      <rect id="Rectángulo_45228" data-name="Rectángulo 45228" width="3.936" height="3.936" transform="translate(25.091 16.727)" fill="#1894f6"/>
      <rect id="Rectángulo_45229" data-name="Rectángulo 45229" width="3.936" height="3.936" transform="translate(16.727 16.727)" fill="#1894f6"/>
      <rect id="Rectángulo_45230" data-name="Rectángulo 45230" width="3.936" height="3.936" transform="translate(8.364 16.727)" fill="#1894f6"/>
      <rect id="Rectángulo_45231" data-name="Rectángulo 45231" width="3.936" height="3.936" transform="translate(0 16.727)" fill="#1894f6"/>
      <rect id="Rectángulo_45232" data-name="Rectángulo 45232" width="3.936" height="3.936" transform="translate(83.637 8.364)" fill="#1894f6"/>
      <rect id="Rectángulo_45233" data-name="Rectángulo 45233" width="3.936" height="3.936" transform="translate(75.273 8.364)" fill="#1894f6"/>
      <rect id="Rectángulo_45234" data-name="Rectángulo 45234" width="3.936" height="3.936" transform="translate(66.909 8.364)" fill="#1894f6"/>
      <rect id="Rectángulo_45235" data-name="Rectángulo 45235" width="3.936" height="3.936" transform="translate(58.546 8.364)" fill="#1894f6"/>
      <rect id="Rectángulo_45236" data-name="Rectángulo 45236" width="3.936" height="3.936" transform="translate(50.182 8.364)" fill="#1894f6"/>
      <rect id="Rectángulo_45237" data-name="Rectángulo 45237" width="3.936" height="3.936" transform="translate(41.818 8.364)" fill="#1894f6"/>
      <rect id="Rectángulo_45238" data-name="Rectángulo 45238" width="3.936" height="3.936" transform="translate(33.455 8.364)" fill="#1894f6"/>
      <rect id="Rectángulo_45239" data-name="Rectángulo 45239" width="3.936" height="3.936" transform="translate(25.091 8.364)" fill="#1894f6"/>
      <rect id="Rectángulo_45240" data-name="Rectángulo 45240" width="3.936" height="3.936" transform="translate(16.727 8.364)" fill="#1894f6"/>
      <rect id="Rectángulo_45241" data-name="Rectángulo 45241" width="3.936" height="3.936" transform="translate(8.364 8.364)" fill="#1894f6"/>
      <rect id="Rectángulo_45242" data-name="Rectángulo 45242" width="3.936" height="3.936" transform="translate(0 8.364)" fill="#1894f6"/>
      <rect id="Rectángulo_45243" data-name="Rectángulo 45243" width="3.936" height="3.936" transform="translate(83.637)" fill="#1894f6"/>
      <rect id="Rectángulo_45244" data-name="Rectángulo 45244" width="3.936" height="3.936" transform="translate(75.273)" fill="#1894f6"/>
      <rect id="Rectángulo_45245" data-name="Rectángulo 45245" width="3.936" height="3.936" transform="translate(66.909)" fill="#1894f6"/>
      <rect id="Rectángulo_45246" data-name="Rectángulo 45246" width="3.936" height="3.936" transform="translate(58.546)" fill="#1894f6"/>
      <rect id="Rectángulo_45247" data-name="Rectángulo 45247" width="3.936" height="3.936" transform="translate(50.182)" fill="#1894f6"/>
      <rect id="Rectángulo_45248" data-name="Rectángulo 45248" width="3.936" height="3.936" transform="translate(41.818)" fill="#1894f6"/>
      <rect id="Rectángulo_45249" data-name="Rectángulo 45249" width="3.936" height="3.936" transform="translate(33.455)" fill="#1894f6"/>
      <rect id="Rectángulo_45250" data-name="Rectángulo 45250" width="3.936" height="3.936" transform="translate(25.091)" fill="#1894f6"/>
      <rect id="Rectángulo_45251" data-name="Rectángulo 45251" width="3.936" height="3.936" transform="translate(16.727)" fill="#1894f6"/>
      <rect id="Rectángulo_45252" data-name="Rectángulo 45252" width="3.936" height="3.936" transform="translate(8.364)" fill="#1894f6"/>
      <rect id="Rectángulo_45253" data-name="Rectángulo 45253" width="3.936" height="3.936" fill="#1894f6"/>
    </g>
  </g>
</svg>
