<?xml version="1.0" encoding="utf-8"?>
<!-- Generator: Adobe Illustrator 26.3.1, SVG Export Plug-In . SVG Version: 6.00 Build 0)  -->
<svg version="1.1" xmlns="http://www.w3.org/2000/svg" xmlns:xlink="http://www.w3.org/1999/xlink" x="0px" y="0px"
	 viewBox="0 0 281.9406 64.8713" style="enable-background:new 0 0 281.9406 64.8713;" xml:space="preserve">
<g id="Capa_2">
</g>
<g id="Capa_1">
	<g>
		<rect style="fill:#BDBDBD;" width="281.9406" height="64.8713"/>
		<g>
			<g>
				<rect x="3.7871" y="3.8762" style="fill:#FFFFFF;" width="215.7921" height="57.1129"/>
				<rect x="197.9554" y="29.7178" style="fill:#FFFFFF;" width="80.198" height="31.2713"/>
			</g>
			<rect x="3.7871" y="3.2525" style="fill:#267ACE;" width="215.9109" height="2.4059"/>
			<g>
				<polygon style="fill:#F57C00;" points="14.3317,12.3416 22.2624,12.3416 22.2624,20.3911 21.3119,20.3911 19.1733,17.3317 
					17.302,17.3317 15.2525,20.3911 14.3317,20.3911 				"/>
				<rect x="11.5693" y="9.8465" style="fill:none;stroke:#F57C00;stroke-miterlimit:10;" width="13.3069" height="13.3069"/>
			</g>
			<g>
				<path style="fill:#595959;" d="M36.6094,12.0539h1.2759v5.5708c0,0.9692-0.1099,1.7388-0.3291,2.3086
					s-0.6147,1.0337-1.187,1.3911s-1.3232,0.5361-2.2529,0.5361c-0.9033,0-1.6421-0.1558-2.2163-0.4673
					c-0.5747-0.311-0.9844-0.7617-1.23-1.3516c-0.2456-0.5894-0.3682-1.3955-0.3682-2.417v-5.5708h1.2759v5.564
					c0,0.8379,0.0776,1.4551,0.2334,1.8516c0.1558,0.397,0.4233,0.7031,0.8027,0.9175c0.3789,0.2153,0.8428,0.3223,1.3906,0.3223
					c0.9385,0,1.6074-0.2124,2.0063-0.6377s0.5986-1.2432,0.5986-2.4536V12.0539z"/>
				<path style="fill:#595959;" d="M39.8579,21.696v-6.9849h1.0659v0.9932c0.5127-0.7676,1.2539-1.1514,2.2231-1.1514
					c0.4209,0,0.8076,0.0757,1.1606,0.2271s0.6172,0.3496,0.7925,0.5952s0.2983,0.5371,0.3687,0.875
					c0.0435,0.2192,0.0654,0.6025,0.0654,1.1509v4.2949h-1.1836v-4.249c0-0.4824-0.0464-0.8428-0.1382-1.082
					c-0.0923-0.2388-0.2554-0.4297-0.4902-0.5723c-0.2344-0.1421-0.5098-0.2134-0.8252-0.2134c-0.5044,0-0.9395,0.1602-1.3057,0.48
					c-0.3662,0.3203-0.5493,0.9272-0.5493,1.8218v3.8149H39.8579z"/>
				<path style="fill:#595959;" d="M49.9346,20.6369l0.1714,1.0459c-0.3335,0.0703-0.6318,0.1055-0.8945,0.1055
					c-0.4302,0-0.7632-0.0684-1-0.2041s-0.4033-0.3145-0.5-0.5361c-0.0962-0.2212-0.1445-0.687-0.1445-1.3975v-4.019h-0.8682
					v-0.9204h0.8682v-1.73l1.1772-0.7104v2.4404h1.1904v0.9204h-1.1904v4.0845c0,0.3379,0.021,0.5552,0.0625,0.6514
					c0.0415,0.0967,0.1099,0.1733,0.2041,0.23c0.0942,0.0571,0.229,0.0859,0.4043,0.0859
					C49.5469,20.6833,49.7197,20.6677,49.9346,20.6369z"/>
				<path style="fill:#595959;" d="M51.0991,13.4152v-1.3613h1.1841v1.3613H51.0991z M51.0991,21.696v-6.9849h1.1841v6.9849H51.0991
					z"/>
				<path style="fill:#595959;" d="M56.6699,20.6369l0.1714,1.0459c-0.3335,0.0703-0.6318,0.1055-0.8945,0.1055
					c-0.4302,0-0.7632-0.0684-1-0.2041s-0.4033-0.3145-0.5-0.5361c-0.0962-0.2212-0.1445-0.687-0.1445-1.3975v-4.019h-0.8682
					v-0.9204h0.8682v-1.73l1.1772-0.7104v2.4404h1.1904v0.9204h-1.1904v4.0845c0,0.3379,0.021,0.5552,0.0625,0.6514
					c0.0415,0.0967,0.1099,0.1733,0.2041,0.23c0.0942,0.0571,0.229,0.0859,0.4043,0.0859
					C56.2822,20.6833,56.4551,20.6677,56.6699,20.6369z"/>
				<path style="fill:#595959;" d="M57.8013,21.696v-9.6421h1.1836v9.6421H57.8013z"/>
				<path style="fill:#595959;" d="M65.6016,19.4465l1.2236,0.1514c-0.1929,0.7148-0.5503,1.2695-1.0723,1.6641
					s-1.1885,0.5918-1.9995,0.5918c-1.0215,0-1.8315-0.3145-2.4302-0.9438c-0.5986-0.6289-0.8979-1.5117-0.8979-2.647
					c0-1.1753,0.3027-2.0874,0.9077-2.7363s1.3901-0.9736,2.355-0.9736c0.9336,0,1.6968,0.3179,2.2886,0.9536
					c0.5918,0.6362,0.8882,1.5308,0.8882,2.6836c0,0.0703-0.0024,0.1758-0.0068,0.3159h-5.209
					c0.0435,0.7676,0.2607,1.355,0.6509,1.7627s0.877,0.6118,1.4604,0.6118c0.4341,0,0.8042-0.1143,1.1113-0.3423
					S65.4219,19.9465,65.6016,19.4465z M61.7144,17.5324h3.9004c-0.0522-0.5874-0.2017-1.0278-0.4473-1.3218
					c-0.377-0.4561-0.8657-0.6841-1.4668-0.6841c-0.5435,0-1.0005,0.1821-1.3711,0.5459S61.7539,16.923,61.7144,17.5324z"/>
				<path style="fill:#595959;" d="M72.8433,21.696v-0.8813c-0.4429,0.6929-1.0938,1.0391-1.9531,1.0391
					c-0.5571,0-1.0688-0.1533-1.5356-0.4604c-0.4673-0.3066-0.8291-0.7354-1.0854-1.2856s-0.3848-1.1826-0.3848-1.8975
					c0-0.6973,0.1162-1.3296,0.3486-1.8975s0.5811-1.0034,1.0459-1.3057c0.4644-0.3027,0.9844-0.4541,1.5586-0.4541
					c0.4209,0,0.7959,0.0889,1.1245,0.2666c0.3291,0.1777,0.5967,0.4087,0.8027,0.6938v-3.4595h1.1772v9.6421H72.8433z
					 M69.1011,18.2101c0,0.8945,0.1885,1.563,0.5654,2.0059c0.3774,0.4429,0.8223,0.6646,1.3354,0.6646
					c0.5171,0,0.957-0.2114,1.3188-0.6348c0.3613-0.4233,0.5425-1.0688,0.5425-1.937c0-0.9561-0.1841-1.6577-0.5527-2.105
					c-0.3682-0.4473-0.8218-0.6709-1.3613-0.6709c-0.5264,0-0.9658,0.2148-1.3188,0.6445
					C69.2773,16.6076,69.1011,17.2848,69.1011,18.2101z"/>
				<path style="fill:#595959;" d="M79.9336,21.696h-1.1841V14.152c-0.2852,0.272-0.6587,0.5435-1.1216,0.8154
					c-0.4624,0.272-0.8779,0.4756-1.2461,0.6118v-1.1445c0.6621-0.3115,1.2407-0.6885,1.7363-1.1313s0.8462-0.8726,1.0522-1.2891
					h0.7632V21.696z"/>
				<path style="fill:#595959;" d="M83.6299,21.696v-1.3481h1.3486v1.3481H83.6299z"/>
				<path style="fill:#595959;" d="M87.0439,13.4152v-1.3613h1.1841v1.3613H87.0439z M87.0439,21.696v-6.9849h1.1841v6.9849H87.0439
					z"/>
				<path style="fill:#595959;" d="M90.0298,24.3727v-9.6616h1.0791v0.9072c0.2539-0.355,0.5415-0.6211,0.8613-0.7988
					c0.3203-0.1777,0.708-0.2666,1.1641-0.2666c0.5967,0,1.1226,0.1538,1.5786,0.4604c0.4561,0.3071,0.8003,0.7402,1.0327,1.2993
					s0.3486,1.1719,0.3486,1.8384c0,0.7144-0.1284,1.3579-0.3848,1.9302s-0.6294,1.0107-1.1182,1.3154s-1.0029,0.457-1.5425,0.457
					c-0.3945,0-0.7485-0.083-1.062-0.25c-0.3135-0.1665-0.5713-0.377-0.7729-0.6313v3.4004H90.0298z M91.102,18.2429
					c0,0.8989,0.1821,1.5635,0.5459,1.9932s0.8047,0.6445,1.3223,0.6445c0.5259,0,0.9766-0.2227,1.3516-0.668
					c0.375-0.4448,0.5625-1.1343,0.5625-2.0684c0-0.8901-0.1836-1.5566-0.5493-1.9995c-0.3662-0.4429-0.8037-0.6641-1.3125-0.6641
					c-0.5039,0-0.9502,0.2354-1.3384,0.707C91.2964,16.6589,91.102,17.3439,91.102,18.2429z"/>
				<path style="fill:#595959;" d="M97.4687,24.3859l-0.1318-1.1113c0.2588,0.0698,0.4844,0.105,0.6777,0.105
					c0.2632,0,0.4736-0.0435,0.6313-0.1313s0.2871-0.2104,0.3882-0.3682c0.0742-0.1187,0.1948-0.4126,0.3618-0.8813
					c0.0215-0.0659,0.0566-0.1626,0.105-0.2896l-2.6504-6.998h1.2759l1.4536,4.0449c0.1885,0.5127,0.3569,1.0522,0.5063,1.6177
					c0.1357-0.5435,0.2979-1.0742,0.4868-1.5913l1.4927-4.0713h1.1841l-2.6572,7.103c-0.2852,0.7676-0.5063,1.2959-0.6641,1.5854
					c-0.2104,0.3901-0.4517,0.6763-0.7236,0.8584c-0.272,0.1816-0.5967,0.2729-0.9736,0.2729
					C98.0034,24.5309,97.749,24.4826,97.4687,24.3859z"/>
				<path style="fill:#595959;" d="M104.2563,21.696v-6.9849h1.0659v0.9932c0.5127-0.7676,1.2539-1.1514,2.2231-1.1514
					c0.4209,0,0.8076,0.0757,1.1606,0.2271s0.6172,0.3496,0.7925,0.5952s0.2983,0.5371,0.3687,0.875
					c0.0435,0.2192,0.0654,0.6025,0.0654,1.1509v4.2949h-1.1836v-4.249c0-0.4824-0.0464-0.8428-0.1382-1.082
					c-0.0923-0.2388-0.2554-0.4297-0.4902-0.5723c-0.2344-0.1421-0.5098-0.2134-0.8252-0.2134c-0.5044,0-0.9395,0.1602-1.3057,0.48
					c-0.3662,0.3203-0.5493,0.9272-0.5493,1.8218v3.8149H104.2563z"/>
				<path style="fill:#595959;" d="M112.8398,21.696h-1.0986v-9.6421h1.1841v3.4399c0.4995-0.6274,1.1377-0.9409,1.9141-0.9409
					c0.4292,0,0.8359,0.0869,1.2197,0.2598c0.3838,0.1733,0.6997,0.417,0.9473,0.7305s0.4419,0.6914,0.582,1.1343
					s0.2104,0.9165,0.2104,1.4209c0,1.1968-0.2959,2.1221-0.8877,2.7754c-0.5923,0.6533-1.3022,0.98-2.1313,0.98
					c-0.8242,0-1.4712-0.3442-1.9399-1.0327V21.696z M112.8267,18.1511c0,0.8374,0.1138,1.4424,0.3418,1.8149
					c0.3726,0.6099,0.877,0.9146,1.5127,0.9146c0.5176,0,0.9648-0.2246,1.3418-0.6743c0.377-0.4492,0.5659-1.1191,0.5659-2.0093
					c0-0.9121-0.1812-1.5854-0.543-2.0195s-0.7988-0.6509-1.312-0.6509c-0.5176,0-0.9648,0.2246-1.3418,0.6743
					C113.0151,16.6501,112.8267,17.3,112.8267,18.1511z"/>
			</g>
			<g>
				<g>
					<g>
						<g>
							<path style="fill:#595959;" d="M203.3103,17.7476l4.3203-4.3202c0.2487-0.2487,0.2487-0.6506,0-0.8993
								c-0.2487-0.2487-0.6506-0.2487-0.8993,0l-4.3203,4.3202l-4.3203-4.3202c-0.2487-0.2487-0.6506-0.2487-0.8993,0
								c-0.2487,0.2487-0.2487,0.6506,0,0.8993l4.3203,4.3202l-4.3203,4.3202c-0.2487,0.2487-0.2487,0.6506,0,0.8993
								c0.124,0.124,0.2868,0.1863,0.4496,0.1863c0.1628,0,0.3256-0.0623,0.4496-0.1863l4.3203-4.3202l4.3202,4.3202
								c0.124,0.124,0.2868,0.1863,0.4496,0.1863s0.3256-0.0623,0.4496-0.1863c0.2487-0.2487,0.2487-0.6506,0-0.8993
								L203.3103,17.7476z"/>
						</g>
					</g>
				</g>
			</g>
			<g>
				<g>
					<g>
						<rect x="17.8596" y="48.7642" style="fill:#595959;" width="5.8798" height="1.176"/>
					</g>
				</g>
				<g>
					<g>
						<polygon style="fill:#595959;" points="17.8596,51.1161 17.8596,51.7041 17.8596,52.2921 23.7394,52.2921 23.7394,51.7041 
							23.7394,51.1161 						"/>
					</g>
				</g>
				<g>
					<g>
						<path style="fill:#595959;" d="M27.1495,42.738l-2.3626-3.1466c-0.111-0.1479-0.2852-0.235-0.4702-0.235h-0.9693v0.588v0.588
							v3.7239c0,0.3247-0.2633,0.588-0.588,0.588h-5.4878c-0.3247,0-0.588-0.2633-0.588-0.588v-3.7239v-0.588v-0.588h-1.7639
							c-0.3247,0-0.588,0.2633-0.588,0.588v11.7597c0,0.3247,0.2633,0.588,0.588,0.588h1.7639v-0.588v-0.588v-0.588v-2.3519
							c0-0.3248,0.2633-0.588,0.588-0.588h7.0558c0.3247,0,0.588,0.2632,0.588,0.588v2.3519v0.588v0.588v0.588h1.7639
							c0.3247,0,0.588-0.2633,0.588-0.588V43.091C27.2673,42.9637,27.226,42.8398,27.1495,42.738z"/>
					</g>
				</g>
				<g>
					<g>
						<polygon style="fill:#595959;" points="17.8596,39.3564 17.8596,39.9444 17.8596,40.5324 17.8596,43.6683 22.1715,43.6683 
							22.1715,40.5324 22.1715,39.9444 22.1715,39.3564 						"/>
					</g>
				</g>
			</g>
			<g>
				<path style="fill:#595959;" d="M50.1725,50.6261V46.642h-3.9539v-1.6657h3.9539v-3.9539h1.6849v3.9539h3.9547v1.6657h-3.9547
					v3.9841H50.1725z"/>
			</g>
			<g>
				<g>
					<g>
						<path style="fill:#595959;" d="M89.7731,40.6546c-0.7692-1.0985-2.2985-1.388-3.3973-0.6188l-5.6494,3.9557l-2.0543-1.4386
							c0.7649-1.3206,0.4051-3.0295-0.8684-3.9212c-1.3449-0.9414-3.1978-0.6147-4.1396,0.7299
							c-0.9414,1.3447-0.6149,3.198,0.73,4.1398c0.9229,0.6462,2.0853,0.6946,3.0279,0.227l2.5161,1.7617l-2.5159,1.7615
							c-0.9426-0.4674-2.105-0.4189-3.0279,0.227c-1.3448,0.9418-1.6713,2.7949-0.73,4.1396
							c0.9418,1.3448,2.7949,1.6715,4.1396,0.7301c1.2734-0.8916,1.6331-2.6006,0.8684-3.9212l2.0543-1.4386l5.6492,3.9555
							c1.0987,0.7694,2.6281,0.4797,3.3973-0.6188l-6.9061-4.8352L89.7731,40.6546z M76.1054,42.614
							c-0.851,0-1.5409-0.6899-1.5409-1.5409c0-0.851,0.6899-1.5409,1.5409-1.5409c0.8512,0,1.5409,0.6899,1.5409,1.5409
							C77.6463,41.9241,76.9566,42.614,76.1054,42.614z M76.1054,51.4483c-0.851,0-1.5409-0.6899-1.5409-1.5409
							c0-0.851,0.6899-1.5409,1.5409-1.5409c0.8512,0,1.5409,0.6899,1.5409,1.5409C77.6463,50.7583,76.9566,51.4483,76.1054,51.4483
							z"/>
					</g>
				</g>
			</g>
			<g>
				<path style="fill:#595959;" d="M112.8573,37.6485h-8.4003c-1.0195,0-1.8481,0.8286-1.8481,1.8481v9.0724
					c0,1.0195,0.8286,1.848,1.8481,1.848h0.3359c0.2782,0,0.504-0.2258,0.504-0.504s-0.2258-0.504-0.504-0.504h-0.3359
					c-0.463,0-0.8401-0.3769-0.8401-0.84v-9.0724c0-0.463,0.377-0.8401,0.8401-0.8401h8.4003c0.463,0,0.8401,0.377,0.8401,0.8401
					v0.3359c0,0.2782,0.2258,0.504,0.504,0.504s0.504-0.2258,0.504-0.504v-0.3359
					C114.7054,38.4771,113.8768,37.6485,112.8573,37.6485z"/>
				<path style="fill:#595959;" d="M115.5455,41.6807h-7.0563c-1.0195,0-1.8481,0.8286-1.8481,1.8481v8.4003
					c0,1.0195,0.8286,1.8481,1.8481,1.8481h7.0563c1.0195,0,1.848-0.8286,1.848-1.8481v-8.4003
					C117.3935,42.5093,116.565,41.6807,115.5455,41.6807z M108.4892,52.7692c-0.463,0-0.8401-0.377-0.8401-0.8401v-8.4003
					c0-0.463,0.377-0.8401,0.8401-0.8401h7.0563c0.463,0,0.84,0.377,0.84,0.8401v8.4003c0,0.463-0.3769,0.8401-0.84,0.8401H108.4892
					z"/>
			</g>
			<rect x="197.599" y="41.7772" style="fill:#595959;" width="8.4356" height="8.4356"/>
			<polygon style="fill:#595959;" points="168.3713,40.5891 168.3713,50.5693 176.9962,45.5792 			"/>
			<polygon style="fill:#595959;" points="255.9466,42.0252 255.9466,49.8119 262.6759,45.9185 			"/>
			<polygon style="fill:#595959;" points="262.6759,42.0252 262.6759,49.8119 269.4051,45.9185 			"/>
			<g>
				<g id="Solid_00000091010554585278733920000010067543773418420653_">
					<path style="fill:#595959;" d="M237.4382,44.8735h-0.0006c-0.3404,0.0003-0.616,0.2764-0.6158,0.6168c0,0,0,0,0,0
						c-0.0023,2.6103-2.1203,4.7245-4.7307,4.7222c-0.9673-0.0009-1.9111-0.2985-2.7039-0.8528
						c-2.1339-1.4942-2.6543-4.4458-1.1602-6.5797c1.4942-2.1339,4.4459-2.6544,6.5797-1.1602
						c0.3228,0.2255,0.6162,0.4904,0.8734,0.7886h-1.7343c-0.3404,0-0.6163,0.2759-0.6163,0.6163s0.2759,0.6163,0.6163,0.6163h2.876
						c0.3404,0,0.6163-0.2759,0.6163-0.6163v-2.876c0-0.3404-0.2759-0.6163-0.6163-0.6163s-0.6163,0.2759-0.6163,0.6163v1.0263
						c-0.2163-0.2052-0.4475-0.394-0.6918-0.5649c-2.695-1.887-6.4094-1.232-8.2964,1.4629c-1.887,2.695-1.232,6.4094,1.4629,8.2964
						c0.9964,0.7018,2.1853,1.0786,3.4041,1.0789c0.351-0.0002,0.7014-0.031,1.0471-0.0921
						c2.8471-0.5023,4.9227-2.9759,4.9229-5.867C238.0542,45.1491,237.7783,44.8735,237.4382,44.8735L237.4382,44.8735z"/>
				</g>
			</g>
			<g>
				<g>
					<g>
						<path style="fill:#595959;" d="M145.875,38.8465h-1.6874c-0.1348-0.3782-0.4928-0.651-0.9166-0.651h-1.1548
							c-0.2298-0.3971-0.6562-0.651-1.1236-0.651c-0.4674,0-0.8938,0.2539-1.1236,0.651h-1.1548
							c-0.4238,0-0.7818,0.2728-0.9166,0.651h-1.6874c-0.5384,0-0.9765,0.4381-0.9765,0.9765v12.3689
							c0,0.5384,0.4381,0.9765,0.9765,0.9765h9.7649c0.5384,0,0.9765-0.4381,0.9765-0.9765V39.823
							C146.8515,39.2846,146.4134,38.8465,145.875,38.8465z M138.3886,39.172c0-0.1797,0.1458-0.3255,0.3255-0.3255h1.3619
							c0.1374,0,0.2604-0.0872,0.3066-0.2168c0.0924-0.2597,0.3379-0.4342,0.61-0.4342c0.2721,0,0.5175,0.1745,0.61,0.4342
							c0.0462,0.1302,0.1693,0.2168,0.3066,0.2168h1.3619c0.1797,0,0.3255,0.1458,0.3255,0.3255v0.3255h-5.2079V39.172z
							 M146.2005,52.1918c0,0.1797-0.1458,0.3255-0.3255,0.3255h-9.7649c-0.1797,0-0.3255-0.1458-0.3255-0.3255V39.823
							c0-0.1797,0.1458-0.3255,0.3255-0.3255h1.6275v0.3255c0,0.1797,0.1458,0.3255,0.3255,0.3255h5.8589
							c0.1797,0,0.3255-0.1458,0.3255-0.3255v-0.3255h1.6275c0.1797,0,0.3255,0.1458,0.3255,0.3255V52.1918z"/>
					</g>
				</g>
			</g>
		</g>
	</g>
</g>
</svg>
