<svg id="Grupo_172512" data-name="Grupo 172512" xmlns="http://www.w3.org/2000/svg" xmlns:xlink="http://www.w3.org/1999/xlink" width="715" height="330" viewBox="0 0 715 330">
  <defs>
    <clipPath id="clip-path">
      <rect id="Rectángulo_46332" data-name="Rectángulo 46332" width="715" height="330" rx="16" fill="#f6f6f6"/>
    </clipPath>
    <clipPath id="clip-path-2">
      <ellipse id="Elipse_4979" data-name="Elipse 4979" cx="46.914" cy="49.528" rx="46.914" ry="49.528" fill="none"/>
    </clipPath>
  </defs>
  <g id="Grupo_154673" data-name="Grupo 154673" transform="translate(0 0)">
    <path id="Trazado_196472" data-name="Trazado 196472" d="M15.974,0H697.865a15.76,15.76,0,0,1,15.974,15.536V311.687a15.76,15.76,0,0,1-15.974,15.536H15.974A15.759,15.759,0,0,1,0,311.687V15.536A15.759,15.759,0,0,1,15.974,0Z" transform="translate(0 0.238)" fill="#f6f6f6"/>
    <g id="Enmascarar_grupo_141249" data-name="Enmascarar grupo 141249" transform="translate(0 0)" opacity="0.603" clip-path="url(#clip-path)">
      <g id="Grupo_154672" data-name="Grupo 154672" transform="translate(-114.195 -55.181)">
        <path id="Trazado_174289" data-name="Trazado 174289" d="M204.353,383.022c-66.426,0-120.275,56.849-120.275,126.976s53.849,126.976,120.275,126.976S324.628,580.125,324.628,510,270.779,383.022,204.353,383.022Zm0,228.571c-53.148,0-96.234-45.486-96.234-101.6S151.2,408.4,204.353,408.4s96.234,45.486,96.234,101.6S257.5,611.593,204.353,611.593Z" transform="translate(39.622 -156.639)" fill="#e8e8e8" opacity="0.428"/>
        <path id="Trazado_174290" data-name="Trazado 174290" d="M70.716,318.273-109.857,508.907a15.194,15.194,0,0,1-22.312,0h0a17.319,17.319,0,0,1,0-23.555L48.4,294.718a15.2,15.2,0,0,1,22.312,0h0A17.319,17.319,0,0,1,70.716,318.273Z" transform="translate(136.79 -289.84)" fill="none" stroke="#8f9294" stroke-miterlimit="10" stroke-width="2" opacity="0.232"/>
        <path id="Trazado_174291" data-name="Trazado 174291" d="M66.373,409.865-71.456,555.373a11.6,11.6,0,0,1-17.03,0h0a13.219,13.219,0,0,1,0-17.98L49.342,391.885a11.6,11.6,0,0,1,17.031,0h0A13.221,13.221,0,0,1,66.373,409.865Z" transform="translate(122.807 -312.446)" fill="none" stroke="#8f9294" stroke-miterlimit="10" stroke-width="2" opacity="0.339"/>
        <g id="Grupo_124668" data-name="Grupo 124668" transform="translate(795.003 214.813)">
          <line id="Línea_1655" data-name="Línea 1655" x1="11.563" y2="12.207" fill="none" stroke="#d8d9da" stroke-miterlimit="10" stroke-width="0.78"/>
          <line id="Línea_1656" data-name="Línea 1656" x1="11.563" y2="12.207" transform="translate(5.633)" fill="none" stroke="#d8d9da" stroke-miterlimit="10" stroke-width="0.78"/>
          <line id="Línea_1657" data-name="Línea 1657" x1="11.563" y2="12.207" transform="translate(11.266)" fill="none" stroke="#d8d9da" stroke-miterlimit="10" stroke-width="0.78"/>
          <line id="Línea_1658" data-name="Línea 1658" x1="11.563" y2="12.207" transform="translate(16.899)" fill="none" stroke="#d8d9da" stroke-miterlimit="10" stroke-width="0.78"/>
          <line id="Línea_1659" data-name="Línea 1659" x1="11.563" y2="12.207" transform="translate(22.532)" fill="none" stroke="#d8d9da" stroke-miterlimit="10" stroke-width="0.78"/>
          <line id="Línea_1660" data-name="Línea 1660" x1="11.563" y2="12.207" transform="translate(28.165)" fill="none" stroke="#d8d9da" stroke-miterlimit="10" stroke-width="0.78"/>
          <line id="Línea_1661" data-name="Línea 1661" x1="11.563" y2="12.207" transform="translate(33.798)" fill="none" stroke="#d8d9da" stroke-miterlimit="10" stroke-width="0.78"/>
          <line id="Línea_1662" data-name="Línea 1662" x1="11.563" y2="12.207" transform="translate(39.431)" fill="none" stroke="#d8d9da" stroke-miterlimit="10" stroke-width="0.78"/>
          <line id="Línea_1663" data-name="Línea 1663" x1="11.563" y2="12.207" transform="translate(45.064)" fill="none" stroke="#d8d9da" stroke-miterlimit="10" stroke-width="0.78"/>
          <line id="Línea_1664" data-name="Línea 1664" x1="11.563" y2="12.207" transform="translate(50.697)" fill="none" stroke="#d8d9da" stroke-miterlimit="10" stroke-width="0.78"/>
          <line id="Línea_1665" data-name="Línea 1665" x1="11.563" y2="12.207" transform="translate(56.33)" fill="none" stroke="#d8d9da" stroke-miterlimit="10" stroke-width="0.78"/>
          <line id="Línea_1666" data-name="Línea 1666" x1="11.563" y2="12.207" transform="translate(61.963)" fill="none" stroke="#d8d9da" stroke-miterlimit="10" stroke-width="0.78"/>
          <line id="Línea_1667" data-name="Línea 1667" x1="11.563" y2="12.207" transform="translate(67.596)" fill="none" stroke="#d8d9da" stroke-miterlimit="10" stroke-width="0.78"/>
        </g>
        <g id="Grupo_124677" data-name="Grupo 124677" transform="translate(224.765 135.022)">
          <g id="Grupo_124673" data-name="Grupo 124673">
            <line id="Línea_1668" data-name="Línea 1668" y2="9.849" transform="translate(4.665)" fill="none" stroke="#8f9294" stroke-miterlimit="10" stroke-width="0.388"/>
            <line id="Línea_1669" data-name="Línea 1669" x2="9.33" transform="translate(0 4.925)" fill="none" stroke="#8f9294" stroke-miterlimit="10" stroke-width="0.388"/>
          </g>
          <g id="Grupo_124674" data-name="Grupo 124674" transform="translate(25.423)">
            <line id="Línea_1670" data-name="Línea 1670" y2="9.849" transform="translate(4.665)" fill="none" stroke="#8f9294" stroke-miterlimit="10" stroke-width="0.388"/>
            <line id="Línea_1671" data-name="Línea 1671" x2="9.329" transform="translate(0 4.925)" fill="none" stroke="#8f9294" stroke-miterlimit="10" stroke-width="0.388"/>
          </g>
          <g id="Grupo_124675" data-name="Grupo 124675" transform="translate(50.846)">
            <line id="Línea_1672" data-name="Línea 1672" y2="9.849" transform="translate(4.665)" fill="none" stroke="#8f9294" stroke-miterlimit="10" stroke-width="0.388"/>
            <line id="Línea_1673" data-name="Línea 1673" x2="9.33" transform="translate(0 4.925)" fill="none" stroke="#8f9294" stroke-miterlimit="10" stroke-width="0.388"/>
          </g>
          <g id="Grupo_124676" data-name="Grupo 124676" transform="translate(76.269)">
            <line id="Línea_1674" data-name="Línea 1674" y2="9.849" transform="translate(4.665)" fill="none" stroke="#8f9294" stroke-miterlimit="10" stroke-width="0.388"/>
            <line id="Línea_1675" data-name="Línea 1675" x2="9.33" transform="translate(0 4.925)" fill="none" stroke="#8f9294" stroke-miterlimit="10" stroke-width="0.388"/>
          </g>
        </g>
        <g id="Grupo_124682" data-name="Grupo 124682" transform="translate(224.765 151.334)">
          <g id="Grupo_124678" data-name="Grupo 124678">
            <line id="Línea_1676" data-name="Línea 1676" y2="9.849" transform="translate(4.665)" fill="none" stroke="#8f9294" stroke-miterlimit="10" stroke-width="0.388"/>
            <line id="Línea_1677" data-name="Línea 1677" x2="9.33" transform="translate(0 4.925)" fill="none" stroke="#8f9294" stroke-miterlimit="10" stroke-width="0.388"/>
          </g>
          <g id="Grupo_124679" data-name="Grupo 124679" transform="translate(25.423)">
            <line id="Línea_1678" data-name="Línea 1678" y2="9.849" transform="translate(4.665)" fill="none" stroke="#8f9294" stroke-miterlimit="10" stroke-width="0.388"/>
            <line id="Línea_1679" data-name="Línea 1679" x2="9.329" transform="translate(0 4.925)" fill="none" stroke="#8f9294" stroke-miterlimit="10" stroke-width="0.388"/>
          </g>
          <g id="Grupo_124680" data-name="Grupo 124680" transform="translate(50.846)">
            <line id="Línea_1680" data-name="Línea 1680" y2="9.849" transform="translate(4.665)" fill="none" stroke="#8f9294" stroke-miterlimit="10" stroke-width="0.388"/>
            <line id="Línea_1681" data-name="Línea 1681" x2="9.33" transform="translate(0 4.925)" fill="none" stroke="#8f9294" stroke-miterlimit="10" stroke-width="0.388"/>
          </g>
          <g id="Grupo_124681" data-name="Grupo 124681" transform="translate(76.269)">
            <line id="Línea_1682" data-name="Línea 1682" y2="9.849" transform="translate(4.665)" fill="none" stroke="#8f9294" stroke-miterlimit="10" stroke-width="0.388"/>
            <line id="Línea_1683" data-name="Línea 1683" x2="9.33" transform="translate(0 4.925)" fill="none" stroke="#8f9294" stroke-miterlimit="10" stroke-width="0.388"/>
          </g>
        </g>
        <g id="Grupo_124687" data-name="Grupo 124687" transform="translate(224.765 167.646)">
          <g id="Grupo_124683" data-name="Grupo 124683">
            <line id="Línea_1684" data-name="Línea 1684" y2="9.849" transform="translate(4.665)" fill="none" stroke="#8f9294" stroke-miterlimit="10" stroke-width="0.388"/>
            <line id="Línea_1685" data-name="Línea 1685" x2="9.33" transform="translate(0 4.925)" fill="none" stroke="#8f9294" stroke-miterlimit="10" stroke-width="0.388"/>
          </g>
          <g id="Grupo_124684" data-name="Grupo 124684" transform="translate(25.423)">
            <line id="Línea_1686" data-name="Línea 1686" y2="9.849" transform="translate(4.665)" fill="none" stroke="#8f9294" stroke-miterlimit="10" stroke-width="0.388"/>
            <line id="Línea_1687" data-name="Línea 1687" x2="9.329" transform="translate(0 4.925)" fill="none" stroke="#8f9294" stroke-miterlimit="10" stroke-width="0.388"/>
          </g>
          <g id="Grupo_124685" data-name="Grupo 124685" transform="translate(50.846)">
            <line id="Línea_1688" data-name="Línea 1688" y2="9.849" transform="translate(4.665)" fill="none" stroke="#8f9294" stroke-miterlimit="10" stroke-width="0.388"/>
            <line id="Línea_1689" data-name="Línea 1689" x2="9.33" transform="translate(0 4.925)" fill="none" stroke="#8f9294" stroke-miterlimit="10" stroke-width="0.388"/>
          </g>
          <g id="Grupo_124686" data-name="Grupo 124686" transform="translate(76.269)">
            <line id="Línea_1690" data-name="Línea 1690" y2="9.849" transform="translate(4.665)" fill="none" stroke="#8f9294" stroke-miterlimit="10" stroke-width="0.388"/>
            <line id="Línea_1691" data-name="Línea 1691" x2="9.33" transform="translate(0 4.925)" fill="none" stroke="#8f9294" stroke-miterlimit="10" stroke-width="0.388"/>
          </g>
        </g>
        <g id="Grupo_124692" data-name="Grupo 124692" transform="translate(224.765 183.958)">
          <g id="Grupo_124688" data-name="Grupo 124688">
            <line id="Línea_1692" data-name="Línea 1692" y2="9.849" transform="translate(4.665)" fill="none" stroke="#8f9294" stroke-miterlimit="10" stroke-width="0.388"/>
            <line id="Línea_1693" data-name="Línea 1693" x2="9.33" transform="translate(0 4.925)" fill="none" stroke="#8f9294" stroke-miterlimit="10" stroke-width="0.388"/>
          </g>
          <g id="Grupo_124689" data-name="Grupo 124689" transform="translate(25.423)">
            <line id="Línea_1694" data-name="Línea 1694" y2="9.849" transform="translate(4.665)" fill="none" stroke="#8f9294" stroke-miterlimit="10" stroke-width="0.388"/>
            <line id="Línea_1695" data-name="Línea 1695" x2="9.329" transform="translate(0 4.925)" fill="none" stroke="#8f9294" stroke-miterlimit="10" stroke-width="0.388"/>
          </g>
          <g id="Grupo_124690" data-name="Grupo 124690" transform="translate(50.846)">
            <line id="Línea_1696" data-name="Línea 1696" y2="9.849" transform="translate(4.665)" fill="none" stroke="#8f9294" stroke-miterlimit="10" stroke-width="0.388"/>
            <line id="Línea_1697" data-name="Línea 1697" x2="9.33" transform="translate(0 4.925)" fill="none" stroke="#8f9294" stroke-miterlimit="10" stroke-width="0.388"/>
          </g>
          <g id="Grupo_124691" data-name="Grupo 124691" transform="translate(76.269)">
            <line id="Línea_1698" data-name="Línea 1698" y2="9.849" transform="translate(4.665)" fill="none" stroke="#8f9294" stroke-miterlimit="10" stroke-width="0.388"/>
            <line id="Línea_1699" data-name="Línea 1699" x2="9.33" transform="translate(0 4.925)" fill="none" stroke="#8f9294" stroke-miterlimit="10" stroke-width="0.388"/>
          </g>
        </g>
        <rect id="Rectángulo_35685" data-name="Rectángulo 35685" width="103.442" height="9.157" transform="translate(597.259 91.716)" fill="none" stroke="#8f9294" stroke-linecap="round" stroke-linejoin="round" stroke-width="1"/>
        <path id="Trazado_174309" data-name="Trazado 174309" d="M746.658,275.471c-12.158,0-22.014,10.4-22.014,23.24s9.856,23.241,22.014,23.241,22.015-10.406,22.015-23.241S758.816,275.471,746.658,275.471Zm0,34.108c-5.685,0-10.294-4.866-10.294-10.868s4.609-10.868,10.294-10.868,10.294,4.866,10.294,10.868S752.343,309.579,746.658,309.579Z" transform="translate(4.559 -147.481)" fill="#fff"/>
        <g id="Grupo_124745" data-name="Grupo 124745" transform="translate(692.055 284.148)" clip-path="url(#clip-path-2)">
          <path id="Trazado_174310" data-name="Trazado 174310" d="M503.7,136.445c-12.976,14.541-26.909,28.074-39.887,42.671" transform="translate(-468.855 -138.768)" fill="none" stroke="#606060" stroke-miterlimit="10" stroke-width="0.655"/>
          <path id="Trazado_174311" data-name="Trazado 174311" d="M509.627,136.393c-14.453,16.352-30.616,32.239-45.855,48.388" transform="translate(-468.849 -138.763)" fill="none" stroke="#606060" stroke-miterlimit="10" stroke-width="0.655"/>
          <path id="Trazado_174312" data-name="Trazado 174312" d="M515.1,136.4c-17.156,18.108-34.434,36.348-51.455,54.33" transform="translate(-468.83 -138.764)" fill="none" stroke="#606060" stroke-miterlimit="10" stroke-width="0.655"/>
          <path id="Trazado_174313" data-name="Trazado 174313" d="M520.547,136.55q-28.044,29.613-56.852,60.01" transform="translate(-468.837 -138.779)" fill="none" stroke="#606060" stroke-miterlimit="10" stroke-width="0.655"/>
          <path id="Trazado_174314" data-name="Trazado 174314" d="M527.228,136.489c-20.907,21.562-42.086,43.332-63.459,65.746" transform="translate(-468.848 -138.773)" fill="none" stroke="#606060" stroke-miterlimit="10" stroke-width="0.655"/>
          <path id="Trazado_174315" data-name="Trazado 174315" d="M531.581,136.579c-21.933,23.835-43.67,46.193-65.963,70.317-.557.589-1.671.589-1.967,1.4" transform="translate(-468.831 -138.782)" fill="none" stroke="#606060" stroke-miterlimit="10" stroke-width="0.655"/>
          <path id="Trazado_174316" data-name="Trazado 174316" d="M537.671,136.461c-13.5,15.114-27.992,28.647-42.484,43.945-10.589,11.768-21.179,21.771-31.326,33.516" transform="translate(-468.862 -138.77)" fill="none" stroke="#606060" stroke-miterlimit="10" stroke-width="0.655"/>
          <path id="Trazado_174317" data-name="Trazado 174317" d="M541.419,137.765c-25.623,27.475-52.375,53.953-77.649,82.167" transform="translate(-468.849 -138.901)" fill="none" stroke="#606060" stroke-miterlimit="10" stroke-width="0.655"/>
          <path id="Trazado_174318" data-name="Trazado 174318" d="M541.381,144.249c-25.569,26.942-51.764,54.6-77.5,81.922" transform="translate(-468.865 -139.557)" fill="none" stroke="#606060" stroke-miterlimit="10" stroke-width="0.655"/>
          <path id="Trazado_174319" data-name="Trazado 174319" d="M544.192,147.767c-26.706,28.487-54.015,56.141-80.294,84.678" transform="translate(-468.868 -139.913)" fill="none" stroke="#606060" stroke-miterlimit="10" stroke-width="0.655"/>
          <path id="Trazado_174320" data-name="Trazado 174320" d="M549.7,147.736c-28.913,30.28-56.78,61.464-86.086,90.8" transform="translate(-468.826 -139.909)" fill="none" stroke="#606060" stroke-miterlimit="10" stroke-width="0.655"/>
          <path id="Trazado_174321" data-name="Trazado 174321" d="M555.378,147.97,467.2,241.055" transform="translate(-469.359 -139.933)" fill="none" stroke="#606060" stroke-miterlimit="10" stroke-width="0.655"/>
          <path id="Trazado_174322" data-name="Trazado 174322" d="M561.744,147.974c-29.438,30.655-58.42,61.839-88.129,93.134" transform="translate(-470.311 -139.934)" fill="none" stroke="#606060" stroke-miterlimit="10" stroke-width="0.655"/>
          <path id="Trazado_174323" data-name="Trazado 174323" d="M565.616,150.913c-28.452,29.777-56.318,60.374-85.559,90.516" transform="translate(-471.268 -140.231)" fill="none" stroke="#606060" stroke-miterlimit="10" stroke-width="0.655"/>
          <path id="Trazado_174324" data-name="Trazado 174324" d="M566.746,157.09c-26.948,28.344-52.585,57.763-80.217,84.961" transform="translate(-472.229 -140.855)" fill="none" stroke="#606060" stroke-miterlimit="10" stroke-width="0.655"/>
          <path id="Trazado_174325" data-name="Trazado 174325" d="M567.507,164.17c-25.072,26.1-49.6,52.576-74.478,78.569" transform="translate(-473.194 -141.571)" fill="none" stroke="#606060" stroke-miterlimit="10" stroke-width="0.655"/>
          <path id="Trazado_174326" data-name="Trazado 174326" d="M568.637,170.164c-23,24.24-45.855,48.952-69.084,73.129" transform="translate(-474.163 -142.177)" fill="none" stroke="#606060" stroke-miterlimit="10" stroke-width="0.655"/>
          <path id="Trazado_174327" data-name="Trazado 174327" d="M569.525,176.763q-31.907,33.64-63.583,67.269" transform="translate(-475.112 -142.844)" fill="none" stroke="#606060" stroke-miterlimit="10" stroke-width="0.655"/>
          <path id="Trazado_174328" data-name="Trazado 174328" d="M570.565,183.234c-19.106,20.729-38.614,41.322-58.057,61.365" transform="translate(-476.087 -143.498)" fill="none" stroke="#606060" stroke-miterlimit="10" stroke-width="0.655"/>
          <path id="Trazado_174329" data-name="Trazado 174329" d="M571.45,189.833c-17.366,18.327-35.2,37.156-52.518,55.474" transform="translate(-477.041 -144.165)" fill="none" stroke="#606060" stroke-miterlimit="10" stroke-width="0.655"/>
          <path id="Trazado_174330" data-name="Trazado 174330" d="M572.26,196.537q-23.321,24.629-46.891,49.475" transform="translate(-477.997 -144.843)" fill="none" stroke="#606060" stroke-miterlimit="10" stroke-width="0.655"/>
          <path id="Trazado_174331" data-name="Trazado 174331" d="M573.388,202.6q-16.227,17.058-32.368,34.207-4.608,4.909-9.2,9.835" transform="translate(-478.955 -145.456)" fill="none" stroke="#606060" stroke-miterlimit="10" stroke-width="0.655"/>
          <path id="Trazado_174332" data-name="Trazado 174332" d="M574.307,209.851c-11.776,12.689-24.037,25.633-36.032,37.534" transform="translate(-479.914 -146.189)" fill="none" stroke="#606060" stroke-miterlimit="10" stroke-width="0.655"/>
        </g>
        <ellipse id="Elipse_4980" data-name="Elipse 4980" cx="4.566" cy="4.821" rx="4.566" ry="4.821" transform="translate(773.232 72.146)" fill="none" stroke="#606060" stroke-miterlimit="10" stroke-width="0.655"/>
        <g id="Grupo_124668-2" data-name="Grupo 124668" transform="translate(811.884 111.973)">
          <line id="Línea_1655-2" data-name="Línea 1655" x1="9.097" y2="9.603" fill="none" stroke="#d8d9da" stroke-miterlimit="10" stroke-width="0.78"/>
          <line id="Línea_1656-2" data-name="Línea 1656" x1="9.097" y2="9.603" transform="translate(4.432)" fill="none" stroke="#d8d9da" stroke-miterlimit="10" stroke-width="0.78"/>
          <line id="Línea_1657-2" data-name="Línea 1657" x1="9.097" y2="9.603" transform="translate(8.863)" fill="none" stroke="#d8d9da" stroke-miterlimit="10" stroke-width="0.78"/>
          <line id="Línea_1658-2" data-name="Línea 1658" x1="9.097" y2="9.603" transform="translate(13.295)" fill="none" stroke="#d8d9da" stroke-miterlimit="10" stroke-width="0.78"/>
          <line id="Línea_1659-2" data-name="Línea 1659" x1="9.097" y2="9.603" transform="translate(17.727)" fill="none" stroke="#d8d9da" stroke-miterlimit="10" stroke-width="0.78"/>
          <line id="Línea_1660-2" data-name="Línea 1660" x1="9.097" y2="9.603" transform="translate(22.159)" fill="none" stroke="#d8d9da" stroke-miterlimit="10" stroke-width="0.78"/>
          <line id="Línea_1661-2" data-name="Línea 1661" x1="9.097" y2="9.603" transform="translate(26.59)" fill="none" stroke="#d8d9da" stroke-miterlimit="10" stroke-width="0.78"/>
          <line id="Línea_1662-2" data-name="Línea 1662" x1="9.097" y2="9.603" transform="translate(31.022)" fill="none" stroke="#d8d9da" stroke-miterlimit="10" stroke-width="0.78"/>
          <line id="Línea_1663-2" data-name="Línea 1663" x1="9.097" y2="9.603" transform="translate(35.454)" fill="none" stroke="#d8d9da" stroke-miterlimit="10" stroke-width="0.78"/>
          <line id="Línea_1664-2" data-name="Línea 1664" x1="9.097" y2="9.603" transform="translate(39.886)" fill="none" stroke="#d8d9da" stroke-miterlimit="10" stroke-width="0.78"/>
          <line id="Línea_1665-2" data-name="Línea 1665" x1="9.097" y2="9.603" transform="translate(44.317)" fill="none" stroke="#d8d9da" stroke-miterlimit="10" stroke-width="0.78"/>
          <line id="Línea_1666-2" data-name="Línea 1666" x1="9.097" y2="9.603" transform="translate(48.749)" fill="none" stroke="#d8d9da" stroke-miterlimit="10" stroke-width="0.78"/>
          <line id="Línea_1667-2" data-name="Línea 1667" x1="9.097" y2="9.603" transform="translate(53.181)" fill="none" stroke="#d8d9da" stroke-miterlimit="10" stroke-width="0.78"/>
        </g>
      </g>
    </g>
  </g>
</svg>
