<svg id="Grupo_159494" data-name="Grupo 159494" xmlns="http://www.w3.org/2000/svg" xmlns:xlink="http://www.w3.org/1999/xlink" width="266.077" height="247.454" viewBox="0 0 266.077 247.454">
  <defs>
    <clipPath id="clip-path">
      <rect id="Rectángulo_47989" data-name="Rectángulo 47989" width="266.077" height="247.454" fill="none"/>
    </clipPath>
    <clipPath id="clip-path-3">
      <rect id="Rectángulo_47948" data-name="Rectángulo 47948" width="54.225" height="55.284" fill="none"/>
    </clipPath>
    <clipPath id="clip-path-4">
      <rect id="Rectángulo_47949" data-name="Rectángulo 47949" width="7.46" height="31.678" fill="none"/>
    </clipPath>
    <clipPath id="clip-path-5">
      <rect id="Rectángulo_47950" data-name="Rectángulo 47950" width="52.083" height="49.254" fill="none"/>
    </clipPath>
    <clipPath id="clip-path-6">
      <rect id="Rectángulo_47951" data-name="Rectángulo 47951" width="36.433" height="40.186" fill="none"/>
    </clipPath>
    <clipPath id="clip-path-8">
      <rect id="Rectángulo_47953" data-name="Rectángulo 47953" width="26.869" height="18.154" fill="none"/>
    </clipPath>
    <clipPath id="clip-path-9">
      <rect id="Rectángulo_47954" data-name="Rectángulo 47954" width="128.68" height="183.08" fill="none"/>
    </clipPath>
    <clipPath id="clip-path-10">
      <rect id="Rectángulo_47955" data-name="Rectángulo 47955" width="124.53" height="180.181" fill="none"/>
    </clipPath>
    <clipPath id="clip-path-11">
      <rect id="Rectángulo_47956" data-name="Rectángulo 47956" width="6.039" height="16.055" fill="none"/>
    </clipPath>
    <clipPath id="clip-path-12">
      <rect id="Rectángulo_47957" data-name="Rectángulo 47957" width="124.53" height="85.299" fill="none"/>
    </clipPath>
    <clipPath id="clip-path-13">
      <rect id="Rectángulo_47958" data-name="Rectángulo 47958" width="4.152" height="5.361" fill="none"/>
    </clipPath>
    <clipPath id="clip-path-14">
      <rect id="Rectángulo_47959" data-name="Rectángulo 47959" width="4.803" height="97.887" fill="none"/>
    </clipPath>
    <clipPath id="clip-path-15">
      <rect id="Rectángulo_47960" data-name="Rectángulo 47960" width="118.977" height="71.724" fill="none"/>
    </clipPath>
    <clipPath id="clip-path-16">
      <rect id="Rectángulo_47961" data-name="Rectángulo 47961" width="118.976" height="68.691" fill="none"/>
    </clipPath>
    <clipPath id="clip-path-17">
      <rect id="Rectángulo_47962" data-name="Rectángulo 47962" width="30.448" height="20.596" fill="none"/>
    </clipPath>
    <clipPath id="clip-path-18">
      <rect id="Rectángulo_47964" data-name="Rectángulo 47964" width="115.991" height="152.972" fill="none"/>
    </clipPath>
    <clipPath id="clip-path-20">
      <rect id="Rectángulo_47965" data-name="Rectángulo 47965" width="117.103" height="67.831" fill="none"/>
    </clipPath>
    <clipPath id="clip-path-21">
      <rect id="Rectángulo_47966" data-name="Rectángulo 47966" width="2.737" height="8.662" fill="none"/>
    </clipPath>
    <clipPath id="clip-path-22">
      <rect id="Rectángulo_47967" data-name="Rectángulo 47967" width="2.851" height="80.148" fill="none"/>
    </clipPath>
    <clipPath id="clip-path-23">
      <rect id="Rectángulo_47969" data-name="Rectángulo 47969" width="51.431" height="115.559" fill="none"/>
    </clipPath>
    <clipPath id="clip-path-24">
      <rect id="Rectángulo_47968" data-name="Rectángulo 47968" width="51.43" height="115.559" fill="none"/>
    </clipPath>
    <clipPath id="clip-path-25">
      <rect id="Rectángulo_47970" data-name="Rectángulo 47970" width="52.543" height="30.418" fill="none"/>
    </clipPath>
    <clipPath id="clip-path-26">
      <rect id="Rectángulo_47971" data-name="Rectángulo 47971" width="2.737" height="8.663" fill="none"/>
    </clipPath>
    <clipPath id="clip-path-27">
      <rect id="Rectángulo_47972" data-name="Rectángulo 47972" width="2.851" height="80.147" fill="none"/>
    </clipPath>
    <clipPath id="clip-path-28">
      <rect id="Rectángulo_47973" data-name="Rectángulo 47973" width="18.04" height="11.224" fill="none"/>
    </clipPath>
    <clipPath id="clip-path-29">
      <rect id="Rectángulo_47974" data-name="Rectángulo 47974" width="6.934" height="4.809" fill="none"/>
    </clipPath>
    <clipPath id="clip-path-30">
      <rect id="Rectángulo_47975" data-name="Rectángulo 47975" width="6.934" height="4.808" fill="none"/>
    </clipPath>
    <clipPath id="clip-path-33">
      <rect id="Rectángulo_47978" data-name="Rectángulo 47978" width="8.54" height="5.719" fill="none"/>
    </clipPath>
    <clipPath id="clip-path-34">
      <rect id="Rectángulo_47979" data-name="Rectángulo 47979" width="18.04" height="11.223" fill="none"/>
    </clipPath>
    <clipPath id="clip-path-35">
      <rect id="Rectángulo_47980" data-name="Rectángulo 47980" width="8.541" height="5.719" fill="none"/>
    </clipPath>
    <clipPath id="clip-path-36">
      <rect id="Rectángulo_47981" data-name="Rectángulo 47981" width="10.971" height="3.55" fill="none"/>
    </clipPath>
    <clipPath id="clip-path-37">
      <rect id="Rectángulo_47982" data-name="Rectángulo 47982" width="7.099" height="26.208" fill="none"/>
    </clipPath>
    <clipPath id="clip-path-38">
      <rect id="Rectángulo_47983" data-name="Rectángulo 47983" width="25.648" height="14.848" fill="none"/>
    </clipPath>
    <clipPath id="clip-path-39">
      <rect id="Rectángulo_47984" data-name="Rectángulo 47984" width="12.878" height="19.547" fill="none"/>
    </clipPath>
    <clipPath id="clip-path-40">
      <rect id="Rectángulo_47985" data-name="Rectángulo 47985" width="13.019" height="18.774" fill="none"/>
    </clipPath>
    <clipPath id="clip-path-41">
      <rect id="Rectángulo_47986" data-name="Rectángulo 47986" width="7.968" height="8.783" fill="none"/>
    </clipPath>
    <clipPath id="clip-path-42">
      <rect id="Rectángulo_47987" data-name="Rectángulo 47987" width="13.299" height="7.275" fill="none"/>
    </clipPath>
  </defs>
  <g id="Grupo_159616" data-name="Grupo 159616" clip-path="url(#clip-path)">
    <g id="Grupo_159615" data-name="Grupo 159615">
      <g id="Grupo_159614" data-name="Grupo 159614" clip-path="url(#clip-path)">
        <path id="Trazado_200436" data-name="Trazado 200436" d="M227.111,156.705c51.953,30,51.953,78.629,0,108.625s-136.19,30-188.144,0-51.954-78.629,0-108.626,136.191-30,188.145,0" transform="translate(0 -40.374)" fill="#f0f0f0"/>
        <path id="Trazado_200437" data-name="Trazado 200437" d="M304.814,282.646c7.71,4.452,7.71,11.669,0,16.12s-20.21,4.451-27.921,0-7.71-11.668,0-16.12,20.21-4.452,27.92,0" transform="translate(-81.557 -84.023)" fill="#e0e0e0"/>
        <path id="Trazado_200438" data-name="Trazado 200438" d="M33.293,240.884,11.211,228.135a.86.86,0,0,1,0-1.63l121.7-70.266a3.121,3.121,0,0,1,2.824,0l22.083,12.749a.861.861,0,0,1,0,1.63L36.116,240.884a3.119,3.119,0,0,1-2.823,0" transform="translate(-3.197 -46.899)" fill="#e0e0e0"/>
        <path id="Trazado_200439" data-name="Trazado 200439" d="M138.1,225.79l17.781-10.281c1.833-1.059,2.749-2.445,2.749-3.831s.008-2.474.008-2.474l-21.4-12.123a3.912,3.912,0,0,1-1.77-3.066V172.093l-31.056,17.946v21.921a3.912,3.912,0,0,0,1.77,3.066l18.643,10.763a14.67,14.67,0,0,0,13.275,0" transform="translate(-31.411 -51.77)" fill="#ee296d"/>
        <g id="Grupo_159496" data-name="Grupo 159496" transform="translate(73.003 120.323)" opacity="0.5">
          <g id="Grupo_159495" data-name="Grupo 159495">
            <g id="Grupo_159494-2" data-name="Grupo 159494" clip-path="url(#clip-path-3)">
              <path id="Trazado_200440" data-name="Trazado 200440" d="M138.1,225.79l17.781-10.281c1.833-1.059,2.749-2.445,2.749-3.831s.008-2.474.008-2.474l-21.4-12.123a3.912,3.912,0,0,1-1.77-3.066V172.093l-31.056,17.946v21.921a3.912,3.912,0,0,0,1.77,3.066l18.643,10.763a14.67,14.67,0,0,0,13.275,0" transform="translate(-104.414 -172.093)"/>
            </g>
          </g>
        </g>
        <path id="Trazado_200441" data-name="Trazado 200441" d="M111.87,222.1v2.462l-5.692-3.28a3.917,3.917,0,0,1-1.768-3.066v-21.92l5.916-3.413c.122,1.5.255,3.055.378,4.568l-4.149,2.4v17.127a3.887,3.887,0,0,0,1.768,3.065Z" transform="translate(-31.41 -58.023)" fill="#ee296d"/>
        <g id="Grupo_159499" data-name="Grupo 159499" transform="translate(73.001 134.857)" opacity="0.7">
          <g id="Grupo_159498" data-name="Grupo 159498">
            <g id="Grupo_159497" data-name="Grupo 159497" clip-path="url(#clip-path-4)">
              <path id="Trazado_200442" data-name="Trazado 200442" d="M111.87,222.1v2.462l-5.692-3.28a3.917,3.917,0,0,1-1.768-3.066v-21.92l5.916-3.413c.122,1.5.255,3.055.378,4.568l-4.149,2.4v17.127a3.887,3.887,0,0,0,1.768,3.065Z" transform="translate(-104.41 -192.88)"/>
            </g>
          </g>
        </g>
        <path id="Trazado_200443" data-name="Trazado 200443" d="M107.478,212.257a3.913,3.913,0,0,0,1.77,3.066l16.5,9.525a14.68,14.68,0,0,0,13.276,0l17.789-10.28c3.666-2.116,3.667-5.547,0-7.663l-16.506-9.53a3.91,3.91,0,0,1-1.77-3.065V177.182l-31.057,17.946Z" transform="translate(-32.332 -53.301)" fill="#ee296d"/>
        <g id="Grupo_159502" data-name="Grupo 159502" transform="translate(75.146 123.881)" opacity="0.3">
          <g id="Grupo_159501" data-name="Grupo 159501">
            <g id="Grupo_159500" data-name="Grupo 159500" clip-path="url(#clip-path-5)">
              <path id="Trazado_200444" data-name="Trazado 200444" d="M107.478,212.257a3.913,3.913,0,0,0,1.77,3.066l16.5,9.525a14.68,14.68,0,0,0,13.276,0l17.789-10.28c3.666-2.116,3.667-5.547,0-7.663l-16.506-9.53a3.91,3.91,0,0,1-1.77-3.065V177.182l-31.057,17.946Z" transform="translate(-107.478 -177.182)"/>
            </g>
          </g>
        </g>
        <g id="Grupo_159505" data-name="Grupo 159505" transform="translate(75.146 123.881)" opacity="0.7">
          <g id="Grupo_159504" data-name="Grupo 159504">
            <g id="Grupo_159503" data-name="Grupo 159503" clip-path="url(#clip-path-6)">
              <path id="Trazado_200445" data-name="Trazado 200445" d="M143.911,199.46v0l-3.6-2.081a3.912,3.912,0,0,1-1.77-3.065V177.182l-31.057,17.946v17.13a3.913,3.913,0,0,0,1.77,3.066l3.543,2.045Z" transform="translate(-107.478 -177.182)" fill="#ee296d"/>
            </g>
          </g>
        </g>
        <g id="Grupo_159508" data-name="Grupo 159508" transform="translate(75.146 123.881)" opacity="0.6">
          <g id="Grupo_159507" data-name="Grupo 159507">
            <g id="Grupo_159506" data-name="Grupo 159506" clip-path="url(#clip-path-6)">
              <path id="Trazado_200446" data-name="Trazado 200446" d="M143.911,199.46v0l-3.6-2.081a3.912,3.912,0,0,1-1.77-3.065V177.182l-31.057,17.946v17.13a3.913,3.913,0,0,0,1.77,3.066l3.543,2.045Z" transform="translate(-107.478 -177.182)"/>
            </g>
          </g>
        </g>
        <path id="Trazado_200447" data-name="Trazado 200447" d="M170.4,225.173v2.473c0,1.39-.919,2.769-2.749,3.832l-17.783,10.275a13.317,13.317,0,0,1-6.335,1.574v-2.463a13.308,13.308,0,0,0,6.335-1.574l17.783-10.285c1.83-1.053,2.749-2.442,2.749-3.832" transform="translate(-43.18 -67.738)" fill="#ee296d"/>
        <g id="Grupo_159511" data-name="Grupo 159511" transform="translate(100.357 157.435)" opacity="0.2">
          <g id="Grupo_159510" data-name="Grupo 159510">
            <g id="Grupo_159509" data-name="Grupo 159509" clip-path="url(#clip-path-8)">
              <path id="Trazado_200448" data-name="Trazado 200448" d="M170.4,225.173v2.473c0,1.39-.919,2.769-2.749,3.832l-17.783,10.275a13.317,13.317,0,0,1-6.335,1.574v-2.463a13.308,13.308,0,0,0,6.335-1.574l17.783-10.285c1.83-1.053,2.749-2.442,2.749-3.832" transform="translate(-143.536 -225.173)"/>
            </g>
          </g>
        </g>
        <path id="Trazado_200449" data-name="Trazado 200449" d="M35.265,182.606a4.746,4.746,0,0,0,4.288-.079l120.105-69.342a4.886,4.886,0,0,0,2.211-3.831V4.227A4.741,4.741,0,0,0,159.795.474a4.743,4.743,0,0,0-4.288.079L35.4,69.895a4.89,4.89,0,0,0-2.212,3.831V178.853a4.745,4.745,0,0,0,2.075,3.753" transform="translate(-9.984 0)" fill="#ee296d"/>
        <g id="Grupo_159514" data-name="Grupo 159514" transform="translate(23.205)" opacity="0.3">
          <g id="Grupo_159513" data-name="Grupo 159513">
            <g id="Grupo_159512" data-name="Grupo 159512" clip-path="url(#clip-path-9)">
              <path id="Trazado_200450" data-name="Trazado 200450" d="M35.265,182.606a4.746,4.746,0,0,0,4.288-.079l120.105-69.342a4.886,4.886,0,0,0,2.211-3.831V4.227A4.741,4.741,0,0,0,159.795.474a4.743,4.743,0,0,0-4.288.079L35.4,69.895a4.89,4.89,0,0,0-2.212,3.831V178.853a4.745,4.745,0,0,0,2.075,3.753" transform="translate(-33.19 0)"/>
            </g>
          </g>
        </g>
        <path id="Trazado_200451" data-name="Trazado 200451" d="M41.34,183.662l120.1-69.341a4.89,4.89,0,0,0,2.213-3.832V5.362c0-1.411-.991-1.983-2.213-1.277L41.342,73.426a4.889,4.889,0,0,0-2.212,3.832V182.385c0,1.411.99,1.983,2.212,1.277" transform="translate(-11.771 -1.138)" fill="#ee296d"/>
        <path id="Trazado_200452" data-name="Trazado 200452" d="M41.34,183.662l120.1-69.341a4.89,4.89,0,0,0,2.213-3.832V5.362c0-1.411-.991-1.983-2.213-1.277L41.342,73.426a4.889,4.889,0,0,0-2.212,3.832V182.385c0,1.411.99,1.983,2.212,1.277" transform="translate(-11.771 -1.138)" fill="#ee296d"/>
        <g id="Grupo_159517" data-name="Grupo 159517" transform="translate(27.357 2.645)" opacity="0.5">
          <g id="Grupo_159516" data-name="Grupo 159516">
            <g id="Grupo_159515" data-name="Grupo 159515" clip-path="url(#clip-path-10)">
              <path id="Trazado_200453" data-name="Trazado 200453" d="M41.34,183.662l120.1-69.341a4.89,4.89,0,0,0,2.213-3.832V5.362c0-1.411-.991-1.983-2.213-1.277L41.342,73.426a4.889,4.889,0,0,0-2.212,3.832V182.385c0,1.411.99,1.983,2.212,1.277" transform="translate(-39.128 -3.783)"/>
            </g>
          </g>
        </g>
        <path id="Trazado_200454" data-name="Trazado 200454" d="M39.227,254.556a4.778,4.778,0,0,1-3.965-.082,4.751,4.751,0,0,1-2.074-3.76V238.89l4.149,2.4v11.823c0,1.288.817,1.87,1.891,1.441" transform="translate(-9.984 -71.865)" fill="#ee296d"/>
        <g id="Grupo_159520" data-name="Grupo 159520" transform="translate(23.204 167.026)" opacity="0.7">
          <g id="Grupo_159519" data-name="Grupo 159519">
            <g id="Grupo_159518" data-name="Grupo 159518" clip-path="url(#clip-path-11)">
              <path id="Trazado_200455" data-name="Trazado 200455" d="M39.227,254.556a4.778,4.778,0,0,1-3.965-.082,4.751,4.751,0,0,1-2.074-3.76V238.89l4.149,2.4v11.823c0,1.288.817,1.87,1.891,1.441" transform="translate(-33.188 -238.89)"/>
            </g>
          </g>
        </g>
        <path id="Trazado_200456" data-name="Trazado 200456" d="M39.127,211.386v11.823c0,1.411.991,1.983,2.212,1.277l120.1-69.341a4.89,4.89,0,0,0,2.213-3.832V139.49Z" transform="translate(-11.77 -41.962)" fill="#ee296d"/>
        <g id="Grupo_159523" data-name="Grupo 159523" transform="translate(27.357 97.528)" opacity="0.5">
          <g id="Grupo_159522" data-name="Grupo 159522">
            <g id="Grupo_159521" data-name="Grupo 159521" clip-path="url(#clip-path-12)">
              <path id="Trazado_200457" data-name="Trazado 200457" d="M39.127,211.386v11.823c0,1.411.991,1.983,2.212,1.277l120.1-69.341a4.89,4.89,0,0,0,2.213-3.832V139.49Z" transform="translate(-39.127 -139.49)"/>
            </g>
          </g>
        </g>
        <path id="Trazado_200458" data-name="Trazado 200458" d="M45.063,164.767v-83.2a2.935,2.935,0,0,1,1.328-2.3l113.57-65.57c.733-.423,1.328-.08,1.328.766l0,83.206a2.936,2.936,0,0,1-1.327,2.3L46.391,165.534c-.733.424-1.328.08-1.328-.766" transform="translate(-13.556 -4.065)" fill="#fafafa"/>
        <path id="Trazado_200459" data-name="Trazado 200459" d="M127.287,197.639a4.588,4.588,0,0,0-2.076,3.6c0,1.324.929,1.86,2.076,1.2a4.585,4.585,0,0,0,2.076-3.6c0-1.324-.929-1.86-2.076-1.2" transform="translate(-37.667 -59.37)" fill="#ee296d"/>
        <g id="Grupo_159526" data-name="Grupo 159526" transform="translate(87.544 137.986)" opacity="0.5">
          <g id="Grupo_159525" data-name="Grupo 159525">
            <g id="Grupo_159524" data-name="Grupo 159524" clip-path="url(#clip-path-13)">
              <path id="Trazado_200460" data-name="Trazado 200460" d="M127.287,197.639a4.588,4.588,0,0,0-2.076,3.6c0,1.324.929,1.86,2.076,1.2a4.585,4.585,0,0,0,2.076-3.6c0-1.324-.929-1.86-2.076-1.2" transform="translate(-125.211 -197.356)" fill="#fff"/>
            </g>
          </g>
        </g>
        <path id="Trazado_200461" data-name="Trazado 200461" d="M37.991,104.712a4.691,4.691,0,0,0-.654,2.187v93.308l-4.149-2.4v-93.3a4.58,4.58,0,0,1,.654-2.187Z" transform="translate(-9.984 -30.781)" fill="#ee296d"/>
        <g id="Grupo_159529" data-name="Grupo 159529" transform="translate(23.204 71.54)" opacity="0.7">
          <g id="Grupo_159528" data-name="Grupo 159528">
            <g id="Grupo_159527" data-name="Grupo 159527" clip-path="url(#clip-path-14)">
              <path id="Trazado_200462" data-name="Trazado 200462" d="M37.991,104.712a4.691,4.691,0,0,0-.654,2.187v93.308l-4.149-2.4v-93.3a4.58,4.58,0,0,1,.654-2.187Z" transform="translate(-33.188 -102.321)"/>
            </g>
          </g>
        </g>
        <path id="Trazado_200463" data-name="Trazado 200463" d="M101.386,272.454,131.4,289.83a3.716,3.716,0,0,0,3.363,0l88.659-51.117a1.026,1.026,0,0,0,0-1.943L193.409,219.4a3.716,3.716,0,0,0-3.363,0l-88.659,51.117a1.026,1.026,0,0,0,0,1.943" transform="translate(-30.29 -65.879)" fill="#e0e0e0"/>
        <path id="Trazado_200464" data-name="Trazado 200464" d="M222.431,232.423a1.181,1.181,0,0,0-.7-.971l-28.193-16.275a3.714,3.714,0,0,0-3.363,0l-86.027,49.749a1.182,1.182,0,0,0-.7.97c0,.352,0,2.607,0,2.957a1.181,1.181,0,0,0,.7.971L132.332,286.1a3.727,3.727,0,0,0,3.365,0l86.037-49.67a1.185,1.185,0,0,0,.7-.967c0-.353,0-2.685,0-3.036" transform="translate(-31.122 -64.61)" fill="#ee296d"/>
        <g id="Grupo_159532" data-name="Grupo 159532" transform="translate(72.334 150.165)" opacity="0.5">
          <g id="Grupo_159531" data-name="Grupo 159531">
            <g id="Grupo_159530" data-name="Grupo 159530" clip-path="url(#clip-path-15)">
              <path id="Trazado_200465" data-name="Trazado 200465" d="M222.431,232.423a1.181,1.181,0,0,0-.7-.971l-28.193-16.275a3.714,3.714,0,0,0-3.363,0l-86.027,49.749a1.182,1.182,0,0,0-.7.97c0,.352,0,2.607,0,2.957a1.181,1.181,0,0,0,.7.971L132.332,286.1a3.727,3.727,0,0,0,3.365,0l86.037-49.67a1.185,1.185,0,0,0,.7-.967c0-.353,0-2.685,0-3.036" transform="translate(-103.456 -214.775)"/>
            </g>
          </g>
        </g>
        <path id="Trazado_200466" data-name="Trazado 200466" d="M132.333,283.067l-28.179-16.2a1.024,1.024,0,0,1,0-1.94l86.028-49.75a3.715,3.715,0,0,1,3.362,0l28.194,16.275a1.025,1.025,0,0,1,0,1.942L135.7,283.064a3.729,3.729,0,0,1-3.365,0" transform="translate(-31.122 -64.61)" fill="#ee296d"/>
        <g id="Grupo_159535" data-name="Grupo 159535" transform="translate(72.334 150.165)" opacity="0.3">
          <g id="Grupo_159534" data-name="Grupo 159534">
            <g id="Grupo_159533" data-name="Grupo 159533" clip-path="url(#clip-path-16)">
              <path id="Trazado_200467" data-name="Trazado 200467" d="M132.333,283.067l-28.179-16.2a1.024,1.024,0,0,1,0-1.94l86.028-49.75a3.715,3.715,0,0,1,3.362,0l28.194,16.275a1.025,1.025,0,0,1,0,1.942L135.7,283.064a3.729,3.729,0,0,1-3.365,0" transform="translate(-103.456 -214.775)"/>
            </g>
          </g>
        </g>
        <path id="Trazado_200468" data-name="Trazado 200468" d="M133.909,305.461v3.023a3.47,3.47,0,0,1-1.579-.388l-28.17-16.273a1.189,1.189,0,0,1-.7-.971v-2.965a1.189,1.189,0,0,0,.7.971l28.17,16.208a3.482,3.482,0,0,0,1.579.4" transform="translate(-31.124 -86.604)" fill="#ee296d"/>
        <g id="Grupo_159538" data-name="Grupo 159538" transform="translate(72.336 201.283)" opacity="0.7">
          <g id="Grupo_159537" data-name="Grupo 159537">
            <g id="Grupo_159536" data-name="Grupo 159536" clip-path="url(#clip-path-17)">
              <path id="Trazado_200469" data-name="Trazado 200469" d="M133.909,305.461v3.023a3.47,3.47,0,0,1-1.579-.388l-28.17-16.273a1.189,1.189,0,0,1-.7-.971v-2.965a1.189,1.189,0,0,0,.7.971l28.17,16.208a3.482,3.482,0,0,0,1.579.4" transform="translate(-103.46 -287.887)"/>
            </g>
          </g>
        </g>
        <path id="Trazado_200470" data-name="Trazado 200470" d="M198.476,244.593l3.212,1.854a.431.431,0,0,0,.2.05l2.961-1.649L201.4,242.9Z" transform="translate(-59.707 -73.072)" fill="#2b454e"/>
        <path id="Trazado_200471" data-name="Trazado 200471" d="M204.006,241.4l3.225,1.862a.43.43,0,0,0,.19.041l.12-.008,2.841-1.641-3.455-1.942Z" transform="translate(-61.37 -72.112)" fill="#2b454e"/>
        <path id="Trazado_200472" data-name="Trazado 200472" d="M189.17,249.513l3.224,1.862a.428.428,0,0,0,.189.041l4.794-2.705-3.454-1.943Z" transform="translate(-56.907 -74.234)" fill="#2b454e"/>
        <path id="Trazado_200473" data-name="Trazado 200473" d="M183.642,253.16l3.22,1.861a.43.43,0,0,0,.192.043l2.964-1.648-3.455-1.943Z" transform="translate(-55.244 -75.65)" fill="#2b454e"/>
        <path id="Trazado_200474" data-name="Trazado 200474" d="M156.923,294.1l2.961-1.649-3.453-1.941-2.924,1.686,3.226,1.862a.434.434,0,0,0,.19.041" transform="translate(-46.179 -87.394)" fill="#2b454e"/>
        <path id="Trazado_200475" data-name="Trazado 200475" d="M178.115,256.351l3.206,1.851a.412.412,0,0,0,.208.052l2.962-1.648-3.455-1.943Z" transform="translate(-53.582 -76.609)" fill="#2b454e"/>
        <path id="Trazado_200476" data-name="Trazado 200476" d="M207.649,246.513l-2.924,1.688,3.218,1.858a.421.421,0,0,0,.2.045l2.962-1.65Z" transform="translate(-61.587 -74.158)" fill="#2b454e"/>
        <path id="Trazado_200477" data-name="Trazado 200477" d="M191.986,266.644,194.949,265l-3.455-1.943-2.924,1.686,3.22,1.859a.425.425,0,0,0,.2.045" transform="translate(-56.727 -79.133)" fill="#2b454e"/>
        <path id="Trazado_200478" data-name="Trazado 200478" d="M213.67,246.912l2.962-1.649-3.457-1.942-2.92,1.688,3.223,1.862a.439.439,0,0,0,.192.041" transform="translate(-63.25 -73.197)" fill="#2b454e"/>
        <path id="Trazado_200479" data-name="Trazado 200479" d="M186.459,269.835l2.963-1.649-3.456-1.942-2.923,1.687,3.208,1.851a.414.414,0,0,0,.208.052" transform="translate(-55.065 -80.093)" fill="#2b454e"/>
        <path id="Trazado_200480" data-name="Trazado 200480" d="M180.933,273.027l2.961-1.649-3.455-1.942-2.924,1.686,3.226,1.863a.448.448,0,0,0,.192.042" transform="translate(-53.401 -81.054)" fill="#2b454e"/>
        <path id="Trazado_200481" data-name="Trazado 200481" d="M202.388,258.367l6.214-3.528-7.819-4.464-3.332,1.922,4.087,2.358a.2.2,0,0,1,.116.169.182.182,0,0,1-.1.15l-2.58,1.489,3.2,1.849a.406.406,0,0,0,.211.055" transform="translate(-59.399 -75.32)" fill="#2b454e"/>
        <path id="Trazado_200482" data-name="Trazado 200482" d="M167.058,262.732l3.222,1.862a.43.43,0,0,0,.192.043l2.964-1.649-3.455-1.942Z" transform="translate(-50.256 -78.53)" fill="#2b454e"/>
        <path id="Trazado_200483" data-name="Trazado 200483" d="M197.513,263.453l2.964-1.649-3.455-1.942-2.923,1.686,3.2,1.849a.416.416,0,0,0,.211.055" transform="translate(-58.39 -78.173)" fill="#2b454e"/>
        <path id="Trazado_200484" data-name="Trazado 200484" d="M134.536,292.6l2.962-1.649-3.455-1.942-2.924,1.688,3.208,1.851a.419.419,0,0,0,.208.052" transform="translate(-39.444 -86.941)" fill="#2b454e"/>
        <path id="Trazado_200485" data-name="Trazado 200485" d="M122.838,288.263l3.232,1.866a.465.465,0,0,0,.183.037l.12-.008,2.842-1.641-3.455-1.941Z" transform="translate(-36.953 -86.21)" fill="#2b454e"/>
        <path id="Trazado_200486" data-name="Trazado 200486" d="M142.239,295.366l.12-.008,2.841-1.641-3.455-1.941-2.922,1.686,3.225,1.862a.43.43,0,0,0,.19.041" transform="translate(-41.762 -87.774)" fill="#2b454e"/>
        <path id="Trazado_200487" data-name="Trazado 200487" d="M145.868,300.484l2.962-1.649-3.456-1.942-2.922,1.688,3.207,1.851a.418.418,0,0,0,.208.052" transform="translate(-42.854 -89.313)" fill="#2b454e"/>
        <path id="Trazado_200488" data-name="Trazado 200488" d="M128.365,285.072l3.225,1.862a.435.435,0,0,0,.19.041l2.961-1.649-3.455-1.941Z" transform="translate(-38.616 -85.25)" fill="#2b454e"/>
        <path id="Trazado_200489" data-name="Trazado 200489" d="M151.4,297.294l2.96-1.65L150.9,293.7l-2.923,1.686,3.222,1.861a.44.44,0,0,0,.2.044" transform="translate(-44.516 -88.354)" fill="#2b454e"/>
        <path id="Trazado_200490" data-name="Trazado 200490" d="M144.947,275.5l3.222,1.861a.43.43,0,0,0,.194.043l2.962-1.647-3.455-1.942Z" transform="translate(-43.604 -82.37)" fill="#2b454e"/>
        <path id="Trazado_200491" data-name="Trazado 200491" d="M150.475,272.307l3.215,1.856a.429.429,0,0,0,.2.048l2.962-1.648-3.455-1.942Z" transform="translate(-45.267 -81.41)" fill="#2b454e"/>
        <path id="Trazado_200492" data-name="Trazado 200492" d="M156,269.115l3.208,1.852a.414.414,0,0,0,.208.052l2.963-1.649-3.457-1.942Z" transform="translate(-46.93 -80.45)" fill="#2b454e"/>
        <path id="Trazado_200493" data-name="Trazado 200493" d="M139.42,278.689l3.208,1.852a.412.412,0,0,0,.207.052l2.964-1.649L142.344,277Z" transform="translate(-41.941 -83.33)" fill="#2b454e"/>
        <path id="Trazado_200494" data-name="Trazado 200494" d="M161.532,265.926l3.222,1.861a.441.441,0,0,0,.192.043l2.963-1.649-3.457-1.942Z" transform="translate(-48.593 -79.49)" fill="#2b454e"/>
        <path id="Trazado_200495" data-name="Trazado 200495" d="M133.893,281.881l3.222,1.861a.44.44,0,0,0,.2.044l2.962-1.649-3.457-1.942Z" transform="translate(-40.279 -84.29)" fill="#2b454e"/>
        <path id="Trazado_200496" data-name="Trazado 200496" d="M172.585,259.541l3.229,1.866a.446.446,0,0,0,.185.038l2.964-1.648-3.455-1.942Z" transform="translate(-51.918 -77.57)" fill="#2b454e"/>
        <path id="Trazado_200497" data-name="Trazado 200497" d="M186.4,258.781l3.212,1.854a.419.419,0,0,0,.2.05l.119-.008,2.841-1.641-3.453-1.941Z" transform="translate(-56.073 -77.341)" fill="#2b454e"/>
        <path id="Trazado_200498" data-name="Trazado 200498" d="M216.225,234.348l3.211,1.854a.427.427,0,0,0,.2.05L222.6,234.6l-3.455-1.942Z" transform="translate(-65.046 -69.99)" fill="#2b454e"/>
        <path id="Trazado_200499" data-name="Trazado 200499" d="M221.753,231.157l3.213,1.853a.4.4,0,0,0,.2.05l2.963-1.649-3.455-1.942Z" transform="translate(-66.709 -69.03)" fill="#2b454e"/>
        <path id="Trazado_200500" data-name="Trazado 200500" d="M180.87,261.973l3.214,1.856a.427.427,0,0,0,.2.048l2.962-1.649-3.455-1.942Z" transform="translate(-54.411 -78.301)" fill="#2b454e"/>
        <path id="Trazado_200501" data-name="Trazado 200501" d="M227.281,227.965l3.21,1.854a.426.426,0,0,0,.2.05l2.963-1.648-3.455-1.943Z" transform="translate(-68.372 -68.07)" fill="#2b454e"/>
        <path id="Trazado_200502" data-name="Trazado 200502" d="M195.34,257.494l.12-.008,2.841-1.64-3.454-1.942-2.925,1.686,3.213,1.854a.42.42,0,0,0,.2.05" transform="translate(-57.735 -76.381)" fill="#2b454e"/>
        <path id="Trazado_200503" data-name="Trazado 200503" d="M222.47,237.953l3.206,1.849a.408.408,0,0,0,.212.055l2.961-1.649-3.455-1.942Z" transform="translate(-66.925 -71.075)" fill="#2b454e"/>
        <path id="Trazado_200504" data-name="Trazado 200504" d="M233.525,231.571l3.206,1.849a.417.417,0,0,0,.21.055l2.963-1.649-3.455-1.942Z" transform="translate(-70.251 -69.156)" fill="#2b454e"/>
        <path id="Trazado_200505" data-name="Trazado 200505" d="M231.414,236.667l2.962-1.649-3.455-1.942L228,234.762l3.223,1.859a.414.414,0,0,0,.2.045" transform="translate(-68.587 -70.116)" fill="#2b454e"/>
        <path id="Trazado_200506" data-name="Trazado 200506" d="M246.655,232.767a.448.448,0,0,0,.183.037l.12-.008,2.84-1.64-7.82-4.465-2.925,1.687Z" transform="translate(-71.914 -68.195)" fill="#2b454e"/>
        <path id="Trazado_200507" data-name="Trazado 200507" d="M175.341,265.164l3.212,1.853a.413.413,0,0,0,.2.05l.12-.008,2.843-1.64-3.455-1.943Z" transform="translate(-52.747 -79.261)" fill="#2b454e"/>
        <path id="Trazado_200508" data-name="Trazado 200508" d="M237.662,240.273l.12-.008,2.841-1.641-3.454-1.941-2.925,1.686,3.213,1.853a.414.414,0,0,0,.2.05" transform="translate(-70.467 -71.201)" fill="#2b454e"/>
        <path id="Trazado_200509" data-name="Trazado 200509" d="M243.19,237.082l2.962-1.649-3.456-1.941-2.924,1.686,3.2,1.848a.41.41,0,0,0,.214.055" transform="translate(-72.13 -70.241)" fill="#2b454e"/>
        <path id="Trazado_200510" data-name="Trazado 200510" d="M147.7,281.121l3.209,1.851a.417.417,0,0,0,.209.052l2.961-1.649-3.455-1.942Z" transform="translate(-44.433 -84.061)" fill="#2b454e"/>
        <path id="Trazado_200511" data-name="Trazado 200511" d="M136.65,287.5l3.206,1.851a.414.414,0,0,0,.208.052l.12-.008,2.842-1.641-3.455-1.942Z" transform="translate(-41.108 -85.981)" fill="#2b454e"/>
        <path id="Trazado_200512" data-name="Trazado 200512" d="M153.3,288.984l2.962-1.648-3.457-1.943-2.923,1.686,3.228,1.863a.44.44,0,0,0,.189.042" transform="translate(-45.087 -85.854)" fill="#2b454e"/>
        <path id="Trazado_200513" data-name="Trazado 200513" d="M147.766,292.175l2.962-1.647-3.456-1.942-2.922,1.686,3.225,1.862a.435.435,0,0,0,.19.041" transform="translate(-43.425 -86.814)" fill="#2b454e"/>
        <path id="Trazado_200514" data-name="Trazado 200514" d="M158.821,285.792l.12-.008,2.843-1.64-3.455-1.942-2.924,1.686,3.208,1.851a.419.419,0,0,0,.208.052" transform="translate(-46.75 -84.894)" fill="#2b454e"/>
        <path id="Trazado_200515" data-name="Trazado 200515" d="M169.813,268.356l3.215,1.856a.425.425,0,0,0,.2.048l.12-.008,2.841-1.641-3.453-1.941Z" transform="translate(-51.084 -80.221)" fill="#2b454e"/>
        <path id="Trazado_200516" data-name="Trazado 200516" d="M169.876,279.41l2.962-1.649-3.455-1.942-2.924,1.686,3.208,1.852a.418.418,0,0,0,.208.052" transform="translate(-50.076 -82.974)" fill="#2b454e"/>
        <path id="Trazado_200517" data-name="Trazado 200517" d="M164.351,282.6l2.962-1.649-3.455-1.942-2.924,1.686,3.226,1.863a.448.448,0,0,0,.192.042" transform="translate(-48.413 -83.934)" fill="#2b454e"/>
        <path id="Trazado_200518" data-name="Trazado 200518" d="M158.758,274.739l3.208,1.851a.421.421,0,0,0,.21.052l2.961-1.649-3.455-1.942Z" transform="translate(-47.759 -82.141)" fill="#2b454e"/>
        <path id="Trazado_200519" data-name="Trazado 200519" d="M142.176,284.313l3.208,1.851a.416.416,0,0,0,.209.052l2.961-1.649-3.455-1.942Z" transform="translate(-42.77 -85.021)" fill="#2b454e"/>
        <path id="Trazado_200520" data-name="Trazado 200520" d="M164.286,271.547,167.5,273.4a.418.418,0,0,0,.2.05l2.961-1.649-3.455-1.942Z" transform="translate(-49.422 -81.181)" fill="#2b454e"/>
        <path id="Trazado_200521" data-name="Trazado 200521" d="M153.232,277.93l3.206,1.851a.417.417,0,0,0,.209.052l.12-.008,2.841-1.641-3.455-1.942Z" transform="translate(-46.096 -83.101)" fill="#2b454e"/>
        <path id="Trazado_200522" data-name="Trazado 200522" d="M175.4,276.218l2.964-1.648-3.455-1.943-2.923,1.687,3.22,1.858a.414.414,0,0,0,.2.045" transform="translate(-51.739 -82.014)" fill="#2b454e"/>
        <path id="Trazado_200523" data-name="Trazado 200523" d="M209.533,238.21l3.226,1.862a.432.432,0,0,0,.189.041l2.962-1.649-3.455-1.942Z" transform="translate(-63.033 -71.152)" fill="#2b454e"/>
        <path id="Trazado_200524" data-name="Trazado 200524" d="M120.231,289.769l-2.923,1.686,3.227,1.862a.43.43,0,0,0,.19.041l.12-.008,2.844-1.641Z" transform="translate(-35.289 -87.17)" fill="#2b454e"/>
        <path id="Trazado_200525" data-name="Trazado 200525" d="M127.9,292.2l-4.347,2.509,3.225,1.862a.425.425,0,0,0,.19.041l.12-.008,4.266-2.462Z" transform="translate(-37.169 -87.901)" fill="#2b454e"/>
        <path id="Trazado_200526" data-name="Trazado 200526" d="M113.26,284.887l-3.534,2.039,3.212,1.854a.432.432,0,0,0,.206.05l3.571-2Z" transform="translate(-33.009 -85.702)" fill="#2b454e"/>
        <path id="Trazado_200527" data-name="Trazado 200527" d="M139.586,300.084l-3.533,2.04,3.206,1.851a.43.43,0,0,0,.208.052l3.573-2Z" transform="translate(-40.928 -90.273)" fill="#2b454e"/>
        <path id="Trazado_200528" data-name="Trazado 200528" d="M135.167,294.967l-5.363,3.1,3.225,1.862a.434.434,0,0,0,.191.041l.12-.008,5.284-3.05Z" transform="translate(-39.049 -88.734)" fill="#2b454e"/>
        <path id="Trazado_200529" data-name="Trazado 200529" d="M121.948,283.9l2.962-1.649-3.455-1.942-2.924,1.686,3.208,1.853a.418.418,0,0,0,.208.052" transform="translate(-35.658 -84.324)" fill="#2b454e"/>
        <path id="Trazado_200530" data-name="Trazado 200530" d="M142.3,305.53l3.211,1.854a.416.416,0,0,0,.2.05l4.386-2.472-3.454-1.941Z" transform="translate(-42.808 -91.157)" fill="#2b454e"/>
        <path id="Trazado_200531" data-name="Trazado 200531" d="M127.477,280.706l2.961-1.649-3.455-1.942-2.922,1.688,3.224,1.862a.437.437,0,0,0,.192.041" transform="translate(-37.321 -83.364)" fill="#2b454e"/>
        <path id="Trazado_200532" data-name="Trazado 200532" d="M151.991,266.552l.12-.008,2.843-1.641-3.455-1.942-2.922,1.688,3.214,1.856a.42.42,0,0,0,.2.048" transform="translate(-44.696 -79.106)" fill="#2b454e"/>
        <path id="Trazado_200533" data-name="Trazado 200533" d="M157.519,263.361l2.962-1.649-3.455-1.942-2.923,1.688,3.215,1.856a.427.427,0,0,0,.2.048" transform="translate(-46.358 -78.146)" fill="#2b454e"/>
        <path id="Trazado_200534" data-name="Trazado 200534" d="M146.462,269.743l.12-.008,2.843-1.641-3.455-1.942-2.923,1.688,3.208,1.851a.418.418,0,0,0,.208.052" transform="translate(-43.032 -80.066)" fill="#2b454e"/>
        <path id="Trazado_200535" data-name="Trazado 200535" d="M138.531,274.323l.12-.008,2.843-1.641-3.455-1.942-2.921,1.688,3.213,1.856a.423.423,0,0,0,.2.048" transform="translate(-40.647 -81.443)" fill="#2b454e"/>
        <path id="Trazado_200536" data-name="Trazado 200536" d="M133,277.515l2.962-1.649-3.455-1.942-2.922,1.688,3.22,1.86a.425.425,0,0,0,.194.043" transform="translate(-38.984 -82.404)" fill="#2b454e"/>
        <path id="Trazado_200537" data-name="Trazado 200537" d="M252.272,242.392l3.231,1.866a.464.464,0,0,0,.182.037l.12-.008,2.843-1.641-3.455-1.942Z" transform="translate(-75.89 -72.41)" fill="#2b454e"/>
        <path id="Trazado_200538" data-name="Trazado 200538" d="M223.466,259.02l3.208,1.85a.4.4,0,0,0,.208.055l2.963-1.649-3.455-1.942Z" transform="translate(-67.225 -77.413)" fill="#2b454e"/>
        <path id="Trazado_200539" data-name="Trazado 200539" d="M241.213,247.815l3.211,1.853a.423.423,0,0,0,.2.05l.12-.008,6.707-3.872L248,243.9Z" transform="translate(-72.563 -73.37)" fill="#2b454e"/>
        <path id="Trazado_200540" data-name="Trazado 200540" d="M228.994,255.829l3.206,1.849a.409.409,0,0,0,.212.055l2.962-1.647-3.455-1.942Z" transform="translate(-68.888 -76.453)" fill="#2b454e"/>
        <path id="Trazado_200541" data-name="Trazado 200541" d="M234.521,252.638l3.194,1.843a.411.411,0,0,0,.224.062l2.961-1.649-3.455-1.942Z" transform="translate(-70.55 -75.493)" fill="#2b454e"/>
        <path id="Trazado_200542" data-name="Trazado 200542" d="M163.045,260.169l.12-.008,2.843-1.641-3.455-1.942-2.923,1.688,3.208,1.851a.412.412,0,0,0,.208.052" transform="translate(-48.021 -77.186)" fill="#2b454e"/>
        <path id="Trazado_200543" data-name="Trazado 200543" d="M254.473,233.9l-2.924,1.688,7.6,4.388a.437.437,0,0,0,.183.038l.12-.008,2.841-1.64Z" transform="translate(-75.673 -70.365)" fill="#2b454e"/>
        <path id="Trazado_200544" data-name="Trazado 200544" d="M156.265,297.669l3.206,1.851a.426.426,0,0,0,.208.052l3.572-2-3.454-1.943Z" transform="translate(-47.009 -88.933)" fill="#2b454e"/>
        <path id="Trazado_200545" data-name="Trazado 200545" d="M162.666,289.376l3.2,1.848a.409.409,0,0,0,.213.055l.12-.008,21.962-12.678-3.455-1.944Z" transform="translate(-48.934 -83.223)" fill="#2b454e"/>
        <path id="Trazado_200546" data-name="Trazado 200546" d="M162.45,290.911l2.962-1.647-3.455-1.942-2.924,1.686,3.223,1.861a.425.425,0,0,0,.194.043" transform="translate(-47.842 -86.434)" fill="#2b454e"/>
        <path id="Trazado_200547" data-name="Trazado 200547" d="M149.864,301.364l3.208,1.852a.412.412,0,0,0,.207.052l3.573-2-3.455-1.942Z" transform="translate(-45.083 -90.045)" fill="#2b454e"/>
        <path id="Trazado_200548" data-name="Trazado 200548" d="M195.538,274.994l3.212,1.854a.419.419,0,0,0,.2.05l.12-.008,3.453-1.992-3.456-1.942Z" transform="translate(-58.823 -82.112)" fill="#2b454e"/>
        <path id="Trazado_200549" data-name="Trazado 200549" d="M208.34,267.6l3.218,1.858a.428.428,0,0,0,.2.045l.12-.008,3.452-1.993-3.455-1.943Z" transform="translate(-62.674 -79.888)" fill="#2b454e"/>
        <path id="Trazado_200550" data-name="Trazado 200550" d="M201.939,271.3l3.225,1.862a.438.438,0,0,0,.192.043l3.572-2-3.456-1.941Z" transform="translate(-60.749 -81)" fill="#2b454e"/>
        <path id="Trazado_200551" data-name="Trazado 200551" d="M214.739,263.705l3.212,1.854a.42.42,0,0,0,.2.05l.12-.008,4.265-2.463-3.454-1.942Z" transform="translate(-64.599 -78.575)" fill="#2b454e"/>
        <path id="Trazado_200552" data-name="Trazado 200552" d="M219.2,243.72l.12-.008,2.843-1.641-3.455-1.942-2.923,1.688L219,243.675a.432.432,0,0,0,.2.045" transform="translate(-64.912 -72.237)" fill="#2b454e"/>
        <path id="Trazado_200553" data-name="Trazado 200553" d="M226.162,254.126l.12-.008,2.843-1.641-3.455-1.942-2.923,1.686,3.218,1.86a.432.432,0,0,0,.2.045" transform="translate(-67.008 -75.368)" fill="#2b454e"/>
        <path id="Trazado_200554" data-name="Trazado 200554" d="M206.673,264.116l8.045-4.585-3.455-1.942-8.008,4.623,3.228,1.863a.438.438,0,0,0,.189.042" transform="translate(-61.145 -77.49)" fill="#2b454e"/>
        <path id="Trazado_200555" data-name="Trazado 200555" d="M238.382,247.071l.12-.008,2.843-1.642-3.455-1.941-2.923,1.688,3.225,1.862a.438.438,0,0,0,.191.041" transform="translate(-70.684 -73.245)" fill="#2b454e"/>
        <path id="Trazado_200556" data-name="Trazado 200556" d="M243.909,243.879l.12-.008,2.841-1.64-3.454-1.943-2.923,1.688,3.218,1.858a.432.432,0,0,0,.2.045" transform="translate(-72.347 -72.285)" fill="#2b454e"/>
        <path id="Trazado_200557" data-name="Trazado 200557" d="M201.142,268.572l2.964-1.648-3.455-1.943-2.924,1.686,3.211,1.854a.408.408,0,0,0,.2.05" transform="translate(-59.482 -79.713)" fill="#2b454e"/>
        <path id="Trazado_200558" data-name="Trazado 200558" d="M232.135,243.464l.12-.008,2.842-1.64-3.455-1.942-2.924,1.686,3.2,1.848a.41.41,0,0,0,.214.055" transform="translate(-68.804 -72.161)" fill="#2b454e"/>
        <path id="Trazado_200559" data-name="Trazado 200559" d="M173.505,284.528l2.961-1.649-3.454-1.941-2.923,1.686,3.222,1.86a.426.426,0,0,0,.194.043" transform="translate(-51.167 -84.514)" fill="#2b454e"/>
        <path id="Trazado_200560" data-name="Trazado 200560" d="M195.617,271.763l2.96-1.649-3.453-1.942-2.923,1.687,3.232,1.865a.458.458,0,0,0,.185.038" transform="translate(-57.819 -80.673)" fill="#2b454e"/>
        <path id="Trazado_200561" data-name="Trazado 200561" d="M167.978,287.719l.12-.008,2.841-1.641-3.454-1.941-2.923,1.686,3.226,1.862a.435.435,0,0,0,.19.041" transform="translate(-49.505 -85.474)" fill="#2b454e"/>
        <path id="Trazado_200562" data-name="Trazado 200562" d="M179.035,281.337l2.96-1.649-3.455-1.942-2.923,1.686,3.235,1.866a.451.451,0,0,0,.182.038" transform="translate(-52.83 -83.553)" fill="#2b454e"/>
        <path id="Trazado_200563" data-name="Trazado 200563" d="M184.56,278.145l.12-.008,2.841-1.641-3.453-1.941-2.924,1.686,3.208,1.851a.418.418,0,0,0,.208.052" transform="translate(-54.493 -82.593)" fill="#2b454e"/>
        <path id="Trazado_200564" data-name="Trazado 200564" d="M190.088,274.953l.12-.008,2.843-1.64-3.455-1.942-2.924,1.686,3.226,1.863a.44.44,0,0,0,.19.041" transform="translate(-56.156 -81.633)" fill="#2b454e"/>
        <path id="Trazado_200565" data-name="Trazado 200565" d="M176.507,252.4l2.961-1.649-3.455-1.941-2.924,1.686,3.208,1.851a.421.421,0,0,0,.21.052" transform="translate(-52.07 -74.848)" fill="#2b454e"/>
        <path id="Trazado_200566" data-name="Trazado 200566" d="M249.437,240.688l.12-.008,2.843-1.641-3.456-1.942-2.922,1.688,3.225,1.862a.437.437,0,0,0,.191.041" transform="translate(-74.01 -71.325)" fill="#2b454e"/>
        <path id="Trazado_200567" data-name="Trazado 200567" d="M187.562,246.016l2.961-1.649-3.455-1.941-2.923,1.686,3.207,1.851a.421.421,0,0,0,.21.052" transform="translate(-55.396 -72.928)" fill="#2b454e"/>
        <path id="Trazado_200568" data-name="Trazado 200568" d="M199.839,238.927l2.961-1.649-3.455-1.942-2.923,1.688,3.212,1.854a.42.42,0,0,0,.2.05" transform="translate(-59.089 -70.795)" fill="#2b454e"/>
        <path id="Trazado_200569" data-name="Trazado 200569" d="M194.312,242.118l2.96-1.649-3.454-1.942-2.924,1.688,3.212,1.854a.422.422,0,0,0,.206.05" transform="translate(-57.426 -71.755)" fill="#2b454e"/>
        <path id="Trazado_200570" data-name="Trazado 200570" d="M170.979,255.589l2.961-1.649L170.486,252l-2.922,1.688,3.214,1.856a.427.427,0,0,0,.2.048" transform="translate(-50.408 -75.808)" fill="#2b454e"/>
        <path id="Trazado_200571" data-name="Trazado 200571" d="M182.035,249.207l.119-.008,2.841-1.641-3.455-1.941-2.923,1.686,3.208,1.851a.419.419,0,0,0,.21.052" transform="translate(-53.733 -73.888)" fill="#2b454e"/>
        <path id="Trazado_200572" data-name="Trazado 200572" d="M205.367,235.735l2.96-1.649-3.454-1.942-2.924,1.688,3.212,1.854a.422.422,0,0,0,.206.05" transform="translate(-60.752 -69.835)" fill="#2b454e"/>
        <path id="Trazado_200573" data-name="Trazado 200573" d="M227.713,221.772l2.96-1.649-1.879-1.015-2.926,1.689,1.646.929a.431.431,0,0,0,.2.046" transform="translate(-67.947 -65.914)" fill="#2b454e"/>
        <path id="Trazado_200574" data-name="Trazado 200574" d="M236.222,226.677l2.962-1.649-3.455-1.942-2.922,1.688,3.21,1.853a.424.424,0,0,0,.2.05" transform="translate(-70.035 -67.11)" fill="#2b454e"/>
        <path id="Trazado_200575" data-name="Trazado 200575" d="M211.131,231.345l.12-.008,2.839-1.641-1.877-1.014-2.924,1.689,1.636.924a.419.419,0,0,0,.2.05" transform="translate(-62.96 -68.794)" fill="#2b454e"/>
        <path id="Trazado_200576" data-name="Trazado 200576" d="M216.659,228.153l.12-.008,2.839-1.641-1.876-1.014-2.925,1.689,1.651.933a.434.434,0,0,0,.19.041" transform="translate(-64.623 -67.834)" fill="#2b454e"/>
        <path id="Trazado_200577" data-name="Trazado 200577" d="M222.186,224.962l2.96-1.649-1.877-1.014-2.924,1.689,1.651.933a.447.447,0,0,0,.19.041" transform="translate(-66.286 -66.874)" fill="#2b454e"/>
        <g id="Grupo_159544" data-name="Grupo 159544" transform="translate(44.308 11.228)" opacity="0.8">
          <g id="Grupo_159543" data-name="Grupo 159543">
            <g id="Grupo_159542" data-name="Grupo 159542" clip-path="url(#clip-path-18)">
              <path id="Trazado_200578" data-name="Trazado 200578" d="M179.363,17.293v83.482a3.833,3.833,0,0,1-1.735,3L65.107,168.865a1.11,1.11,0,0,1-.575.165.969.969,0,0,1-.222-.029.642.642,0,0,1-.148-.051c-.034-.017-.062-.034-.091-.051l-.1-.068a.626.626,0,0,1-.1-.085,1.365,1.365,0,0,1-.319-.455,2.167,2.167,0,0,1-.182-.876V84.353a3.842,3.842,0,0,1,1.735-3l112.52-65.057a1.256,1.256,0,0,1,1.166-.148.783.783,0,0,1,.148.085l.011.011a.55.55,0,0,1,.114.114.279.279,0,0,1,.051.063.3.3,0,0,1,.057.091.78.78,0,0,1,.1.222.618.618,0,0,1,.04.154.038.038,0,0,1,.006.034.725.725,0,0,1,.029.159c.006.068.011.142.011.216" transform="translate(-63.372 -16.059)" fill="#455a64"/>
              <path id="Trazado_200579" data-name="Trazado 200579" d="M178.4,16.758a.256.256,0,0,1,.118.029l0,0,.027.036.006.017.022.033.057.172,0,.038.017.035,0,.017c0,.05.008.1.008.157v83.482a3.163,3.163,0,0,1-1.386,2.4L64.761,168.259a.438.438,0,0,1-.224.073h0s-.021,0-.055,0l-.022-.012,0,0-.076-.05,0,0-.036-.033a.679.679,0,0,1-.152-.223,1.471,1.471,0,0,1-.122-.592V84.354a3.163,3.163,0,0,1,1.386-2.4L177.973,16.9a.927.927,0,0,1,.423-.142m0-.7a1.578,1.578,0,0,0-.77.234L65.107,81.35a3.842,3.842,0,0,0-1.735,3v83.061a2.181,2.181,0,0,0,.182.876,1.364,1.364,0,0,0,.319.455.746.746,0,0,0,.1.085l.1.069c.028.017.057.034.091.051a.651.651,0,0,0,.148.051.964.964,0,0,0,.222.029h.024a1.137,1.137,0,0,0,.551-.165l112.519-65.085a3.832,3.832,0,0,0,1.735-3V17.294c0-.074,0-.148-.011-.217a.726.726,0,0,0-.028-.159.036.036,0,0,0-.006-.034.582.582,0,0,0-.04-.154.77.77,0,0,0-.1-.222.3.3,0,0,0-.057-.092.258.258,0,0,0-.051-.062.534.534,0,0,0-.114-.114l-.011-.011a.742.742,0,0,0-.148-.085.922.922,0,0,0-.4-.086" transform="translate(-63.372 -16.059)" fill="#455a64"/>
              <g id="Grupo_159541" data-name="Grupo 159541" opacity="0.7">
                <g id="Grupo_159540" data-name="Grupo 159540">
                  <g id="Grupo_159539" data-name="Grupo 159539" clip-path="url(#clip-path-18)">
                    <path id="Trazado_200580" data-name="Trazado 200580" d="M179.363,17.293v83.482a3.833,3.833,0,0,1-1.735,3L65.107,168.865a1.11,1.11,0,0,1-.575.165.969.969,0,0,1-.222-.029.642.642,0,0,1-.148-.051c-.034-.017-.062-.034-.091-.051l-.1-.068a.626.626,0,0,1-.1-.085,1.365,1.365,0,0,1-.319-.455,2.167,2.167,0,0,1-.182-.876V84.353a3.842,3.842,0,0,1,1.735-3l112.52-65.057a1.256,1.256,0,0,1,1.166-.148.783.783,0,0,1,.148.085l.011.011a.55.55,0,0,1,.114.114.279.279,0,0,1,.051.063.3.3,0,0,1,.057.091.78.78,0,0,1,.1.222.618.618,0,0,1,.04.154.038.038,0,0,1,.006.034.725.725,0,0,1,.029.159c.006.068.011.142.011.216" transform="translate(-63.372 -16.059)" fill="#455a64"/>
                  </g>
                </g>
              </g>
            </g>
          </g>
        </g>
        <path id="Trazado_200581" data-name="Trazado 200581" d="M177.841,15.6a1.257,1.257,0,0,0-1.167.148L64.155,80.81a3.842,3.842,0,0,0-1.735,3v5.667l-2.214-1.3V82.556a3.828,3.828,0,0,1,1.73-3L174.461,14.5a1.205,1.205,0,0,1,1.257-.1c.313.187,1.753,1.012,2.123,1.206" transform="translate(-18.112 -4.292)" fill="#ee296d"/>
        <path id="Trazado_200582" data-name="Trazado 200582" d="M179.359,17.282c-.007-1.095-.779-1.538-1.733-.988L65.107,81.351a3.833,3.833,0,0,0-1.734,3l0,5.67L179.359,22.972Z" transform="translate(-19.064 -4.831)" fill="#ee296d"/>
        <g id="Grupo_159547" data-name="Grupo 159547" transform="translate(42.621 9.975)" opacity="0.4">
          <g id="Grupo_159546" data-name="Grupo 159546">
            <g id="Grupo_159545" data-name="Grupo 159545" clip-path="url(#clip-path-20)">
              <path id="Trazado_200583" data-name="Trazado 200583" d="M176.9,15.755,64.383,80.811A3.565,3.565,0,0,0,63.161,82.1l-2.2-1.276a3.468,3.468,0,0,1,1.206-1.266L174.687,14.5a1.22,1.22,0,0,1,1.259-.1c.311.191,1.75,1.009,2.116,1.205a1.254,1.254,0,0,0-1.161.152" transform="translate(-60.959 -14.267)" fill="#fff"/>
            </g>
          </g>
        </g>
        <g id="Grupo_159550" data-name="Grupo 159550" transform="translate(42.092 76.531)" opacity="0.15">
          <g id="Grupo_159549" data-name="Grupo 159549">
            <g id="Grupo_159548" data-name="Grupo 159548" clip-path="url(#clip-path-21)">
              <path id="Trazado_200584" data-name="Trazado 200584" d="M60.2,116.828v-5.636a3.577,3.577,0,0,1,.527-1.734l2.208,1.27a3.5,3.5,0,0,0-.517,1.723v5.67Z" transform="translate(-60.202 -109.459)"/>
            </g>
          </g>
        </g>
        <path id="Trazado_200585" data-name="Trazado 200585" d="M213.908,27a2.586,2.586,0,0,0-.98,2.074c0,.833.438,1.254.98.942a2.585,2.585,0,0,0,.98-2.074c0-.833-.438-1.255-.98-.943" transform="translate(-64.054 -8.09)" fill="#455a64"/>
        <path id="Trazado_200586" data-name="Trazado 200586" d="M218.951,24.079a2.584,2.584,0,0,0-.98,2.074c0,.833.438,1.254.98.942a2.584,2.584,0,0,0,.98-2.074c0-.833-.438-1.255-.98-.942" transform="translate(-65.572 -7.213)" fill="#455a64"/>
        <path id="Trazado_200587" data-name="Trazado 200587" d="M223.995,21.162a2.583,2.583,0,0,0-.98,2.074c0,.833.438,1.254.98.942a2.584,2.584,0,0,0,.98-2.074c0-.833-.438-1.255-.98-.942" transform="translate(-67.089 -6.335)" fill="#455a64"/>
        <g id="Grupo_159553" data-name="Grupo 159553" transform="translate(42.094 83.893)" opacity="0.9">
          <g id="Grupo_159552" data-name="Grupo 159552">
            <g id="Grupo_159551" data-name="Grupo 159551" clip-path="url(#clip-path-22)">
              <path id="Trazado_200588" data-name="Trazado 200588" d="M63.058,200.137c-.063-.04-.136-.08-.216-.125-.159-.1-.342-.2-.535-.3L62.3,199.7c-.1-.057-.193-.113-.29-.165a.042.042,0,0,0-.022-.011c-.159-.091-.313-.182-.455-.261l-.381-.217c-.1-.062-.182-.1-.217-.119a1,1,0,0,1-.3-.239,1.326,1.326,0,0,1-.234-.353,2.144,2.144,0,0,1-.2-.916V119.989l2.213,1.3V198.68a2.6,2.6,0,0,0,.182.877,1.364,1.364,0,0,0,.319.455.281.281,0,0,0,.1.085.136.136,0,0,0,.04.04" transform="translate(-60.206 -119.989)" fill="#2b454e"/>
            </g>
          </g>
        </g>
        <path id="Trazado_200589" data-name="Trazado 200589" d="M110.177,161.868s-4.1-2.648-4.626-2.665l-11.636-.366L98.54,161.3v.2Z" transform="translate(-28.252 -47.782)" fill="#263238"/>
        <path id="Trazado_200590" data-name="Trazado 200590" d="M88.634,160.776v-7.288l19.954-24.8v9.672L96.952,152.229v.2l11.636.366v9.672Z" transform="translate(-26.663 -38.712)" fill="#fafafa"/>
        <path id="Trazado_200591" data-name="Trazado 200591" d="M106.6,127.539l-4.626-2.665-19.954,24.8,4.626,2.665Z" transform="translate(-24.673 -37.565)" fill="#455a64"/>
        <path id="Trazado_200592" data-name="Trazado 200592" d="M82.018,160.347v7.288l4.626,2.665v-7.288Z" transform="translate(-24.673 -48.237)" fill="#2b454e"/>
        <path id="Trazado_200593" data-name="Trazado 200593" d="M131.783,145.855l-6.194,3.576,15.441-56.6L147,89.386Z" transform="translate(-37.781 -26.89)" fill="#fafafa"/>
        <path id="Trazado_200594" data-name="Trazado 200594" d="M151.657,88.24l-4.626-2.665-5.973,3.448,4.626,2.665Z" transform="translate(-42.434 -25.743)" fill="#455a64"/>
        <path id="Trazado_200595" data-name="Trazado 200595" d="M134.415,90.507l4.626,2.665-15.442,56.6-4.625-2.665Z" transform="translate(-35.79 -27.227)" fill="#2b454e"/>
        <path id="Trazado_200596" data-name="Trazado 200596" d="M158.017,125.934l4.626,2.665,11.636-14.006-4.626-2.665Z" transform="translate(-47.536 -33.671)" fill="#263238"/>
        <path id="Trazado_200597" data-name="Trazado 200597" d="M176.269,111.391l-11.636-.434v-9.672l19.954,1.762v7.288L164.633,135.07V125.4l11.636-13.8Z" transform="translate(-49.526 -30.469)" fill="#fafafa"/>
        <path id="Trazado_200598" data-name="Trazado 200598" d="M158.017,97.473l4.626,2.665L182.6,101.9l-4.626-2.665Z" transform="translate(-47.536 -29.322)" fill="#455a64"/>
        <path id="Trazado_200599" data-name="Trazado 200599" d="M162.643,100.138v9.672l-4.626-2.665V97.473" transform="translate(-47.536 -29.322)" fill="#2b454e"/>
        <path id="Trazado_200600" data-name="Trazado 200600" d="M158.017,131.96l4.626,2.665V144.3l-4.626-2.665Z" transform="translate(-47.536 -39.697)" fill="#2b454e"/>
        <g id="Grupo_159559" data-name="Grupo 159559" transform="translate(145.196 25.625)" opacity="0.8">
          <g id="Grupo_159558" data-name="Grupo 159558">
            <g id="Grupo_159557" data-name="Grupo 159557" clip-path="url(#clip-path-23)">
              <path id="Trazado_200601" data-name="Trazado 200601" d="M259.1,37.886v83.482a3.833,3.833,0,0,1-1.735,3L209.4,152.044a1.113,1.113,0,0,1-.575.165,1.009,1.009,0,0,1-.222-.028.678.678,0,0,1-.148-.052c-.034-.017-.062-.034-.091-.051l-.1-.069a.625.625,0,0,1-.1-.085,1.357,1.357,0,0,1-.319-.455,2.167,2.167,0,0,1-.182-.876V67.532a3.841,3.841,0,0,1,1.736-3l47.96-27.643a1.256,1.256,0,0,1,1.166-.148.783.783,0,0,1,.148.085l.011.011a.549.549,0,0,1,.114.114.278.278,0,0,1,.051.063.288.288,0,0,1,.057.091.783.783,0,0,1,.1.222.618.618,0,0,1,.04.154.038.038,0,0,1,.006.034.722.722,0,0,1,.029.159c.006.068.011.142.011.216" transform="translate(-207.668 -36.651)" fill="#455a64"/>
              <path id="Trazado_200602" data-name="Trazado 200602" d="M258.134,37.35a.264.264,0,0,1,.116.027l.006,0,.027.036.006.017.022.034.057.171,0,.039.018.034,0,.017c0,.05.008.1.008.157v83.482a3.163,3.163,0,0,1-1.386,2.4l-47.956,27.67a.443.443,0,0,1-.224.073h0a.553.553,0,0,1-.057-.006l-.034-.02-.053-.036,0,0,0,0-.035-.032a.672.672,0,0,1-.152-.224,1.463,1.463,0,0,1-.122-.591V67.532a3.163,3.163,0,0,1,1.386-2.4l47.957-27.641a.927.927,0,0,1,.423-.142m0-.7a1.578,1.578,0,0,0-.77.234L209.4,64.528a3.842,3.842,0,0,0-1.735,3v83.061a2.158,2.158,0,0,0,.182.876,1.363,1.363,0,0,0,.318.455.7.7,0,0,0,.1.085l.1.069c.029.017.057.034.091.051a.619.619,0,0,0,.148.051.964.964,0,0,0,.222.029h.024a1.138,1.138,0,0,0,.551-.166l47.96-27.671a3.832,3.832,0,0,0,1.735-3V37.886c0-.074,0-.148-.011-.217a.739.739,0,0,0-.028-.159.035.035,0,0,0-.006-.034.581.581,0,0,0-.04-.154.769.769,0,0,0-.1-.222.3.3,0,0,0-.057-.092.258.258,0,0,0-.051-.062.534.534,0,0,0-.114-.114l-.011-.011a.742.742,0,0,0-.148-.085.922.922,0,0,0-.4-.086" transform="translate(-207.668 -36.651)" fill="#455a64"/>
              <g id="Grupo_159556" data-name="Grupo 159556" transform="translate(0.001)" opacity="0.8">
                <g id="Grupo_159555" data-name="Grupo 159555">
                  <g id="Grupo_159554" data-name="Grupo 159554" clip-path="url(#clip-path-24)">
                    <path id="Trazado_200603" data-name="Trazado 200603" d="M259.1,37.886v83.482a3.833,3.833,0,0,1-1.735,3L209.4,152.044a1.113,1.113,0,0,1-.575.165,1.009,1.009,0,0,1-.222-.028.678.678,0,0,1-.148-.052c-.034-.017-.062-.034-.091-.051l-.1-.069a.625.625,0,0,1-.1-.085,1.357,1.357,0,0,1-.319-.455,2.167,2.167,0,0,1-.182-.876V67.532a3.841,3.841,0,0,1,1.736-3l47.96-27.643a1.256,1.256,0,0,1,1.166-.148.783.783,0,0,1,.148.085l.011.011a.549.549,0,0,1,.114.114.278.278,0,0,1,.051.063.288.288,0,0,1,.057.091.783.783,0,0,1,.1.222.618.618,0,0,1,.04.154.038.038,0,0,1,.006.034.722.722,0,0,1,.029.159c.006.068.011.142.011.216" transform="translate(-207.669 -36.651)" fill="#455a64"/>
                  </g>
                </g>
              </g>
            </g>
          </g>
        </g>
        <path id="Trazado_200604" data-name="Trazado 200604" d="M257.578,36.2a1.255,1.255,0,0,0-1.166.148L208.451,63.989a3.843,3.843,0,0,0-1.735,3v5.668l-2.214-1.3V65.736a3.825,3.825,0,0,1,1.73-3L254.2,35.094a1.205,1.205,0,0,1,1.257-.1c.313.187,1.753,1.012,2.123,1.206" transform="translate(-61.52 -10.487)" fill="#ee296d"/>
        <path id="Trazado_200605" data-name="Trazado 200605" d="M259.1,37.874c-.007-1.095-.779-1.538-1.732-.988L209.4,64.529a3.832,3.832,0,0,0-1.733,3V73.2L259.1,43.564Z" transform="translate(-62.473 -11.025)" fill="#ee296d"/>
        <g id="Grupo_159562" data-name="Grupo 159562" transform="translate(143.509 24.372)" opacity="0.4">
          <g id="Grupo_159561" data-name="Grupo 159561">
            <g id="Grupo_159560" data-name="Grupo 159560" clip-path="url(#clip-path-25)">
              <path id="Trazado_200606" data-name="Trazado 200606" d="M256.637,36.348,208.679,63.99a3.563,3.563,0,0,0-1.221,1.286L205.255,64a3.468,3.468,0,0,1,1.206-1.266l47.962-27.643a1.218,1.218,0,0,1,1.259-.1c.311.191,1.75,1.009,2.116,1.205a1.254,1.254,0,0,0-1.161.152" transform="translate(-205.255 -34.859)" fill="#fff"/>
            </g>
          </g>
        </g>
        <g id="Grupo_159565" data-name="Grupo 159565" transform="translate(142.98 53.514)" opacity="0.15">
          <g id="Grupo_159564" data-name="Grupo 159564">
            <g id="Grupo_159563" data-name="Grupo 159563" clip-path="url(#clip-path-26)">
              <path id="Trazado_200607" data-name="Trazado 200607" d="M204.5,83.909V78.273a3.577,3.577,0,0,1,.527-1.734l2.208,1.27a3.5,3.5,0,0,0-.517,1.723V85.2Z" transform="translate(-204.499 -76.539)"/>
            </g>
          </g>
        </g>
        <path id="Trazado_200608" data-name="Trazado 200608" d="M265.867,47.589a2.583,2.583,0,0,0-.98,2.074c0,.833.438,1.254.98.942a2.584,2.584,0,0,0,.98-2.074c0-.833-.438-1.255-.98-.942" transform="translate(-79.685 -14.285)" fill="#455a64"/>
        <path id="Trazado_200609" data-name="Trazado 200609" d="M270.911,44.672a2.584,2.584,0,0,0-.98,2.074c0,.833.438,1.254.98.942a2.584,2.584,0,0,0,.98-2.074c0-.833-.438-1.255-.98-.942" transform="translate(-81.202 -13.407)" fill="#455a64"/>
        <path id="Trazado_200610" data-name="Trazado 200610" d="M275.954,41.755a2.584,2.584,0,0,0-.98,2.074c0,.833.438,1.254.98.942a2.584,2.584,0,0,0,.98-2.074c0-.833-.438-1.255-.98-.942" transform="translate(-82.72 -12.53)" fill="#455a64"/>
        <g id="Grupo_159568" data-name="Grupo 159568" transform="translate(142.983 60.877)" opacity="0.9">
          <g id="Grupo_159567" data-name="Grupo 159567">
            <g id="Grupo_159566" data-name="Grupo 159566" clip-path="url(#clip-path-27)">
              <path id="Trazado_200611" data-name="Trazado 200611" d="M207.354,167.218c-.063-.04-.136-.08-.216-.125-.159-.1-.342-.2-.535-.3l-.006-.006c-.1-.057-.193-.113-.29-.165a.042.042,0,0,0-.022-.011c-.159-.091-.313-.182-.455-.261l-.381-.217c-.1-.062-.182-.1-.217-.119a1,1,0,0,1-.3-.239,1.325,1.325,0,0,1-.234-.353,2.144,2.144,0,0,1-.2-.916V87.07l2.213,1.3v77.393a2.6,2.6,0,0,0,.182.877,1.364,1.364,0,0,0,.319.455.281.281,0,0,0,.1.085.135.135,0,0,0,.04.04" transform="translate(-204.503 -87.07)" fill="#2b454e"/>
            </g>
          </g>
        </g>
        <path id="Trazado_200612" data-name="Trazado 200612" d="M213.761,94.365a.7.7,0,0,1,.088-.324l1.247-2.579a.231.231,0,0,1,.057-.076l.031-.024a.076.076,0,0,1,.1.007.171.171,0,0,1,.041.127v.866a1.155,1.155,0,0,1-.025.268,1.273,1.273,0,0,1-.089.236l-.657,1.363.657.6a.336.336,0,0,1,.089.134.8.8,0,0,1,.025.238v.867a.41.41,0,0,1-.041.175.259.259,0,0,1-.1.12.214.214,0,0,1-.031.013.059.059,0,0,1-.057-.011l-1.247-1.14a.257.257,0,0,1-.088-.221Z" transform="translate(-64.305 -27.48)" fill="#ee296d"/>
        <path id="Trazado_200613" data-name="Trazado 200613" d="M219.366,86.094a1.328,1.328,0,0,1,.094-.255.465.465,0,0,1,.183-.2l.468-.27a.075.075,0,0,1,.1.006.171.171,0,0,1,.041.127.443.443,0,0,1-.013.1L218.1,94.71a1.219,1.219,0,0,1-.089.246.463.463,0,0,1-.189.207l-.45.259a.074.074,0,0,1-.1-.006.169.169,0,0,1-.041-.127.445.445,0,0,1,.013-.1Z" transform="translate(-65.35 -25.677)" fill="#ee296d"/>
        <path id="Trazado_200614" data-name="Trazado 200614" d="M224.34,89.218a.7.7,0,0,1-.088.324l-1.246,2.579a.259.259,0,0,1-.057.077l-.031.023a.075.075,0,0,1-.1-.006.173.173,0,0,1-.041-.128v-.866a1.2,1.2,0,0,1,.024-.268,1.326,1.326,0,0,1,.089-.236l.658-1.363-.658-.6a.346.346,0,0,1-.089-.134.838.838,0,0,1-.024-.238V87.51a.406.406,0,0,1,.041-.174.265.265,0,0,1,.1-.12l.031-.013a.064.064,0,0,1,.057.01l1.246,1.141a.259.259,0,0,1,.088.222Z" transform="translate(-67.018 -26.232)" fill="#ee296d"/>
        <path id="Trazado_200615" data-name="Trazado 200615" d="M229.642,89.222a.093.093,0,0,1,.12.008.213.213,0,0,1,.051.156v.954a.513.513,0,0,1-.051.215.328.328,0,0,1-.12.147l-.588.34a.091.091,0,0,1-.12-.008.209.209,0,0,1-.051-.156v-.954a.505.505,0,0,1,.051-.215.314.314,0,0,1,.12-.147Z" transform="translate(-68.854 -26.835)" fill="#ee296d"/>
        <path id="Trazado_200616" data-name="Trazado 200616" d="M232.455,87.6a.093.093,0,0,1,.12.008.21.21,0,0,1,.05.156v.954a.5.5,0,0,1-.05.215.323.323,0,0,1-.12.147l-.589.34a.091.091,0,0,1-.12-.008.206.206,0,0,1-.051-.156V88.3a.5.5,0,0,1,.051-.215.318.318,0,0,1,.12-.147Z" transform="translate(-69.7 -26.346)" fill="#ee296d"/>
        <path id="Trazado_200617" data-name="Trazado 200617" d="M235.268,85.974a.093.093,0,0,1,.12.008.21.21,0,0,1,.051.156v.954a.5.5,0,0,1-.051.215.323.323,0,0,1-.12.147l-.588.34a.092.092,0,0,1-.12-.008.209.209,0,0,1-.05-.156v-.954a.5.5,0,0,1,.05-.215.319.319,0,0,1,.12-.147Z" transform="translate(-70.547 -25.858)" fill="#ee296d"/>
        <path id="Trazado_200618" data-name="Trazado 200618" d="M214.247,98.417l28.816-16.637c.34-.2.616-.057.616.311a1.322,1.322,0,0,1-.616,1.023L214.247,99.752c-.34.2-.616.057-.616-.312a1.32,1.32,0,0,1,.616-1.023" transform="translate(-64.266 -24.575)" fill="#ee296d"/>
        <path id="Trazado_200619" data-name="Trazado 200619" d="M227.471,113.686,256.287,97.05c.341-.2.615-.057.615.311a1.319,1.319,0,0,1-.615,1.023l-28.816,16.638c-.34.2-.617.057-.617-.312a1.319,1.319,0,0,1,.617-1.023" transform="translate(-68.244 -29.168)" fill="#e0e0e0"/>
        <path id="Trazado_200620" data-name="Trazado 200620" d="M227.471,125.055l13.792-7.957c.341-.2.615-.057.615.312a1.319,1.319,0,0,1-.615,1.023l-13.792,7.957c-.34.2-.617.057-.617-.312a1.319,1.319,0,0,1,.617-1.023" transform="translate(-68.244 -35.199)" fill="#e0e0e0"/>
        <path id="Trazado_200621" data-name="Trazado 200621" d="M227.471,132.69l13.792-7.957c.341-.2.615-.057.615.312a1.319,1.319,0,0,1-.615,1.023l-13.792,7.957c-.34.2-.617.057-.617-.312a1.319,1.319,0,0,1,.617-1.023" transform="translate(-68.244 -37.496)" fill="#e0e0e0"/>
        <path id="Trazado_200622" data-name="Trazado 200622" d="M258.877,76.945l11.48-6.653c.341-.2.616-.057.616.311a1.319,1.319,0,0,1-.616,1.023l-11.48,6.653c-.34.2-.616.057-.616-.312a1.32,1.32,0,0,1,.616-1.023" transform="translate(-77.692 -21.119)" fill="#ee296d"/>
        <path id="Trazado_200623" data-name="Trazado 200623" d="M214.247,182.39l28.816-16.637c.34-.2.616-.057.616.311a1.322,1.322,0,0,1-.616,1.023l-28.816,16.638c-.34.2-.616.057-.616-.312a1.32,1.32,0,0,1,.616-1.023" transform="translate(-64.266 -49.836)" fill="#ee296d"/>
        <path id="Trazado_200624" data-name="Trazado 200624" d="M258.877,160.918l11.48-6.653c.341-.2.616-.057.616.311a1.319,1.319,0,0,1-.616,1.023l-11.48,6.653c-.34.2-.616.057-.616-.312a1.32,1.32,0,0,1,.616-1.023" transform="translate(-77.692 -46.38)" fill="#ee296d"/>
        <path id="Trazado_200625" data-name="Trazado 200625" d="M258.877,138.056l11.48-6.653c.341-.2.616-.057.616.311a1.319,1.319,0,0,1-.616,1.023l-11.48,6.653c-.34.2-.616.057-.616-.312a1.32,1.32,0,0,1,.616-1.023" transform="translate(-77.692 -39.503)" fill="#ee296d"/>
        <path id="Trazado_200626" data-name="Trazado 200626" d="M258.877,145.689l11.48-6.653c.341-.2.616-.057.616.311a1.319,1.319,0,0,1-.616,1.023l-11.48,6.653c-.34.2-.616.057-.616-.312a1.32,1.32,0,0,1,.616-1.023" transform="translate(-77.692 -41.799)" fill="#ee296d"/>
        <path id="Trazado_200627" data-name="Trazado 200627" d="M214.247,174.764l28.816-16.637c.34-.2.616-.057.616.311a1.322,1.322,0,0,1-.616,1.023L214.247,176.1c-.34.2-.616.057-.616-.312a1.32,1.32,0,0,1,.616-1.023" transform="translate(-64.266 -47.542)" fill="#f5f5f5"/>
        <path id="Trazado_200628" data-name="Trazado 200628" d="M244.875,147.378l6.451-3.724c.34-.2.616-.057.616.312a1.322,1.322,0,0,1-.616,1.023l-6.451,3.724c-.34.2-.616.057-.616-.312a1.32,1.32,0,0,1,.616-1.023" transform="translate(-73.48 -43.188)" fill="#ee296d"/>
        <path id="Trazado_200629" data-name="Trazado 200629" d="M214.247,109.049l16.808-9.712c.34-.2.616-.057.616.312a1.322,1.322,0,0,1-.616,1.023l-16.808,9.712c-.34.2-.616.057-.616-.312a1.32,1.32,0,0,1,.616-1.023" transform="translate(-64.266 -29.857)" fill="#ee296d"/>
        <g id="Grupo_159571" data-name="Grupo 159571" transform="translate(149.365 69.392)" opacity="0.6">
          <g id="Grupo_159570" data-name="Grupo 159570">
            <g id="Grupo_159569" data-name="Grupo 159569" clip-path="url(#clip-path-28)">
              <path id="Trazado_200630" data-name="Trazado 200630" d="M214.247,109.049l16.808-9.712c.34-.2.616-.057.616.312a1.322,1.322,0,0,1-.616,1.023l-16.808,9.712c-.34.2-.616.057-.616-.312a1.32,1.32,0,0,1,.616-1.023" transform="translate(-213.631 -99.249)" fill="#fff"/>
            </g>
          </g>
        </g>
        <path id="Trazado_200631" data-name="Trazado 200631" d="M214.247,119.43l5.7-3.3c.34-.2.616-.057.616.311a1.32,1.32,0,0,1-.616,1.023l-5.7,3.3c-.34.2-.616.057-.616-.312a1.32,1.32,0,0,1,.616-1.023" transform="translate(-64.266 -34.909)" fill="#ee296d"/>
        <g id="Grupo_159574" data-name="Grupo 159574" transform="translate(149.365 81.135)" opacity="0.6">
          <g id="Grupo_159573" data-name="Grupo 159573">
            <g id="Grupo_159572" data-name="Grupo 159572" clip-path="url(#clip-path-29)">
              <path id="Trazado_200632" data-name="Trazado 200632" d="M214.247,119.43l5.7-3.3c.34-.2.616-.057.616.311a1.32,1.32,0,0,1-.616,1.023l-5.7,3.3c-.34.2-.616.057-.616-.312a1.32,1.32,0,0,1,.616-1.023" transform="translate(-213.631 -116.044)" fill="#fff"/>
            </g>
          </g>
        </g>
        <path id="Trazado_200633" data-name="Trazado 200633" d="M214.247,127.064l5.7-3.3c.34-.2.616-.057.616.311a1.32,1.32,0,0,1-.616,1.023l-5.7,3.3c-.34.2-.616.057-.616-.312a1.32,1.32,0,0,1,.616-1.023" transform="translate(-64.266 -37.206)" fill="#ee296d"/>
        <g id="Grupo_159577" data-name="Grupo 159577" transform="translate(149.365 86.473)" opacity="0.6">
          <g id="Grupo_159576" data-name="Grupo 159576">
            <g id="Grupo_159575" data-name="Grupo 159575" clip-path="url(#clip-path-30)">
              <path id="Trazado_200634" data-name="Trazado 200634" d="M214.247,127.064l5.7-3.3c.34-.2.616-.057.616.311a1.32,1.32,0,0,1-.616,1.023l-5.7,3.3c-.34.2-.616.057-.616-.312a1.32,1.32,0,0,1,.616-1.023" transform="translate(-213.631 -123.679)" fill="#fff"/>
            </g>
          </g>
        </g>
        <path id="Trazado_200635" data-name="Trazado 200635" d="M214.247,134.7l5.7-3.3c.34-.2.616-.057.616.312a1.322,1.322,0,0,1-.616,1.023l-5.7,3.3c-.34.2-.616.057-.616-.312a1.32,1.32,0,0,1,.616-1.023" transform="translate(-64.266 -39.502)" fill="#ee296d"/>
        <g id="Grupo_159580" data-name="Grupo 159580" transform="translate(149.365 91.811)" opacity="0.6">
          <g id="Grupo_159579" data-name="Grupo 159579">
            <g id="Grupo_159578" data-name="Grupo 159578" clip-path="url(#clip-path-30)">
              <path id="Trazado_200636" data-name="Trazado 200636" d="M214.247,134.7l5.7-3.3c.34-.2.616-.057.616.312a1.322,1.322,0,0,1-.616,1.023l-5.7,3.3c-.34.2-.616.057-.616-.312a1.32,1.32,0,0,1,.616-1.023" transform="translate(-213.631 -131.313)" fill="#fff"/>
            </g>
          </g>
        </g>
        <path id="Trazado_200637" data-name="Trazado 200637" d="M214.247,142.333l5.7-3.3c.34-.2.616-.057.616.311a1.32,1.32,0,0,1-.616,1.023l-5.7,3.3c-.34.2-.616.057-.616-.312a1.32,1.32,0,0,1,.616-1.023" transform="translate(-64.266 -41.799)" fill="#ee296d"/>
        <g id="Grupo_159583" data-name="Grupo 159583" transform="translate(149.365 97.148)" opacity="0.6">
          <g id="Grupo_159582" data-name="Grupo 159582">
            <g id="Grupo_159581" data-name="Grupo 159581" clip-path="url(#clip-path-29)">
              <path id="Trazado_200638" data-name="Trazado 200638" d="M214.247,142.333l5.7-3.3c.34-.2.616-.057.616.311a1.32,1.32,0,0,1-.616,1.023l-5.7,3.3c-.34.2-.616.057-.616-.312a1.32,1.32,0,0,1,.616-1.023" transform="translate(-213.631 -138.947)" fill="#fff"/>
            </g>
          </g>
        </g>
        <path id="Trazado_200639" data-name="Trazado 200639" d="M241.7,95.556l7.309-4.206c.34-.2.616-.057.616.312a1.322,1.322,0,0,1-.616,1.023L241.7,96.891c-.34.2-.616.057-.616-.312a1.32,1.32,0,0,1,.616-1.023" transform="translate(-72.525 -27.454)" fill="#ee296d"/>
        <g id="Grupo_159586" data-name="Grupo 159586" transform="translate(168.561 63.807)" opacity="0.6">
          <g id="Grupo_159585" data-name="Grupo 159585">
            <g id="Grupo_159584" data-name="Grupo 159584" clip-path="url(#clip-path-33)">
              <path id="Trazado_200640" data-name="Trazado 200640" d="M241.7,95.556l7.309-4.206c.34-.2.616-.057.616.312a1.322,1.322,0,0,1-.616,1.023L241.7,96.891c-.34.2-.616.057-.616-.312a1.32,1.32,0,0,1,.616-1.023" transform="translate(-241.086 -91.261)" fill="#fff"/>
            </g>
          </g>
        </g>
        <path id="Trazado_200641" data-name="Trazado 200641" d="M237.389,133.832l16.808-9.712c.34-.2.616-.057.616.312a1.322,1.322,0,0,1-.616,1.023l-16.808,9.712c-.34.2-.616.057-.616-.312a1.32,1.32,0,0,1,.616-1.023" transform="translate(-71.228 -37.312)" fill="#f5f5f5"/>
        <path id="Trazado_200642" data-name="Trazado 200642" d="M251.258,133.49l16.808-9.712c.34-.2.616-.057.616.312a1.322,1.322,0,0,1-.616,1.023l-16.808,9.712c-.34.2-.616.057-.616-.312a1.32,1.32,0,0,1,.616-1.023" transform="translate(-75.4 -37.209)" fill="#f5f5f5"/>
        <path id="Trazado_200643" data-name="Trazado 200643" d="M264.843,120.34l7.309-4.206c.34-.2.616-.057.616.312a1.322,1.322,0,0,1-.616,1.023l-7.309,4.206c-.34.2-.616.057-.616-.312a1.32,1.32,0,0,1,.616-1.023" transform="translate(-79.487 -34.909)" fill="#f5f5f5"/>
        <path id="Trazado_200644" data-name="Trazado 200644" d="M227.47,109.034l16.808-9.712c.34-.2.616-.057.616.312a1.322,1.322,0,0,1-.616,1.023l-16.808,9.712c-.34.2-.616.057-.616-.312a1.32,1.32,0,0,1,.616-1.023" transform="translate(-68.244 -29.852)" fill="#ee296d"/>
        <g id="Grupo_159589" data-name="Grupo 159589" transform="translate(158.61 69.382)" opacity="0.6">
          <g id="Grupo_159588" data-name="Grupo 159588">
            <g id="Grupo_159587" data-name="Grupo 159587" clip-path="url(#clip-path-34)">
              <path id="Trazado_200645" data-name="Trazado 200645" d="M227.47,109.034l16.808-9.712c.34-.2.616-.057.616.312a1.322,1.322,0,0,1-.616,1.023l-16.808,9.712c-.34.2-.616.057-.616-.312a1.32,1.32,0,0,1,.616-1.023" transform="translate(-226.854 -99.235)" fill="#fff"/>
            </g>
          </g>
        </g>
        <path id="Trazado_200646" data-name="Trazado 200646" d="M254.925,95.542l7.309-4.206c.34-.2.616-.057.616.312a1.322,1.322,0,0,1-.616,1.023l-7.309,4.206c-.34.2-.616.057-.616-.312a1.32,1.32,0,0,1,.616-1.023" transform="translate(-76.503 -27.449)" fill="#ee296d"/>
        <g id="Grupo_159592" data-name="Grupo 159592" transform="translate(177.806 63.797)" opacity="0.6">
          <g id="Grupo_159591" data-name="Grupo 159591">
            <g id="Grupo_159590" data-name="Grupo 159590" clip-path="url(#clip-path-35)">
              <path id="Trazado_200647" data-name="Trazado 200647" d="M254.925,95.542l7.309-4.206c.34-.2.616-.057.616.312a1.322,1.322,0,0,1-.616,1.023l-7.309,4.206c-.34.2-.616.057-.616-.312a1.32,1.32,0,0,1,.616-1.023" transform="translate(-254.309 -91.246)" fill="#fff"/>
            </g>
          </g>
        </g>
        <path id="Trazado_200648" data-name="Trazado 200648" d="M327.137,41.148v-6.4l-5.405-.471a.4.4,0,0,0-.224.045c-.209.115-5.326,3.043-5.393,3.083a.4.4,0,0,0-.088.61l5.73,6.211Z" transform="translate(-95.037 -10.31)" fill="#ee296d"/>
        <path id="Trazado_200649" data-name="Trazado 200649" d="M321.757,45.546l-5.73-6.211a.4.4,0,0,1,.325-.663l5.405.471Z" transform="translate(-95.037 -11.633)" fill="#ee296d"/>
        <path id="Trazado_200650" data-name="Trazado 200650" d="M327.24,34.742l-5.378,3.079-5.406-.473a.424.424,0,0,0-.187.027c.432-.255,5.146-2.952,5.342-3.056a.375.375,0,0,1,.228-.045Z" transform="translate(-95.142 -10.31)" fill="#ee296d"/>
        <g id="Grupo_159595" data-name="Grupo 159595" transform="translate(221.127 23.961)" opacity="0.5">
          <g id="Grupo_159594" data-name="Grupo 159594">
            <g id="Grupo_159593" data-name="Grupo 159593" clip-path="url(#clip-path-36)">
              <path id="Trazado_200651" data-name="Trazado 200651" d="M327.24,34.742l-5.378,3.079-5.406-.473a.424.424,0,0,0-.187.027c.432-.255,5.146-2.952,5.342-3.056a.375.375,0,0,1,.228-.045Z" transform="translate(-316.269 -34.271)" fill="#fff"/>
            </g>
          </g>
        </g>
        <path id="Trazado_200652" data-name="Trazado 200652" d="M324.283,26.967a4.305,4.305,0,0,1,1.948-3.375l1.587-.916a4.3,4.3,0,0,1,3.9,0l16.909,9.764a4.306,4.306,0,0,1,1.949,3.375V55.349a4.305,4.305,0,0,1-1.949,3.374l-1.586.916a4.306,4.306,0,0,1-3.9,0l-4.992-2.882-6.488-3.748-5.429-3.133a4.3,4.3,0,0,1-1.947-3.375Z" transform="translate(-97.553 -6.681)" fill="#ee296d"/>
        <g id="Grupo_159598" data-name="Grupo 159598" transform="translate(245.92 27.213)" opacity="0.2">
          <g id="Grupo_159597" data-name="Grupo 159597">
            <g id="Grupo_159596" data-name="Grupo 159596" clip-path="url(#clip-path-37)">
              <path id="Trazado_200653" data-name="Trazado 200653" d="M358.829,60.376a4.308,4.308,0,0,1-1.949,3.375l-1.586.916a4.353,4.353,0,0,1-3.564.157c.917.347,1.615-.171,1.615-1.282V44.008a3.987,3.987,0,0,0-.571-1.921l5.484-3.165a3.981,3.981,0,0,1,.571,1.92Z" transform="translate(-351.73 -38.922)"/>
            </g>
          </g>
        </g>
        <g id="Grupo_159601" data-name="Grupo 159601" transform="translate(226.794 15.532)" opacity="0.5">
          <g id="Grupo_159600" data-name="Grupo 159600">
            <g id="Grupo_159599" data-name="Grupo 159599" clip-path="url(#clip-path-38)">
              <path id="Trazado_200654" data-name="Trazado 200654" d="M324.374,26.415c.227-.827.982-1.091,1.881-.573l16.914,9.767a3.859,3.859,0,0,1,1.372,1.454l5.481-3.163a3.931,3.931,0,0,0-1.372-1.454l-16.9-9.767a4.333,4.333,0,0,0-3.9,0l-1.591.918a4.3,4.3,0,0,0-1.881,2.818" transform="translate(-324.374 -22.215)" fill="#fff"/>
            </g>
          </g>
        </g>
        <path id="Trazado_200655" data-name="Trazado 200655" d="M336.389,38.83l-6.439-.9.9,11.877,5.539,7.2Z" transform="translate(-99.258 -11.411)" fill="#455a64"/>
        <path id="Trazado_200656" data-name="Trazado 200656" d="M339.16,39.216l6.439,6.538-.9,10.837-5.539.8Z" transform="translate(-102.028 -11.797)" fill="#2b454e"/>
        <path id="Trazado_200657" data-name="Trazado 200657" d="M340.049,55.458l1.475.851-4.114-14.5-4.113,9.75,1.475.851.888-2.114,3.5,2.022Zm-3.855-6.435,1.216-2.894,1.216,4.3Z" transform="translate(-100.264 -12.577)" fill="#fafafa"/>
        <path id="Trazado_200658" data-name="Trazado 200658" d="M327.137,93.3V86.9l-5.405-.471a.4.4,0,0,0-.224.045c-.209.115-5.326,3.043-5.393,3.083a.4.4,0,0,0-.088.61l5.73,6.211Z" transform="translate(-95.037 -25.999)" fill="#ee296d"/>
        <path id="Trazado_200659" data-name="Trazado 200659" d="M321.757,97.7l-5.73-6.211a.4.4,0,0,1,.325-.663l5.405.471Z" transform="translate(-95.037 -27.322)" fill="#ebebeb"/>
        <path id="Trazado_200660" data-name="Trazado 200660" d="M327.24,86.894l-5.378,3.079-5.406-.473a.424.424,0,0,0-.187.027c.432-.255,5.146-2.952,5.342-3.056a.375.375,0,0,1,.228-.045Z" transform="translate(-95.142 -25.999)" fill="#ee296d"/>
        <path id="Trazado_200661" data-name="Trazado 200661" d="M327.24,86.894l-5.378,3.079-5.406-.473a.424.424,0,0,0-.187.027c.432-.255,5.146-2.952,5.342-3.056a.375.375,0,0,1,.228-.045Z" transform="translate(-95.142 -25.999)" fill="#f5f5f5"/>
        <path id="Trazado_200662" data-name="Trazado 200662" d="M324.283,79.119a4.305,4.305,0,0,1,1.948-3.375l1.587-.916a4.3,4.3,0,0,1,3.9,0l16.909,9.764a4.306,4.306,0,0,1,1.949,3.375V107.5a4.305,4.305,0,0,1-1.949,3.374l-1.586.916a4.306,4.306,0,0,1-3.9,0l-4.992-2.882-6.488-3.748-5.429-3.133a4.3,4.3,0,0,1-1.947-3.375Z" transform="translate(-97.553 -22.37)" fill="#ebebeb"/>
        <path id="Trazado_200663" data-name="Trazado 200663" d="M358.829,112.529a4.308,4.308,0,0,1-1.949,3.375l-1.586.916a4.353,4.353,0,0,1-3.564.157c.917.347,1.615-.171,1.615-1.282V96.161a3.988,3.988,0,0,0-.571-1.921l5.484-3.165a3.981,3.981,0,0,1,.571,1.92Z" transform="translate(-105.81 -27.398)" fill="#e0e0e0"/>
        <path id="Trazado_200664" data-name="Trazado 200664" d="M324.374,78.567c.227-.827.982-1.091,1.881-.573l16.914,9.767a3.859,3.859,0,0,1,1.372,1.454l5.481-3.163A3.93,3.93,0,0,0,348.65,84.6l-16.9-9.767a4.333,4.333,0,0,0-3.9,0l-1.591.918a4.3,4.3,0,0,0-1.881,2.818" transform="translate(-97.58 -22.372)" fill="#f5f5f5"/>
        <path id="Trazado_200665" data-name="Trazado 200665" d="M336.389,95.145l1.421-2.673,5.018,2.9-6.439,12.111-6.439-19.546,5.018,2.9Z" transform="translate(-99.258 -26.453)" fill="#ee296d"/>
        <g id="Grupo_159604" data-name="Grupo 159604" transform="translate(230.692 61.481)" opacity="0.15">
          <g id="Grupo_159603" data-name="Grupo 159603">
            <g id="Grupo_159602" data-name="Grupo 159602" clip-path="url(#clip-path-39)">
              <path id="Trazado_200666" data-name="Trazado 200666" d="M336.389,95.145l1.421-2.673,5.018,2.9-6.439,12.111-6.439-19.546,5.018,2.9Z" transform="translate(-329.95 -87.934)"/>
            </g>
          </g>
        </g>
        <path id="Trazado_200667" data-name="Trazado 200667" d="M337.586,95.836l-1.421-4.314-2.237-1.291,3.658,11.1,3.658-6.881-2.237-1.291Z" transform="translate(-100.454 -27.144)" fill="#2b454e"/>
        <path id="Trazado_200668" data-name="Trazado 200668" d="M327.137,145.453v-6.4l-5.405-.471a.4.4,0,0,0-.224.045c-.209.115-5.326,3.043-5.393,3.083a.4.4,0,0,0-.088.61l5.73,6.211Z" transform="translate(-95.037 -41.688)" fill="#ee296d"/>
        <path id="Trazado_200669" data-name="Trazado 200669" d="M321.757,149.851l-5.73-6.211a.4.4,0,0,1,.325-.663l5.405.471Z" transform="translate(-95.037 -43.011)" fill="#2b454e"/>
        <path id="Trazado_200670" data-name="Trazado 200670" d="M327.24,139.047l-5.378,3.079-5.406-.473a.423.423,0,0,0-.187.027c.432-.255,5.146-2.952,5.342-3.056a.375.375,0,0,1,.228-.045Z" transform="translate(-95.142 -41.688)" fill="#ee296d"/>
        <path id="Trazado_200671" data-name="Trazado 200671" d="M327.24,139.047l-5.378,3.079-5.406-.473a.423.423,0,0,0-.187.027c.432-.255,5.146-2.952,5.342-3.056a.375.375,0,0,1,.228-.045Z" transform="translate(-95.142 -41.688)" fill="#455a64"/>
        <path id="Trazado_200672" data-name="Trazado 200672" d="M324.283,131.272a4.305,4.305,0,0,1,1.948-3.375l1.587-.916a4.3,4.3,0,0,1,3.9,0l16.909,9.764a4.306,4.306,0,0,1,1.949,3.375v19.533a4.306,4.306,0,0,1-1.949,3.375l-1.586.916a4.306,4.306,0,0,1-3.9,0l-4.992-2.882-6.488-3.748-5.429-3.133a4.3,4.3,0,0,1-1.947-3.375Z" transform="translate(-97.553 -38.059)" fill="#2b454e"/>
        <path id="Trazado_200673" data-name="Trazado 200673" d="M358.829,164.681a4.308,4.308,0,0,1-1.949,3.375l-1.586.916a4.353,4.353,0,0,1-3.564.157c.917.347,1.615-.171,1.615-1.282V148.313a3.988,3.988,0,0,0-.571-1.921l5.484-3.165a3.981,3.981,0,0,1,.571,1.92Z" transform="translate(-105.81 -43.087)" fill="#263238"/>
        <path id="Trazado_200674" data-name="Trazado 200674" d="M324.374,130.72c.227-.827.982-1.091,1.881-.573l16.914,9.767a3.859,3.859,0,0,1,1.372,1.454l5.481-3.163a3.931,3.931,0,0,0-1.372-1.454l-16.9-9.767a4.333,4.333,0,0,0-3.9,0l-1.591.918a4.3,4.3,0,0,0-1.881,2.818" transform="translate(-97.58 -38.061)" fill="#455a64"/>
        <path id="Trazado_200675" data-name="Trazado 200675" d="M340.125,150.962c.4-2.021.234-3.884-.565-4.94a1.875,1.875,0,0,0-1.527-.81c-.047,0-.094,0-.141,0a3.045,3.045,0,0,0-1.492.587c-1.142-2.124-2.259-3.433-3.055-3.433a.684.684,0,0,0-.114.01.735.735,0,0,0-.51.383c-.385.645-.408,2.042-.115,3.884a3.156,3.156,0,0,0-2.105.149,1.329,1.329,0,0,0-.652,1.227c0,1.22,1.075,2.9,2.744,4.495-.4,2.022-.234,3.885.564,4.941a2.143,2.143,0,0,0,.633.574,1.749,1.749,0,0,0,.891.237,2.222,2.222,0,0,0,.6-.085,3.54,3.54,0,0,0,1.072-.54,9.032,9.032,0,0,0,2.535,3.331,1.108,1.108,0,0,0,.543.169.707.707,0,0,0,.116-.01.737.737,0,0,0,.51-.384c.386-.646.408-2.051.112-3.9a5.1,5.1,0,0,0,.9.092,2.3,2.3,0,0,0,1.152-.257,1.33,1.33,0,0,0,.653-1.228c0-1.22-1.075-2.9-2.744-4.495M338.2,154.22a11.105,11.105,0,0,1-.62.984c-.373-.179-.766-.383-1.182-.624s-.812-.491-1.194-.749q-.329-.847-.645-1.777c-.206-.609-.387-1.193-.55-1.752.154-.348.324-.7.516-1.043s.4-.68.615-.984c.375.18.768.382,1.186.624.437.252.856.517,1.256.789q.325.84.641,1.77.289.858.522,1.652c-.162.371-.343.742-.546,1.11m.552-2.874c-.126-.373-.255-.736-.386-1.093q.566.429,1.063.868c-.1.389-.22.787-.365,1.189q-.149-.476-.312-.964m-2.353-3.171c-.286-.164-.566-.313-.842-.454a7.011,7.011,0,0,1,.8-.844c.265.536.534,1.125.8,1.763-.249-.159-.5-.315-.759-.464m-2.39.5c-.1.185-.2.372-.292.56-.152-.587-.28-1.142-.381-1.656a10.346,10.346,0,0,1,1.1.385c-.146.226-.289.462-.427.711m.024,3.5c.127.378.259.747.394,1.111-.4-.3-.78-.61-1.131-.919a12.493,12.493,0,0,1,.392-1.263c.109.352.222.709.345,1.071m2.295,3.139c.284.164.562.311.838.452a7.222,7.222,0,0,1-.763.816q-.384-.779-.771-1.69.343.217.7.422m2.391-.5q.171-.309.324-.626c.161.618.3,1.2.4,1.74a10.03,10.03,0,0,1-1.157-.4c.147-.227.29-.463.429-.712m-.764-5.633c-.381-.959-.774-1.844-1.169-2.639a3.144,3.144,0,0,1,.939-.471A1.8,1.8,0,0,1,338.2,146a1.269,1.269,0,0,1,.642.163,1.288,1.288,0,0,1,.382.344,5.474,5.474,0,0,1,.346,3.95,19.646,19.646,0,0,0-1.623-1.279m-3.113-1.794a11.515,11.515,0,0,0-1.647-.6,6.369,6.369,0,0,1,.032-3.409.377.377,0,0,1,.253-.2.315.315,0,0,1,.052,0,.637.637,0,0,1,.3.1,8.058,8.058,0,0,1,2.142,2.874,7.708,7.708,0,0,0-1.137,1.242m-1.475,2.624a13.473,13.473,0,0,0-.619,1.846c-1.444-1.393-2.3-2.744-2.3-3.569a.815.815,0,0,1,.429-.753,1.93,1.93,0,0,1,.955-.2,4.859,4.859,0,0,1,.919.1c.155.8.362,1.663.617,2.575m1.472,4.345c.369.922.754,1.784,1.142,2.567a2.708,2.708,0,0,1-1.351.562,1.243,1.243,0,0,1-1.135-.5,5.479,5.479,0,0,1-.346-3.952,19.667,19.667,0,0,0,1.69,1.326m3.048,1.751a11.375,11.375,0,0,0,1.7.618c.283,1.749.25,2.953-.031,3.421a.382.382,0,0,1-.253.2c-.509.089-1.472-1.049-2.526-3.032a7.755,7.755,0,0,0,1.107-1.209m1.5-2.7a13.372,13.372,0,0,0,.59-1.774c1.445,1.393,2.3,2.744,2.3,3.569a.815.815,0,0,1-.429.753,2.782,2.782,0,0,1-1.819.111c-.16-.822-.377-1.716-.643-2.659" transform="translate(-99.227 -42.829)" fill="#ee296d"/>
        <path id="Trazado_200676" data-name="Trazado 200676" d="M339.811,155.717c0,.842-.512,1.228-1.143.864a2.737,2.737,0,0,1-1.142-2.184c0-.841.511-1.228,1.142-.863a2.736,2.736,0,0,1,1.143,2.184" transform="translate(-101.537 -46.146)" fill="#ee296d"/>
        <g id="Grupo_159607" data-name="Grupo 159607" transform="translate(230.622 99.541)" opacity="0.65">
          <g id="Grupo_159606" data-name="Grupo 159606">
            <g id="Grupo_159605" data-name="Grupo 159605" clip-path="url(#clip-path-40)">
              <path id="Trazado_200677" data-name="Trazado 200677" d="M340.125,150.962c.4-2.021.234-3.884-.565-4.94a1.875,1.875,0,0,0-1.527-.81c-.047,0-.094,0-.141,0a3.045,3.045,0,0,0-1.492.587c-1.142-2.124-2.259-3.433-3.055-3.433a.684.684,0,0,0-.114.01.735.735,0,0,0-.51.383c-.385.645-.408,2.042-.115,3.884a3.156,3.156,0,0,0-2.105.149,1.329,1.329,0,0,0-.652,1.227c0,1.22,1.075,2.9,2.744,4.495-.4,2.022-.234,3.885.564,4.941a2.143,2.143,0,0,0,.633.574,1.749,1.749,0,0,0,.891.237,2.222,2.222,0,0,0,.6-.085,3.54,3.54,0,0,0,1.072-.54,9.032,9.032,0,0,0,2.535,3.331,1.108,1.108,0,0,0,.543.169.707.707,0,0,0,.116-.01.737.737,0,0,0,.51-.384c.386-.646.408-2.051.112-3.9a5.1,5.1,0,0,0,.9.092,2.3,2.3,0,0,0,1.152-.257,1.33,1.33,0,0,0,.653-1.228c0-1.22-1.075-2.9-2.744-4.495M338.2,154.22a11.105,11.105,0,0,1-.62.984c-.373-.179-.766-.383-1.182-.624s-.812-.491-1.194-.749q-.329-.847-.645-1.777c-.206-.609-.387-1.193-.55-1.752.154-.348.324-.7.516-1.043s.4-.68.615-.984c.375.18.768.382,1.186.624.437.252.856.517,1.256.789q.325.84.641,1.77.289.858.522,1.652c-.162.371-.343.742-.546,1.11m.552-2.874c-.126-.373-.255-.736-.386-1.093q.566.429,1.063.868c-.1.389-.22.787-.365,1.189q-.149-.476-.312-.964m-2.353-3.171c-.286-.164-.566-.313-.842-.454a7.011,7.011,0,0,1,.8-.844c.265.536.534,1.125.8,1.763-.249-.159-.5-.315-.759-.464m-2.39.5c-.1.185-.2.372-.292.56-.152-.587-.28-1.142-.381-1.656a10.346,10.346,0,0,1,1.1.385c-.146.226-.289.462-.427.711m.024,3.5c.127.378.259.747.394,1.111-.4-.3-.78-.61-1.131-.919a12.493,12.493,0,0,1,.392-1.263c.109.352.222.709.345,1.071m2.295,3.139c.284.164.562.311.838.452a7.222,7.222,0,0,1-.763.816q-.384-.779-.771-1.69.343.217.7.422m2.391-.5q.171-.309.324-.626c.161.618.3,1.2.4,1.74a10.03,10.03,0,0,1-1.157-.4c.147-.227.29-.463.429-.712m-.764-5.633c-.381-.959-.774-1.844-1.169-2.639a3.144,3.144,0,0,1,.939-.471A1.8,1.8,0,0,1,338.2,146a1.269,1.269,0,0,1,.642.163,1.288,1.288,0,0,1,.382.344,5.474,5.474,0,0,1,.346,3.95,19.646,19.646,0,0,0-1.623-1.279m-3.113-1.794a11.515,11.515,0,0,0-1.647-.6,6.369,6.369,0,0,1,.032-3.409.377.377,0,0,1,.253-.2.315.315,0,0,1,.052,0,.637.637,0,0,1,.3.1,8.058,8.058,0,0,1,2.142,2.874,7.708,7.708,0,0,0-1.137,1.242m-1.475,2.624a13.473,13.473,0,0,0-.619,1.846c-1.444-1.393-2.3-2.744-2.3-3.569a.815.815,0,0,1,.429-.753,1.93,1.93,0,0,1,.955-.2,4.859,4.859,0,0,1,.919.1c.155.8.362,1.663.617,2.575m1.472,4.345c.369.922.754,1.784,1.142,2.567a2.708,2.708,0,0,1-1.351.562,1.243,1.243,0,0,1-1.135-.5,5.479,5.479,0,0,1-.346-3.952,19.667,19.667,0,0,0,1.69,1.326m3.048,1.751a11.375,11.375,0,0,0,1.7.618c.283,1.749.25,2.953-.031,3.421a.382.382,0,0,1-.253.2c-.509.089-1.472-1.049-2.526-3.032a7.755,7.755,0,0,0,1.107-1.209m1.5-2.7a13.372,13.372,0,0,0,.59-1.774c1.445,1.393,2.3,2.744,2.3,3.569a.815.815,0,0,1-.429.753,2.782,2.782,0,0,1-1.819.111c-.16-.822-.377-1.716-.643-2.659" transform="translate(-329.849 -142.37)" fill="#fff"/>
              <path id="Trazado_200678" data-name="Trazado 200678" d="M339.811,155.717c0,.842-.512,1.228-1.143.864a2.737,2.737,0,0,1-1.142-2.184c0-.841.511-1.228,1.142-.863a2.736,2.736,0,0,1,1.143,2.184" transform="translate(-332.158 -145.687)" fill="#fff"/>
            </g>
          </g>
        </g>
        <path id="Trazado_200679" data-name="Trazado 200679" d="M306.149,187.9c2.2.428,3.2,1.176,4.449,4.224s3.478,10.474,4,12.51c.233.912-5.544,9.079-5.3,8.958.076-.038-2.256-3.938-2.256-3.938l2.835-5.424-2.019-4.933Z" transform="translate(-92.098 -56.526)" fill="#ffaaa9"/>
        <path id="Trazado_200680" data-name="Trazado 200680" d="M304.864,187.946a4.558,4.558,0,0,1,3.332.743c1.326,1.1,1.53,1.835,2.425,4.1s2.372,6.969,2.372,6.969-.424,2.533-4.546,3.031l-3.534-7.957s-1.23-4.812-.05-6.886" transform="translate(-91.557 -56.522)" fill="#ee296d"/>
        <path id="Trazado_200681" data-name="Trazado 200681" d="M299.137,281.352a4.73,4.73,0,0,0,.129,2.142A4.833,4.833,0,0,0,301,285.583a8.483,8.483,0,0,1,1.439,1.744,7.343,7.343,0,0,0,1.5,1.877,3.011,3.011,0,0,0,2.427.176c.636-.268.85-.508.811-1.525-.038-.994-3.123-1.363-3.123-1.363Z" transform="translate(-89.97 -84.638)" fill="#455a64"/>
        <path id="Trazado_200682" data-name="Trazado 200682" d="M306.853,284.3c.263.1.329.6.369,1.6.031.754.348,1.857-.691,2.332a2.538,2.538,0,0,1-2.743-.582c-.706-.887-1.184-1.668-2.191-2.75-.875-.939-1.785-1.255-2.174-3.132-.25-1.206-.053-1.705.759-2.051,1.116-.475,2.869,1.079,3.744,1.323.753.211,2.664,3.162,2.927,3.262" transform="translate(-90.044 -84.119)" fill="#ee296d"/>
        <g id="Grupo_159610" data-name="Grupo 159610" transform="translate(209.278 195.508)" opacity="0.2">
          <g id="Grupo_159609" data-name="Grupo 159609">
            <g id="Grupo_159608" data-name="Grupo 159608" clip-path="url(#clip-path-41)">
              <path id="Trazado_200683" data-name="Trazado 200683" d="M306.853,284.3c.263.1.329.6.369,1.6.031.754.348,1.857-.691,2.332a2.538,2.538,0,0,1-2.743-.582c-.706-.887-1.184-1.668-2.191-2.75-.875-.939-1.785-1.255-2.174-3.132-.25-1.206-.053-1.705.759-2.051,1.116-.475,2.869,1.079,3.744,1.323.753.211,2.664,3.162,2.927,3.262" transform="translate(-299.322 -279.627)"/>
            </g>
          </g>
        </g>
        <path id="Trazado_200684" data-name="Trazado 200684" d="M304.79,281.626c-.047-.013-.1-.031-.148-.052a2.875,2.875,0,0,0-2.416,1.585c-.149.328.31.584.582.328a3.07,3.07,0,0,1,2.414-1.575,1.265,1.265,0,0,0-.432-.287" transform="translate(-90.909 -84.705)" fill="#fafafa"/>
        <path id="Trazado_200685" data-name="Trazado 200685" d="M305.961,282.461a2.857,2.857,0,0,0-2.245,1.571c-.149.329.31.584.583.329a2.943,2.943,0,0,1,2.014-1.5c-.12-.141-.238-.276-.352-.4" transform="translate(-91.357 -84.972)" fill="#fafafa"/>
        <path id="Trazado_200686" data-name="Trazado 200686" d="M279.083,302.9c-.171.845.134,1.285,1.224,1.914a6.081,6.081,0,0,0,4.6.322c1.8-.524,2.658-1.309,3.406-1.5s2.6-.2,3.336-.42.728-.6.724-1.484Z" transform="translate(-83.942 -90.77)" fill="#455a64"/>
        <path id="Trazado_200687" data-name="Trazado 200687" d="M291.683,295.61s.351,1.063.54,1.994a5.394,5.394,0,0,1,.106,2.532c-.259.557-1.269.915-2.835.9a9.19,9.19,0,0,0-3.677,1.285,5.629,5.629,0,0,1-3.513.487c-1.393-.163-2.837-.971-3.062-1.548s-.284-1.01,3-2.409c.03-.013,3.811-1.407,5.4-3.161Z" transform="translate(-83.977 -88.927)" fill="#ee296d"/>
        <g id="Grupo_159613" data-name="Grupo 159613" transform="translate(195.176 206.683)" opacity="0.2">
          <g id="Grupo_159612" data-name="Grupo 159612">
            <g id="Grupo_159611" data-name="Grupo 159611" clip-path="url(#clip-path-42)">
              <path id="Trazado_200688" data-name="Trazado 200688" d="M291.683,295.61s.351,1.063.54,1.994a5.394,5.394,0,0,1,.106,2.532c-.259.557-1.269.915-2.835.9a9.19,9.19,0,0,0-3.677,1.285,5.629,5.629,0,0,1-3.513.487c-1.393-.163-2.837-.971-3.062-1.548s-.284-1.01,3-2.409c.03-.013,3.811-1.407,5.4-3.161Z" transform="translate(-279.152 -295.61)"/>
            </g>
          </g>
        </g>
        <path id="Trazado_200689" data-name="Trazado 200689" d="M285.348,303.88s-.281-2.82-2.574-3.626c-2.072-.729-3.88.807-3.679,2.141.136.9,2.658,2.937,6.253,1.485" transform="translate(-83.955 -90.268)" fill="#fafafa"/>
        <path id="Trazado_200690" data-name="Trazado 200690" d="M285.194,299.411a2.669,2.669,0,0,1,1.564.7c.661.556.68.925.68.925a.347.347,0,0,0,.6-.285,2.154,2.154,0,0,0-2.025-1.714.763.763,0,0,0-.817.379" transform="translate(-85.794 -89.952)" fill="#fafafa"/>
        <path id="Trazado_200691" data-name="Trazado 200691" d="M287.068,298.514a2.344,2.344,0,0,1,1.579.628c.661.556.665.992.665.992a.347.347,0,0,0,.6-.285,2.154,2.154,0,0,0-2.025-1.714.763.763,0,0,0-.817.379" transform="translate(-86.358 -89.683)" fill="#fafafa"/>
        <path id="Trazado_200692" data-name="Trazado 200692" d="M288.928,297.432a2.342,2.342,0,0,1,1.619.518c.7.51.731.945.731.945a.347.347,0,0,0,.577-.326A2.154,2.154,0,0,0,289.717,297a.762.762,0,0,0-.789.434" transform="translate(-86.917 -89.343)" fill="#fafafa"/>
        <path id="Trazado_200693" data-name="Trazado 200693" d="M308.673,284.009v1.913a3,3,0,0,1-3.091.083c-.053-.118-.208-2-.208-2Z" transform="translate(-91.865 -85.438)" fill="#ffaaa9"/>
        <path id="Trazado_200694" data-name="Trazado 200694" d="M295.335,293.719s0,.908,0,1.426-.608,1.292-2.194,1.235c-1.114-.04-1.891-.34-1.847-1.256V293.8Z" transform="translate(-87.629 -88.359)" fill="#ffaaa9"/>
        <path id="Trazado_200695" data-name="Trazado 200695" d="M305.338,246.886a16,16,0,0,0-.933-5.8s.309-4.983.98-11.084c1.021-9.288.551-11.089-1.282-15.267,0,0-15.634-1.585-16.111,4.912-.594,8.092-.665,24.551-.45,27.409s.212.217.906,6c.55,4.576,1.685,16.933,1.685,16.933a4.288,4.288,0,0,0,4.041-.083s1.278-15.12,1.144-18.418a37.186,37.186,0,0,0-.392-5.052s1.828-13.038,2.111-15.137c0,0,.254,3.757.47,6.616s.2,5.161.8,11.073c.473,4.638,1.617,14.651,1.617,14.651a3.837,3.837,0,0,0,3.409-.252s2.091-13.235,2.007-16.5" transform="translate(-86.467 -64.545)" fill="#455a64"/>
        <path id="Trazado_200696" data-name="Trazado 200696" d="M299.879,283.085s.087-2.233,3.106-2.544l.173.1a2.605,2.605,0,0,0-1.485-1.146,2.054,2.054,0,0,0-2.323.667c-.526.679.007,2.489.529,2.925" transform="translate(-89.988 -84.047)" fill="#fafafa"/>
        <path id="Trazado_200697" data-name="Trazado 200697" d="M294.7,184.4l.735,6.042,5.311-.48-.607-6.705Z" transform="translate(-88.652 -55.129)" fill="#ffaaa9"/>
        <path id="Trazado_200698" data-name="Trazado 200698" d="M303.723,190.821c-.584-1.589-1.921-3.254-3.964-2.875-.532.1-1,.177-1.5.278-.046,1.391-2.668,2.112-5.283,1.268q-1.179.338-2.158.688c-1.87.668-2.621,3.773-2.662,8.968s-.771,15.626-.771,15.626,3.93,2.087,11.288.754,7.228-3.834,7.228-3.834-.148-3.048-3.463-8.166c2.816-7.49,2.152-10.348,1.286-12.707" transform="translate(-86.453 -56.523)" fill="#2b454e"/>
        <path id="Trazado_200699" data-name="Trazado 200699" d="M288.881,170.811a4.661,4.661,0,0,1,.4-4.491c1.784-2.8,5.221-3.278,9.294-2.185a7.225,7.225,0,0,1,5.1,6.56c.2,2.987-8.136,5.191-7.945,7.237Z" transform="translate(-86.785 -49.213)" fill="#263238"/>
        <path id="Trazado_200700" data-name="Trazado 200700" d="M288.371,175.539s-1.131,1.813-.971,2a2.821,2.821,0,0,0,.913.364Z" transform="translate(-86.453 -52.807)" fill="#ff9090"/>
        <path id="Trazado_200701" data-name="Trazado 200701" d="M292.191,167.1c-1.13.623-3.08,1.77-3.475,6-.406,4.345.6,5.824,1.2,6.376.409.373,2.469.456,3.534.094a11.17,11.17,0,0,0,5.5-4.24c1.533-2.674,1.77-6.188-.119-7.512a6.917,6.917,0,0,0-6.647-.72" transform="translate(-86.825 -50.106)" fill="#ffaaa9"/>
        <path id="Trazado_200702" data-name="Trazado 200702" d="M292.605,171.46a4.3,4.3,0,0,1-2.757-3.472c-.427-2.757,3.017-3.924,3.017-3.924Z" transform="translate(-87.183 -49.355)" fill="#263238"/>
        <path id="Trazado_200703" data-name="Trazado 200703" d="M293.119,166.871s-.891,3.978.372,6.443c0,0,.658-1.561,2-1.154s1.272,2.192.247,3.13a1.988,1.988,0,0,1-2.057.5,8.923,8.923,0,0,0,1.987,3,6.519,6.519,0,0,0,7.387-2.1c3.111-3.511,2.532-9.635-2.232-11.08a8.114,8.114,0,0,0-7.7,1.271" transform="translate(-88.086 -49.69)" fill="#263238"/>
        <path id="Trazado_200704" data-name="Trazado 200704" d="M314.385,183.672h0a5.407,5.407,0,0,1-5.407-5.407v-9.053a5.407,5.407,0,0,1,5.407,5.407Z" transform="translate(-92.949 -50.903)" fill="#263238"/>
        <path id="Trazado_200705" data-name="Trazado 200705" d="M309.562,167.513a.934.934,0,0,0-.6,1.175l1.778-.571a.934.934,0,0,0-1.175-.6" transform="translate(-92.93 -50.379)" fill="#263238"/>
        <path id="Trazado_200706" data-name="Trazado 200706" d="M270.971,202.1c-.77-.881-.9-2.826-1.926-4.164-1-1.307-.84-2.688-1.485-2.087-.689.642-.163,2.795-.163,2.795A13.044,13.044,0,0,0,266.1,202c-.1,1.135,2.9,3.988,2.9,3.988Z" transform="translate(-80.049 -58.872)" fill="#ffaaa9"/>
        <path id="Trazado_200707" data-name="Trazado 200707" d="M264.993,199.431s-1.218,1.7-6.7-.521c-1.514-.614-.491,2.641,1.365,3.989,1.718,1.248,3.87,1.635,5.59,2.8,0-.166-.255-6.268-.255-6.268" transform="translate(-77.481 -59.815)" fill="#ffaaa9"/>
        <path id="Trazado_200708" data-name="Trazado 200708" d="M285.891,190.934c-1.562.543-2.928,1.173-4.386,3.911-1.872,3.519-5.277,10.413-5.277,10.413l-4.244-4.594s-.617-.87-1.766,1.028-.641,2.423-.641,2.423,4.938,6.614,5.844,7.455,2.4.187,3.367-1.136,6-10.423,6-10.423,3.315-5.749,1.109-9.076" transform="translate(-81.062 -57.438)" fill="#ffaaa9"/>
        <path id="Trazado_200709" data-name="Trazado 200709" d="M290.346,190.58a5.973,5.973,0,0,0-4.76,3.165c-1.866,3.376-3.832,7.186-3.832,7.186a6,6,0,0,0,4.8,3.512c.006-.336,2.824-5.34,3.885-7.484s.959-5.416-.1-6.379" transform="translate(-84.759 -57.332)" fill="#ee296d"/>
        <path id="Trazado_200710" data-name="Trazado 200710" d="M301.17,236.364l.3-3.16a11.932,11.932,0,0,0,4.77-1.8,6.473,6.473,0,0,1-3.8,2.369l-.629,3.078-.164,6.132Z" transform="translate(-90.6 -69.611)" fill="#2b454e"/>
      </g>
    </g>
  </g>
</svg>
