<svg xmlns="http://www.w3.org/2000/svg" xmlns:xlink="http://www.w3.org/1999/xlink" width="108.419" height="108.419" viewBox="0 0 108.419 108.419">
  <defs>
    <linearGradient id="linear-gradient" x1="0.5" x2="0.5" y2="1" gradientUnits="objectBoundingBox">
      <stop offset="0" stop-color="#fdbe41"/>
      <stop offset="1" stop-color="#d09f40"/>
    </linearGradient>
  </defs>
  <g id="Grupo_173266" data-name="Grupo 173266" transform="translate(-590.096 -2963.209)">
    <circle id="Elipse_6020" data-name="Elipse 6020" cx="54.209" cy="54.209" r="54.209" transform="translate(590.096 2963.209)" fill="url(#linear-gradient)"/>
    <g id="OUTLINE" transform="translate(597.589 2972.048)">
      <path id="Trazado_213418" data-name="Trazado 213418" d="M49.926,182.835a23,23,0,0,1,1.927-9.265l-1.769-.773a25.118,25.118,0,0,0,4.938,27.452l1.39-1.34a23.049,23.049,0,0,1-6.486-16.074Z" transform="translate(-26.485 -137.881)" fill="#173c5c"/>
      <path id="Trazado_213419" data-name="Trazado 213419" d="M315.582,16a11.582,11.582,0,1,0,11.582,11.582A11.582,11.582,0,0,0,315.582,16Zm7.469,17.686-1-1-1.365,1.365,1,1a9.607,9.607,0,0,1-5.139,2.134V35.3h-1.93v1.882a9.607,9.607,0,0,1-5.139-2.134l1-1-1.365-1.365-1,1a9.607,9.607,0,0,1-2.134-5.139h1.882v-1.93h-1.882a9.607,9.607,0,0,1,2.134-5.139l1,1,1.365-1.365-1-1a9.607,9.607,0,0,1,5.139-2.134v1.882h1.93V17.979a9.607,9.607,0,0,1,5.139,2.134l-1,1,1.365,1.365,1-1a9.607,9.607,0,0,1,2.134,5.139H323.3v1.93h1.882a9.607,9.607,0,0,1-2.134,5.139Z" transform="translate(-251.606)" fill="#173c5c"/>
      <path id="Trazado_213420" data-name="Trazado 213420" d="M372.956,69.391,370.343,72l1.365,1.365,2.9-2.9a.965.965,0,0,0,.283-.682V64h-1.93Z" transform="translate(-309.945 -42.209)" fill="#173c5c"/>
      <path id="Trazado_213421" data-name="Trazado 213421" d="M27.584,46.594l1.082-1.082h2.5v.965a.965.965,0,0,0,.965.965h5.791a.965.965,0,0,0,.965-.965V36.826a.965.965,0,0,0-.965-.965H32.127a.965.965,0,0,0-.965.965H28.813L26.2,32.469A.965.965,0,0,0,25.371,32H24.361a2.9,2.9,0,0,0-2.688,3.971l.342.855H20.772a2.9,2.9,0,0,0-2.878,3.215l.536,4.826a2.892,2.892,0,0,0,2.878,2.576h4.229A2.876,2.876,0,0,0,27.584,46.594Zm5.508-8.8h3.861v7.721H33.092ZM20.349,44.653l-.536-4.826a.965.965,0,0,1,.959-1.072h2.669a.965.965,0,0,0,.9-1.324l-.871-2.178a.965.965,0,0,1,.9-1.324h.463l2.614,4.357a.965.965,0,0,0,.828.469h2.9v4.826h-2.9a.965.965,0,0,0-.682.283l-1.365,1.365a.959.959,0,0,1-.682.283H21.308a.964.964,0,0,1-.959-.858Z" transform="translate(0 -14.07)" fill="#173c5c"/>
      <path id="Trazado_213422" data-name="Trazado 213422" d="M132.95,311.977a.965.965,0,0,0-.682-.283h-.055a8.685,8.685,0,1,0-16.687,4.209,2.912,2.912,0,0,0-2.231,1.279l-1.132,1.7a.965.965,0,0,0,.436,1.428L129,327.064a.965.965,0,0,0,.8-.029l5.587-2.793h9.423v-1.93h-9.651a.965.965,0,0,0-.432.1l-5.4,2.7-14.912-6.14.479-.718a.971.971,0,0,1,1.087-.387l11.171,3.437a.965.965,0,0,0,.966-.24l3.861-3.861a.965.965,0,0,0-.682-1.647h-1.93a2.9,2.9,0,0,1-2.73-1.93h5.226l2.613,2.613a.965.965,0,0,0,.682.283h9.651v-1.93h-9.252Zm-7.438-.283a.965.965,0,0,0-.965.965,4.832,4.832,0,0,0,4.441,4.81l-1.817,1.817L118,316.465a6.674,6.674,0,0,1-1.174-3.806,6.755,6.755,0,0,1,13.442-.965Z" transform="translate(-82.769 -253.229)" fill="#173c5c"/>
      <path id="Trazado_213423" data-name="Trazado 213423" d="M186.471,157.731l-.27.651-1.461.35a.965.965,0,0,0-.74.938v2.03a.965.965,0,0,0,.74.938l1.461.35.27.651-.789,1.287a.965.965,0,0,0,.14,1.187l1.435,1.435a.965.965,0,0,0,1.187.14l1.287-.789.651.27.35,1.461a.965.965,0,0,0,.939.74h2.03a.965.965,0,0,0,.939-.74l.35-1.461.651-.27,1.287.789a.965.965,0,0,0,1.187-.141l1.435-1.435a.965.965,0,0,0,.14-1.187l-.789-1.287.27-.651,1.461-.35a.965.965,0,0,0,.74-.938v-2.03a.965.965,0,0,0-.74-.939l-1.461-.35-.27-.651.789-1.287a.965.965,0,0,0-.141-1.187l-1.435-1.435a.965.965,0,0,0-1.187-.14l-1.287.789-.651-.27-.35-1.461a.965.965,0,0,0-.939-.74h-2.03a.965.965,0,0,0-.939.74l-.35,1.461-.651.27-1.287-.789a.965.965,0,0,0-1.187.14l-1.435,1.435a.965.965,0,0,0-.14,1.187Zm1.325,1.845.646-1.56a.965.965,0,0,0-.069-.874l-.648-1.058.359-.359,1.058.648a.966.966,0,0,0,.874.069l1.56-.646a.965.965,0,0,0,.569-.667l.287-1.2h.507l.288,1.2a.965.965,0,0,0,.569.667l1.56.646a.965.965,0,0,0,.874-.069l1.058-.648.359.359L197,157.142a.965.965,0,0,0-.069.874l.646,1.56a.965.965,0,0,0,.667.569l1.2.287v.507l-1.2.288a.965.965,0,0,0-.667.569l-.646,1.56a.965.965,0,0,0,.069.874l.648,1.058-.359.359L196.23,165a.965.965,0,0,0-.874-.069l-1.56.646a.965.965,0,0,0-.569.667l-.287,1.2h-.507l-.288-1.2a.965.965,0,0,0-.569-.667l-1.56-.646a.966.966,0,0,0-.874.069l-1.058.648-.359-.359.648-1.058a.965.965,0,0,0,.069-.874l-.646-1.56a.965.965,0,0,0-.667-.569l-1.2-.287v-.507l1.2-.288a.965.965,0,0,0,.667-.569Z" transform="translate(-146.083 -119.593)" fill="#173c5c"/>
      <path id="Trazado_213424" data-name="Trazado 213424" d="M234.9,205.791a2.9,2.9,0,1,0-2.9-2.9A2.9,2.9,0,0,0,234.9,205.791Zm0-3.861a.965.965,0,1,1-.965.965A.965.965,0,0,1,234.9,201.93Z" transform="translate(-188.292 -161.802)" fill="#173c5c"/>
      <path id="Trazado_213425" data-name="Trazado 213425" d="M402.5,214.755a23.343,23.343,0,0,1,.463,4.634,23.087,23.087,0,0,1-6.179,15.751l1.415,1.313a25.012,25.012,0,0,0,6.695-17.064,25.287,25.287,0,0,0-.5-5.023Z" transform="translate(-333.192 -174.435)" fill="#173c5c"/>
      <path id="Trazado_213426" data-name="Trazado 213426" d="M212.108,49.93a23.356,23.356,0,0,1,4.639.465l.378-1.893a25.306,25.306,0,0,0-11.039.225l.462,1.874A23.268,23.268,0,0,1,212.108,49.93Z" transform="translate(-165.504 -28.139)" fill="#173c5c"/>
      <path id="Trazado_213427" data-name="Trazado 213427" d="M91.041,167.452a20.285,20.285,0,0,0,0,21.365l1.639-1.019a18.355,18.355,0,0,1,0-19.328Z" transform="translate(-61.664 -133.181)" fill="#173c5c"/>
      <path id="Trazado_213428" data-name="Trazado 213428" d="M363.751,240.9a20.117,20.117,0,0,0,6.08-14.474,20.423,20.423,0,0,0-.406-4.057l-1.891.388a18.475,18.475,0,0,1,.367,3.668,18.2,18.2,0,0,1-5.5,13.1Z" transform="translate(-302.96 -181.476)" fill="#173c5c"/>
      <path id="Trazado_213429" data-name="Trazado 213429" d="M211.683,89.93a18.477,18.477,0,0,1,3.668.367l.384-1.892a20.41,20.41,0,0,0-10.133.523l.578,1.842A18.338,18.338,0,0,1,211.683,89.93Z" transform="translate(-165.079 -63.314)" fill="#173c5c"/>
      <path id="Trazado_213430" data-name="Trazado 213430" d="M168,340.826a4.82,4.82,0,0,0,1.207,3.192l1.447-1.277a2.9,2.9,0,0,1,3.619-4.424l.967-1.671A4.827,4.827,0,0,0,168,340.826Z" transform="translate(-132.013 -281.395)" fill="#173c5c"/>
    </g>
  </g>
</svg>
