<svg xmlns="http://www.w3.org/2000/svg" xmlns:xlink="http://www.w3.org/1999/xlink" width="108.419" height="108.419" viewBox="0 0 108.419 108.419">
  <defs>
    <linearGradient id="linear-gradient" x1="0.5" x2="0.5" y2="1" gradientUnits="objectBoundingBox">
      <stop offset="0" stop-color="#fdbe41"/>
      <stop offset="1" stop-color="#d09f40"/>
    </linearGradient>
  </defs>
  <g id="Grupo_173265" data-name="Grupo 173265" transform="translate(-884.058 -2963.209)">
    <circle id="Elipse_6021" data-name="Elipse 6021" cx="54.209" cy="54.209" r="54.209" transform="translate(884.058 2963.209)" fill="url(#linear-gradient)"/>
    <g id="identificar" transform="translate(908.896 2988.048)">
      <g id="Grupo_172646" data-name="Grupo 172646" transform="translate(0 0)">
        <path id="Trazado_213431" data-name="Trazado 213431" d="M36.117,56.313a.861.861,0,0,0-.456,1.128,16.584,16.584,0,1,0-1.138-4.072.86.86,0,1,0,1.7-.248,14.906,14.906,0,1,1,1.019,3.647.861.861,0,0,0-1.128-.456Z" transform="translate(-30.409 -30.409)" fill="#173c5c"/>
        <path id="Trazado_213432" data-name="Trazado 213432" d="M81.76,94.449H99.309a2.715,2.715,0,0,0,2.312-4.137L92.847,76.045a2.715,2.715,0,0,0-4.625,0L79.448,90.312a2.715,2.715,0,0,0,2.313,4.137Zm-.847-3.236,8.774-14.267a.994.994,0,0,1,1.693,0l8.774,14.267a.994.994,0,0,1-.846,1.515H81.76a.994.994,0,0,1-.847-1.515Z" transform="translate(-69.972 -66.176)" fill="#173c5c"/>
        <path id="Trazado_213433" data-name="Trazado 213433" d="M172.52,200.5a.869.869,0,1,0-.869-.869A.869.869,0,0,0,172.52,200.5Z" transform="translate(-151.957 -175.962)" fill="#173c5c"/>
        <path id="Trazado_213434" data-name="Trazado 213434" d="M172.7,126.773a.86.86,0,0,0,.86-.86v-5.626a.86.86,0,0,0-1.721,0v5.626A.86.86,0,0,0,172.7,126.773Z" transform="translate(-152.125 -105.724)" fill="#173c5c"/>
        <path id="Trazado_213435" data-name="Trazado 213435" d="M440.244,367.6l-7.546-7.546a.86.86,0,0,0-1.217,1.217l7.546,7.546a.86.86,0,1,0,1.217-1.217Z" transform="translate(-381.754 -318.52)" fill="#173c5c"/>
        <path id="Trazado_213436" data-name="Trazado 213436" d="M38.053,45.031a.3.3,0,0,1,0-.421l6.557-6.557a.3.3,0,0,1,.422,0l1.857,1.857a.86.86,0,0,0,1.217-1.217l-1.857-1.857a2.02,2.02,0,0,0-2.855,0l-.047.047L41.94,35.478l.048-.048a2.021,2.021,0,0,0,0-2.855l-2.963-2.963A20.552,20.552,0,0,0,34.541,5.482a.86.86,0,0,0-1.17,1.262,18.787,18.787,0,1,1-3.062-2.31A.861.861,0,0,0,31.2,2.962a20.567,20.567,0,1,0-1.588,36.063l2.963,2.962a2.019,2.019,0,0,0,2.855,0l.047-.048,1.406,1.406-.047.047a2.02,2.02,0,0,0,0,2.855L49.078,58.49a.861.861,0,0,0,1.217-1.217ZM34,40.857a.3.3,0,0,1-.211-.087l-2.606-2.606a20.722,20.722,0,0,0,6.978-6.978l2.606,2.606a.3.3,0,0,1,0,.422L34.213,40.77A.3.3,0,0,1,34,40.857Zm2.692-.134,4.028-4.028L42.128,38.1,38.1,42.128Z" transform="translate(0 0)" fill="#173c5c"/>
      </g>
    </g>
  </g>
</svg>
