<svg xmlns="http://www.w3.org/2000/svg" xmlns:xlink="http://www.w3.org/1999/xlink" width="108.419" height="108.419" viewBox="0 0 108.419 108.419">
  <defs>
    <linearGradient id="linear-gradient" x1="0.5" x2="0.5" y2="1" gradientUnits="objectBoundingBox">
      <stop offset="0" stop-color="#fdbe41"/>
      <stop offset="1" stop-color="#d09f40"/>
    </linearGradient>
  </defs>
  <g id="Grupo_173263" data-name="Grupo 173263" transform="translate(3330.745 8736.791)">
    <path id="Trazado_213410" data-name="Trazado 213410" d="M54.209,0A54.209,54.209,0,1,1,0,54.209,54.209,54.209,0,0,1,54.209,0Z" transform="translate(-3330.745 -8736.791)" fill="url(#linear-gradient)"/>
    <g id="apreton-de-manos" transform="translate(-3307.126 -8713.58)">
      <path id="Trazado_213437" data-name="Trazado 213437" d="M60.934,113.4l-10.241-13.3a1.2,1.2,0,0,0-1.595-.28l-6.612,4.2H33.864a1.189,1.189,0,0,0-.33.055L26.848,106l-6.937-1.9-6.741-4.287a1.2,1.2,0,0,0-1.577.259L.265,114.1a1.2,1.2,0,0,0,.151,1.663l5.937,5.109,5.326,7.177a4.236,4.236,0,0,0,2.665,7.116,4.268,4.268,0,0,0-.049.648,4.24,4.24,0,0,0,4.24,4.24h.045c0,.029,0,.057,0,.086a4.239,4.239,0,0,0,4.24,4.24,4.323,4.323,0,0,0,.662-.052,4.24,4.24,0,0,0,7.215,2.581l.648-.648.272.219a4.238,4.238,0,0,0,7.185-3.114,4.233,4.233,0,0,0,4.3-4.3,4.236,4.236,0,0,0,4.3-4.306,4.237,4.237,0,0,0,3.622-6.547l3.889-8.145,5.847-5.031a1.2,1.2,0,0,0,.168-1.641ZM12.786,102.412l4.847,3.082L7.089,118.341,2.863,114.7Zm.684,27.237,1.463-1.463c.044-.044.091-.086.139-.126a1.836,1.836,0,0,1,1-.406H16.1c.052,0,.1-.007.157-.007a1.829,1.829,0,0,1,1.313.576,1.886,1.886,0,0,1-.081,2.61l-1.419,1.419a1.84,1.84,0,0,1-2.6-2.6Zm3.764,7.467a1.84,1.84,0,0,1,0-2.6l2.837-2.837a1.86,1.86,0,0,1,2.092-.361,1.834,1.834,0,0,1,1.014,1.9,1.942,1.942,0,0,1-.548,1.109l-2.792,2.791a1.84,1.84,0,0,1-2.6,0Zm4.283,4.325a1.84,1.84,0,0,1,0-2.6L24.353,136a1.861,1.861,0,0,1,2.225-.292,1.831,1.831,0,0,1,.879,1.86,1.944,1.944,0,0,1-.545,1.08l-2.791,2.791a1.84,1.84,0,0,1-2.6,0Zm4.879,3.772a1.842,1.842,0,0,1,0-2.6l1.463-1.463c.044-.044.091-.086.138-.125l0,0a1.834,1.834,0,0,1,.816-.379l.021,0c.051-.009.1-.017.156-.021l.063,0c.043,0,.085-.005.129,0a1.828,1.828,0,0,1,1.313.576,1.663,1.663,0,0,1,.119.14,1.9,1.9,0,0,1-.207,2.478L29,145.213a1.842,1.842,0,0,1-2.6,0Zm22.38-13.389a1.842,1.842,0,0,1-2.6,0,1.092,1.092,0,0,0-.082-.073l-7.714-7.8a1.2,1.2,0,0,0-1.706,1.688l7.8,7.879,0,0a1.84,1.84,0,1,1-2.6,2.6l-5.216-5.271a1.2,1.2,0,0,0-1.705,1.688l5.137,5.19a1.14,1.14,0,0,0,.084.094,1.84,1.84,0,1,1-2.6,2.6l-2.847-2.877a1.2,1.2,0,0,0-1.706,1.687l2.768,2.8a1.069,1.069,0,0,0,.084.094,1.84,1.84,0,1,1-2.6,2.6,2.655,2.655,0,0,0-.272-.217c-.078-.06-.1-.1-.06-.2s.1-.184.139-.281.079-.22.114-.332a4.326,4.326,0,0,0,.155-1.846,4.2,4.2,0,0,0-3.577-3.612,4.279,4.279,0,0,0-1.027-3.861,4.209,4.209,0,0,0-3.022-1.326h-.127a4.2,4.2,0,0,0-4.156-4.325,4.315,4.315,0,0,0-1.024.109,4.225,4.225,0,0,0-7.01-2.51l-4.638-6.249,11.095-13.516,3.536.967-4.618,8.149a4.24,4.24,0,0,0,1.6,5.779q.092.053.187.1l.014.007a4.266,4.266,0,0,0,.509.213,4.24,4.24,0,0,0,5.069-1.919l3-5.3,5.358.38L48.776,129.22a1.843,1.843,0,0,1,0,2.6Zm.5-5.5L35.888,112.939a1.062,1.062,0,0,0-.079-.073,1.2,1.2,0,0,0-.684-.275l-6.561-.465a1.219,1.219,0,0,0-1.129.605l-3.374,5.954a1.84,1.84,0,1,1-3.2-1.815l4.5-7.949,1.825-.525.036-.012,6.812-1.967h8.231l10.275,13.062Zm4.84-8.728-9.5-12.086,4.85-3.084,8.879,11.533Zm0,0" transform="translate(0 -87.28)" fill="#173c5c"/>
      <path id="Trazado_213438" data-name="Trazado 213438" d="M301.345,39.466a1.2,1.2,0,0,0,.849-.351l8.2-8.2a1.2,1.2,0,0,0-1.7-1.7l-8.2,8.2a1.2,1.2,0,0,0,.848,2.048Zm0,0" transform="translate(-264.279 -24.981)" fill="#173c5c"/>
      <path id="Trazado_213439" data-name="Trazado 213439" d="M131.742,39.115a1.2,1.2,0,0,0,1.7-1.7l-8.2-8.2a1.2,1.2,0,0,0-1.7,1.7Zm0,0" transform="translate(-108.474 -24.981)" fill="#173c5c"/>
      <path id="Trazado_213440" data-name="Trazado 213440" d="M247.161,49.88a1.2,1.2,0,0,0,1.2-1.2V41.9a1.2,1.2,0,1,0-2.4,0v6.782A1.2,1.2,0,0,0,247.161,49.88Zm0,0" transform="translate(-216.569 -35.395)" fill="#173c5c"/>
      <path id="Trazado_213441" data-name="Trazado 213441" d="M246.075,2.155A1.2,1.2,0,1,0,247.913.745a1.2,1.2,0,0,0-1.837,1.411Zm0,0" transform="translate(-216.591)" fill="#173c5c"/>
    </g>
  </g>
</svg>
