<svg xmlns="http://www.w3.org/2000/svg" xmlns:xlink="http://www.w3.org/1999/xlink" width="108.419" height="108.419" viewBox="0 0 108.419 108.419">
  <defs>
    <linearGradient id="linear-gradient" x1="0.5" x2="0.5" y2="1" gradientUnits="objectBoundingBox">
      <stop offset="0" stop-color="#fdbe41"/>
      <stop offset="1" stop-color="#d09f40"/>
    </linearGradient>
  </defs>
  <g id="Grupo_173262" data-name="Grupo 173262" transform="translate(3012.745 8736.791)">
    <path id="Trazado_213411" data-name="Trazado 213411" d="M54.209,0A54.209,54.209,0,1,1,0,54.209,54.209,54.209,0,0,1,54.209,0Z" transform="translate(-3012.745 -8736.791)" fill="url(#linear-gradient)"/>
    <g id="Outline" transform="translate(-3004.72 -8729.08)">
      <path id="Trazado_213442" data-name="Trazado 213442" d="M16.621,48.12a1.006,1.006,0,0,0,1.1-.218l1.717-1.718h7.632a1.006,1.006,0,0,0,.786-.377l3.723-4.653h5.975l1.723,3.019,1.748-1L39.01,39.649a1.006,1.006,0,0,0-.875-.508H31.092a1.006,1.006,0,0,0-.786.377l-3.723,4.653H19.018a1.006,1.006,0,0,0-.711.295l-.295.295v-2.6h6.037a1.006,1.006,0,0,0,.786-.377l3.723-4.653H40.57l2.01,3.518,1.747-1-2.3-4.025a1.006,1.006,0,0,0-.874-.507H37.338l.956-5.031h5.878V28.074H37.461a1.006,1.006,0,0,0-.989.818L35.29,35.117h-6L30.4,29.268a1.006,1.006,0,0,0-.988-1.194H25.055a1.006,1.006,0,0,0-.934.633l-1.759,4.4H20.414l2.348-7.043h20.4a1.006,1.006,0,0,0,.987-.809l.8-4.025-1.973-.395-.643,3.216H37.594a4,4,0,0,0,.541-2.012V20.025a4.025,4.025,0,0,0-8.049,0v2.012a4,4,0,0,0,.541,2.012H22.037a1.006,1.006,0,0,0-.955.688l-3.018,9.055a1.006,1.006,0,0,0,.955,1.324h4.025a1.006,1.006,0,0,0,.934-.633l1.759-4.4H28.2l-1.065,5.6-3.566,4.458H17.006A1.006,1.006,0,0,0,16,41.154v6.037a1.006,1.006,0,0,0,.621.93ZM32.1,22.037V20.025a2.012,2.012,0,1,1,4.025,0v2.012a2.012,2.012,0,0,1-4.025,0Z" fill="#173c5c"/>
      <path id="Trazado_213443" data-name="Trazado 213443" d="M47.641,267.272l-1.74-.87-.424-.742-1.747,1,.575,1.006a1.006,1.006,0,0,0,.424.4l.373.187L42.523,269.8l-3.515-6.15a1.006,1.006,0,0,0-.873-.508H31.092a1.006,1.006,0,0,0-.786.377l-3.723,4.653H19.018a1.006,1.006,0,0,0-.711.295l-.295.295v-2.6h6.037a1.006,1.006,0,0,0,.786-.377l3.723-4.653H39.141v-2.012H37.35l.765-3.827-1.973-.395-.844,4.222H29.289l1.111-5.849a1.006,1.006,0,0,0-.988-1.194H25.055a1.006,1.006,0,0,0-.934.633l-1.759,4.4H20.414l2.348-7.043H37.129v-1.367a4.007,4.007,0,0,0,1.006-2.658v-2.012a4.025,4.025,0,0,0-8.049,0v2.012a4,4,0,0,0,.541,2.012H22.037a1.006,1.006,0,0,0-.955.688l-3.018,9.055a1.006,1.006,0,0,0,.955,1.324h4.025a1.006,1.006,0,0,0,.934-.633l1.759-4.4H28.2l-1.065,5.6-3.566,4.458H17.006A1.006,1.006,0,0,0,16,265.154v6.037a1.006,1.006,0,0,0,1.718.711l1.717-1.718h7.632a1.006,1.006,0,0,0,.786-.377l3.723-4.653h5.975l3.735,6.536a1.006,1.006,0,0,0,1.391.364l5.031-3.018a1.006,1.006,0,0,0-.068-1.763ZM32.1,246.037v-2.012a2.012,2.012,0,1,1,4.025,0v2.012a2.012,2.012,0,1,1-4.025,0Z" transform="translate(0 -195.828)" fill="#173c5c"/>
      <path id="Trazado_213444" data-name="Trazado 213444" d="M221.83,241.626l-.076.076a16.086,16.086,0,0,0-2.332-19.8L218,223.321a14.085,14.085,0,1,1-17.463-1.963l-1.073-1.7a16.1,16.1,0,1,0,18.107,26.591l7.244,7.244a3.141,3.141,0,1,0,4.442-4.441Zm5.2,10.773a1.12,1.12,0,0,1-.8-.33l-7.118-7.118a16.231,16.231,0,0,0,1.525-1.666l7.188,7.188a1.128,1.128,0,0,1-.8,1.926Z" transform="translate(-153.806 -178.043)" fill="#173c5c"/>
      <circle id="Elipse_6138" data-name="Elipse 6138" cx="2.02" cy="2.02" r="2.02" transform="translate(52.242 52.918)" fill="#173c5c"/>
      <path id="Trazado_213445" data-name="Trazado 213445" d="M236.066,234.012c.293,0,.588.013.878.038l.173-2c-.347-.03-.7-.045-1.051-.045a12.074,12.074,0,1,0,8.4,3.4l-1.4,1.445a9.992,9.992,0,0,1,2.664,4.424,15.55,15.55,0,0,0-9.664-3.236h-.142a15.543,15.543,0,0,0-9.521,3.232A10.077,10.077,0,0,1,236.066,234.012Zm0,20.123a10.077,10.077,0,0,1-9.66-7.256,15.536,15.536,0,0,0,9.645,3.231h.016a15.536,15.536,0,0,0,9.66-3.231,10.078,10.078,0,0,1-9.66,7.256Zm-.035-14.085h.084a4.013,4.013,0,1,1-.084,0Zm9.776,4.025a12.25,12.25,0,0,1-4.542,3.062,6.018,6.018,0,0,0,0-6.122,12.251,12.251,0,0,1,4.539,3.059Zm-14.942-3.06a6.018,6.018,0,0,0,0,6.122,12.251,12.251,0,0,1-4.542-3.063A12.258,12.258,0,0,1,230.865,241.014Z" transform="translate(-181.832 -188.834)" fill="#173c5c"/>
      <path id="Trazado_213446" data-name="Trazado 213446" d="M281.154,16H261.031A5.036,5.036,0,0,0,256,21.031v16.1a5.036,5.036,0,0,0,5.031,5.031h6.037v5.031a1.006,1.006,0,0,0,1.718.711l5.742-5.742h6.626a5.036,5.036,0,0,0,5.031-5.031v-16.1A5.036,5.036,0,0,0,281.154,16Zm3.018,21.129a3.022,3.022,0,0,1-3.018,3.018h-7.043a1.006,1.006,0,0,0-.711.295l-4.319,4.319V41.154a1.006,1.006,0,0,0-1.006-1.006h-7.043a3.022,3.022,0,0,1-3.018-3.018v-16.1a3.022,3.022,0,0,1,3.018-3.018h20.123a3.022,3.022,0,0,1,3.018,3.018Z" transform="translate(-209.816)" fill="#173c5c"/>
      <path id="Trazado_213447" data-name="Trazado 213447" d="M290.012,67.4l2.012-2.683,2.214,2.951a1.006,1.006,0,0,0,1.642-.046l3.277-4.916,4.168,5a1.006,1.006,0,0,0,.773.362c.031,0,.063,0,.094,0a1.006,1.006,0,0,0,.785-.513l5.031-9.055-1.759-.977L303.932,65.3l-4.091-4.91a1.006,1.006,0,0,0-1.61.086l-3.236,4.854-2.165-2.887a1.006,1.006,0,0,0-1.61,0l-1.207,1.61V56H288V71.092a1.006,1.006,0,0,0,1.006,1.006h21.129V70.086H290.012Z" transform="translate(-237.791 -34.969)" fill="#173c5c"/>
    </g>
  </g>
</svg>
