<svg xmlns="http://www.w3.org/2000/svg" xmlns:xlink="http://www.w3.org/1999/xlink" width="170.483" height="170.483" viewBox="0 0 170.483 170.483">
  <defs>
    <filter id="Trazado_150709" x="0" y="0" width="170.483" height="170.483" filterUnits="userSpaceOnUse">
      <feOffset dx="5" dy="5" input="SourceAlpha"/>
      <feGaussianBlur stdDeviation="12.5" result="blur"/>
      <feFlood flood-opacity="0.161"/>
      <feComposite operator="in" in2="blur"/>
      <feComposite in="SourceGraphic"/>
    </filter>
  </defs>
  <g id="Grupo_173274" data-name="Grupo 173274" transform="translate(-284.531 -3685.216)">
    <g id="Grupo_172648" data-name="Grupo 172648" transform="translate(304.11 3704.794)">
      <g transform="matrix(1, 0, 0, 1, -19.58, -19.58)" filter="url(#Trazado_150709)">
        <path id="Trazado_150709-2" data-name="Trazado 150709" d="M95.315,43.782A47.739,47.739,0,1,1,43.782.167,47.739,47.739,0,0,1,95.315,43.782" transform="translate(32.5 127.98) rotate(-90)" fill="#fff"/>
      </g>
      <g id="de-fumar" transform="translate(30.914 28.53)">
        <g id="Grupo_172664" data-name="Grupo 172664" transform="translate(7.925 1.925)">
          <g id="Grupo_172653" data-name="Grupo 172653" transform="translate(27.751 8.325)">
            <path id="Trazado_213448" data-name="Trazado 213448" d="M41.7,11v3.552a18.1,18.1,0,0,1-.87,5.532,2.782,2.782,0,0,0-1.906-.759H38V15.533A4.626,4.626,0,0,0,41.7,11Z" transform="translate(-38 -11)" fill="#656d78"/>
          </g>
          <g id="Grupo_172654" data-name="Grupo 172654" transform="translate(5.55)">
            <path id="Trazado_213449" data-name="Trazado 213449" d="M38.051,7.68v.037a2.625,2.625,0,0,1,1.036.648,2.768,2.768,0,0,1,.814,1.961,4.626,4.626,0,0,1-3.7,4.533,4.359,4.359,0,0,1-.925.093H24.628a3.215,3.215,0,0,1-2.285-.944,3.12,3.12,0,0,1-.8-1.36l-1.591.953A4.626,4.626,0,0,0,17.7,17.568V18.65h-.925a2.752,2.752,0,0,0-1.9.749l-.555-2.248A10.7,10.7,0,0,1,24.712,3.85h3.164l1.341-.9A5.717,5.717,0,0,1,32.371,2a5.685,5.685,0,0,1,5.68,5.68Z" transform="translate(-14 -2)" fill="#656d78"/>
          </g>
          <g id="Grupo_172655" data-name="Grupo 172655" transform="translate(0 32.848)">
            <path id="Trazado_213450" data-name="Trazado 213450" d="M15.4,60.164H8V46.381a8.177,8.177,0,0,1,6.706-8.038l4.6-.833,2.572,6,4.625-3.7,4.625,3.7,2.572-6,4.6.833A8.177,8.177,0,0,1,45,46.381V60.164H15.4Z" transform="translate(-8 -37.51)" fill="#fcd770"/>
          </g>
          <g id="Grupo_172656" data-name="Grupo 172656" transform="translate(18.5 32.376)">
            <path id="Trazado_213451" data-name="Trazado 213451" d="M32.625,37l2.572.472-2.572,6L28,39.775Z" transform="translate(-28 -37)" fill="#ffc729"/>
          </g>
          <g id="Grupo_172657" data-name="Grupo 172657" transform="translate(11.304 32.376)">
            <path id="Trazado_213452" data-name="Trazado 213452" d="M27.417,39.775l-4.625,3.7-2.572-6L22.792,37Z" transform="translate(-20.22 -37)" fill="#ffc729"/>
          </g>
          <g id="Grupo_172658" data-name="Grupo 172658" transform="translate(13.875 27.889)">
            <path id="Trazado_213453" data-name="Trazado 213453" d="M31.353,32.15l.9,4.486-4.625,2.775L23,36.636l.9-4.486a9.23,9.23,0,0,0,7.456,0Z" transform="translate(-23 -32.15)" fill="#f0d0b4"/>
          </g>
          <g id="Grupo_172659" data-name="Grupo 172659" transform="translate(5.55 16.65)">
            <path id="Trazado_213454" data-name="Trazado 213454" d="M18.126,25.55H16.775a2.775,2.775,0,0,1,0-5.55H17.7v2.775A9.165,9.165,0,0,0,18.126,25.55Z" transform="translate(-14 -20)" fill="#f0d0b4"/>
          </g>
          <g id="Grupo_172660" data-name="Grupo 172660" transform="translate(9.25 10.647)">
            <path id="Trazado_213455" data-name="Trazado 213455" d="M24.928,15.813H35.575a4.359,4.359,0,0,0,.925-.093v6.568a9.165,9.165,0,0,1-.426,2.775c-.074.241-.157.472-.25.7L31.94,24.8l-2.387-.6a1.9,1.9,0,0,0-.453-.056,1.842,1.842,0,0,0-1.795,1.4,1.842,1.842,0,0,0,1.341,2.248l2.4.6,2.553.638a9.271,9.271,0,0,1-2.618,1.73,9.23,9.23,0,0,1-7.456,0A9.243,9.243,0,0,1,18,22.288V18.431a4.626,4.626,0,0,1,2.248-3.968l1.591-.953a3.12,3.12,0,0,0,.8,1.36,3.215,3.215,0,0,0,2.285.944Z" transform="translate(-18 -13.51)" fill="#f0d0b4"/>
          </g>
          <g id="Grupo_172661" data-name="Grupo 172661" transform="translate(27.325 16.65)">
            <path id="Trazado_213456" data-name="Trazado 213456" d="M40.8,20.759a2.776,2.776,0,0,1-1.906,4.792H37.54a9.165,9.165,0,0,0,.426-2.775V20h.925a2.782,2.782,0,0,1,1.906.759Z" transform="translate(-37.54 -20)" fill="#f0d0b4"/>
          </g>
          <g id="Grupo_172662" data-name="Grupo 172662" transform="translate(22.293 21.932)">
            <path id="Trazado_213457" data-name="Trazado 213457" d="M46.54,29.651a1.845,1.845,0,0,1-1.582,2.8A1.9,1.9,0,0,1,44.5,32.4l-9.851-2.461L32.1,29.3,33,25.71l3.885.971L45.4,28.809a1.815,1.815,0,0,1,1.138.842Z" transform="translate(-32.1 -25.71)" fill="#e6e9ed"/>
          </g>
          <g id="Grupo_172663" data-name="Grupo 172663" transform="translate(18.5 21.276)">
            <path id="Trazado_213458" data-name="Trazado 213458" d="M30.3,25.056l2.387.6-.9,3.589-2.4-.6A1.842,1.842,0,0,1,28.055,26.4,1.842,1.842,0,0,1,29.85,25,1.9,1.9,0,0,1,30.3,25.056Z" transform="translate(-27.999 -25)" fill="#dfb28b"/>
          </g>
        </g>
        <g id="Grupo_172665" data-name="Grupo 172665" transform="translate(7 1)">
          <path id="Trazado_213459" data-name="Trazado 213459" d="M23.775,19.925A.925.925,0,0,1,22.85,19H21a2.775,2.775,0,0,0,5.55,0H24.7A.925.925,0,0,1,23.775,19.925Z" transform="translate(-8.05 -2.35)"/>
          <path id="Trazado_213460" data-name="Trazado 213460" d="M31.775,21.775A2.778,2.778,0,0,0,34.55,19H32.7a.925.925,0,0,1-1.85,0H29A2.778,2.778,0,0,0,31.775,21.775Z" transform="translate(-8.65 -2.35)"/>
          <path id="Trazado_213461" data-name="Trazado 213461" d="M38.383,34.695,31.835,33.5,31.2,30.332a10.174,10.174,0,0,0,1.809-1.238L42.4,31.442a2.774,2.774,0,1,0,1.348-5.382L38.2,24.672a3.658,3.658,0,0,0,1.328-5.559A18.949,18.949,0,0,0,40.3,13.8V10.25a3.686,3.686,0,0,0-1.878-3.2A6.6,6.6,0,0,0,28.181,2.109L27.07,2.85H24.182A11.63,11.63,0,0,0,12.9,17.3l.446,1.784a3.664,3.664,0,0,0-.794,2.263,3.7,3.7,0,0,0,3.7,3.7h.707a10.228,10.228,0,0,0,4.694,5.28L21.016,33.5l-6.548,1.191A9.1,9.1,0,0,0,7,43.642v14.71H45.851V43.642a9.091,9.091,0,0,0-7.468-8.947Zm-6.065.777L30.68,39.295l-2.637-2.11,3.185-1.911ZM28.05,25.947a.925.925,0,0,1,.222-1.822,1.006,1.006,0,0,1,.23.029L30,24.527l-.449,1.794Zm15.819,2.328a.914.914,0,0,1,.1.7.929.929,0,0,1-1.123.671L31.341,26.77l.449-1.794L43.3,27.855a.911.911,0,0,1,.569.42ZM38.428,14.4a17.056,17.056,0,0,1-.484,3.515A3.686,3.686,0,0,0,36.6,17.65V15.477a5.543,5.543,0,0,0,1.827-1.08ZM36.6,23.2h-.172a10.175,10.175,0,0,0,.172-1.85V19.5a1.85,1.85,0,1,1,0,3.7Zm-20.35,0a1.85,1.85,0,0,1,0-3.7v1.85a10.165,10.165,0,0,0,.177,1.85Zm0-5.706v.156a3.67,3.67,0,0,0-1.3.247l-.261-1.042A9.785,9.785,0,0,1,24.182,4.7h3.448l1.577-1.052a4.743,4.743,0,0,1,7.263,2.915A3.7,3.7,0,0,0,32.9,10.25h1.85a1.85,1.85,0,0,1,3.7,0,3.7,3.7,0,0,1-3.7,3.7H24.1a2.3,2.3,0,0,1-.729-4.482l.57-.19-.584-1.756-.571.191A4.14,4.14,0,0,0,19.95,11.65,4.082,4.082,0,0,0,20,12.1l-1.052.631a5.578,5.578,0,0,0-2.695,4.759ZM18.1,21.35V17.494a3.72,3.72,0,0,1,1.8-3.173l.72-.432A4.146,4.146,0,0,0,24.1,15.8h10.65v5.55a8.313,8.313,0,0,1-.342,2.374l-5.459-1.365a2.785,2.785,0,0,0-3.365,2.016A2.772,2.772,0,0,0,27.6,27.741l3.064.766A8.316,8.316,0,0,1,18.1,21.35Zm8.325,10.175a10.166,10.166,0,0,0,3.033-.467l.557,2.784L26.425,36l-3.59-2.154.556-2.78a10.151,10.151,0,0,0,3.034.463Zm-4.8,3.747,3.186,1.911-2.637,2.11-1.638-3.823ZM44,56.5h-5.55V46.326H36.6V56.5H16.25V46.326H14.4V56.5H8.85V43.642A7.246,7.246,0,0,1,14.8,36.514l3.868-.7,2.763,6.446,5-4,5,4,2.762-6.446,3.868.7A7.244,7.244,0,0,1,44,43.642Z" transform="translate(-7 -1)"/>
          <path id="Trazado_213462" data-name="Trazado 213462" d="M55.475,6.55H56.4V4.7h-.925a2.775,2.775,0,1,0,0,5.55,4.625,4.625,0,0,0,0-9.25h-.128a6.348,6.348,0,0,0-3.521,11.629,6.105,6.105,0,0,1,2.723,5.089,6.662,6.662,0,0,1-.7,2.962l-1.979,3.956,1.655.828,1.979-3.956a8.515,8.515,0,0,0,.894-3.79,7.95,7.95,0,0,0-3.547-6.628,4.5,4.5,0,0,1,2.495-8.24h.128a2.775,2.775,0,1,1,0,5.55.925.925,0,1,1,0-1.85Z" transform="translate(-10.149 -1)"/>
          <path id="Trazado_213463" data-name="Trazado 213463" d="M48.045,14h-.27A2.794,2.794,0,0,0,45,16.831a2.718,2.718,0,0,0,2.718,2.719H48.7V17.7h-.981a.865.865,0,0,1-.614-.254.9.9,0,0,1-.254-.661.93.93,0,0,1,.925-.934h.27a2.505,2.505,0,0,1,1.12,4.746,4.166,4.166,0,0,0-2.315,3.746v1.683H48.7V24.343a2.324,2.324,0,0,1,1.293-2.091A4.356,4.356,0,0,0,48.045,14Z" transform="translate(-9.849 -1.975)"/>
        </g>
      </g>
    </g>
  </g>
</svg>
