<svg xmlns="http://www.w3.org/2000/svg" xmlns:xlink="http://www.w3.org/1999/xlink" width="181.139" height="181.139" viewBox="0 0 181.139 181.139">
  <defs>
    <filter id="Trazado_150700" x="0" y="0" width="181.139" height="181.139" filterUnits="userSpaceOnUse">
      <feOffset dx="5" dy="5" input="SourceAlpha"/>
      <feGaussianBlur stdDeviation="12.5" result="blur"/>
      <feFlood flood-opacity="0.161"/>
      <feComposite operator="in" in2="blur"/>
      <feComposite in="SourceGraphic"/>
    </filter>
  </defs>
  <g id="Grupo_173275" data-name="Grupo 173275" transform="translate(-720.416 -3682.822)">
    <g transform="matrix(1, 0, 0, 1, 720.42, 3682.82)" filter="url(#Trazado_150700)">
      <path id="Trazado_150700-2" data-name="Trazado 150700" d="M86.868,12.156a53.068,53.068,0,1,1-74.712,7.115,53.069,53.069,0,0,1,74.712-7.115" transform="translate(32.5 138.64) rotate(-90)" fill="#fff"/>
    </g>
    <g id="mundo" transform="translate(734.684 3731.42)">
      <g id="Grupo_172675" data-name="Grupo 172675" transform="translate(48.282 1.028)">
        <g id="Grupo_172669" data-name="Grupo 172669" transform="translate(5.792)">
          <g id="Grupo_172666" data-name="Grupo 172666">
            <circle id="Elipse_6139" data-name="Elipse 6139" cx="3.564" cy="3.564" r="3.564" transform="translate(2.229)" fill="#ffcec0"/>
            <path id="Trazado_213464" data-name="Trazado 213464" d="M166.5,11.067a3.565,3.565,0,0,1-5.1,3.218,3.566,3.566,0,0,0,0-6.437,3.565,3.565,0,0,1,5.1,3.218Z" transform="translate(-157.143 -7.503)" fill="#fdb0a0"/>
            <path id="Trazado_213465" data-name="Trazado 213465" d="M141.909,68.2l-.49-5.5a3.512,3.512,0,0,0-3.5-3.2h-3.6a3.512,3.512,0,0,0-3.5,3.2l-.49,5.5a.7.7,0,0,0,.7.765H132.7v7.65a1.4,1.4,0,0,0,1.4,1.4h4.035a1.4,1.4,0,0,0,1.4-1.4v-7.65h1.667A.7.7,0,0,0,141.909,68.2Z" transform="translate(-130.327 -52.368)" fill="#64b9fc"/>
            <path id="Trazado_213466" data-name="Trazado 213466" d="M166.574,68.968h-1.667v7.65a1.4,1.4,0,0,1-1.4,1.4h-3.564a1.4,1.4,0,0,0,1.4-1.4V70.312a1.344,1.344,0,0,1,1.344-1.344h.323a.7.7,0,0,0,.7-.764l-.489-5.5a3.512,3.512,0,0,0-3.5-3.2h3.564a3.512,3.512,0,0,1,3.5,3.2l.489,5.5A.7.7,0,0,1,166.574,68.968Z" transform="translate(-155.692 -52.373)" fill="#31a7fb"/>
          </g>
          <g id="Grupo_172667" data-name="Grupo 172667" transform="translate(11.584)">
            <circle id="Elipse_6140" data-name="Elipse 6140" cx="3.564" cy="3.564" r="3.564" transform="translate(2.229)" fill="#fdb0a0"/>
            <path id="Trazado_213467" data-name="Trazado 213467" d="M251.01,11.067a3.565,3.565,0,0,1-5.1,3.218,3.566,3.566,0,0,0,0-6.437,3.565,3.565,0,0,1,5.1,3.218Z" transform="translate(-241.653 -7.503)" fill="#f89f8e"/>
            <path id="Trazado_213468" data-name="Trazado 213468" d="M226.419,68.2l-.49-5.5a3.512,3.512,0,0,0-3.5-3.2h-3.6a3.512,3.512,0,0,0-3.5,3.2l-.49,5.5a.7.7,0,0,0,.7.765h1.667v7.65a1.4,1.4,0,0,0,1.4,1.4h4.035a1.4,1.4,0,0,0,1.4-1.4v-7.65h1.667A.7.7,0,0,0,226.419,68.2Z" transform="translate(-214.837 -52.368)" fill="#fcc16d"/>
            <path id="Trazado_213469" data-name="Trazado 213469" d="M251.085,68.968h-1.667v7.65a1.4,1.4,0,0,1-1.4,1.4h-3.564a1.4,1.4,0,0,0,1.4-1.4V70.312a1.344,1.344,0,0,1,1.344-1.344h.323a.7.7,0,0,0,.7-.764l-.489-5.5a3.512,3.512,0,0,0-3.5-3.2H247.8a3.512,3.512,0,0,1,3.5,3.2l.489,5.5A.7.7,0,0,1,251.085,68.968Z" transform="translate(-240.203 -52.373)" fill="#fca62f"/>
          </g>
          <g id="Grupo_172668" data-name="Grupo 172668" transform="translate(23.169)">
            <circle id="Elipse_6141" data-name="Elipse 6141" cx="3.564" cy="3.564" r="3.564" transform="translate(2.229)" fill="#c86f5c"/>
            <path id="Trazado_213470" data-name="Trazado 213470" d="M335.518,11.067a3.565,3.565,0,0,1-5.1,3.218,3.566,3.566,0,0,0,0-6.437,3.565,3.565,0,0,1,5.1,3.218Z" transform="translate(-326.161 -7.503)" fill="#ba5d4f"/>
            <path id="Trazado_213471" data-name="Trazado 213471" d="M310.928,68.2l-.49-5.5a3.512,3.512,0,0,0-3.5-3.2h-3.6a3.512,3.512,0,0,0-3.5,3.2l-.49,5.5a.7.7,0,0,0,.7.765h1.667v7.65a1.4,1.4,0,0,0,1.4,1.4h4.035a1.4,1.4,0,0,0,1.4-1.4v-7.65h1.667A.7.7,0,0,0,310.928,68.2Z" transform="translate(-299.346 -52.368)" fill="#fb3a82"/>
            <path id="Trazado_213472" data-name="Trazado 213472" d="M335.593,68.968h-1.667v7.65a1.4,1.4,0,0,1-1.4,1.4h-3.564a1.4,1.4,0,0,0,1.4-1.4V70.312a1.344,1.344,0,0,1,1.344-1.344h.323a.7.7,0,0,0,.7-.764l-.489-5.5a3.512,3.512,0,0,0-3.5-3.2H332.3a3.512,3.512,0,0,1,3.5,3.2l.489,5.5A.7.7,0,0,1,335.593,68.968Z" transform="translate(-324.711 -52.373)" fill="#fb1466"/>
          </g>
        </g>
        <g id="Grupo_172674" data-name="Grupo 172674" transform="translate(0 10.175)">
          <g id="Grupo_172670" data-name="Grupo 172670">
            <circle id="Elipse_6142" data-name="Elipse 6142" cx="3.564" cy="3.564" r="3.564" transform="translate(2.229)" fill="#ffcec0"/>
            <path id="Trazado_213473" data-name="Trazado 213473" d="M124.245,85.3a3.565,3.565,0,0,1-5.1,3.218,3.566,3.566,0,0,0,0-6.437,3.565,3.565,0,0,1,5.1,3.218Z" transform="translate(-114.888 -81.734)" fill="#fdb0a0"/>
            <path id="Trazado_213474" data-name="Trazado 213474" d="M99.655,142.43l-.49-5.5a3.512,3.512,0,0,0-3.5-3.2h-3.6a3.512,3.512,0,0,0-3.5,3.2l-.49,5.5a.7.7,0,0,0,.7.765h1.667v7.112a1.4,1.4,0,0,0,1.4,1.4h4.035a1.4,1.4,0,0,0,1.4-1.4v-7.112h1.667A.7.7,0,0,0,99.655,142.43Z" transform="translate(-88.073 -126.599)" fill="#fcc16d"/>
            <path id="Trazado_213475" data-name="Trazado 213475" d="M124.321,143.2h-1.667v7.113a1.405,1.405,0,0,1-1.4,1.4h-3.564a1.4,1.4,0,0,0,1.4-1.4V143.2h1.667a.7.7,0,0,0,.7-.764l-.489-5.5a3.512,3.512,0,0,0-3.5-3.2h3.564a3.512,3.512,0,0,1,3.5,3.2l.489,5.5a.7.7,0,0,1-.7.764Z" transform="translate(-113.439 -126.604)" fill="#fca62f"/>
          </g>
          <g id="Grupo_172671" data-name="Grupo 172671" transform="translate(11.584)">
            <circle id="Elipse_6143" data-name="Elipse 6143" cx="3.564" cy="3.564" r="3.564" transform="translate(2.229)" fill="#c86f5c"/>
            <path id="Trazado_213476" data-name="Trazado 213476" d="M208.756,85.3a3.565,3.565,0,0,1-5.1,3.218,3.566,3.566,0,0,0,0-6.437,3.565,3.565,0,0,1,5.1,3.218Z" transform="translate(-199.399 -81.734)" fill="#ba5d4f"/>
            <path id="Trazado_213477" data-name="Trazado 213477" d="M184.165,142.43l-.49-5.5a3.512,3.512,0,0,0-3.5-3.2h-3.6a3.512,3.512,0,0,0-3.5,3.2l-.49,5.5a.7.7,0,0,0,.7.765h1.667v7.112a1.4,1.4,0,0,0,1.4,1.4h4.035a1.4,1.4,0,0,0,1.4-1.4v-7.112h1.667A.7.7,0,0,0,184.165,142.43Z" transform="translate(-172.583 -126.599)" fill="#fb3a82"/>
            <path id="Trazado_213478" data-name="Trazado 213478" d="M208.831,143.2h-1.667v7.113a1.405,1.405,0,0,1-1.4,1.4h-3.564a1.4,1.4,0,0,0,1.4-1.4V143.2h1.667a.7.7,0,0,0,.7-.764l-.489-5.5a3.512,3.512,0,0,0-3.5-3.2h3.564a3.512,3.512,0,0,1,3.5,3.2l.489,5.5a.7.7,0,0,1-.7.764Z" transform="translate(-197.949 -126.604)" fill="#fb1466"/>
          </g>
          <g id="Grupo_172672" data-name="Grupo 172672" transform="translate(23.169)">
            <circle id="Elipse_6144" data-name="Elipse 6144" cx="3.564" cy="3.564" r="3.564" transform="translate(2.229)" fill="#fdb0a0"/>
            <path id="Trazado_213479" data-name="Trazado 213479" d="M293.264,85.3a3.565,3.565,0,0,1-5.1,3.218,3.566,3.566,0,0,0,0-6.437,3.565,3.565,0,0,1,5.1,3.218Z" transform="translate(-283.908 -81.734)" fill="#f89f8e"/>
            <path id="Trazado_213480" data-name="Trazado 213480" d="M268.673,142.43l-.49-5.5a3.512,3.512,0,0,0-3.5-3.2h-3.6a3.512,3.512,0,0,0-3.5,3.2l-.49,5.5a.7.7,0,0,0,.7.765h1.667v7.112a1.4,1.4,0,0,0,1.4,1.4H264.9a1.4,1.4,0,0,0,1.4-1.4v-7.112h1.667A.7.7,0,0,0,268.673,142.43Z" transform="translate(-257.091 -126.599)" fill="#64b9fc"/>
            <path id="Trazado_213481" data-name="Trazado 213481" d="M293.339,143.2h-1.667v7.113a1.405,1.405,0,0,1-1.4,1.4H286.7a1.4,1.4,0,0,0,1.4-1.4V143.2h1.667a.7.7,0,0,0,.7-.764l-.489-5.5a3.512,3.512,0,0,0-3.5-3.2h3.564a3.512,3.512,0,0,1,3.5,3.2l.489,5.5a.7.7,0,0,1-.7.764Z" transform="translate(-282.457 -126.604)" fill="#31a7fb"/>
          </g>
          <g id="Grupo_172673" data-name="Grupo 172673" transform="translate(34.753)">
            <circle id="Elipse_6145" data-name="Elipse 6145" cx="3.564" cy="3.564" r="3.564" transform="translate(2.229)" fill="#ffcec0"/>
            <path id="Trazado_213482" data-name="Trazado 213482" d="M377.772,85.3a3.565,3.565,0,0,1-5.1,3.218,3.566,3.566,0,0,0,0-6.437,3.565,3.565,0,0,1,5.1,3.218Z" transform="translate(-368.416 -81.734)" fill="#fdb0a0"/>
            <path id="Trazado_213483" data-name="Trazado 213483" d="M353.181,142.43l-.49-5.5a3.512,3.512,0,0,0-3.5-3.2h-3.6a3.512,3.512,0,0,0-3.5,3.2l-.49,5.5a.7.7,0,0,0,.7.765h1.667v7.112a1.4,1.4,0,0,0,1.4,1.4h4.035a1.4,1.4,0,0,0,1.4-1.4v-7.112h1.667a.7.7,0,0,0,.7-.765Z" transform="translate(-341.599 -126.599)" fill="#23f1a8"/>
            <path id="Trazado_213484" data-name="Trazado 213484" d="M377.847,143.2h-1.668v7.113a1.405,1.405,0,0,1-1.4,1.4H371.21a1.4,1.4,0,0,0,1.4-1.4V143.2h1.667a.7.7,0,0,0,.7-.764l-.489-5.5a3.512,3.512,0,0,0-3.5-3.2h3.564a3.512,3.512,0,0,1,3.5,3.2l.489,5.5a.7.7,0,0,1-.7.764Z" transform="translate(-366.965 -126.604)" fill="#26d192"/>
          </g>
        </g>
      </g>
      <g id="Grupo_172684" data-name="Grupo 172684" transform="translate(41.961 0)">
        <g id="Grupo_172683" data-name="Grupo 172683">
          <g id="Grupo_172682" data-name="Grupo 172682">
            <g id="Grupo_172681" data-name="Grupo 172681">
              <g id="Grupo_172680" data-name="Grupo 172680">
                <g id="Grupo_172678" data-name="Grupo 172678" transform="translate(1.028 36.316)">
                  <g id="Grupo_172677" data-name="Grupo 172677">
                    <g id="Grupo_172676" data-name="Grupo 172676">
                      <path id="Trazado_213485" data-name="Trazado 213485" d="M50.993,264.928a1.346,1.346,0,0,0-1.337,1.189,28.312,28.312,0,1,0,56.231,0,1.346,1.346,0,0,0-1.337-1.189Z" transform="translate(-49.46 -264.928)" fill="#8dcafc"/>
                      <path id="Trazado_213486" data-name="Trazado 213486" d="M217.375,264.928a27.094,27.094,0,0,1-31.589,31.161,28.324,28.324,0,0,0,37.741-29.972,1.346,1.346,0,0,0-1.337-1.189h-4.816Z" transform="translate(-167.099 -264.928)" fill="#64b9fc"/>
                      <path id="Trazado_213487" data-name="Trazado 213487" d="M94.9,270.179,91.6,268.691a1.386,1.386,0,0,0-1.242.053l-4.113,2.29a1.392,1.392,0,0,0-.186.125l-1.863,1.476a1.385,1.385,0,0,1-1.037.288l-2.742-.352a1.385,1.385,0,0,1-.946-.563L77.584,269.4a1.385,1.385,0,0,0-1.02-.57l-5.028-.375a1.385,1.385,0,0,0-1.16.486l-1.9,2.247a1.385,1.385,0,0,1-2.151-.046l-3.543-4.567a1.384,1.384,0,0,1-.278-.665l-.133-.986H50.994a1.346,1.346,0,0,0-1.337,1.189,28.341,28.341,0,0,0,11.608,26.341l1.035-2.415a1.385,1.385,0,0,1,.851-.774l1.427-.457a1.385,1.385,0,0,1,.948.038l4.593,1.886a1.385,1.385,0,0,0,1.112-.026l1.29-.6a1.385,1.385,0,0,0,.707-1.753l-.351-.912a1.385,1.385,0,0,0-.657-.733l-.589-.3a1.385,1.385,0,0,1-.53-1.979l2.661-4.148a1.385,1.385,0,0,1,.937-.618l4.37-.733a1.385,1.385,0,0,1,1.14.323l.517.452a1.385,1.385,0,0,1,.257,1.787l-.97,1.522a1.385,1.385,0,0,0,.912,2.106l6.814,1.28a1.385,1.385,0,0,0,1.331-.489l6.579-8.112a1.386,1.386,0,0,0,.308-.933l-.241-5.483a1.385,1.385,0,0,0-.815-1.2Z" transform="translate(-49.462 -264.927)" fill="#72f4c3"/>
                    </g>
                  </g>
                </g>
                <g id="Grupo_172679" data-name="Grupo 172679">
                  <path id="Trazado_213488" data-name="Trazado 213488" d="M100.438,37.384a2.375,2.375,0,0,0-2.357-2.1H93.246a2.425,2.425,0,0,0,.032-.377v-.957a1.028,1.028,0,1,0-2.056,0v.957a.377.377,0,0,1-.377.377h-.99V27.733a1.028,1.028,0,1,0-2.056,0v7.555h-.99a.377.377,0,0,1-.377-.377V27.8A1.028,1.028,0,0,0,85.4,26.77H84.093l.458-5.148a2.471,2.471,0,0,1,2.474-2.264h3.6A2.471,2.471,0,0,1,93.1,21.623l.458,5.148H92.25A1.028,1.028,0,0,0,91.222,27.8v1.279a1.028,1.028,0,1,0,2.056,0v-.251h.639a1.731,1.731,0,0,0,1.724-1.884l-.49-5.5a4.514,4.514,0,0,0-2.757-3.785,4.588,4.588,0,0,0-3.267-7.469,4.544,4.544,0,0,0-2.529-2.7,4.592,4.592,0,1,0-7.126,0A4.557,4.557,0,0,0,77.244,9.5a4.552,4.552,0,0,0-2.229-2.02,4.592,4.592,0,1,0-7.126,0A4.557,4.557,0,0,0,65.659,9.5a4.551,4.551,0,0,0-2.229-2.02,4.592,4.592,0,1,0-7.126,0,4.55,4.55,0,0,0-2.529,2.7,4.588,4.588,0,0,0-3.267,7.469,4.514,4.514,0,0,0-2.757,3.785l-.49,5.5a1.731,1.731,0,0,0,1.724,1.884h.639v6.084a2.441,2.441,0,0,0,.032.377H44.522a2.375,2.375,0,0,0-2.357,2.1,29.643,29.643,0,0,0-.2,3.46,29.156,29.156,0,0,0,2.318,11.449,1.028,1.028,0,0,0,1.893-.8,27.109,27.109,0,0,1-2.155-10.646,27.589,27.589,0,0,1,.189-3.219.318.318,0,0,1,.316-.281H55l.013.095a2.416,2.416,0,0,0,.485,1.158l3.543,4.566a2.413,2.413,0,0,0,3.748.081L64.689,41a.356.356,0,0,1,.3-.125l5.028.375a.356.356,0,0,1,.263.147L72.161,44a2.42,2.42,0,0,0,1.649.98l2.742.352a2.428,2.428,0,0,0,1.806-.5l1.862-1.476a.356.356,0,0,1,.049-.032l4.113-2.29a.359.359,0,0,1,.32-.014L88.008,42.5a.356.356,0,0,1,.21.31l.241,5.483a.357.357,0,0,1-.079.241L86.789,50.5a1.028,1.028,0,0,0,1.6,1.3l1.591-1.962a2.411,2.411,0,0,0,.537-1.626l-.241-5.483a2.4,2.4,0,0,0-1.421-2.095l-3.307-1.488a2.423,2.423,0,0,0-2.164.092l-4.113,2.29a2.424,2.424,0,0,0-.325.217L77.08,43.217a.359.359,0,0,1-.267.074l-2.742-.352a.359.359,0,0,1-.244-.145l-1.882-2.605a2.409,2.409,0,0,0-1.777-.993l-5.028-.375a2.418,2.418,0,0,0-2.021.847l-1.9,2.247a.357.357,0,0,1-.554-.012l-3.537-4.559H98.08a.318.318,0,0,1,.316.281A27.294,27.294,0,0,1,71.3,68.128,27.209,27.209,0,0,1,56.065,63.49l.709-1.654a.357.357,0,0,1,.219-.2l1.427-.457a.358.358,0,0,1,.244.01l4.593,1.886a2.418,2.418,0,0,0,1.938-.046l1.29-.6a2.421,2.421,0,0,0,1.231-3.053l-.351-.912a2.411,2.411,0,0,0-1.145-1.278l-.589-.3a.357.357,0,0,1-.137-.51l2.662-4.148a.358.358,0,0,1,.241-.159l4.37-.733a.357.357,0,0,1,.294.083l.517.452a.355.355,0,0,1,.066.461l-.97,1.522a2.413,2.413,0,0,0,1.59,3.669l6.814,1.28a2.411,2.411,0,0,0,2.32-.852l1.928-2.377a1.028,1.028,0,1,0-1.6-1.295L81.8,56.65a.357.357,0,0,1-.343.126L74.644,55.5a.357.357,0,0,1-.235-.543l.97-1.522a2.4,2.4,0,0,0-.447-3.114l-.517-.452a2.4,2.4,0,0,0-1.987-.563l-4.37.733a2.417,2.417,0,0,0-1.632,1.077l-2.662,4.148a2.413,2.413,0,0,0,.924,3.447l.589.3a.356.356,0,0,1,.169.189l.351.912a.358.358,0,0,1-.182.452l-1.29.6a.357.357,0,0,1-.286.007l-4.593-1.886a2.419,2.419,0,0,0-1.652-.066l-1.427.457a2.412,2.412,0,0,0-1.482,1.348l-.52,1.215a27.437,27.437,0,0,1-5.993-6.609,1.028,1.028,0,0,0-1.727,1.116,29.341,29.341,0,0,0,54-15.9,29.606,29.606,0,0,0-.2-3.46ZM84.377,28.827v6.084a2.44,2.44,0,0,0,.032.377H81.661a2.425,2.425,0,0,0,.032-.377V28.827h.639a1.731,1.731,0,0,0,.7-.15,1.731,1.731,0,0,0,.7.15Zm-6.106,6.461V27.733a1.028,1.028,0,0,0-2.056,0v7.555h-.99a.377.377,0,0,1-.377-.377V27.8a1.028,1.028,0,0,0-1.028-1.028H72.509l.458-5.148a2.471,2.471,0,0,1,2.474-2.264h3.6a2.471,2.471,0,0,1,2.474,2.264l.458,5.148H80.665A1.028,1.028,0,0,0,79.637,27.8v7.112a.377.377,0,0,1-.377.377h-.989Zm-11.584,0V27.733a1.028,1.028,0,1,0-2.056,0v7.555h-.99a.377.377,0,0,1-.377-.377V27.8a1.028,1.028,0,0,0-1.028-1.028H60.925l.458-5.148a2.471,2.471,0,0,1,2.474-2.264h3.6a2.471,2.471,0,0,1,2.474,2.264l.458,5.148H69.082A1.028,1.028,0,0,0,68.053,27.8v7.112a.377.377,0,0,1-.377.377h-.99Zm-7.523-6.461a1.731,1.731,0,0,0,.7-.15,1.732,1.732,0,0,0,.7.15h.639v6.084a2.441,2.441,0,0,0,.032.377H58.493a2.424,2.424,0,0,0,.032-.377V28.827Zm6.495-16.6a2.536,2.536,0,0,1,0,5.071h-.005a2.536,2.536,0,0,1,0-5.071Zm4.45,22.679V28.827h.639a1.731,1.731,0,0,0,.7-.15,1.73,1.73,0,0,0,.7.15h.639v6.084a2.44,2.44,0,0,0,.032.377H70.077a2.426,2.426,0,0,0,.032-.377Zm7.134-22.679a2.536,2.536,0,0,1,0,5.071H77.24a2.536,2.536,0,0,1,0-5.071Zm14.12,2.536A2.539,2.539,0,0,1,88.83,17.3h-.005a2.536,2.536,0,1,1,2.538-2.536ZM83.035,2.056A2.536,2.536,0,1,1,80.5,4.592,2.539,2.539,0,0,1,83.035,2.056Zm-1.8,7.128h3.6a2.484,2.484,0,0,1,2.21,1.351,4.587,4.587,0,0,0-1.785,7.12,4.5,4.5,0,0,0-2.225,2.012,4.5,4.5,0,0,0-2.225-2.012,4.588,4.588,0,0,0-1.785-7.12,2.484,2.484,0,0,1,2.208-1.351ZM71.451,2.056a2.536,2.536,0,1,1-2.536,2.536A2.539,2.539,0,0,1,71.451,2.056Zm-1.8,7.128h3.6a2.482,2.482,0,0,1,2.208,1.351,4.588,4.588,0,0,0-1.785,7.12,4.5,4.5,0,0,0-2.225,2.012,4.5,4.5,0,0,0-2.225-2.012,4.588,4.588,0,0,0-1.785-7.12,2.485,2.485,0,0,1,2.209-1.351ZM59.866,2.056a2.536,2.536,0,1,1-2.536,2.536A2.539,2.539,0,0,1,59.866,2.056Zm-1.8,7.128h3.6a2.482,2.482,0,0,1,2.208,1.351,4.587,4.587,0,0,0-1.785,7.12,4.5,4.5,0,0,0-2.226,2.013,4.5,4.5,0,0,0-2.226-2.013,4.587,4.587,0,0,0-1.785-7.12,2.485,2.485,0,0,1,2.209-1.351Zm-3.99,3.047a2.536,2.536,0,0,1,0,5.071h-.005a2.536,2.536,0,0,1,0-5.071ZM52.057,35.287a.377.377,0,0,1-.377-.377V27.8a1.028,1.028,0,0,0-1.028-1.028H49.341l.458-5.148a2.471,2.471,0,0,1,2.474-2.264h3.6a2.471,2.471,0,0,1,2.474,2.264l.458,5.148H57.5A1.028,1.028,0,0,0,56.469,27.8v7.112a.377.377,0,0,1-.377.377H55.1V27.733a1.028,1.028,0,0,0-2.056,0v7.555h-.989Z" transform="translate(-41.961 0)"/>
                  <path id="Trazado_213489" data-name="Trazado 213489" d="M82.754,303.1h.659a1.028,1.028,0,0,0,0-2.056h-.659a1.028,1.028,0,0,0,0,2.056Z" transform="translate(-76.275 -259.775)"/>
                  <path id="Trazado_213490" data-name="Trazado 213490" d="M326.952,331.414a1.028,1.028,0,1,0,0-2.056h-.659a1.028,1.028,0,0,0,0,2.056Z" transform="translate(-286.429 -284.21)"/>
                  <path id="Trazado_213491" data-name="Trazado 213491" d="M303.344,357.365a1.028,1.028,0,0,0,0-2.056h-.659a1.028,1.028,0,0,0,0,2.056Z" transform="translate(-266.058 -306.604)"/>
                  <path id="Trazado_213492" data-name="Trazado 213492" d="M213.256,331.414a1.028,1.028,0,0,0,0-2.056H212.6a1.028,1.028,0,0,0,0,2.056Z" transform="translate(-188.319 -284.21)"/>
                </g>
              </g>
            </g>
          </g>
        </g>
      </g>
    </g>
  </g>
</svg>
