<svg id="Grupo_173254" data-name="Grupo 173254" xmlns="http://www.w3.org/2000/svg" xmlns:xlink="http://www.w3.org/1999/xlink" width="505" height="322.375" viewBox="0 0 505 322.375">
  <defs>
    <clipPath id="clip-path">
      <rect id="Rectángulo_53165" data-name="Rectángulo 53165" width="505" height="322.375" fill="none"/>
    </clipPath>
  </defs>
  <rect id="Rectángulo_53131" data-name="Rectángulo 53131" width="430.521" height="276.037" transform="translate(74.479)" fill="#e5e5e5"/>
  <rect id="Rectángulo_53132" data-name="Rectángulo 53132" width="430.866" height="1.161" transform="translate(74.134 26.232)" fill="#fff"/>
  <rect id="Rectángulo_53133" data-name="Rectángulo 53133" width="430.866" height="1.161" transform="translate(74.134 66.804)" fill="#fff"/>
  <rect id="Rectángulo_53134" data-name="Rectángulo 53134" width="430.866" height="1.161" transform="translate(74.134 106.214)" fill="#fff"/>
  <rect id="Rectángulo_53135" data-name="Rectángulo 53135" width="430.866" height="1.161" transform="translate(74.134 146.81)" fill="#fff"/>
  <rect id="Rectángulo_53136" data-name="Rectángulo 53136" width="430.866" height="1.161" transform="translate(74.134 187.406)" fill="#fff"/>
  <rect id="Rectángulo_53137" data-name="Rectángulo 53137" width="430.866" height="1.161" transform="translate(74.134 227.277)" fill="#fff"/>
  <rect id="Rectángulo_53138" data-name="Rectángulo 53138" width="430.866" height="1.163" transform="translate(74.134 266.606)" fill="#fff"/>
  <path id="Trazado_214421" data-name="Trazado 214421" d="M11.432,167.092,3.99,165.04v-3.083l11.046,3.726V168.5L3.99,172.227v-3.083Z" transform="translate(0.644 26.153)"/>
  <g id="Grupo_173253" data-name="Grupo 173253">
    <g id="Grupo_173252" data-name="Grupo 173252" clip-path="url(#clip-path)">
      <path id="Trazado_214422" data-name="Trazado 214422" d="M15.064,155.876a3.233,3.233,0,0,1-.991.3,3.569,3.569,0,0,1,1.194,2.788,3.919,3.919,0,0,1-.938,2.689,3.022,3.022,0,0,1-2.368,1.067,3.123,3.123,0,0,1-2.7-1.3,6.421,6.421,0,0,1-.949-3.761V156.3H7.683a1.82,1.82,0,0,0-1.225.393A1.548,1.548,0,0,0,6,157.929a1.75,1.75,0,0,0,.358,1.168,1.213,1.213,0,0,0,.979.424v2.95a2.964,2.964,0,0,1-1.776-.592,3.908,3.908,0,0,1-1.281-1.674,6.112,6.112,0,0,1-.465-2.43,4.828,4.828,0,0,1,1.026-3.242,3.593,3.593,0,0,1,2.884-1.2h4.788a5.283,5.283,0,0,0,2.379-.439h.174Zm-2.052,2.44a2.526,2.526,0,0,0-.292-1.2,1.9,1.9,0,0,0-.781-.817h-1.9v1.1q0,2.214,1.532,2.358l.173.01a1.178,1.178,0,0,0,.908-.388,1.507,1.507,0,0,0,.358-1.062" transform="translate(0.616 24.69)"/>
      <rect id="Rectángulo_53139" data-name="Rectángulo 53139" width="15.68" height="2.961" transform="translate(0 172.645)"/>
      <path id="Trazado_214423" data-name="Trazado 214423" d="M9.439,148.4a6.553,6.553,0,0,1-2.929-.633,4.636,4.636,0,0,1-1.991-1.822,5.32,5.32,0,0,1-.7-2.761,5.034,5.034,0,0,1,1.367-3.651A5.5,5.5,0,0,1,8.9,137.958l.755-.021a5.773,5.773,0,0,1,4.079,1.419,5.5,5.5,0,0,1,0,7.619A5.874,5.874,0,0,1,9.572,148.4Zm.21-2.95a4.122,4.122,0,0,0,2.407-.592,2.126,2.126,0,0,0,.01-3.368,4.512,4.512,0,0,0-2.633-.6,4.084,4.084,0,0,0-2.391.6,1.959,1.959,0,0,0-.849,1.695,1.927,1.927,0,0,0,.844,1.674,4.587,4.587,0,0,0,2.612.592" transform="translate(0.616 22.274)"/>
      <path id="Trazado_214424" data-name="Trazado 214424" d="M6.785,131.035A7.983,7.983,0,0,0,6.7,132.1a2.162,2.162,0,0,0,1.132,2.2h7.228v2.95H4.018v-2.788l1.317-.081a2.735,2.735,0,0,1-1.522-2.46,3.061,3.061,0,0,1,.134-.919Z" transform="translate(0.616 21.153)"/>
      <rect id="Rectángulo_53140" data-name="Rectángulo 53140" width="2.307" height="9.3" transform="translate(15.68 142.591)"/>
      <path id="Trazado_214425" data-name="Trazado 214425" d="M12.012,117.022a.946.946,0,0,0-.851.535,6.1,6.1,0,0,0-.558,1.72q-.826,3.941-3.349,3.941A3.039,3.039,0,0,1,4.8,122a4.927,4.927,0,0,1-.985-3.189,5.3,5.3,0,0,1,.991-3.364,3.119,3.119,0,0,1,2.573-1.26v2.95a1.434,1.434,0,0,0-1.048.408,1.737,1.737,0,0,0-.412,1.276,1.766,1.766,0,0,0,.337,1.153,1.064,1.064,0,0,0,.857.409.908.908,0,0,0,.791-.466,4.737,4.737,0,0,0,.522-1.566,12.853,12.853,0,0,1,.495-1.858,3.053,3.053,0,0,1,2.971-2.338,2.878,2.878,0,0,1,2.444,1.3,5.59,5.59,0,0,1,.935,3.349,5.858,5.858,0,0,1-.495,2.465,4.12,4.12,0,0,1-1.359,1.69,3.147,3.147,0,0,1-1.863.613v-2.8a1.546,1.546,0,0,0,1.206-.582,2.311,2.311,0,0,0,.418-1.45,2.152,2.152,0,0,0-.321-1.282,1,1,0,0,0-.843-.433" transform="translate(0.616 18.433)"/>
      <path id="Trazado_214426" data-name="Trazado 214426" d="M15.267,108.774a5.419,5.419,0,0,1-1.49,3.955,5.3,5.3,0,0,1-3.971,1.527H9.52a6.67,6.67,0,0,1-2.975-.643,4.732,4.732,0,0,1-2.022-1.822,5.119,5.119,0,0,1-.71-2.69,4.582,4.582,0,0,1,1.43-3.568,5.806,5.806,0,0,1,4.052-1.3h1.2v7.033a2.741,2.741,0,0,0,1.735-.863,2.6,2.6,0,0,0,.654-1.821,3.185,3.185,0,0,0-1.236-2.664l1.624-1.45a4.407,4.407,0,0,1,1.463,1.8,5.889,5.889,0,0,1,.526,2.511m-9.075.337a1.845,1.845,0,0,0,.595,1.424,3.087,3.087,0,0,0,1.7.7v-4.1H8.253a2.193,2.193,0,0,0-1.522.531,1.9,1.9,0,0,0-.539,1.45" transform="translate(0.616 16.831)"/>
      <path id="Trazado_214427" data-name="Trazado 214427" d="M9.459,104.563a6.472,6.472,0,0,1-4.092-1.21,3.917,3.917,0,0,1-1.552-3.261,3.438,3.438,0,0,1,1.244-2.827l-1.04-.123V94.467H14.7a4.712,4.712,0,0,1,2.52.657,4.228,4.228,0,0,1,1.633,1.854,6.5,6.5,0,0,1,.562,2.8,6.064,6.064,0,0,1-.485,2.368,4.216,4.216,0,0,1-1.25,1.746l-1.8-1.307a3.451,3.451,0,0,0,1.235-2.675,2.535,2.535,0,0,0-.627-1.827,2.355,2.355,0,0,0-1.781-.654h-.594a3.414,3.414,0,0,1,1.153,2.685,3.9,3.9,0,0,1-1.556,3.22,6.46,6.46,0,0,1-4.129,1.231Zm.211-2.951a4.054,4.054,0,0,0,2.364-.6,1.912,1.912,0,0,0,.855-1.653,2.045,2.045,0,0,0-1.015-1.93H7.209a2.043,2.043,0,0,0-1.015,1.909A1.926,1.926,0,0,0,7.066,101a4.568,4.568,0,0,0,2.6.606" transform="translate(0.616 15.255)"/>
      <path id="Trazado_214428" data-name="Trazado 214428" d="M13.913,87.217A3.7,3.7,0,0,1,15.24,90.24a3.49,3.49,0,0,1-1.021,2.71,4.363,4.363,0,0,1-2.992.955H3.99v-2.95h7.143q1.728,0,1.728-1.573a2.129,2.129,0,0,0-1.043-2.062H3.99V84.359H15.036v2.777Z" transform="translate(0.644 13.622)"/>
      <path id="Trazado_214429" data-name="Trazado 214429" d="M6.785,77.1A7.983,7.983,0,0,0,6.7,78.166a2.162,2.162,0,0,0,1.132,2.2h7.228v2.95H4.018V80.524l1.317-.081a2.735,2.735,0,0,1-1.522-2.46,3.061,3.061,0,0,1,.134-.919Z" transform="translate(0.616 12.444)"/>
      <path id="Trazado_214430" data-name="Trazado 214430" d="M9.439,78.044a6.553,6.553,0,0,1-2.929-.633,4.636,4.636,0,0,1-1.991-1.822,5.32,5.32,0,0,1-.7-2.761,5.034,5.034,0,0,1,1.367-3.651A5.494,5.494,0,0,1,8.9,67.6l.755-.021A5.773,5.773,0,0,1,13.733,69a5.5,5.5,0,0,1,0,7.619,5.874,5.874,0,0,1-4.165,1.425Zm.21-2.95a4.122,4.122,0,0,0,2.407-.592,2.126,2.126,0,0,0,.01-3.368,4.512,4.512,0,0,0-2.633-.6,4.084,4.084,0,0,0-2.391.6,1.959,1.959,0,0,0-.849,1.695A1.927,1.927,0,0,0,7.037,74.5a4.587,4.587,0,0,0,2.612.592" transform="translate(0.616 10.913)"/>
      <path id="Trazado_214431" data-name="Trazado 214431" d="M202.175,270.436h-2.44v5.44h-3.063V261.013h5.523a6.241,6.241,0,0,1,4.063,1.174,4.051,4.051,0,0,1,1.43,3.318,4.565,4.565,0,0,1-.659,2.535,4.49,4.49,0,0,1-2,1.619l3.215,6.073v.143h-3.287Zm-2.44-2.481h2.47a2.523,2.523,0,0,0,1.786-.588,2.1,2.1,0,0,0,.633-1.617,2.243,2.243,0,0,0-.6-1.654,2.482,2.482,0,0,0-1.833-.6h-2.46Z" transform="translate(31.759 42.148)"/>
      <path id="Trazado_214432" data-name="Trazado 214432" d="M214.455,275.375a3.233,3.233,0,0,1-.3-.991,3.569,3.569,0,0,1-2.788,1.194,3.925,3.925,0,0,1-2.69-.938,3.021,3.021,0,0,1-1.066-2.368,3.12,3.12,0,0,1,1.3-2.7,6.421,6.421,0,0,1,3.761-.949h1.358v-.633a1.826,1.826,0,0,0-.393-1.225,1.55,1.55,0,0,0-1.24-.459,1.75,1.75,0,0,0-1.168.358,1.21,1.21,0,0,0-.424.979h-2.95a2.964,2.964,0,0,1,.592-1.776,3.909,3.909,0,0,1,1.674-1.281,6.113,6.113,0,0,1,2.43-.465,4.823,4.823,0,0,1,3.241,1.026,3.59,3.59,0,0,1,1.2,2.884v4.788a5.283,5.283,0,0,0,.439,2.379v.174Zm-2.44-2.052a2.526,2.526,0,0,0,1.2-.292,1.9,1.9,0,0,0,.816-.781v-1.9h-1.1q-2.214,0-2.358,1.532l-.01.173a1.178,1.178,0,0,0,.388.908,1.507,1.507,0,0,0,1.062.358" transform="translate(33.526 42.651)"/>
      <path id="Trazado_214433" data-name="Trazado 214433" d="M220.367,264.329l.092,1.276a3.857,3.857,0,0,1,3.176-1.481,3.2,3.2,0,0,1,2.612,1.031,4.8,4.8,0,0,1,.878,3.083v7.136h-2.95v-7.08a1.926,1.926,0,0,0-.408-1.367,1.83,1.83,0,0,0-1.358-.424,2.032,2.032,0,0,0-1.869,1.064v7.807h-2.95V264.329Z" transform="translate(35.136 42.651)"/>
      <path id="Trazado_214434" data-name="Trazado 214434" d="M227.355,269.77a6.475,6.475,0,0,1,1.209-4.093,3.921,3.921,0,0,1,3.263-1.552,3.435,3.435,0,0,1,2.827,1.245l.123-1.041h2.674v10.677a4.72,4.72,0,0,1-.659,2.522,4.219,4.219,0,0,1-1.853,1.633,6.5,6.5,0,0,1-2.8.562,6.064,6.064,0,0,1-2.368-.486,4.216,4.216,0,0,1-1.746-1.25l1.307-1.8a3.455,3.455,0,0,0,2.675,1.235,2.535,2.535,0,0,0,1.827-.627,2.357,2.357,0,0,0,.654-1.782v-.592a3.414,3.414,0,0,1-2.685,1.153,3.907,3.907,0,0,1-3.221-1.556,6.471,6.471,0,0,1-1.23-4.129Zm2.95.21a4.048,4.048,0,0,0,.6,2.364,1.913,1.913,0,0,0,1.653.856,2.047,2.047,0,0,0,1.93-1.015v-4.666a2.043,2.043,0,0,0-1.909-1.015,1.926,1.926,0,0,0-1.669.872,4.56,4.56,0,0,0-.607,2.6" transform="translate(36.713 42.651)"/>
      <path id="Trazado_214435" data-name="Trazado 214435" d="M237.6,269.75a6.553,6.553,0,0,1,.633-2.929,4.629,4.629,0,0,1,1.822-1.991,5.317,5.317,0,0,1,2.761-.7,5.029,5.029,0,0,1,3.649,1.367,5.49,5.49,0,0,1,1.577,3.717l.021.755a5.773,5.773,0,0,1-1.419,4.079,5.5,5.5,0,0,1-7.62,0,5.878,5.878,0,0,1-1.424-4.165Zm2.95.21a4.122,4.122,0,0,0,.592,2.407,2.126,2.126,0,0,0,3.368.01,4.512,4.512,0,0,0,.6-2.633,4.084,4.084,0,0,0-.6-2.392,1.959,1.959,0,0,0-1.695-.849,1.926,1.926,0,0,0-1.674.844,4.587,4.587,0,0,0-.592,2.612" transform="translate(38.368 42.651)"/>
      <rect id="Rectángulo_53141" data-name="Rectángulo 53141" width="9.3" height="2.307" transform="translate(287.128 318.026)"/>
      <path id="Trazado_214436" data-name="Trazado 214436" d="M265.319,269.415h-5.879v4h6.9v2.46h-9.963V261.014h9.942v2.48h-6.879v3.543h5.879Z" transform="translate(41.4 42.149)"/>
      <path id="Trazado_214437" data-name="Trazado 214437" d="M265.772,270.386a6.651,6.651,0,0,1,1.159-4.114,3.758,3.758,0,0,1,3.17-1.531,3.383,3.383,0,0,1,2.663,1.2v-5.634h2.961v15.68H273.06l-.143-1.174a3.471,3.471,0,0,1-2.838,1.378,3.749,3.749,0,0,1-3.129-1.535,6.871,6.871,0,0,1-1.179-4.273m2.95.21a4.385,4.385,0,0,0,.541,2.39,1.761,1.761,0,0,0,1.572.829,1.972,1.972,0,0,0,1.929-1.159v-4.378a1.945,1.945,0,0,0-1.908-1.159q-2.134,0-2.134,3.476" transform="translate(42.917 42.035)"/>
      <path id="Trazado_214438" data-name="Trazado 214438" d="M282.772,275.375a3.232,3.232,0,0,1-.3-.991,3.569,3.569,0,0,1-2.788,1.194,3.925,3.925,0,0,1-2.69-.938,3.021,3.021,0,0,1-1.066-2.368,3.12,3.12,0,0,1,1.3-2.7,6.421,6.421,0,0,1,3.761-.949h1.358v-.633a1.826,1.826,0,0,0-.393-1.225,1.55,1.55,0,0,0-1.24-.459,1.75,1.75,0,0,0-1.168.358,1.21,1.21,0,0,0-.424.979h-2.95a2.964,2.964,0,0,1,.592-1.776,3.908,3.908,0,0,1,1.674-1.281,6.112,6.112,0,0,1,2.43-.465,4.823,4.823,0,0,1,3.241,1.026,3.59,3.59,0,0,1,1.2,2.884v4.788a5.284,5.284,0,0,0,.439,2.379v.174Zm-2.44-2.052a2.526,2.526,0,0,0,1.2-.292,1.9,1.9,0,0,0,.817-.781v-1.9h-1.1q-2.214,0-2.358,1.532l-.01.173a1.178,1.178,0,0,0,.388.908,1.507,1.507,0,0,0,1.062.358" transform="translate(44.558 42.651)"/>
      <path id="Trazado_214439" data-name="Trazado 214439" d="M285.565,270.386a6.651,6.651,0,0,1,1.159-4.114,3.758,3.758,0,0,1,3.17-1.531,3.383,3.383,0,0,1,2.663,1.2v-5.634h2.961v15.68h-2.664l-.143-1.174a3.471,3.471,0,0,1-2.838,1.378,3.749,3.749,0,0,1-3.129-1.535,6.871,6.871,0,0,1-1.179-4.273m2.95.21a4.385,4.385,0,0,0,.541,2.39,1.761,1.761,0,0,0,1.571.829,1.972,1.972,0,0,0,1.929-1.159v-4.378a1.945,1.945,0,0,0-1.908-1.159q-2.134,0-2.134,3.476" transform="translate(46.113 42.035)"/>
      <path id="Trazado_214440" data-name="Trazado 214440" d="M27.264,28.709h1.217v1.718H27.264V32.75h-2.13V30.427h-4.4l-.1-1.342,4.475-7.071h2.152Zm-4.5,0h2.374v-3.79l-.141.244Z" transform="translate(3.332 3.555)"/>
      <path id="Trazado_214441" data-name="Trazado 214441" d="M35.6,28.331a5.439,5.439,0,0,1-.921,3.407,3.219,3.219,0,0,1-2.7,1.179A3.241,3.241,0,0,1,29.3,31.76a5.286,5.286,0,0,1-.951-3.318V26.466a5.371,5.371,0,0,1,.933-3.414,3.242,3.242,0,0,1,2.688-1.165,3.247,3.247,0,0,1,2.684,1.153,5.263,5.263,0,0,1,.95,3.315Zm-2.13-2.172a3.942,3.942,0,0,0-.365-1.945,1.236,1.236,0,0,0-1.139-.609,1.211,1.211,0,0,0-1.109.58A3.673,3.673,0,0,0,30.48,26v2.612a4.116,4.116,0,0,0,.358,1.952,1.218,1.218,0,0,0,1.146.639,1.2,1.2,0,0,0,1.128-.613,4.031,4.031,0,0,0,.361-1.875Z" transform="translate(4.578 3.534)"/>
      <path id="Trazado_214442" data-name="Trazado 214442" d="M43.062,28.331a5.439,5.439,0,0,1-.921,3.407,3.219,3.219,0,0,1-2.7,1.179,3.241,3.241,0,0,1-2.684-1.157,5.286,5.286,0,0,1-.951-3.318V26.466a5.371,5.371,0,0,1,.933-3.414,3.691,3.691,0,0,1,5.372-.012,5.263,5.263,0,0,1,.95,3.315Zm-2.13-2.172a3.942,3.942,0,0,0-.365-1.945,1.236,1.236,0,0,0-1.139-.609,1.211,1.211,0,0,0-1.109.58A3.673,3.673,0,0,0,37.938,26v2.612a4.116,4.116,0,0,0,.358,1.952,1.218,1.218,0,0,0,1.146.639,1.2,1.2,0,0,0,1.128-.613,4.031,4.031,0,0,0,.361-1.875Z" transform="translate(5.782 3.534)"/>
      <path id="Trazado_214443" data-name="Trazado 214443" d="M50.521,28.331a5.439,5.439,0,0,1-.921,3.407,3.685,3.685,0,0,1-5.382.022,5.286,5.286,0,0,1-.951-3.318V26.466a5.371,5.371,0,0,1,.933-3.414,3.691,3.691,0,0,1,5.372-.012,5.263,5.263,0,0,1,.95,3.315Zm-2.13-2.172a3.942,3.942,0,0,0-.365-1.945,1.236,1.236,0,0,0-1.139-.609,1.211,1.211,0,0,0-1.109.58A3.673,3.673,0,0,0,45.4,26v2.612a4.116,4.116,0,0,0,.358,1.952A1.218,1.218,0,0,0,46.9,31.2a1.2,1.2,0,0,0,1.128-.613,4.031,4.031,0,0,0,.361-1.875Z" transform="translate(6.987 3.534)"/>
      <path id="Trazado_214444" data-name="Trazado 214444" d="M57.979,28.331a5.439,5.439,0,0,1-.921,3.407,3.685,3.685,0,0,1-5.382.022,5.286,5.286,0,0,1-.951-3.318V26.466a5.371,5.371,0,0,1,.933-3.414,3.691,3.691,0,0,1,5.372-.012,5.263,5.263,0,0,1,.95,3.315Zm-2.13-2.172a3.942,3.942,0,0,0-.365-1.945,1.236,1.236,0,0,0-1.139-.609,1.211,1.211,0,0,0-1.109.58A3.673,3.673,0,0,0,52.855,26v2.612a4.116,4.116,0,0,0,.358,1.952,1.218,1.218,0,0,0,1.146.639,1.2,1.2,0,0,0,1.128-.613,4.031,4.031,0,0,0,.361-1.875Z" transform="translate(8.191 3.534)"/>
      <path id="Trazado_214445" data-name="Trazado 214445" d="M24.783,79.211h1.136a1.593,1.593,0,0,0,1.2-.407,1.483,1.483,0,0,0,.391-1.074,1.315,1.315,0,0,0-.388-1.012,1.5,1.5,0,0,0-1.065-.361,1.575,1.575,0,0,0-1.024.336,1.072,1.072,0,0,0-.413.875H22.49a2.624,2.624,0,0,1,.453-1.509,3.023,3.023,0,0,1,1.268-1.042,4.215,4.215,0,0,1,1.8-.377,4.014,4.014,0,0,1,2.669.815,2.78,2.78,0,0,1,.965,2.245,2.259,2.259,0,0,1-.449,1.357,2.922,2.922,0,0,1-1.18.951,2.5,2.5,0,0,1,1.8,2.506,2.826,2.826,0,0,1-1.043,2.293,4.2,4.2,0,0,1-2.761.863,3.975,3.975,0,0,1-2.628-.849,2.767,2.767,0,0,1-1.021-2.242h2.13a1.238,1.238,0,0,0,.453.99,1.89,1.89,0,0,0,2.308-.02,1.384,1.384,0,0,0,.432-1.065q0-1.606-1.77-1.606H24.783Z" transform="translate(3.61 12.053)"/>
      <path id="Trazado_214446" data-name="Trazado 214446" d="M37.267,81.084a5.439,5.439,0,0,1-.921,3.407,3.219,3.219,0,0,1-2.7,1.179,3.241,3.241,0,0,1-2.684-1.157,5.286,5.286,0,0,1-.951-3.318V79.219a5.371,5.371,0,0,1,.933-3.414,3.242,3.242,0,0,1,2.688-1.165,3.247,3.247,0,0,1,2.684,1.153,5.263,5.263,0,0,1,.95,3.315Zm-2.13-2.172a3.942,3.942,0,0,0-.365-1.945,1.236,1.236,0,0,0-1.139-.609,1.211,1.211,0,0,0-1.109.58,3.673,3.673,0,0,0-.38,1.812v2.612a4.116,4.116,0,0,0,.358,1.952,1.218,1.218,0,0,0,1.146.639,1.2,1.2,0,0,0,1.128-.613,4.03,4.03,0,0,0,.361-1.875Z" transform="translate(4.846 12.053)"/>
      <path id="Trazado_214447" data-name="Trazado 214447" d="M44.726,81.084a5.439,5.439,0,0,1-.921,3.407,3.685,3.685,0,0,1-5.382.022,5.286,5.286,0,0,1-.951-3.318V79.219A5.371,5.371,0,0,1,38.4,75.8a3.691,3.691,0,0,1,5.372-.012,5.263,5.263,0,0,1,.95,3.315ZM42.6,78.912a3.942,3.942,0,0,0-.365-1.945,1.236,1.236,0,0,0-1.139-.609,1.211,1.211,0,0,0-1.109.58,3.673,3.673,0,0,0-.38,1.812v2.612a4.116,4.116,0,0,0,.358,1.952,1.218,1.218,0,0,0,1.146.639,1.2,1.2,0,0,0,1.128-.613,4.03,4.03,0,0,0,.361-1.875Z" transform="translate(6.051 12.053)"/>
      <path id="Trazado_214448" data-name="Trazado 214448" d="M52.184,81.084a5.439,5.439,0,0,1-.921,3.407,3.685,3.685,0,0,1-5.382.022,5.286,5.286,0,0,1-.951-3.318V79.219a5.371,5.371,0,0,1,.933-3.414,3.691,3.691,0,0,1,5.372-.012,5.263,5.263,0,0,1,.95,3.315Zm-2.13-2.172a3.942,3.942,0,0,0-.365-1.945,1.236,1.236,0,0,0-1.139-.609,1.211,1.211,0,0,0-1.109.58,3.673,3.673,0,0,0-.38,1.812v2.612a4.116,4.116,0,0,0,.358,1.952,1.218,1.218,0,0,0,1.146.639,1.2,1.2,0,0,0,1.128-.613,4.03,4.03,0,0,0,.361-1.875Z" transform="translate(7.255 12.053)"/>
      <path id="Trazado_214449" data-name="Trazado 214449" d="M59.643,81.084a5.439,5.439,0,0,1-.921,3.407,3.685,3.685,0,0,1-5.382.022,5.286,5.286,0,0,1-.951-3.318V79.219a5.371,5.371,0,0,1,.933-3.414,3.691,3.691,0,0,1,5.372-.012,5.263,5.263,0,0,1,.95,3.315Zm-2.13-2.172a3.942,3.942,0,0,0-.365-1.945,1.236,1.236,0,0,0-1.139-.609,1.211,1.211,0,0,0-1.109.58,3.673,3.673,0,0,0-.38,1.812v2.612a4.116,4.116,0,0,0,.358,1.952,1.218,1.218,0,0,0,1.146.639,1.2,1.2,0,0,0,1.128-.613,4.031,4.031,0,0,0,.361-1.875Z" transform="translate(8.46 12.053)"/>
      <path id="Trazado_214450" data-name="Trazado 214450" d="M29.967,138.214H22.609v-1.459l3.473-3.7a8.654,8.654,0,0,0,1.058-1.362,2.21,2.21,0,0,0,.343-1.107,1.644,1.644,0,0,0-.361-1.125,1.313,1.313,0,0,0-1.033-.409,1.406,1.406,0,0,0-1.139.5,1.968,1.968,0,0,0-.416,1.309H22.395a3.522,3.522,0,0,1,.468-1.792,3.3,3.3,0,0,1,1.323-1.272,4.018,4.018,0,0,1,1.94-.46,3.806,3.806,0,0,1,2.576.8,2.816,2.816,0,0,1,.919,2.249A3.608,3.608,0,0,1,29.207,132a9.041,9.041,0,0,1-1.416,1.926l-2.44,2.573h4.616Z" transform="translate(3.616 20.562)"/>
      <path id="Trazado_214451" data-name="Trazado 214451" d="M37.267,133.776a5.439,5.439,0,0,1-.921,3.407,3.219,3.219,0,0,1-2.7,1.179,3.241,3.241,0,0,1-2.684-1.157,5.286,5.286,0,0,1-.951-3.318v-1.976a5.371,5.371,0,0,1,.933-3.414,3.242,3.242,0,0,1,2.688-1.165,3.247,3.247,0,0,1,2.684,1.153,5.263,5.263,0,0,1,.95,3.315Zm-2.13-2.172a3.942,3.942,0,0,0-.365-1.945,1.236,1.236,0,0,0-1.139-.609,1.211,1.211,0,0,0-1.109.58,3.673,3.673,0,0,0-.38,1.812v2.612a4.116,4.116,0,0,0,.358,1.952,1.218,1.218,0,0,0,1.146.639,1.2,1.2,0,0,0,1.128-.613,4.031,4.031,0,0,0,.361-1.875Z" transform="translate(4.846 20.562)"/>
      <path id="Trazado_214452" data-name="Trazado 214452" d="M44.726,133.776a5.439,5.439,0,0,1-.921,3.407,3.685,3.685,0,0,1-5.382.022,5.286,5.286,0,0,1-.951-3.318v-1.976A5.371,5.371,0,0,1,38.4,128.5a3.691,3.691,0,0,1,5.372-.012,5.263,5.263,0,0,1,.95,3.315ZM42.6,131.6a3.942,3.942,0,0,0-.365-1.945,1.236,1.236,0,0,0-1.139-.609,1.211,1.211,0,0,0-1.109.58,3.673,3.673,0,0,0-.38,1.812v2.612a4.116,4.116,0,0,0,.358,1.952,1.218,1.218,0,0,0,1.146.639,1.2,1.2,0,0,0,1.128-.613,4.031,4.031,0,0,0,.361-1.875Z" transform="translate(6.051 20.562)"/>
      <path id="Trazado_214453" data-name="Trazado 214453" d="M52.184,133.776a5.439,5.439,0,0,1-.921,3.407,3.685,3.685,0,0,1-5.382.022,5.286,5.286,0,0,1-.951-3.318v-1.976a5.371,5.371,0,0,1,.933-3.414,3.691,3.691,0,0,1,5.372-.012,5.263,5.263,0,0,1,.95,3.315Zm-2.13-2.172a3.942,3.942,0,0,0-.365-1.945,1.236,1.236,0,0,0-1.139-.609,1.211,1.211,0,0,0-1.109.58,3.673,3.673,0,0,0-.38,1.812v2.612a4.116,4.116,0,0,0,.358,1.952,1.218,1.218,0,0,0,1.146.639,1.2,1.2,0,0,0,1.128-.613,4.031,4.031,0,0,0,.361-1.875Z" transform="translate(7.255 20.562)"/>
      <path id="Trazado_214454" data-name="Trazado 214454" d="M59.643,133.776a5.439,5.439,0,0,1-.921,3.407,3.685,3.685,0,0,1-5.382.022,5.286,5.286,0,0,1-.951-3.318v-1.976a5.371,5.371,0,0,1,.933-3.414,3.691,3.691,0,0,1,5.372-.012,5.263,5.263,0,0,1,.95,3.315Zm-2.13-2.172a3.942,3.942,0,0,0-.365-1.945,1.236,1.236,0,0,0-1.139-.609,1.211,1.211,0,0,0-1.109.58,3.673,3.673,0,0,0-.38,1.812v2.612a4.116,4.116,0,0,0,.358,1.952,1.218,1.218,0,0,0,1.146.639,1.2,1.2,0,0,0,1.128-.613,4.031,4.031,0,0,0,.361-1.875Z" transform="translate(8.46 20.562)"/>
      <path id="Trazado_214455" data-name="Trazado 214455" d="M24.6,191.84h-2.13v-8.224l-2.544.786v-1.719l4.445-1.592H24.6Z" transform="translate(3.217 29.242)"/>
      <path id="Trazado_214456" data-name="Trazado 214456" d="M34.178,187.42a5.439,5.439,0,0,1-.921,3.407,3.219,3.219,0,0,1-2.7,1.179,3.241,3.241,0,0,1-2.684-1.157,5.286,5.286,0,0,1-.951-3.318v-1.976a5.371,5.371,0,0,1,.933-3.414,3.242,3.242,0,0,1,2.688-1.165,3.247,3.247,0,0,1,2.684,1.153,5.263,5.263,0,0,1,.95,3.315Zm-2.13-2.172a3.942,3.942,0,0,0-.365-1.945,1.236,1.236,0,0,0-1.139-.609,1.211,1.211,0,0,0-1.109.58,3.673,3.673,0,0,0-.38,1.812V187.7a4.116,4.116,0,0,0,.358,1.952,1.218,1.218,0,0,0,1.146.639,1.2,1.2,0,0,0,1.128-.613,4.031,4.031,0,0,0,.361-1.875Z" transform="translate(4.348 29.224)"/>
      <path id="Trazado_214457" data-name="Trazado 214457" d="M41.637,187.42a5.439,5.439,0,0,1-.921,3.407,3.219,3.219,0,0,1-2.7,1.179,3.241,3.241,0,0,1-2.684-1.157,5.286,5.286,0,0,1-.951-3.318v-1.976a5.371,5.371,0,0,1,.933-3.414A3.242,3.242,0,0,1,38,180.976a3.247,3.247,0,0,1,2.684,1.153,5.263,5.263,0,0,1,.95,3.315Zm-2.13-2.172a3.942,3.942,0,0,0-.365-1.945A1.236,1.236,0,0,0,38,182.694a1.211,1.211,0,0,0-1.109.58,3.673,3.673,0,0,0-.38,1.812V187.7a4.116,4.116,0,0,0,.358,1.952,1.218,1.218,0,0,0,1.146.639,1.2,1.2,0,0,0,1.128-.613,4.031,4.031,0,0,0,.361-1.875Z" transform="translate(5.552 29.224)"/>
      <path id="Trazado_214458" data-name="Trazado 214458" d="M49.095,187.42a5.439,5.439,0,0,1-.921,3.407,3.685,3.685,0,0,1-5.382.022,5.286,5.286,0,0,1-.951-3.318v-1.976a5.371,5.371,0,0,1,.933-3.414,3.691,3.691,0,0,1,5.372-.012,5.263,5.263,0,0,1,.95,3.315Zm-2.13-2.172A3.942,3.942,0,0,0,46.6,183.3a1.236,1.236,0,0,0-1.139-.609,1.211,1.211,0,0,0-1.109.58,3.673,3.673,0,0,0-.38,1.812V187.7a4.116,4.116,0,0,0,.358,1.952,1.218,1.218,0,0,0,1.146.639,1.2,1.2,0,0,0,1.128-.613,4.031,4.031,0,0,0,.361-1.875Z" transform="translate(6.756 29.224)"/>
      <path id="Trazado_214459" data-name="Trazado 214459" d="M56.554,187.42a5.439,5.439,0,0,1-.921,3.407,3.685,3.685,0,0,1-5.382.022,5.286,5.286,0,0,1-.951-3.318v-1.976a5.371,5.371,0,0,1,.933-3.414,3.691,3.691,0,0,1,5.372-.012,5.263,5.263,0,0,1,.95,3.315Zm-2.13-2.172a3.942,3.942,0,0,0-.365-1.945,1.236,1.236,0,0,0-1.139-.609,1.211,1.211,0,0,0-1.109.58,3.673,3.673,0,0,0-.38,1.812V187.7a4.116,4.116,0,0,0,.358,1.952,1.218,1.218,0,0,0,1.146.639,1.2,1.2,0,0,0,1.128-.613,4.031,4.031,0,0,0,.361-1.875Z" transform="translate(7.961 29.224)"/>
      <path id="Trazado_214460" data-name="Trazado 214460" d="M55.828,240.319a5.432,5.432,0,0,1-.921,3.407,3.685,3.685,0,0,1-5.382.022,5.286,5.286,0,0,1-.951-3.318v-1.976a5.371,5.371,0,0,1,.933-3.414,3.691,3.691,0,0,1,5.372-.012,5.256,5.256,0,0,1,.95,3.315ZM53.7,238.147a3.94,3.94,0,0,0-.366-1.945,1.236,1.236,0,0,0-1.139-.609,1.208,1.208,0,0,0-1.108.58,3.659,3.659,0,0,0-.381,1.812V240.6a4.116,4.116,0,0,0,.358,1.952,1.218,1.218,0,0,0,1.146.639,1.2,1.2,0,0,0,1.128-.613A4.043,4.043,0,0,0,53.7,240.7Z" transform="translate(7.844 37.766)"/>
      <path id="Trazado_214461" data-name="Trazado 214461" d="M103.664,255.356H99.786l-.738,2.211H96.7l4-10.734h2.049l4.019,10.734h-2.352Zm-3.281-1.792h2.684l-1.35-4.018Z" transform="translate(15.615 39.859)"/>
      <path id="Trazado_214462" data-name="Trazado 214462" d="M171.437,257.567V246.833h3.76a4.936,4.936,0,0,1,2.964.749,2.558,2.558,0,0,1,1.009,2.193,2.424,2.424,0,0,1-.405,1.39,2.357,2.357,0,0,1-1.128.882,2.264,2.264,0,0,1,1.3.832,2.465,2.465,0,0,1,.476,1.534,2.833,2.833,0,0,1-.988,2.344,4.444,4.444,0,0,1-2.817.811Zm2.211-6.237h1.637q1.674-.028,1.674-1.335a1.234,1.234,0,0,0-.424-1.05,2.229,2.229,0,0,0-1.338-.321h-1.548Zm0,1.563v2.9h1.894a1.828,1.828,0,0,0,1.221-.373,1.277,1.277,0,0,0,.439-1.029,1.348,1.348,0,0,0-1.526-1.5Z" transform="translate(27.684 39.859)"/>
      <path id="Trazado_214463" data-name="Trazado 214463" d="M255.295,254.013a3.8,3.8,0,0,1-1.279,2.727,4.49,4.49,0,0,1-3.042,1,4.037,4.037,0,0,1-3.247-1.389,5.7,5.7,0,0,1-1.184-3.815v-.657a6.427,6.427,0,0,1,.546-2.726,4.079,4.079,0,0,1,1.56-1.811A4.871,4.871,0,0,1,254,247.7a4.087,4.087,0,0,1,1.313,2.795H253.1a2.234,2.234,0,0,0-.578-1.508A2.141,2.141,0,0,0,251,248.52a1.878,1.878,0,0,0-1.655.792,4.438,4.438,0,0,0-.564,2.459v.811a4.748,4.748,0,0,0,.527,2.544,1.845,1.845,0,0,0,1.662.8,2.18,2.18,0,0,0,1.53-.468,2.117,2.117,0,0,0,.58-1.448Z" transform="translate(39.812 39.838)"/>
      <path id="Trazado_214464" data-name="Trazado 214464" d="M319.536,257.567V246.833h3.3a5.017,5.017,0,0,1,2.533.638,4.455,4.455,0,0,1,1.743,1.813,5.6,5.6,0,0,1,.627,2.674v.494a5.619,5.619,0,0,1-.616,2.662,4.426,4.426,0,0,1-1.736,1.806,5.056,5.056,0,0,1-2.53.648Zm2.211-8.942v7.166h1.069a2.4,2.4,0,0,0,1.984-.849,3.834,3.834,0,0,0,.7-2.424v-.569a3.891,3.891,0,0,0-.678-2.48,2.393,2.393,0,0,0-1.984-.844Z" transform="translate(51.599 39.859)"/>
      <path id="Trazado_214465" data-name="Trazado 214465" d="M400.668,252.9h-4.246v2.89h4.984v1.777h-7.2V246.833h7.181v1.792h-4.969v2.559h4.246Z" transform="translate(63.657 39.859)"/>
      <rect id="Rectángulo_53142" data-name="Rectángulo 53142" width="34.801" height="169.944" transform="translate(82.598 105.486)" fill="#cc5a49"/>
      <rect id="Rectángulo_53143" data-name="Rectángulo 53143" width="33.981" height="26.634" transform="translate(117.4 248.796)" fill="#4586ac"/>
      <rect id="Rectángulo_53144" data-name="Rectángulo 53144" width="34.801" height="185.4" transform="translate(168.927 90.03)" fill="#cc5a49"/>
      <rect id="Rectángulo_53145" data-name="Rectángulo 53145" width="33.981" height="38.346" transform="translate(203.728 237.084)" fill="#4586ac"/>
      <rect id="Rectángulo_53146" data-name="Rectángulo 53146" width="34.801" height="195.819" transform="translate(253.968 79.611)" fill="#cc5a49"/>
      <rect id="Rectángulo_53147" data-name="Rectángulo 53147" width="33.981" height="54.348" transform="translate(288.77 221.082)" fill="#4586ac"/>
      <rect id="Rectángulo_53148" data-name="Rectángulo 53148" width="34.801" height="223.073" transform="translate(339.526 52.357)" fill="#cc5a49"/>
      <rect id="Rectángulo_53149" data-name="Rectángulo 53149" width="33.981" height="75.14" transform="translate(374.328 200.29)" fill="#4586ac"/>
      <rect id="Rectángulo_53150" data-name="Rectángulo 53150" width="34.801" height="246.809" transform="translate(426.189 28.621)" fill="#cc5a49"/>
      <rect id="Rectángulo_53151" data-name="Rectángulo 53151" width="33.981" height="92.7" transform="translate(460.99 182.73)" fill="#4586ac"/>
      <rect id="Rectángulo_53152" data-name="Rectángulo 53152" width="2.323" height="31.05" transform="translate(98.837 90.03)" fill="#13263d"/>
      <rect id="Rectángulo_53153" data-name="Rectángulo 53153" width="2.323" height="42.434" transform="translate(185.165 68.228)" fill="#13263d"/>
      <rect id="Rectángulo_53154" data-name="Rectángulo 53154" width="2.323" height="36.086" transform="translate(270.761 62.224)" fill="#13263d"/>
      <rect id="Rectángulo_53155" data-name="Rectángulo 53155" width="2.323" height="47.247" transform="translate(357.009 28.432)" fill="#13263d"/>
      <rect id="Rectángulo_53156" data-name="Rectángulo 53156" width="2.323" height="43.067" transform="translate(443.205 8.611)" fill="#13263d"/>
      <rect id="Rectángulo_53157" data-name="Rectángulo 53157" width="2.323" height="12.281" transform="translate(133.229 242.932)" fill="#13263d"/>
      <rect id="Rectángulo_53158" data-name="Rectángulo 53158" width="2.323" height="9.608" transform="translate(219.558 233.617)" fill="#13263d"/>
      <rect id="Rectángulo_53159" data-name="Rectángulo 53159" width="2.323" height="10.298" transform="translate(305.95 214.988)" fill="#13263d"/>
      <rect id="Rectángulo_53160" data-name="Rectángulo 53160" width="2.323" height="10.298" transform="translate(391.621 195.141)" fill="#13263d"/>
      <rect id="Rectángulo_53161" data-name="Rectángulo 53161" width="2.323" height="15.292" transform="translate(478.033 174.14)" fill="#13263d"/>
      <rect id="Rectángulo_53162" data-name="Rectángulo 53162" width="67.619" height="61.823" transform="translate(86.349 5.392)" fill="#e5e5e5"/>
      <path id="Trazado_214466" data-name="Trazado 214466" d="M142.625,67.127H73.844V4.142h68.781ZM75.005,65.965h66.458V5.3H75.005Z" transform="translate(11.924 0.669)" fill="#b3b3b3"/>
      <rect id="Rectángulo_53163" data-name="Rectángulo 53163" width="26.634" height="9.798" transform="translate(90.627 30.646)" fill="#cc5a49"/>
      <rect id="Rectángulo_53164" data-name="Rectángulo 53164" width="26.634" height="9.798" transform="translate(90.627 49.551)" fill="#4586ac"/>
      <path id="Trazado_214467" data-name="Trazado 214467" d="M80.25,20.852V14.439H79.063V12.876H80.25V12.2a2.749,2.749,0,0,1,.77-2.083,2.98,2.98,0,0,1,2.157-.742,5,5,0,0,1,1.084.145l-.022,1.638a2.792,2.792,0,0,0-.649-.065q-1.2,0-1.2,1.138v.647h1.585v1.563H82.388v6.413Z" transform="translate(12.767 1.514)"/>
      <path id="Trazado_214468" data-name="Trazado 214468" d="M89.027,19.555a2.675,2.675,0,0,1-2.182.957,2.516,2.516,0,0,1-1.957-.738,3.146,3.146,0,0,1-.69-2.159V12.389h2.131v5.158q0,1.249,1.135,1.249a1.541,1.541,0,0,0,1.49-.754V12.389h2.137v7.976h-2Z" transform="translate(13.596 2.001)"/>
      <path id="Trazado_214469" data-name="Trazado 214469" d="M93.515,12.41l.066.892a2.8,2.8,0,0,1,2.293-1.04,2.126,2.126,0,0,1,2.116,1.216,2.736,2.736,0,0,1,2.4-1.216,2.381,2.381,0,0,1,1.932.755,3.471,3.471,0,0,1,.634,2.273v5.1h-2.138v-5.1a1.538,1.538,0,0,0-.265-1,1.176,1.176,0,0,0-.936-.312,1.329,1.329,0,0,0-1.328.916l.007,5.489h-2.13V15.295a1.51,1.51,0,0,0-.273-1,1.187,1.187,0,0,0-.929-.31,1.382,1.382,0,0,0-1.312.753v5.653h-2.13V12.41Z" transform="translate(14.778 1.98)"/>
      <path id="Trazado_214470" data-name="Trazado 214470" d="M107.438,20.385a2.33,2.33,0,0,1-.214-.714,2.581,2.581,0,0,1-2.013.862,2.825,2.825,0,0,1-1.943-.678,2.177,2.177,0,0,1-.77-1.71,2.26,2.26,0,0,1,.94-1.947,4.644,4.644,0,0,1,2.718-.685h.98v-.458a1.317,1.317,0,0,0-.285-.885,1.118,1.118,0,0,0-.9-.331,1.271,1.271,0,0,0-.844.258.882.882,0,0,0-.305.709h-2.13a2.142,2.142,0,0,1,.427-1.285,2.817,2.817,0,0,1,1.209-.923,4.393,4.393,0,0,1,1.754-.336,3.491,3.491,0,0,1,2.342.74,2.594,2.594,0,0,1,.866,2.083v3.459a3.807,3.807,0,0,0,.317,1.718v.124ZM105.676,18.9a1.828,1.828,0,0,0,.87-.211,1.364,1.364,0,0,0,.59-.562V16.758h-.8q-1.6,0-1.7,1.107l-.007.125a.85.85,0,0,0,.28.655,1.083,1.083,0,0,0,.767.259" transform="translate(16.551 1.98)"/>
      <path id="Trazado_214471" data-name="Trazado 214471" d="M109.456,16.784a4.809,4.809,0,0,1,.836-2.971,2.713,2.713,0,0,1,2.289-1.106,2.449,2.449,0,0,1,1.925.869V9.507h2.137V20.831H114.72l-.1-.849a2.506,2.506,0,0,1-2.05,1,2.705,2.705,0,0,1-2.259-1.109,4.955,4.955,0,0,1-.851-3.085m2.13.152a3.173,3.173,0,0,0,.39,1.726,1.273,1.273,0,0,0,1.136.6,1.425,1.425,0,0,0,1.394-.837V15.262a1.406,1.406,0,0,0-1.379-.837q-1.542,0-1.541,2.511" transform="translate(17.675 1.535)"/>
      <path id="Trazado_214472" data-name="Trazado 214472" d="M116.781,16.323a4.731,4.731,0,0,1,.456-2.114,3.339,3.339,0,0,1,1.316-1.438,3.827,3.827,0,0,1,1.994-.509,3.631,3.631,0,0,1,2.635.987,3.971,3.971,0,0,1,1.139,2.683l.015.547a4.169,4.169,0,0,1-1.024,2.944,3.975,3.975,0,0,1-5.5,0,4.245,4.245,0,0,1-1.028-3.008Zm2.13.152a2.992,2.992,0,0,0,.427,1.74,1.536,1.536,0,0,0,2.433.007,3.272,3.272,0,0,0,.434-1.9,2.957,2.957,0,0,0-.434-1.728,1.414,1.414,0,0,0-1.224-.612,1.391,1.391,0,0,0-1.209.61,3.321,3.321,0,0,0-.427,1.885" transform="translate(18.858 1.98)"/>
      <path id="Trazado_214473" data-name="Trazado 214473" d="M128.9,14.406a5.976,5.976,0,0,0-.767-.059,1.565,1.565,0,0,0-1.585.819v5.22h-2.13V12.41h2.013l.058.951a1.973,1.973,0,0,1,1.777-1.1,2.266,2.266,0,0,1,.663.1Z" transform="translate(20.091 1.98)"/>
      <path id="Trazado_214474" data-name="Trazado 214474" d="M112.881,32.915l1.475-4.962h2.285l-3.207,9.215-.177.419a2.432,2.432,0,0,1-2.36,1.563,3.368,3.368,0,0,1-.943-.139V37.4l.324.007a1.755,1.755,0,0,0,.9-.184,1.215,1.215,0,0,0,.468-.612l.251-.656-2.795-8H111.4Z" transform="translate(17.618 4.514)"/>
      <path id="Trazado_214475" data-name="Trazado 214475" d="M119.945,36.1a3.913,3.913,0,0,1-2.856-1.077,3.826,3.826,0,0,1-1.1-2.869v-.207a4.809,4.809,0,0,1,.465-2.148,3.4,3.4,0,0,1,1.316-1.46,3.694,3.694,0,0,1,1.942-.512,3.309,3.309,0,0,1,2.577,1.031,4.2,4.2,0,0,1,.94,2.928v.869h-5.079a1.984,1.984,0,0,0,.623,1.254,1.887,1.887,0,0,0,1.316.472,2.3,2.3,0,0,0,1.925-.892l1.046,1.171a3.181,3.181,0,0,1-1.3,1.058,4.258,4.258,0,0,1-1.814.381m-.243-6.554a1.331,1.331,0,0,0-1.028.429,2.22,2.22,0,0,0-.505,1.23h2.963v-.171a1.584,1.584,0,0,0-.383-1.1,1.372,1.372,0,0,0-1.046-.388" transform="translate(18.73 4.493)"/>
      <path id="Trazado_214476" data-name="Trazado 214476" d="M127.638,33.745a.685.685,0,0,0-.387-.614,4.416,4.416,0,0,0-1.243-.4q-2.845-.6-2.846-2.418a2.192,2.192,0,0,1,.882-1.774,3.546,3.546,0,0,1,2.3-.712,3.817,3.817,0,0,1,2.43.717,2.254,2.254,0,0,1,.911,1.857h-2.131a1.033,1.033,0,0,0-.3-.756,1.249,1.249,0,0,0-.921-.3,1.278,1.278,0,0,0-.833.243.769.769,0,0,0-.3.619.657.657,0,0,0,.335.571,3.452,3.452,0,0,0,1.132.377,9.137,9.137,0,0,1,1.342.357,2.206,2.206,0,0,1,1.689,2.145,2.079,2.079,0,0,1-.936,1.765,4.035,4.035,0,0,1-2.418.675,4.22,4.22,0,0,1-1.781-.357,2.991,2.991,0,0,1-1.221-.981,2.274,2.274,0,0,1-.443-1.345h2.02a1.114,1.114,0,0,0,.42.87,1.664,1.664,0,0,0,1.048.3,1.543,1.543,0,0,0,.925-.233.721.721,0,0,0,.314-.609" transform="translate(19.848 4.493)"/>
      <path id="Trazado_214477" data-name="Trazado 214477" d="M112.472,44.949l.066.922a2.785,2.785,0,0,1,2.293-1.07,2.312,2.312,0,0,1,1.887.746,3.462,3.462,0,0,1,.634,2.225v5.153h-2.13V47.813a1.39,1.39,0,0,0-.3-.987,1.32,1.32,0,0,0-.98-.305,1.462,1.462,0,0,0-1.35.768v5.638h-2.131V44.949Z" transform="translate(17.838 7.234)"/>
      <path id="Trazado_214478" data-name="Trazado 214478" d="M117.5,48.863a4.733,4.733,0,0,1,.456-2.115,3.336,3.336,0,0,1,1.316-1.437,3.828,3.828,0,0,1,1.994-.51,3.627,3.627,0,0,1,2.635.988,3.961,3.961,0,0,1,1.139,2.683l.015.546a4.17,4.17,0,0,1-1.024,2.946,3.973,3.973,0,0,1-5.5,0,4.245,4.245,0,0,1-1.028-3.008Zm2.13.152a2.988,2.988,0,0,0,.427,1.739,1.535,1.535,0,0,0,2.433.007,3.26,3.26,0,0,0,.434-1.9,2.947,2.947,0,0,0-.434-1.727,1.414,1.414,0,0,0-1.224-.612,1.391,1.391,0,0,0-1.209.609,3.322,3.322,0,0,0-.427,1.886" transform="translate(18.974 7.234)"/>
    </g>
  </g>
</svg>
