<svg xmlns="http://www.w3.org/2000/svg" xmlns:xlink="http://www.w3.org/1999/xlink" width="108.419" height="108.419" viewBox="0 0 108.419 108.419">
  <defs>
    <linearGradient id="linear-gradient" x1="0.5" x2="0.5" y2="1" gradientUnits="objectBoundingBox">
      <stop offset="0" stop-color="#fdbe41"/>
      <stop offset="1" stop-color="#d09f40"/>
    </linearGradient>
  </defs>
  <g id="Grupo_173267" data-name="Grupo 173267" transform="translate(-294.45 -2965.488)">
    <circle id="Elipse_6019" data-name="Elipse 6019" cx="54.209" cy="54.209" r="54.209" transform="translate(294.45 2965.488)" fill="url(#linear-gradient)"/>
    <g id="busqueda-de-conocimiento" transform="translate(321.904 2993.441)">
      <path id="Trazado_213413" data-name="Trazado 213413" d="M211.079,123.938a9.641,9.641,0,1,0,9.641,9.641A9.652,9.652,0,0,0,211.079,123.938Zm0,17.231a7.59,7.59,0,1,1,7.59-7.59A7.6,7.6,0,0,1,211.079,141.169Zm0,0" transform="translate(-180.329 -111.226)" fill="#173c5c"/>
      <path id="Trazado_213414" data-name="Trazado 213414" d="M51.927,39.061l-8.892-8.892a14.535,14.535,0,0,0-.278-16.05V1.026A1.026,1.026,0,0,0,41.731,0H5.218A4.724,4.724,0,0,0,.5,4.718V47.8a4.724,4.724,0,0,0,4.718,4.718H41.731a1.026,1.026,0,0,0,1.026-1.026v-11.1l3.921,3.921a3.711,3.711,0,0,0,5.249-5.249ZM44.115,34.15,41.767,36.5l-2.406-2.406A14.681,14.681,0,0,0,41.8,31.833Zm-13.365.716A12.513,12.513,0,1,1,43.263,22.353,12.527,12.527,0,0,1,30.75,34.866ZM5.218,2.051h.821V43.078H5.218a4.691,4.691,0,0,0-2.667.829V4.718A2.67,2.67,0,0,1,5.218,2.051ZM23.551,45.129H27.68v2.557l-1.341-1.335a1.026,1.026,0,0,0-1.448,0l-1.341,1.335Zm2.064,3.4,1.946,1.937H23.67Zm15.09,1.937H29.683a1.023,1.023,0,0,0,.048-.308V45.129H40.706Zm0-7.385H18.6a1.026,1.026,0,0,0,0,2.051h2.9v5.026a1.023,1.023,0,0,0,.047.308H5.218a2.667,2.667,0,1,1,0-5.333H10.4a1.026,1.026,0,0,0,0-2.051H8.09V2.051H40.706v9.681a14.562,14.562,0,1,0-3.124,23.48l3.123,3.123v4.742Zm9.77-.22a1.662,1.662,0,0,1-2.347,0l-4.911-4.911L45.565,35.6l4.911,4.911A1.661,1.661,0,0,1,50.476,42.858Zm0,0" fill="#173c5c"/>
      <path id="Trazado_213415" data-name="Trazado 213415" d="M103.19,55.719h8.547a1.026,1.026,0,1,0,0-2.051H103.19a1.026,1.026,0,1,0,0,2.051Zm0,0" transform="translate(-91.237 -48.163)" fill="#173c5c"/>
      <path id="Trazado_213416" data-name="Trazado 213416" d="M108.489,98.694a1.026,1.026,0,0,0-1.026-1.026H103.19a1.026,1.026,0,1,0,0,2.051h4.274A1.026,1.026,0,0,0,108.489,98.694Zm0,0" transform="translate(-91.237 -87.65)" fill="#173c5c"/>
      <path id="Trazado_213417" data-name="Trazado 213417" d="M128.026,420a1.027,1.027,0,1,0,.725.3A1.033,1.033,0,0,0,128.026,420Zm0,0" transform="translate(-113.526 -376.922)" fill="#173c5c"/>
    </g>
  </g>
</svg>
