<svg xmlns="http://www.w3.org/2000/svg" xmlns:xlink="http://www.w3.org/1999/xlink" width="108.419" height="108.419" viewBox="0 0 108.419 108.419">
  <defs>
    <linearGradient id="linear-gradient" x1="0.5" x2="0.5" y2="1" gradientUnits="objectBoundingBox">
      <stop offset="0" stop-color="#fdbe41"/>
      <stop offset="1" stop-color="#d09f40"/>
    </linearGradient>
  </defs>
  <g id="Grupo_173264" data-name="Grupo 173264" transform="translate(-1179.255 -2963.209)">
    <path id="Trazado_197541" data-name="Trazado 197541" d="M54.209,0A54.209,54.209,0,1,1,0,54.209,54.209,54.209,0,0,1,54.209,0Z" transform="translate(1179.255 2963.209)" fill="url(#linear-gradient)"/>
    <g id="proceso" transform="translate(1203.019 2986.92)">
      <path id="_x31_1" d="M14.823,42.24a.949.949,0,0,1-1.9,0V31.92a6.617,6.617,0,0,1,6.6-6.6h10.2a.941.941,0,0,1,.949.935.953.953,0,0,1-.949.949h-10.2a4.7,4.7,0,0,0-4.705,4.719Zm5.146,6.938a.941.941,0,0,1-.936-.949.93.93,0,0,1,.936-.936h9.144a.93.93,0,0,1,.936.936.941.941,0,0,1-.936.949Zm24.436,0a.953.953,0,0,1-.949-.949.941.941,0,0,1,.949-.936H56.29a4.86,4.86,0,0,1,3.382,1.377A4.666,4.666,0,0,1,61.089,52v1.858a.942.942,0,0,1-.936.949.953.953,0,0,1-.949-.949V52a2.806,2.806,0,0,0-.856-1.978,2.956,2.956,0,0,0-2.058-.842H44.405Zm9.638,10.494a.942.942,0,0,1,.949.936.953.953,0,0,1-.949.949H51.1a.942.942,0,0,1-.936-.949.93.93,0,0,1,.936-.936Zm-7.138,0a.942.942,0,0,1,.949.936.953.953,0,0,1-.949.949H33.271a.942.942,0,0,1-.936-.949.93.93,0,0,1,.936-.936ZM44.766,27.2a.953.953,0,0,1-.949-.949.941.941,0,0,1,.949-.935h9.277a.941.941,0,0,1,.949.935.953.953,0,0,1-.949.949ZM61.089,18.94a.93.93,0,0,1-.936.936.942.942,0,0,1-.949-.936v-1.3a2.82,2.82,0,0,0-.829-1.992,2.764,2.764,0,0,0-1.992-.829H27.4a.949.949,0,0,1,0-1.9H56.383a4.724,4.724,0,0,1,4.706,4.719ZM22.937,12.924a.949.949,0,1,1,0,1.9H19.969a.949.949,0,0,1,0-1.9Z" transform="translate(-6.829 -6.829)" fill="#173c5c"/>
      <path id="_x31_0" d="M8.378,13.019a.94.94,0,0,1,1-1.591l1.39.9,2.019-3.342a.945.945,0,0,1,1.618.976l-2.54,4.184a.941.941,0,0,1-1.3.281Z" transform="translate(-4.193 -4.504)" fill="#173c5c"/>
      <path id="_x39_" d="M106.49,38.05a.944.944,0,0,1,1.015-1.591l1.39.9,2.019-3.342a.944.944,0,1,1,1.617.976l-2.54,4.184a.933.933,0,0,1-1.3.281Z" transform="translate(-56.04 -17.731)" fill="#173c5c"/>
      <path id="_x38_" d="M8.378,86.092a.935.935,0,0,1-.294-1.3.945.945,0,0,1,1.3-.281l1.39.882,2.019-3.342a.945.945,0,0,1,1.618.976l-2.54,4.184a.944.944,0,0,1-1.3.294Z" transform="translate(-4.193 -43.115)" fill="#173c5c"/>
      <path id="_x37_" d="M100.947,98.126h8.435a2.841,2.841,0,0,1,2.834,2.82v8.435a2.853,2.853,0,0,1-2.834,2.835h-8.435a2.841,2.841,0,0,1-2.82-2.835v-8.435A2.829,2.829,0,0,1,100.947,98.126Zm8.435,1.885h-8.435a.93.93,0,0,0-.935.936v8.435a.941.941,0,0,0,.935.949h8.435a.953.953,0,0,0,.949-.949v-8.435A.942.942,0,0,0,109.382,100.011Z" transform="translate(-51.847 -51.847)" fill="#173c5c"/>
      <path id="_x36_" d="M106.49,111.125a.938.938,0,0,1,1.015-1.578l1.39.882,2.019-3.329a.926.926,0,0,1,1.3-.321.937.937,0,0,1,.321,1.284l-2.54,4.184a.935.935,0,0,1-1.3.294Z" transform="translate(-56.04 -56.344)" fill="#173c5c"/>
      <path id="_x35_" d="M59.529,104.294a.937.937,0,1,1,1.109,1.511l-4.051,2.981,4.051,2.994a.937.937,0,1,1-1.109,1.511l-5.066-3.729a1.029,1.029,0,0,1-.2-.214.926.926,0,0,1,.187-1.31Z" transform="translate(-28.569 -55.007)" fill="#173c5c"/>
      <path id="_x34_" d="M53.677,40.44a10.21,10.21,0,0,1,1.778.8,9.6,9.6,0,0,1,1.591,1.15l2.5-.923a.955.955,0,0,1,1.136.415s1.6,2.781,1.751,3.034a.922.922,0,0,1-.214,1.177L60.174,47.82c.053.214.08.428.12.655a10.309,10.309,0,0,1,0,2.567c-.04.214-.067.441-.12.656l2.045,1.711a.95.95,0,0,1,.174,1.257c-.574.989-1.136,1.965-1.711,2.954a.954.954,0,0,1-1.164.415l-2.472-.909a10.5,10.5,0,0,1-1.591,1.15,10.157,10.157,0,0,1-1.778.8L53.222,61.7a.946.946,0,0,1-.935.775H48.8a.961.961,0,0,1-.936-.815l-.455-2.581a10.552,10.552,0,0,1-1.764-.8,9.849,9.849,0,0,1-1.59-1.15l-2.513.909a.921.921,0,0,1-1.15-.455c-.575-.989-1.15-1.978-1.724-2.981a.943.943,0,0,1,.214-1.189L40.91,51.7c-.04-.214-.08-.441-.107-.656a10.311,10.311,0,0,1,0-2.567c.027-.227.067-.441.107-.655l-2.032-1.711a.951.951,0,0,1-.174-1.257c.561-.989,1.136-1.978,1.711-2.968a.943.943,0,0,1,1.163-.4l2.473.909a9.1,9.1,0,0,1,1.59-1.15,10.092,10.092,0,0,1,1.764-.8l.468-2.62a.944.944,0,0,1,.923-.776h3.49a.928.928,0,0,1,.935.815Zm.842,2.433a7.908,7.908,0,0,0-1.871-.775.943.943,0,0,1-.722-.762L51.5,38.93H49.6l-.427,2.406a.953.953,0,0,1-.682.748,8.33,8.33,0,0,0-1.912.789,8.241,8.241,0,0,0-1.631,1.243.95.95,0,0,1-1,.241l-2.3-.842-.962,1.644,1.885,1.577a.956.956,0,0,1,.307.963,6.857,6.857,0,0,0-.2,1.016,6.534,6.534,0,0,0-.067,1.043,6.318,6.318,0,0,0,.067,1.03,8.708,8.708,0,0,0,.187.989.933.933,0,0,1-.294.989L40.7,54.343c.307.548.628,1.11.949,1.658l2.3-.842a.968.968,0,0,1,.989.214,7.956,7.956,0,0,0,1.644,1.27,7.484,7.484,0,0,0,1.872.775.943.943,0,0,1,.722.762l.427,2.406h1.9l.428-2.406a.953.953,0,0,1,.682-.749,8.339,8.339,0,0,0,1.911-.788A8.13,8.13,0,0,0,56.137,55.4a.931.931,0,0,1,1-.241L59.451,56c.321-.548.629-1.1.949-1.658l-1.872-1.578a.935.935,0,0,1-.307-.949,7.022,7.022,0,0,0,.2-1.03,8.339,8.339,0,0,0,.067-1.03,8.16,8.16,0,0,0-.254-2.019.938.938,0,0,1,.294-1L60.4,45.158c-.307-.548-.628-1.1-.949-1.644l-2.312.842a.931.931,0,0,1-.976-.227A8.445,8.445,0,0,0,54.518,42.873Zm-3.97,1.256a5.613,5.613,0,1,1-3.983,1.644A5.65,5.65,0,0,1,50.548,44.13Zm2.647,2.981a3.744,3.744,0,1,0,1.1,2.647A3.726,3.726,0,0,0,53.195,47.111Z" transform="translate(-20.364 -19.573)" fill="#173c5c"/>
      <path id="_x33_" d="M2.834,73.1h8.421a2.842,2.842,0,0,1,2.835,2.821v8.435a2.842,2.842,0,0,1-2.835,2.82H2.834A2.841,2.841,0,0,1,0,84.354V75.919A2.841,2.841,0,0,1,2.834,73.1Zm8.421,1.885H2.834a.941.941,0,0,0-.949.936v8.435a.941.941,0,0,0,.949.936h8.421a.942.942,0,0,0,.949-.936V75.919A.942.942,0,0,0,11.255,74.983Z" transform="translate(0 -38.623)" fill="#173c5c"/>
      <path id="_x32_" d="M100.947,25.027h8.435a2.853,2.853,0,0,1,2.834,2.834V36.3a2.841,2.841,0,0,1-2.834,2.82h-8.435a2.829,2.829,0,0,1-2.82-2.82V27.861a2.841,2.841,0,0,1,2.82-2.834Zm8.435,1.885h-8.435a.941.941,0,0,0-.935.949V36.3a.93.93,0,0,0,.935.936h8.435a.942.942,0,0,0,.949-.936V27.861a.953.953,0,0,0-.949-.949Z" transform="translate(-51.847 -13.223)" fill="#173c5c"/>
      <path id="_x31_" d="M2.834,0h8.421A2.853,2.853,0,0,1,14.09,2.834v8.422a2.853,2.853,0,0,1-2.835,2.834H2.834A2.853,2.853,0,0,1,0,11.255V2.834A2.853,2.853,0,0,1,2.834,0Zm8.421,1.885H2.834a.953.953,0,0,0-.949.949v8.422a.952.952,0,0,0,.949.949h8.421a.953.953,0,0,0,.949-.949V2.834a.953.953,0,0,0-.949-.949Z" fill="#173c5c"/>
    </g>
  </g>
</svg>
