<svg xmlns="http://www.w3.org/2000/svg" xmlns:xlink="http://www.w3.org/1999/xlink" width="108.419" height="108.419" viewBox="0 0 108.419 108.419">
  <defs>
    <linearGradient id="linear-gradient" x1="0.5" x2="0.5" y2="1" gradientUnits="objectBoundingBox">
      <stop offset="0" stop-color="#fdbe41"/>
      <stop offset="1" stop-color="#d09f40"/>
    </linearGradient>
  </defs>
  <g id="Grupo_173261" data-name="Grupo 173261" transform="translate(2694.745 8736.791)">
    <path id="Trazado_213412" data-name="Trazado 213412" d="M54.209,0A54.209,54.209,0,1,1,0,54.209,54.209,54.209,0,0,1,54.209,0Z" transform="translate(-2694.745 -8736.791)" fill="url(#linear-gradient)"/>
    <g id="Page-1" transform="translate(-2670.72 -8713.085)">
      <g id="_029---Approval" data-name="029---Approval" transform="translate(-0.005 0.005)">
        <path id="Shape" d="M58.355,36.224a3.011,3.011,0,0,0-2.644,1.593,8.03,8.03,0,0,1-4.273-2.644,19.462,19.462,0,0,0-2.854-3.249c-1.172-1.084-1.852-1.7-2.3-2.087A23.137,23.137,0,1,0,23.695,46.276a4.032,4.032,0,0,0,1.424,1.445A3.981,3.981,0,0,0,26.851,54.1a4.025,4.025,0,0,0,3.33,6.278H45.274c4.089,0,6.339,0,9.615-2.182.445-.3.861-.554,1.268-.795a3.01,3.01,0,0,0,5.217-2.055v-16.1a3.019,3.019,0,0,0-3.019-3.019ZM3.012,23.143A21.131,21.131,0,1,1,44.579,28.5c-.068-.055-.131-.1-.212-.173a5.209,5.209,0,0,1-1.409-1.912,18.5,18.5,0,0,0,.3-3.276,19.118,19.118,0,1,0-19.549,19.1,3.983,3.983,0,0,0-.567,1.984A21.139,21.139,0,0,1,3.012,23.143ZM37.224,34.2l-8.05.01a4.049,4.049,0,0,0-2.918,1.256,3.986,3.986,0,0,0-1.1,2.985,3.848,3.848,0,0,0,.527,1.718c-.513.046-1.028.078-1.54.078A17.106,17.106,0,1,1,41.162,21.414a4.011,4.011,0,0,0-6.95,2.486c-.286,4.211.889,6.965,3.013,10.3ZM53.776,56.518c-2.766,1.843-4.561,1.843-8.5,1.843H30.181a2.012,2.012,0,1,1,0-4.025h1.006a1.006,1.006,0,1,0,0-2.012H28.168a2.012,2.012,0,0,1,0-4.025h3.019a1.006,1.006,0,1,0,0-2.012H27.162a2.012,2.012,0,0,1,0-4.025h4.025a1.006,1.006,0,1,0,0-2.012H29.346a2.139,2.139,0,0,1-2.184-1.9,2.012,2.012,0,0,1,2.012-2.121l8.05-.01a2.013,2.013,0,0,0,1.694-3.1c-1.946-3.053-2.953-5.4-2.7-9.086a2.012,2.012,0,0,1,4.014-.11,9.121,9.121,0,0,0,2.857,5.963,13.544,13.544,0,0,0,1.077.83,30.439,30.439,0,0,1,3.051,2.678,17.81,17.81,0,0,1,2.6,2.963A10.144,10.144,0,0,0,55.337,39.8V55.343c0,.066.015.129.019.194-.5.294-1.025.611-1.58.981Zm5.586-1.175a1.006,1.006,0,1,1-2.012,0v-16.1a1.006,1.006,0,1,1,2.012,0Z" transform="translate(-0.995 -0.005)" fill="#173c5c"/>
        <path id="Shape-2" data-name="Shape" d="M34.842,15.295a1.006,1.006,0,0,0-1.423,0L19.037,29.677l-4.32-4.32a1.006,1.006,0,0,0-1.423,1.423l5.031,5.031a1.006,1.006,0,0,0,1.423,0L34.842,16.718A1.006,1.006,0,0,0,34.842,15.295Z" transform="translate(-0.92 0.088)" fill="#173c5c"/>
      </g>
    </g>
  </g>
</svg>
