<svg xmlns="http://www.w3.org/2000/svg" xmlns:xlink="http://www.w3.org/1999/xlink" width="170.484" height="170.484" viewBox="0 0 170.484 170.484">
  <defs>
    <linearGradient id="linear-gradient" x1="0.5" x2="0.5" y2="1" gradientUnits="objectBoundingBox">
      <stop offset="0" stop-color="#116eb9"/>
      <stop offset="1" stop-color="#1894f6"/>
    </linearGradient>
    <filter id="Trazado_150707" x="0" y="0" width="170.484" height="170.484" filterUnits="userSpaceOnUse">
      <feOffset dx="5" dy="5" input="SourceAlpha"/>
      <feGaussianBlur stdDeviation="12.5" result="blur"/>
      <feFlood flood-opacity="0.161"/>
      <feComposite operator="in" in2="blur"/>
      <feComposite in="SourceGraphic"/>
    </filter>
  </defs>
  <g id="Grupo_173274" data-name="Grupo 173274" transform="translate(-1134.815 -3683.83)">
    <path id="Trazado_150699" data-name="Trazado 150699" d="M110.384,15.447a67.434,67.434,0,1,1-94.937,9.041,67.434,67.434,0,0,1,94.937-9.041" transform="translate(1147.621 3831.581) rotate(-90)" fill="url(#linear-gradient)"/>
    <g transform="matrix(1, 0, 0, 1, 1134.81, 3683.83)" filter="url(#Trazado_150707)">
      <path id="Trazado_150707-2" data-name="Trazado 150707" d="M95.3,43.6A47.739,47.739,0,1,1,43.6.183,47.739,47.739,0,0,1,95.3,43.6" transform="translate(32.5 127.98) rotate(-90)" fill="#fff"/>
    </g>
    <g id="dinero" transform="translate(1183.756 3733.591)">
      <path id="Trazado_213493" data-name="Trazado 213493" d="M300.925,188l-3.614,3.614-9.965,7.2-1.762-1.762.036-.045a4.969,4.969,0,1,0-5.458-5.393l-.009.009-3.17-3.171,12.2-12.2Z" transform="translate(-243.425 -157.288)" fill="#03aa6f"/>
      <path id="Trazado_213494" data-name="Trazado 213494" d="M57.5,322.563,38.528,338.824H33.108L15.943,332.5H4.2v-9.938H15.943l.632-.271,3.885-1.662,1.807-.777H36.721v5.421H25.88l11.745,5.42,6.3-4.544,9.965-7.2Z" transform="translate(0 -284.619)" fill="#f5d0c7"/>
      <path id="Trazado_213495" data-name="Trazado 213495" d="M316.374,281.7a4.963,4.963,0,0,1-4.463,4.942l-.036.045-4.987-4.987-.443-.443.009-.009a4.969,4.969,0,0,1,9.92.452Z" transform="translate(-269.715 -246.92)" fill="#79dca0"/>
      <path id="Trazado_213496" data-name="Trazado 213496" d="M223.681,329.894l-6.3,4.544-11.745-5.42h10.841V323.6l.452-.452,4.987,4.987Z" transform="translate(-179.76 -288.364)" fill="#03aa6f"/>
      <path id="Trazado_213497" data-name="Trazado 213497" d="M213.771,54.161a3,3,0,0,0,1.915-.659,2.091,2.091,0,0,0,.795-1.6,1.354,1.354,0,0,0-1-1.238l-1.708-.569V46.031a3,3,0,0,0-1.915.659,2.091,2.091,0,0,0-.795,1.6,1.354,1.354,0,0,0,1,1.238l1.708.569Zm0-12.2A8.131,8.131,0,1,1,205.64,50.1,8.13,8.13,0,0,1,213.771,41.965Z" transform="translate(-179.76 -37.448)" fill="#ffdb6f"/>
      <path id="Trazado_213498" data-name="Trazado 213498" d="M74.623,184.58l-.452.452H68.678a5.421,5.421,0,0,0-10.769.777l-3.885,1.662-7.86-7.86L57.91,167.867l13.1,13.1,3.171,3.171Z" transform="translate(-37.45 -149.799)" fill="#03aa6f"/>
      <g id="Grupo_172685" data-name="Grupo 172685" transform="translate(31.301 8.582)">
        <path id="Trazado_213499" data-name="Trazado 213499" d="M283.892,119.313a2.092,2.092,0,0,1-.795,1.6,3,3,0,0,1-1.915.659v-4.065l1.708.569A1.355,1.355,0,0,1,283.892,119.313Z" transform="translate(-278.472 -113.44)" fill="#ffdb6f"/>
        <path id="Trazado_213500" data-name="Trazado 213500" d="M258.71,79.734V83.8L257,83.23a1.354,1.354,0,0,1-1-1.238,2.092,2.092,0,0,1,.795-1.6A3,3,0,0,1,258.71,79.734Z" transform="translate(-256 -79.734)" fill="#ffdb6f"/>
      </g>
      <path id="Trazado_213501" data-name="Trazado 213501" d="M166.049,289.667h-8.962l-1.807.777a5.421,5.421,0,0,1,10.769-.777Z" transform="translate(-134.82 -254.433)" fill="#79dca0"/>
      <g id="Grupo_172686" data-name="Grupo 172686" transform="translate(21.363 0)">
        <path id="Trazado_213502" data-name="Trazado 213502" d="M230.535,3.515a10.99,10.99,0,0,0-11.67,0L217.887,2a12.627,12.627,0,0,1,13.625,0Z" transform="translate(-212.052 0)" fill="#ffdb6f"/>
        <path id="Trazado_213503" data-name="Trazado 213503" d="M164.646,122.37a12.625,12.625,0,0,1-.972-4.864h1.807a10.8,10.8,0,0,0,.835,4.17Z" transform="translate(-163.674 -104.858)" fill="#ffdb6f"/>
        <path id="Trazado_213504" data-name="Trazado 213504" d="M281.181,213.113v-1.807a10.8,10.8,0,0,0,4.17-.835l.694,1.67A12.623,12.623,0,0,1,281.181,213.113Z" transform="translate(-268.533 -187.817)" fill="#ffdb6f"/>
        <path id="Trazado_213505" data-name="Trazado 213505" d="M375.816,122.37l-1.669-.694a10.8,10.8,0,0,0,.835-4.17h1.807A12.627,12.627,0,0,1,375.816,122.37Z" transform="translate(-351.493 -104.858)" fill="#ffdb6f"/>
      </g>
      <g id="Grupo_172687" data-name="Grupo 172687" transform="translate(24.977 3.613)">
        <path id="Trazado_213506" data-name="Trazado 213506" d="M206.281,51.641a9.034,9.034,0,1,1,9.034-9.034A9.034,9.034,0,0,1,206.281,51.641Zm0-16.262a7.227,7.227,0,1,0,7.227,7.227A7.228,7.228,0,0,0,206.281,35.38Z" transform="translate(-197.247 -33.573)" fill="#ff8030"/>
        <path id="Trazado_213507" data-name="Trazado 213507" d="M251.222,81.226a3.891,3.891,0,0,1-2.494-.869,3,3,0,0,1-1.119-2.293h1.807a1.189,1.189,0,0,0,.47.9,2.291,2.291,0,0,0,2.673,0,1.188,1.188,0,0,0,.471-.9c0-.126-.131-.3-.381-.379l-3.419-1.14a2.258,2.258,0,0,1-1.621-2.094,3,3,0,0,1,1.12-2.293,3.888,3.888,0,0,1,2.493-.869,3.414,3.414,0,0,1,3.614,3.162h-1.807c0-.734-.828-1.355-1.807-1.355a2.106,2.106,0,0,0-1.336.452,1.188,1.188,0,0,0-.471.9c0,.126.131.3.381.379l3.419,1.14a2.258,2.258,0,0,1,1.621,2.094,3,3,0,0,1-1.12,2.293A3.887,3.887,0,0,1,251.222,81.226Z" transform="translate(-242.187 -67.223)" fill="#ff8030"/>
        <rect id="Rectángulo_52835" data-name="Rectángulo 52835" width="1.807" height="10.841" transform="translate(8.131 3.614)" fill="#ff8030"/>
      </g>
      <path id="Trazado_213508" data-name="Trazado 213508" d="M218.871,3.519a10.993,10.993,0,0,1,11.67,0L231.516,2a12.627,12.627,0,0,0-13.621,0Z" transform="translate(-190.696 -0.003)"/>
      <path id="Trazado_213509" data-name="Trazado 213509" d="M163.673,117.505a12.564,12.564,0,0,0,.974,4.869l1.668-.7a10.769,10.769,0,0,1-.835-4.171h-1.807Z" transform="translate(-142.31 -104.858)"/>
      <path id="Trazado_213510" data-name="Trazado 213510" d="M281.18,213.121a12.533,12.533,0,0,0,4.866-.973l-.7-1.668a10.725,10.725,0,0,1-4.167.834v1.807Z" transform="translate(-247.169 -187.825)"/>
      <path id="Trazado_213511" data-name="Trazado 213511" d="M375.824,122.372a12.55,12.55,0,0,0,.973-4.866H374.99a10.738,10.738,0,0,1-.834,4.168Z" transform="translate(-330.138 -104.859)"/>
      <path id="Trazado_213512" data-name="Trazado 213512" d="M215.316,42.606a9.034,9.034,0,1,0-9.034,9.034A9.034,9.034,0,0,0,215.316,42.606Zm-9.034,7.227a7.227,7.227,0,1,1,7.227-7.227A7.228,7.228,0,0,1,206.282,49.834Z" transform="translate(-172.271 -29.959)"/>
      <path id="Trazado_213513" data-name="Trazado 213513" d="M253.028,70.759h1.807a3.27,3.27,0,0,0-2.71-3.05v-.564h-1.807v.564a3.27,3.27,0,0,0-2.71,3.05,2.27,2.27,0,0,0,1.626,2.1l1.084.361v2.316a1.355,1.355,0,0,1-.9-1.159h-1.807a3.27,3.27,0,0,0,2.71,3.05v.564h1.807v-.564a3.27,3.27,0,0,0,2.71-3.05,2.27,2.27,0,0,0-1.626-2.1l-1.084-.361V69.6A1.355,1.355,0,0,1,253.028,70.759Zm-.388,3.232c.229.077.388.234.388.382a1.355,1.355,0,0,1-.9,1.161V73.817ZM249.8,71.141c-.229-.077-.388-.234-.388-.382a1.355,1.355,0,0,1,.9-1.161v1.717Z" transform="translate(-217.211 -59.918)"/>
      <path id="Trazado_213514" data-name="Trazado 213514" d="M46.394,160.646a.9.9,0,0,0-1.277,0L33.559,172.2,21.1,159.742a.9.9,0,0,0-1.277,0L8.076,171.487a.9.9,0,0,0,0,1.277l6.589,6.589H4.2v1.807H15.943a.891.891,0,0,0,.356-.073l6.153-2.637H35.818v3.614H25.88a.9.9,0,0,0-.378,1.724l11.745,5.421a.9.9,0,0,0,.9-.09L53.8,177.826l2.379,2.379-17.981,15.41H33.269l-17.014-6.268a.9.9,0,0,0-.313-.056H4.2V191.1H15.781L32.8,197.366a.9.9,0,0,0,.313.056h5.421a.9.9,0,0,0,.587-.218l18.972-16.262a.9.9,0,0,0,.1-1.274c-.015-.017-.031-.034-.047-.051l-2.975-2.975,2.975-2.975a.9.9,0,0,0,0-1.277ZM20.46,161.659l14.984,14.984H31.938a6.3,6.3,0,0,0-6.057-4.517,6.364,6.364,0,0,0-6.278,5.58l-2.821,1.209-6.788-6.788Zm21.971,19.416-4.721-4.721a4.055,4.055,0,1,1,4.721,4.721Zm2.521.9-.939.678-.117-.117a5.838,5.838,0,0,0,1.055-.559v0Zm-22.686-5.336a.891.891,0,0,0-.356.073l-.22.09a4.492,4.492,0,0,1,8.316-.163Zm15.258,10.7-7.531-3.476h6.728a.9.9,0,0,0,.9-.9v-4.143l4.906,4.906ZM53.3,175.952l-7.961,5.75a5.872,5.872,0,1,0-9.1-6.813l-1.407-1.408,10.919-10.919,10.467,10.467Z" transform="translate(0 -142.313)"/>
    </g>
  </g>
</svg>
