<svg xmlns="http://www.w3.org/2000/svg" xmlns:xlink="http://www.w3.org/1999/xlink" width="264" height="275.927" viewBox="0 0 264 275.927">
  <defs>
    <linearGradient id="linear-gradient" x1="0.5" x2="0.5" y2="1" gradientUnits="objectBoundingBox">
      <stop offset="0" stop-color="#13c7e7"/>
      <stop offset="1" stop-color="#207be9"/>
    </linearGradient>
    <radialGradient id="radial-gradient" cx="0.076" cy="0.019" r="1.465" gradientTransform="translate(0.001)" gradientUnits="objectBoundingBox">
      <stop offset="0" stop-color="#f6f6f7"/>
      <stop offset="0.477" stop-color="#f9f9fa"/>
      <stop offset="0.715" stop-color="#fff"/>
    </radialGradient>
  </defs>
  <g id="Grupo_172816" data-name="Grupo 172816" transform="translate(-285 -1300)">
    <g id="Grupo_157187" data-name="Grupo 157187" transform="translate(285 1300)">
      <ellipse id="Elipse_6071" data-name="Elipse 6071" cx="132" cy="131.5" rx="132" ry="131.5" fill="url(#linear-gradient)"/>
    </g>
    <g id="Grupo_156564" data-name="Grupo 156564" transform="translate(449.456 1494.465)" opacity="0.5" style="mix-blend-mode: screen;isolation: isolate">
      <g id="Grupo_156551" data-name="Grupo 156551" transform="translate(0.001 0)">
        <path id="Trazado_196993" data-name="Trazado 196993" d="M570.008,362.139a1.3,1.3,0,1,1-1.3-1.3A1.3,1.3,0,0,1,570.008,362.139Z" transform="translate(-567.416 -360.843)" fill="#fff"/>
        <path id="Trazado_196994" data-name="Trazado 196994" d="M575.268,362.139a1.3,1.3,0,1,1-1.3-1.3A1.3,1.3,0,0,1,575.268,362.139Z" transform="translate(-566.217 -360.843)" fill="#fff"/>
        <path id="Trazado_196995" data-name="Trazado 196995" d="M580.528,362.139a1.3,1.3,0,1,1-1.3-1.3A1.3,1.3,0,0,1,580.528,362.139Z" transform="translate(-565.017 -360.843)" fill="#fff"/>
        <path id="Trazado_196996" data-name="Trazado 196996" d="M585.788,362.139a1.3,1.3,0,1,1-1.3-1.3A1.3,1.3,0,0,1,585.788,362.139Z" transform="translate(-563.818 -360.843)" fill="#fff"/>
        <path id="Trazado_196997" data-name="Trazado 196997" d="M591.048,362.139a1.3,1.3,0,1,1-1.3-1.3A1.3,1.3,0,0,1,591.048,362.139Z" transform="translate(-562.618 -360.843)" fill="#fff"/>
        <path id="Trazado_196998" data-name="Trazado 196998" d="M596.31,362.139a1.3,1.3,0,1,1-1.3-1.3A1.3,1.3,0,0,1,596.31,362.139Z" transform="translate(-561.419 -360.843)" fill="#fff"/>
        <path id="Trazado_196999" data-name="Trazado 196999" d="M601.57,362.139a1.3,1.3,0,1,1-1.3-1.3A1.3,1.3,0,0,1,601.57,362.139Z" transform="translate(-560.22 -360.843)" fill="#fff"/>
        <path id="Trazado_197000" data-name="Trazado 197000" d="M606.83,362.139a1.3,1.3,0,1,1-1.3-1.3A1.3,1.3,0,0,1,606.83,362.139Z" transform="translate(-559.02 -360.843)" fill="#fff"/>
        <path id="Trazado_197001" data-name="Trazado 197001" d="M612.09,362.139a1.3,1.3,0,1,1-1.3-1.3A1.3,1.3,0,0,1,612.09,362.139Z" transform="translate(-557.821 -360.843)" fill="#fff"/>
        <path id="Trazado_197002" data-name="Trazado 197002" d="M617.349,362.139a1.3,1.3,0,1,1-1.3-1.3A1.3,1.3,0,0,1,617.349,362.139Z" transform="translate(-556.621 -360.843)" fill="#fff"/>
        <path id="Trazado_197003" data-name="Trazado 197003" d="M622.61,362.139a1.3,1.3,0,1,1-1.3-1.3A1.3,1.3,0,0,1,622.61,362.139Z" transform="translate(-555.422 -360.843)" fill="#fff"/>
        <path id="Trazado_197004" data-name="Trazado 197004" d="M627.869,362.139a1.3,1.3,0,1,1-1.3-1.3A1.3,1.3,0,0,1,627.869,362.139Z" transform="translate(-554.222 -360.843)" fill="#fff"/>
        <path id="Trazado_197005" data-name="Trazado 197005" d="M633.129,362.139a1.3,1.3,0,1,1-1.3-1.3A1.3,1.3,0,0,1,633.129,362.139Z" transform="translate(-553.023 -360.843)" fill="#fff"/>
        <path id="Trazado_197006" data-name="Trazado 197006" d="M638.389,362.139a1.3,1.3,0,1,1-1.3-1.3A1.3,1.3,0,0,1,638.389,362.139Z" transform="translate(-551.824 -360.843)" fill="#fff"/>
      </g>
      <g id="Grupo_156552" data-name="Grupo 156552" transform="translate(0 6.572)">
        <circle id="Elipse_6073" data-name="Elipse 6073" cx="1.297" cy="1.297" r="1.297" fill="#fff"/>
        <circle id="Elipse_6074" data-name="Elipse 6074" cx="1.297" cy="1.297" r="1.297" transform="translate(6.459)" fill="#fff"/>
        <path id="Trazado_197007" data-name="Trazado 197007" d="M580.528,367.491a1.3,1.3,0,1,1-1.3-1.3A1.3,1.3,0,0,1,580.528,367.491Z" transform="translate(-565.017 -366.195)" fill="#fff"/>
        <path id="Trazado_197008" data-name="Trazado 197008" d="M585.788,367.491a1.3,1.3,0,1,1-1.3-1.3A1.3,1.3,0,0,1,585.788,367.491Z" transform="translate(-563.817 -366.195)" fill="#fff"/>
        <path id="Trazado_197009" data-name="Trazado 197009" d="M591.048,367.491a1.3,1.3,0,1,1-1.3-1.3A1.3,1.3,0,0,1,591.048,367.491Z" transform="translate(-562.618 -366.195)" fill="#fff"/>
        <path id="Trazado_197010" data-name="Trazado 197010" d="M596.31,367.491a1.3,1.3,0,1,1-1.3-1.3A1.3,1.3,0,0,1,596.31,367.491Z" transform="translate(-561.418 -366.195)" fill="#fff"/>
        <path id="Trazado_197011" data-name="Trazado 197011" d="M601.57,367.491a1.3,1.3,0,1,1-1.3-1.3A1.3,1.3,0,0,1,601.57,367.491Z" transform="translate(-560.219 -366.195)" fill="#fff"/>
        <path id="Trazado_197012" data-name="Trazado 197012" d="M606.83,367.491a1.3,1.3,0,1,1-1.3-1.3A1.3,1.3,0,0,1,606.83,367.491Z" transform="translate(-559.02 -366.195)" fill="#fff"/>
        <circle id="Elipse_6075" data-name="Elipse 6075" cx="1.297" cy="1.297" r="1.297" transform="translate(51.676)" fill="#fff"/>
        <circle id="Elipse_6076" data-name="Elipse 6076" cx="1.297" cy="1.297" r="1.297" transform="translate(58.136)" fill="#fff"/>
        <circle id="Elipse_6077" data-name="Elipse 6077" cx="1.297" cy="1.297" r="1.297" transform="translate(64.595)" fill="#fff"/>
        <path id="Trazado_197013" data-name="Trazado 197013" d="M627.869,367.491a1.3,1.3,0,1,1-1.3-1.3A1.3,1.3,0,0,1,627.869,367.491Z" transform="translate(-554.222 -366.195)" fill="#fff"/>
        <path id="Trazado_197014" data-name="Trazado 197014" d="M633.129,367.491a1.3,1.3,0,1,1-1.3-1.3A1.3,1.3,0,0,1,633.129,367.491Z" transform="translate(-553.022 -366.195)" fill="#fff"/>
        <path id="Trazado_197015" data-name="Trazado 197015" d="M638.389,367.491a1.3,1.3,0,1,1-1.3-1.3A1.3,1.3,0,0,1,638.389,367.491Z" transform="translate(-551.823 -366.195)" fill="#fff"/>
      </g>
      <g id="Grupo_156553" data-name="Grupo 156553" transform="translate(0 13.145)">
        <circle id="Elipse_6078" data-name="Elipse 6078" cx="1.297" cy="1.297" r="1.297" fill="#fff"/>
        <circle id="Elipse_6079" data-name="Elipse 6079" cx="1.297" cy="1.297" r="1.297" transform="translate(6.459)" fill="#fff"/>
        <path id="Trazado_197016" data-name="Trazado 197016" d="M580.528,372.844a1.3,1.3,0,1,1-1.3-1.3A1.3,1.3,0,0,1,580.528,372.844Z" transform="translate(-565.017 -371.547)" fill="#fff"/>
        <path id="Trazado_197017" data-name="Trazado 197017" d="M585.788,372.844a1.3,1.3,0,1,1-1.3-1.3A1.3,1.3,0,0,1,585.788,372.844Z" transform="translate(-563.817 -371.547)" fill="#fff"/>
        <path id="Trazado_197018" data-name="Trazado 197018" d="M591.048,372.844a1.3,1.3,0,1,1-1.3-1.3A1.3,1.3,0,0,1,591.048,372.844Z" transform="translate(-562.618 -371.547)" fill="#fff"/>
        <path id="Trazado_197019" data-name="Trazado 197019" d="M596.31,372.844a1.3,1.3,0,1,1-1.3-1.3A1.3,1.3,0,0,1,596.31,372.844Z" transform="translate(-561.418 -371.547)" fill="#fff"/>
        <path id="Trazado_197020" data-name="Trazado 197020" d="M601.57,372.844a1.3,1.3,0,1,1-1.3-1.3A1.3,1.3,0,0,1,601.57,372.844Z" transform="translate(-560.219 -371.547)" fill="#fff"/>
        <path id="Trazado_197021" data-name="Trazado 197021" d="M606.83,372.844a1.3,1.3,0,1,1-1.3-1.3A1.3,1.3,0,0,1,606.83,372.844Z" transform="translate(-559.02 -371.547)" fill="#fff"/>
        <circle id="Elipse_6080" data-name="Elipse 6080" cx="1.297" cy="1.297" r="1.297" transform="translate(51.676)" fill="#fff"/>
        <circle id="Elipse_6081" data-name="Elipse 6081" cx="1.297" cy="1.297" r="1.297" transform="translate(58.136)" fill="#fff"/>
        <circle id="Elipse_6082" data-name="Elipse 6082" cx="1.297" cy="1.297" r="1.297" transform="translate(64.595)" fill="#fff"/>
        <path id="Trazado_197022" data-name="Trazado 197022" d="M627.869,372.844a1.3,1.3,0,1,1-1.3-1.3A1.3,1.3,0,0,1,627.869,372.844Z" transform="translate(-554.222 -371.547)" fill="#fff"/>
        <path id="Trazado_197023" data-name="Trazado 197023" d="M633.129,372.844a1.3,1.3,0,1,1-1.3-1.3A1.3,1.3,0,0,1,633.129,372.844Z" transform="translate(-553.022 -371.547)" fill="#fff"/>
        <path id="Trazado_197024" data-name="Trazado 197024" d="M638.389,372.844a1.3,1.3,0,1,1-1.3-1.3A1.3,1.3,0,0,1,638.389,372.844Z" transform="translate(-551.823 -371.547)" fill="#fff"/>
      </g>
      <g id="Grupo_156554" data-name="Grupo 156554" transform="translate(0.001 19.717)">
        <path id="Trazado_197025" data-name="Trazado 197025" d="M570.008,378.2a1.3,1.3,0,1,1-1.3-1.3A1.3,1.3,0,0,1,570.008,378.2Z" transform="translate(-567.416 -376.899)" fill="#fff"/>
        <path id="Trazado_197026" data-name="Trazado 197026" d="M575.268,378.2a1.3,1.3,0,1,1-1.3-1.3A1.3,1.3,0,0,1,575.268,378.2Z" transform="translate(-566.217 -376.899)" fill="#fff"/>
        <path id="Trazado_197027" data-name="Trazado 197027" d="M580.528,378.2a1.3,1.3,0,1,1-1.3-1.3A1.3,1.3,0,0,1,580.528,378.2Z" transform="translate(-565.017 -376.899)" fill="#fff"/>
        <path id="Trazado_197028" data-name="Trazado 197028" d="M585.788,378.2a1.3,1.3,0,1,1-1.3-1.3A1.3,1.3,0,0,1,585.788,378.2Z" transform="translate(-563.818 -376.899)" fill="#fff"/>
        <path id="Trazado_197029" data-name="Trazado 197029" d="M591.048,378.2a1.3,1.3,0,1,1-1.3-1.3A1.3,1.3,0,0,1,591.048,378.2Z" transform="translate(-562.618 -376.899)" fill="#fff"/>
        <path id="Trazado_197030" data-name="Trazado 197030" d="M596.31,378.2a1.3,1.3,0,1,1-1.3-1.3A1.3,1.3,0,0,1,596.31,378.2Z" transform="translate(-561.419 -376.899)" fill="#fff"/>
        <path id="Trazado_197031" data-name="Trazado 197031" d="M601.57,378.2a1.3,1.3,0,1,1-1.3-1.3A1.3,1.3,0,0,1,601.57,378.2Z" transform="translate(-560.22 -376.899)" fill="#fff"/>
        <path id="Trazado_197032" data-name="Trazado 197032" d="M606.83,378.2a1.3,1.3,0,1,1-1.3-1.3A1.3,1.3,0,0,1,606.83,378.2Z" transform="translate(-559.02 -376.899)" fill="#fff"/>
        <path id="Trazado_197033" data-name="Trazado 197033" d="M612.09,378.2a1.3,1.3,0,1,1-1.3-1.3A1.3,1.3,0,0,1,612.09,378.2Z" transform="translate(-557.821 -376.899)" fill="#fff"/>
        <path id="Trazado_197034" data-name="Trazado 197034" d="M617.349,378.2a1.3,1.3,0,1,1-1.3-1.3A1.3,1.3,0,0,1,617.349,378.2Z" transform="translate(-556.621 -376.899)" fill="#fff"/>
        <path id="Trazado_197035" data-name="Trazado 197035" d="M622.61,378.2a1.3,1.3,0,1,1-1.3-1.3A1.3,1.3,0,0,1,622.61,378.2Z" transform="translate(-555.422 -376.899)" fill="#fff"/>
        <path id="Trazado_197036" data-name="Trazado 197036" d="M627.869,378.2a1.3,1.3,0,1,1-1.3-1.3A1.3,1.3,0,0,1,627.869,378.2Z" transform="translate(-554.222 -376.899)" fill="#fff"/>
        <path id="Trazado_197037" data-name="Trazado 197037" d="M633.129,378.2a1.3,1.3,0,1,1-1.3-1.3A1.3,1.3,0,0,1,633.129,378.2Z" transform="translate(-553.023 -376.899)" fill="#fff"/>
        <path id="Trazado_197038" data-name="Trazado 197038" d="M638.389,378.2a1.3,1.3,0,1,1-1.3-1.3A1.3,1.3,0,0,1,638.389,378.2Z" transform="translate(-551.824 -376.899)" fill="#fff"/>
      </g>
      <g id="Grupo_156555" data-name="Grupo 156555" transform="translate(0.001 26.29)">
        <path id="Trazado_197039" data-name="Trazado 197039" d="M570.008,383.548a1.3,1.3,0,1,1-1.3-1.3A1.3,1.3,0,0,1,570.008,383.548Z" transform="translate(-567.416 -382.251)" fill="#fff"/>
        <path id="Trazado_197040" data-name="Trazado 197040" d="M575.268,383.548a1.3,1.3,0,1,1-1.3-1.3A1.3,1.3,0,0,1,575.268,383.548Z" transform="translate(-566.217 -382.251)" fill="#fff"/>
        <path id="Trazado_197041" data-name="Trazado 197041" d="M580.528,383.548a1.3,1.3,0,1,1-1.3-1.3A1.3,1.3,0,0,1,580.528,383.548Z" transform="translate(-565.017 -382.251)" fill="#fff"/>
        <path id="Trazado_197042" data-name="Trazado 197042" d="M585.788,383.548a1.3,1.3,0,1,1-1.3-1.3A1.295,1.295,0,0,1,585.788,383.548Z" transform="translate(-563.818 -382.251)" fill="#fff"/>
        <path id="Trazado_197043" data-name="Trazado 197043" d="M591.048,383.548a1.3,1.3,0,1,1-1.3-1.3A1.3,1.3,0,0,1,591.048,383.548Z" transform="translate(-562.618 -382.251)" fill="#fff"/>
        <path id="Trazado_197044" data-name="Trazado 197044" d="M596.31,383.548a1.3,1.3,0,1,1-1.3-1.3A1.3,1.3,0,0,1,596.31,383.548Z" transform="translate(-561.419 -382.251)" fill="#fff"/>
        <path id="Trazado_197045" data-name="Trazado 197045" d="M601.57,383.548a1.3,1.3,0,1,1-1.3-1.3A1.3,1.3,0,0,1,601.57,383.548Z" transform="translate(-560.22 -382.251)" fill="#fff"/>
        <path id="Trazado_197046" data-name="Trazado 197046" d="M606.83,383.548a1.3,1.3,0,1,1-1.3-1.3A1.3,1.3,0,0,1,606.83,383.548Z" transform="translate(-559.02 -382.251)" fill="#fff"/>
        <path id="Trazado_197047" data-name="Trazado 197047" d="M612.09,383.548a1.3,1.3,0,1,1-1.3-1.3A1.3,1.3,0,0,1,612.09,383.548Z" transform="translate(-557.821 -382.251)" fill="#fff"/>
        <path id="Trazado_197048" data-name="Trazado 197048" d="M617.349,383.548a1.3,1.3,0,1,1-1.3-1.3A1.3,1.3,0,0,1,617.349,383.548Z" transform="translate(-556.621 -382.251)" fill="#fff"/>
        <path id="Trazado_197049" data-name="Trazado 197049" d="M622.61,383.548a1.3,1.3,0,1,1-1.3-1.3A1.3,1.3,0,0,1,622.61,383.548Z" transform="translate(-555.422 -382.251)" fill="#fff"/>
        <path id="Trazado_197050" data-name="Trazado 197050" d="M627.869,383.548a1.3,1.3,0,1,1-1.3-1.3A1.3,1.3,0,0,1,627.869,383.548Z" transform="translate(-554.222 -382.251)" fill="#fff"/>
        <path id="Trazado_197051" data-name="Trazado 197051" d="M633.129,383.548a1.3,1.3,0,1,1-1.3-1.3A1.3,1.3,0,0,1,633.129,383.548Z" transform="translate(-553.023 -382.251)" fill="#fff"/>
        <path id="Trazado_197052" data-name="Trazado 197052" d="M638.389,383.548a1.3,1.3,0,1,1-1.3-1.3A1.3,1.3,0,0,1,638.389,383.548Z" transform="translate(-551.824 -382.251)" fill="#fff"/>
      </g>
      <g id="Grupo_156556" data-name="Grupo 156556" transform="translate(0.001 32.862)">
        <path id="Trazado_197053" data-name="Trazado 197053" d="M570.008,388.9a1.3,1.3,0,1,1-1.3-1.3A1.3,1.3,0,0,1,570.008,388.9Z" transform="translate(-567.416 -387.603)" fill="#fff"/>
        <path id="Trazado_197054" data-name="Trazado 197054" d="M575.268,388.9a1.3,1.3,0,1,1-1.3-1.3A1.3,1.3,0,0,1,575.268,388.9Z" transform="translate(-566.217 -387.603)" fill="#fff"/>
        <path id="Trazado_197055" data-name="Trazado 197055" d="M580.528,388.9a1.3,1.3,0,1,1-1.3-1.3A1.3,1.3,0,0,1,580.528,388.9Z" transform="translate(-565.017 -387.603)" fill="#fff"/>
        <path id="Trazado_197056" data-name="Trazado 197056" d="M585.788,388.9a1.3,1.3,0,1,1-1.3-1.3A1.3,1.3,0,0,1,585.788,388.9Z" transform="translate(-563.818 -387.603)" fill="#fff"/>
        <path id="Trazado_197057" data-name="Trazado 197057" d="M591.048,388.9a1.3,1.3,0,1,1-1.3-1.3A1.3,1.3,0,0,1,591.048,388.9Z" transform="translate(-562.618 -387.603)" fill="#fff"/>
        <path id="Trazado_197058" data-name="Trazado 197058" d="M596.31,388.9a1.3,1.3,0,1,1-1.3-1.3A1.3,1.3,0,0,1,596.31,388.9Z" transform="translate(-561.419 -387.603)" fill="#fff"/>
        <path id="Trazado_197059" data-name="Trazado 197059" d="M601.57,388.9a1.3,1.3,0,1,1-1.3-1.3A1.3,1.3,0,0,1,601.57,388.9Z" transform="translate(-560.22 -387.603)" fill="#fff"/>
        <path id="Trazado_197060" data-name="Trazado 197060" d="M606.83,388.9a1.3,1.3,0,1,1-1.3-1.3A1.3,1.3,0,0,1,606.83,388.9Z" transform="translate(-559.02 -387.603)" fill="#fff"/>
        <path id="Trazado_197061" data-name="Trazado 197061" d="M612.09,388.9a1.3,1.3,0,1,1-1.3-1.3A1.3,1.3,0,0,1,612.09,388.9Z" transform="translate(-557.821 -387.603)" fill="#fff"/>
        <path id="Trazado_197062" data-name="Trazado 197062" d="M617.349,388.9a1.3,1.3,0,1,1-1.3-1.3A1.3,1.3,0,0,1,617.349,388.9Z" transform="translate(-556.621 -387.603)" fill="#fff"/>
        <path id="Trazado_197063" data-name="Trazado 197063" d="M622.61,388.9a1.3,1.3,0,1,1-1.3-1.3A1.3,1.3,0,0,1,622.61,388.9Z" transform="translate(-555.422 -387.603)" fill="#fff"/>
        <path id="Trazado_197064" data-name="Trazado 197064" d="M627.869,388.9a1.3,1.3,0,1,1-1.3-1.3A1.3,1.3,0,0,1,627.869,388.9Z" transform="translate(-554.222 -387.603)" fill="#fff"/>
        <path id="Trazado_197065" data-name="Trazado 197065" d="M633.129,388.9a1.3,1.3,0,1,1-1.3-1.3A1.3,1.3,0,0,1,633.129,388.9Z" transform="translate(-553.023 -387.603)" fill="#fff"/>
        <path id="Trazado_197066" data-name="Trazado 197066" d="M638.389,388.9a1.3,1.3,0,1,1-1.3-1.3A1.3,1.3,0,0,1,638.389,388.9Z" transform="translate(-551.824 -387.603)" fill="#fff"/>
      </g>
      <g id="Grupo_156557" data-name="Grupo 156557" transform="translate(0 39.435)">
        <circle id="Elipse_6083" data-name="Elipse 6083" cx="1.297" cy="1.297" r="1.297" fill="#fff"/>
        <circle id="Elipse_6084" data-name="Elipse 6084" cx="1.297" cy="1.297" r="1.297" transform="translate(6.459)" fill="#fff"/>
        <path id="Trazado_197067" data-name="Trazado 197067" d="M580.528,394.252a1.3,1.3,0,1,1-1.3-1.3A1.3,1.3,0,0,1,580.528,394.252Z" transform="translate(-565.017 -392.955)" fill="#fff"/>
        <path id="Trazado_197068" data-name="Trazado 197068" d="M585.788,394.252a1.3,1.3,0,1,1-1.3-1.3A1.3,1.3,0,0,1,585.788,394.252Z" transform="translate(-563.817 -392.955)" fill="#fff"/>
        <path id="Trazado_197069" data-name="Trazado 197069" d="M591.048,394.252a1.3,1.3,0,1,1-1.3-1.3A1.3,1.3,0,0,1,591.048,394.252Z" transform="translate(-562.618 -392.955)" fill="#fff"/>
        <path id="Trazado_197070" data-name="Trazado 197070" d="M596.31,394.252a1.3,1.3,0,1,1-1.3-1.3A1.3,1.3,0,0,1,596.31,394.252Z" transform="translate(-561.418 -392.955)" fill="#fff"/>
        <path id="Trazado_197071" data-name="Trazado 197071" d="M601.57,394.252a1.3,1.3,0,1,1-1.3-1.3A1.3,1.3,0,0,1,601.57,394.252Z" transform="translate(-560.219 -392.955)" fill="#fff"/>
        <path id="Trazado_197072" data-name="Trazado 197072" d="M606.83,394.252a1.3,1.3,0,1,1-1.3-1.3A1.3,1.3,0,0,1,606.83,394.252Z" transform="translate(-559.02 -392.955)" fill="#fff"/>
        <circle id="Elipse_6085" data-name="Elipse 6085" cx="1.297" cy="1.297" r="1.297" transform="translate(51.676)" fill="#fff"/>
        <circle id="Elipse_6086" data-name="Elipse 6086" cx="1.297" cy="1.297" r="1.297" transform="translate(58.136)" fill="#fff"/>
        <circle id="Elipse_6087" data-name="Elipse 6087" cx="1.297" cy="1.297" r="1.297" transform="translate(64.595)" fill="#fff"/>
        <path id="Trazado_197073" data-name="Trazado 197073" d="M627.869,394.252a1.3,1.3,0,1,1-1.3-1.3A1.3,1.3,0,0,1,627.869,394.252Z" transform="translate(-554.222 -392.955)" fill="#fff"/>
        <path id="Trazado_197074" data-name="Trazado 197074" d="M633.129,394.252a1.3,1.3,0,1,1-1.3-1.3A1.3,1.3,0,0,1,633.129,394.252Z" transform="translate(-553.022 -392.955)" fill="#fff"/>
        <path id="Trazado_197075" data-name="Trazado 197075" d="M638.389,394.252a1.3,1.3,0,1,1-1.3-1.3A1.3,1.3,0,0,1,638.389,394.252Z" transform="translate(-551.823 -392.955)" fill="#fff"/>
      </g>
      <g id="Grupo_156558" data-name="Grupo 156558" transform="translate(0.001 46.007)">
        <path id="Trazado_197076" data-name="Trazado 197076" d="M570.008,399.6a1.3,1.3,0,1,1-1.3-1.3A1.3,1.3,0,0,1,570.008,399.6Z" transform="translate(-567.416 -398.307)" fill="#fff"/>
        <path id="Trazado_197077" data-name="Trazado 197077" d="M575.268,399.6a1.3,1.3,0,1,1-1.3-1.3A1.3,1.3,0,0,1,575.268,399.6Z" transform="translate(-566.217 -398.307)" fill="#fff"/>
        <path id="Trazado_197078" data-name="Trazado 197078" d="M580.528,399.6a1.3,1.3,0,1,1-1.3-1.3A1.3,1.3,0,0,1,580.528,399.6Z" transform="translate(-565.017 -398.307)" fill="#fff"/>
        <path id="Trazado_197079" data-name="Trazado 197079" d="M585.788,399.6a1.3,1.3,0,1,1-1.3-1.3A1.3,1.3,0,0,1,585.788,399.6Z" transform="translate(-563.818 -398.307)" fill="#fff"/>
        <path id="Trazado_197080" data-name="Trazado 197080" d="M591.048,399.6a1.3,1.3,0,1,1-1.3-1.3A1.3,1.3,0,0,1,591.048,399.6Z" transform="translate(-562.618 -398.307)" fill="#fff"/>
        <path id="Trazado_197081" data-name="Trazado 197081" d="M596.31,399.6a1.3,1.3,0,1,1-1.3-1.3A1.3,1.3,0,0,1,596.31,399.6Z" transform="translate(-561.419 -398.307)" fill="#fff"/>
        <path id="Trazado_197082" data-name="Trazado 197082" d="M601.57,399.6a1.3,1.3,0,1,1-1.3-1.3A1.3,1.3,0,0,1,601.57,399.6Z" transform="translate(-560.22 -398.307)" fill="#fff"/>
        <path id="Trazado_197083" data-name="Trazado 197083" d="M606.83,399.6a1.3,1.3,0,1,1-1.3-1.3A1.3,1.3,0,0,1,606.83,399.6Z" transform="translate(-559.02 -398.307)" fill="#fff"/>
        <path id="Trazado_197084" data-name="Trazado 197084" d="M612.09,399.6a1.3,1.3,0,1,1-1.3-1.3A1.3,1.3,0,0,1,612.09,399.6Z" transform="translate(-557.821 -398.307)" fill="#fff"/>
        <path id="Trazado_197085" data-name="Trazado 197085" d="M617.349,399.6a1.3,1.3,0,1,1-1.3-1.3A1.3,1.3,0,0,1,617.349,399.6Z" transform="translate(-556.621 -398.307)" fill="#fff"/>
        <path id="Trazado_197086" data-name="Trazado 197086" d="M622.61,399.6a1.3,1.3,0,1,1-1.3-1.3A1.3,1.3,0,0,1,622.61,399.6Z" transform="translate(-555.422 -398.307)" fill="#fff"/>
        <path id="Trazado_197087" data-name="Trazado 197087" d="M627.869,399.6a1.3,1.3,0,1,1-1.3-1.3A1.3,1.3,0,0,1,627.869,399.6Z" transform="translate(-554.222 -398.307)" fill="#fff"/>
        <path id="Trazado_197088" data-name="Trazado 197088" d="M633.129,399.6a1.3,1.3,0,1,1-1.3-1.3A1.3,1.3,0,0,1,633.129,399.6Z" transform="translate(-553.023 -398.307)" fill="#fff"/>
        <path id="Trazado_197089" data-name="Trazado 197089" d="M638.389,399.6a1.3,1.3,0,1,1-1.3-1.3A1.3,1.3,0,0,1,638.389,399.6Z" transform="translate(-551.824 -398.307)" fill="#fff"/>
      </g>
      <g id="Grupo_156559" data-name="Grupo 156559" transform="translate(0.001 52.579)">
        <path id="Trazado_197090" data-name="Trazado 197090" d="M570.008,404.956a1.3,1.3,0,1,1-1.3-1.3A1.3,1.3,0,0,1,570.008,404.956Z" transform="translate(-567.416 -403.659)" fill="#fff"/>
        <path id="Trazado_197091" data-name="Trazado 197091" d="M575.268,404.956a1.3,1.3,0,1,1-1.3-1.3A1.3,1.3,0,0,1,575.268,404.956Z" transform="translate(-566.217 -403.659)" fill="#fff"/>
        <path id="Trazado_197092" data-name="Trazado 197092" d="M580.528,404.956a1.3,1.3,0,1,1-1.3-1.3A1.3,1.3,0,0,1,580.528,404.956Z" transform="translate(-565.017 -403.659)" fill="#fff"/>
        <path id="Trazado_197093" data-name="Trazado 197093" d="M585.788,404.956a1.3,1.3,0,1,1-1.3-1.3A1.3,1.3,0,0,1,585.788,404.956Z" transform="translate(-563.818 -403.659)" fill="#fff"/>
        <path id="Trazado_197094" data-name="Trazado 197094" d="M591.048,404.956a1.3,1.3,0,1,1-1.3-1.3A1.3,1.3,0,0,1,591.048,404.956Z" transform="translate(-562.618 -403.659)" fill="#fff"/>
        <path id="Trazado_197095" data-name="Trazado 197095" d="M596.31,404.956a1.3,1.3,0,1,1-1.3-1.3A1.3,1.3,0,0,1,596.31,404.956Z" transform="translate(-561.419 -403.659)" fill="#fff"/>
        <path id="Trazado_197096" data-name="Trazado 197096" d="M601.57,404.956a1.3,1.3,0,1,1-1.3-1.3A1.3,1.3,0,0,1,601.57,404.956Z" transform="translate(-560.22 -403.659)" fill="#fff"/>
        <path id="Trazado_197097" data-name="Trazado 197097" d="M606.83,404.956a1.3,1.3,0,1,1-1.3-1.3A1.3,1.3,0,0,1,606.83,404.956Z" transform="translate(-559.02 -403.659)" fill="#fff"/>
        <path id="Trazado_197098" data-name="Trazado 197098" d="M612.09,404.956a1.3,1.3,0,1,1-1.3-1.3A1.3,1.3,0,0,1,612.09,404.956Z" transform="translate(-557.821 -403.659)" fill="#fff"/>
        <path id="Trazado_197099" data-name="Trazado 197099" d="M617.349,404.956a1.3,1.3,0,1,1-1.3-1.3A1.3,1.3,0,0,1,617.349,404.956Z" transform="translate(-556.621 -403.659)" fill="#fff"/>
        <path id="Trazado_197100" data-name="Trazado 197100" d="M622.61,404.956a1.3,1.3,0,1,1-1.3-1.3A1.3,1.3,0,0,1,622.61,404.956Z" transform="translate(-555.422 -403.659)" fill="#fff"/>
        <path id="Trazado_197101" data-name="Trazado 197101" d="M627.869,404.956a1.3,1.3,0,1,1-1.3-1.3A1.3,1.3,0,0,1,627.869,404.956Z" transform="translate(-554.222 -403.659)" fill="#fff"/>
        <path id="Trazado_197102" data-name="Trazado 197102" d="M633.129,404.956a1.3,1.3,0,1,1-1.3-1.3A1.3,1.3,0,0,1,633.129,404.956Z" transform="translate(-553.023 -403.659)" fill="#fff"/>
        <path id="Trazado_197103" data-name="Trazado 197103" d="M638.389,404.956a1.3,1.3,0,1,1-1.3-1.3A1.3,1.3,0,0,1,638.389,404.956Z" transform="translate(-551.824 -403.659)" fill="#fff"/>
      </g>
      <g id="Grupo_156560" data-name="Grupo 156560" transform="translate(0.001 59.152)">
        <path id="Trazado_197104" data-name="Trazado 197104" d="M570.008,410.308a1.3,1.3,0,1,1-1.3-1.3A1.3,1.3,0,0,1,570.008,410.308Z" transform="translate(-567.416 -409.011)" fill="#fff"/>
        <path id="Trazado_197105" data-name="Trazado 197105" d="M575.268,410.308a1.3,1.3,0,1,1-1.3-1.3A1.3,1.3,0,0,1,575.268,410.308Z" transform="translate(-566.217 -409.011)" fill="#fff"/>
        <path id="Trazado_197106" data-name="Trazado 197106" d="M580.528,410.308a1.3,1.3,0,1,1-1.3-1.3A1.3,1.3,0,0,1,580.528,410.308Z" transform="translate(-565.017 -409.011)" fill="#fff"/>
        <path id="Trazado_197107" data-name="Trazado 197107" d="M585.788,410.308a1.3,1.3,0,1,1-1.3-1.3A1.3,1.3,0,0,1,585.788,410.308Z" transform="translate(-563.818 -409.011)" fill="#fff"/>
        <path id="Trazado_197108" data-name="Trazado 197108" d="M591.048,410.308a1.3,1.3,0,1,1-1.3-1.3A1.3,1.3,0,0,1,591.048,410.308Z" transform="translate(-562.618 -409.011)" fill="#fff"/>
        <path id="Trazado_197109" data-name="Trazado 197109" d="M596.31,410.308a1.3,1.3,0,1,1-1.3-1.3A1.3,1.3,0,0,1,596.31,410.308Z" transform="translate(-561.419 -409.011)" fill="#fff"/>
        <path id="Trazado_197110" data-name="Trazado 197110" d="M601.57,410.308a1.3,1.3,0,1,1-1.3-1.3A1.3,1.3,0,0,1,601.57,410.308Z" transform="translate(-560.22 -409.011)" fill="#fff"/>
        <path id="Trazado_197111" data-name="Trazado 197111" d="M606.83,410.308a1.3,1.3,0,1,1-1.3-1.3A1.3,1.3,0,0,1,606.83,410.308Z" transform="translate(-559.02 -409.011)" fill="#fff"/>
        <path id="Trazado_197112" data-name="Trazado 197112" d="M612.09,410.308a1.3,1.3,0,1,1-1.3-1.3A1.3,1.3,0,0,1,612.09,410.308Z" transform="translate(-557.821 -409.011)" fill="#fff"/>
        <path id="Trazado_197113" data-name="Trazado 197113" d="M617.349,410.308a1.3,1.3,0,1,1-1.3-1.3A1.3,1.3,0,0,1,617.349,410.308Z" transform="translate(-556.621 -409.011)" fill="#fff"/>
        <path id="Trazado_197114" data-name="Trazado 197114" d="M622.61,410.308a1.3,1.3,0,1,1-1.3-1.3A1.3,1.3,0,0,1,622.61,410.308Z" transform="translate(-555.422 -409.011)" fill="#fff"/>
        <path id="Trazado_197115" data-name="Trazado 197115" d="M627.869,410.308a1.3,1.3,0,1,1-1.3-1.3A1.3,1.3,0,0,1,627.869,410.308Z" transform="translate(-554.222 -409.011)" fill="#fff"/>
        <path id="Trazado_197116" data-name="Trazado 197116" d="M633.129,410.308a1.3,1.3,0,1,1-1.3-1.3A1.3,1.3,0,0,1,633.129,410.308Z" transform="translate(-553.023 -409.011)" fill="#fff"/>
        <path id="Trazado_197117" data-name="Trazado 197117" d="M638.389,410.308a1.3,1.3,0,1,1-1.3-1.3A1.3,1.3,0,0,1,638.389,410.308Z" transform="translate(-551.824 -409.011)" fill="#fff"/>
      </g>
      <g id="Grupo_156561" data-name="Grupo 156561" transform="translate(0.001 65.724)">
        <path id="Trazado_197118" data-name="Trazado 197118" d="M570.008,415.66a1.3,1.3,0,1,1-1.3-1.3A1.3,1.3,0,0,1,570.008,415.66Z" transform="translate(-567.416 -414.363)" fill="#fff"/>
        <path id="Trazado_197119" data-name="Trazado 197119" d="M575.268,415.66a1.3,1.3,0,1,1-1.3-1.3A1.3,1.3,0,0,1,575.268,415.66Z" transform="translate(-566.217 -414.363)" fill="#fff"/>
        <path id="Trazado_197120" data-name="Trazado 197120" d="M580.528,415.66a1.3,1.3,0,1,1-1.3-1.3A1.3,1.3,0,0,1,580.528,415.66Z" transform="translate(-565.017 -414.363)" fill="#fff"/>
        <path id="Trazado_197121" data-name="Trazado 197121" d="M585.788,415.66a1.3,1.3,0,1,1-1.3-1.3A1.3,1.3,0,0,1,585.788,415.66Z" transform="translate(-563.818 -414.363)" fill="#fff"/>
        <path id="Trazado_197122" data-name="Trazado 197122" d="M591.048,415.66a1.3,1.3,0,1,1-1.3-1.3A1.3,1.3,0,0,1,591.048,415.66Z" transform="translate(-562.618 -414.363)" fill="#fff"/>
        <path id="Trazado_197123" data-name="Trazado 197123" d="M596.31,415.66a1.3,1.3,0,1,1-1.3-1.3A1.3,1.3,0,0,1,596.31,415.66Z" transform="translate(-561.419 -414.363)" fill="#fff"/>
        <path id="Trazado_197124" data-name="Trazado 197124" d="M601.57,415.66a1.3,1.3,0,1,1-1.3-1.3A1.3,1.3,0,0,1,601.57,415.66Z" transform="translate(-560.22 -414.363)" fill="#fff"/>
        <path id="Trazado_197125" data-name="Trazado 197125" d="M606.83,415.66a1.3,1.3,0,1,1-1.3-1.3A1.3,1.3,0,0,1,606.83,415.66Z" transform="translate(-559.02 -414.363)" fill="#fff"/>
        <path id="Trazado_197126" data-name="Trazado 197126" d="M612.09,415.66a1.3,1.3,0,1,1-1.3-1.3A1.3,1.3,0,0,1,612.09,415.66Z" transform="translate(-557.821 -414.363)" fill="#fff"/>
        <path id="Trazado_197127" data-name="Trazado 197127" d="M617.349,415.66a1.3,1.3,0,1,1-1.3-1.3A1.3,1.3,0,0,1,617.349,415.66Z" transform="translate(-556.621 -414.363)" fill="#fff"/>
        <path id="Trazado_197128" data-name="Trazado 197128" d="M622.61,415.66a1.3,1.3,0,1,1-1.3-1.3A1.3,1.3,0,0,1,622.61,415.66Z" transform="translate(-555.422 -414.363)" fill="#fff"/>
        <path id="Trazado_197129" data-name="Trazado 197129" d="M627.869,415.66a1.3,1.3,0,1,1-1.3-1.3A1.3,1.3,0,0,1,627.869,415.66Z" transform="translate(-554.222 -414.363)" fill="#fff"/>
        <path id="Trazado_197130" data-name="Trazado 197130" d="M633.129,415.66a1.3,1.3,0,1,1-1.3-1.3A1.3,1.3,0,0,1,633.129,415.66Z" transform="translate(-553.023 -414.363)" fill="#fff"/>
        <path id="Trazado_197131" data-name="Trazado 197131" d="M638.389,415.66a1.3,1.3,0,1,1-1.3-1.3A1.3,1.3,0,0,1,638.389,415.66Z" transform="translate(-551.824 -414.363)" fill="#fff"/>
      </g>
      <g id="Grupo_156562" data-name="Grupo 156562" transform="translate(0 72.296)">
        <circle id="Elipse_6088" data-name="Elipse 6088" cx="1.297" cy="1.297" r="1.297" transform="translate(0 0)" fill="#fff"/>
        <circle id="Elipse_6089" data-name="Elipse 6089" cx="1.297" cy="1.297" r="1.297" transform="translate(6.459 0)" fill="#fff"/>
        <path id="Trazado_197132" data-name="Trazado 197132" d="M580.528,421.012a1.3,1.3,0,1,1-1.3-1.3A1.3,1.3,0,0,1,580.528,421.012Z" transform="translate(-565.017 -419.715)" fill="#fff"/>
        <path id="Trazado_197133" data-name="Trazado 197133" d="M585.788,421.012a1.3,1.3,0,1,1-1.3-1.3A1.3,1.3,0,0,1,585.788,421.012Z" transform="translate(-563.817 -419.715)" fill="#fff"/>
        <path id="Trazado_197134" data-name="Trazado 197134" d="M591.048,421.012a1.3,1.3,0,1,1-1.3-1.3A1.3,1.3,0,0,1,591.048,421.012Z" transform="translate(-562.618 -419.715)" fill="#fff"/>
        <path id="Trazado_197135" data-name="Trazado 197135" d="M596.31,421.012a1.3,1.3,0,1,1-1.3-1.3A1.3,1.3,0,0,1,596.31,421.012Z" transform="translate(-561.418 -419.715)" fill="#fff"/>
        <path id="Trazado_197136" data-name="Trazado 197136" d="M601.57,421.012a1.3,1.3,0,1,1-1.3-1.3A1.3,1.3,0,0,1,601.57,421.012Z" transform="translate(-560.219 -419.715)" fill="#fff"/>
        <path id="Trazado_197137" data-name="Trazado 197137" d="M606.83,421.012a1.3,1.3,0,1,1-1.3-1.3A1.3,1.3,0,0,1,606.83,421.012Z" transform="translate(-559.02 -419.715)" fill="#fff"/>
        <circle id="Elipse_6090" data-name="Elipse 6090" cx="1.297" cy="1.297" r="1.297" transform="translate(51.676 0)" fill="#fff"/>
        <circle id="Elipse_6091" data-name="Elipse 6091" cx="1.297" cy="1.297" r="1.297" transform="translate(58.136 0)" fill="#fff"/>
        <circle id="Elipse_6092" data-name="Elipse 6092" cx="1.297" cy="1.297" r="1.297" transform="translate(64.595 0)" fill="#fff"/>
        <path id="Trazado_197138" data-name="Trazado 197138" d="M627.869,421.012a1.3,1.3,0,1,1-1.3-1.3A1.3,1.3,0,0,1,627.869,421.012Z" transform="translate(-554.222 -419.715)" fill="#fff"/>
        <path id="Trazado_197139" data-name="Trazado 197139" d="M633.129,421.012a1.3,1.3,0,1,1-1.3-1.3A1.3,1.3,0,0,1,633.129,421.012Z" transform="translate(-553.022 -419.715)" fill="#fff"/>
        <path id="Trazado_197140" data-name="Trazado 197140" d="M638.389,421.012a1.3,1.3,0,1,1-1.3-1.3A1.3,1.3,0,0,1,638.389,421.012Z" transform="translate(-551.823 -419.715)" fill="#fff"/>
      </g>
      <g id="Grupo_156563" data-name="Grupo 156563" transform="translate(0.001 78.869)">
        <path id="Trazado_197141" data-name="Trazado 197141" d="M570.008,426.364a1.3,1.3,0,1,1-1.3-1.3A1.3,1.3,0,0,1,570.008,426.364Z" transform="translate(-567.416 -425.067)" fill="#fff"/>
        <path id="Trazado_197142" data-name="Trazado 197142" d="M575.268,426.364a1.3,1.3,0,1,1-1.3-1.3A1.3,1.3,0,0,1,575.268,426.364Z" transform="translate(-566.217 -425.067)" fill="#fff"/>
        <path id="Trazado_197143" data-name="Trazado 197143" d="M580.528,426.364a1.3,1.3,0,1,1-1.3-1.3A1.3,1.3,0,0,1,580.528,426.364Z" transform="translate(-565.017 -425.067)" fill="#fff"/>
        <path id="Trazado_197144" data-name="Trazado 197144" d="M585.788,426.364a1.3,1.3,0,1,1-1.3-1.3A1.3,1.3,0,0,1,585.788,426.364Z" transform="translate(-563.818 -425.067)" fill="#fff"/>
        <path id="Trazado_197145" data-name="Trazado 197145" d="M591.048,426.364a1.3,1.3,0,1,1-1.3-1.3A1.3,1.3,0,0,1,591.048,426.364Z" transform="translate(-562.618 -425.067)" fill="#fff"/>
        <path id="Trazado_197146" data-name="Trazado 197146" d="M596.31,426.364a1.3,1.3,0,1,1-1.3-1.3A1.3,1.3,0,0,1,596.31,426.364Z" transform="translate(-561.419 -425.067)" fill="#fff"/>
        <path id="Trazado_197147" data-name="Trazado 197147" d="M601.57,426.364a1.3,1.3,0,1,1-1.3-1.3A1.3,1.3,0,0,1,601.57,426.364Z" transform="translate(-560.22 -425.067)" fill="#fff"/>
        <path id="Trazado_197148" data-name="Trazado 197148" d="M606.83,426.364a1.3,1.3,0,1,1-1.3-1.3A1.3,1.3,0,0,1,606.83,426.364Z" transform="translate(-559.02 -425.067)" fill="#fff"/>
        <path id="Trazado_197149" data-name="Trazado 197149" d="M612.09,426.364a1.3,1.3,0,1,1-1.3-1.3A1.3,1.3,0,0,1,612.09,426.364Z" transform="translate(-557.821 -425.067)" fill="#fff"/>
        <path id="Trazado_197150" data-name="Trazado 197150" d="M617.349,426.364a1.3,1.3,0,1,1-1.3-1.3A1.3,1.3,0,0,1,617.349,426.364Z" transform="translate(-556.621 -425.067)" fill="#fff"/>
        <path id="Trazado_197151" data-name="Trazado 197151" d="M622.61,426.364a1.3,1.3,0,1,1-1.3-1.3A1.3,1.3,0,0,1,622.61,426.364Z" transform="translate(-555.422 -425.067)" fill="#fff"/>
        <path id="Trazado_197152" data-name="Trazado 197152" d="M627.869,426.364a1.3,1.3,0,1,1-1.3-1.3A1.3,1.3,0,0,1,627.869,426.364Z" transform="translate(-554.222 -425.067)" fill="#fff"/>
        <path id="Trazado_197153" data-name="Trazado 197153" d="M633.129,426.364a1.3,1.3,0,1,1-1.3-1.3A1.3,1.3,0,0,1,633.129,426.364Z" transform="translate(-553.023 -425.067)" fill="#fff"/>
        <path id="Trazado_197154" data-name="Trazado 197154" d="M638.389,426.364a1.3,1.3,0,1,1-1.3-1.3A1.3,1.3,0,0,1,638.389,426.364Z" transform="translate(-551.824 -425.067)" fill="#fff"/>
      </g>
    </g>
    <g id="Grupo_172700" data-name="Grupo 172700" transform="translate(308.306 1322.805)">
      <g id="Grupo_18423" data-name="Grupo 18423" transform="translate(0 0)">
        <g id="Grupo_18421" data-name="Grupo 18421">
          <g id="Grupo_18420" data-name="Grupo 18420">
            <g id="Grupo_18419" data-name="Grupo 18419">
              <path id="Trazado_40936" data-name="Trazado 40936" d="M412.012,2254.412a108.694,108.694,0,1,1-108.693-108.691A108.692,108.692,0,0,1,412.012,2254.412Z" transform="translate(-194.623 -2145.721)" fill="#fff"/>
            </g>
          </g>
        </g>
        <path id="Trazado_40937" data-name="Trazado 40937" d="M410.089,2252.316a108.692,108.692,0,1,0-108.693,108.7A108.264,108.264,0,0,0,410.089,2252.316Z" transform="translate(-192.7 -2143.625)" fill="url(#radial-gradient)"/>
        <path id="Trazado_40938" data-name="Trazado 40938" d="M367.1,2235.11a82.966,82.966,0,1,0-82.966,82.966A82.657,82.657,0,0,0,367.1,2235.11Z" transform="translate(-175.112 -2126.057)" fill="none" stroke="#00223d" stroke-miterlimit="10" stroke-width="4"/>
        <g id="Grupo_18422" data-name="Grupo 18422" transform="translate(19.256 61.024)">
          <path id="Trazado_40939" data-name="Trazado 40939" d="M387.687,2164.488a108.707,108.707,0,0,1-187.142,108.244,108.944,108.944,0,0,0,10.818,14.479,108.709,108.709,0,0,0,176.324-122.723Z" transform="translate(-200.545 -2164.488)" fill="#eceef0"/>
        </g>
      </g>
      <g id="lista-de-verificacion_1_" data-name="lista-de-verificacion(1)" transform="translate(61.694 63.481)">
        <g id="Grupo_172699" data-name="Grupo 172699">
          <g id="Grupo_172698" data-name="Grupo 172698">
            <path id="Trazado_213515" data-name="Trazado 213515" d="M93.778,0H4.936A4.936,4.936,0,0,0,0,4.936V93.778a4.936,4.936,0,0,0,4.936,4.936H93.778a4.936,4.936,0,0,0,4.936-4.936V4.936A4.936,4.936,0,0,0,93.778,0Zm1.645,93.778a1.645,1.645,0,0,1-1.645,1.645H4.936a1.645,1.645,0,0,1-1.645-1.645V16.452H95.423V93.778Zm0-80.616H3.291V4.936A1.645,1.645,0,0,1,4.936,3.291H93.778a1.645,1.645,0,0,1,1.645,1.645Z" fill="#00223d"/>
            <path id="Trazado_213516" data-name="Trazado 213516" d="M45.957,34.133H44.312a1.645,1.645,0,0,0,0,3.291h1.645a1.645,1.645,0,0,0,0-3.291Z" transform="translate(-34.441 -27.552)" fill="#00223d"/>
            <path id="Trazado_213517" data-name="Trazado 213517" d="M88.624,34.133H86.979a1.645,1.645,0,1,0,0,3.29h1.645a1.645,1.645,0,0,0,0-3.29Z" transform="translate(-68.882 -27.552)" fill="#00223d"/>
            <path id="Trazado_213518" data-name="Trazado 213518" d="M131.291,34.133h-1.645a1.645,1.645,0,0,0,0,3.29h1.645a1.645,1.645,0,0,0,0-3.29Z" transform="translate(-103.322 -27.552)" fill="#00223d"/>
            <path id="Trazado_213519" data-name="Trazado 213519" d="M447.024,34.133h-1.645a1.645,1.645,0,1,0,0,3.29h1.645a1.645,1.645,0,0,0,0-3.29Z" transform="translate(-358.182 -27.552)" fill="#00223d"/>
            <path id="Trazado_213520" data-name="Trazado 213520" d="M47.6,130.676H67.345a4.936,4.936,0,0,0,4.936-4.936v-9.871a4.936,4.936,0,0,0-4.936-4.936H47.6a4.936,4.936,0,0,0-4.936,4.936v9.871A4.936,4.936,0,0,0,47.6,130.676Zm6.581-16.452H67.345a1.645,1.645,0,0,1,1.645,1.645v9.871a1.645,1.645,0,0,1-1.645,1.645H54.184Zm-8.226,1.645a1.645,1.645,0,0,1,1.645-1.645h3.291v13.162H47.6a1.645,1.645,0,0,1-1.645-1.645v-9.872Z" transform="translate(-34.441 -89.545)" fill="#00223d"/>
            <path id="Trazado_213521" data-name="Trazado 213521" d="M126.048,153.6h-4.936a1.645,1.645,0,1,0,0,3.29h4.936a1.645,1.645,0,1,0,0-3.29Z" transform="translate(-96.434 -123.986)" fill="#00223d"/>
            <path id="Trazado_213522" data-name="Trazado 213522" d="M47.6,258.676H67.345a4.936,4.936,0,0,0,4.936-4.936v-9.871a4.936,4.936,0,0,0-4.936-4.936H47.6a4.936,4.936,0,0,0-4.936,4.936v9.871A4.936,4.936,0,0,0,47.6,258.676Zm6.581-16.452H67.345a1.645,1.645,0,0,1,1.645,1.645v9.871a1.645,1.645,0,0,1-1.645,1.645H54.184Zm-8.226,1.645a1.645,1.645,0,0,1,1.645-1.645h3.291v13.162H47.6a1.645,1.645,0,0,1-1.645-1.645v-9.872Z" transform="translate(-34.441 -192.867)" fill="#00223d"/>
            <path id="Trazado_213523" data-name="Trazado 213523" d="M126.048,281.6h-4.936a1.645,1.645,0,1,0,0,3.29h4.936a1.645,1.645,0,1,0,0-3.29Z" transform="translate(-96.434 -227.308)" fill="#00223d"/>
            <path id="Trazado_213524" data-name="Trazado 213524" d="M47.6,386.676H67.345a4.936,4.936,0,0,0,4.936-4.936v-9.871a4.936,4.936,0,0,0-4.936-4.936H47.6a4.936,4.936,0,0,0-4.936,4.936v9.871A4.936,4.936,0,0,0,47.6,386.676Zm6.581-16.452H67.345a1.645,1.645,0,0,1,1.645,1.645v9.871a1.645,1.645,0,0,1-1.645,1.645H54.184Zm-8.226,1.645a1.645,1.645,0,0,1,1.645-1.645h3.291v13.162H47.6a1.645,1.645,0,0,1-1.645-1.645v-9.872Z" transform="translate(-34.441 -296.188)" fill="#00223d"/>
            <path id="Trazado_213525" data-name="Trazado 213525" d="M126.048,409.6h-4.936a1.645,1.645,0,0,0,0,3.29h4.936a1.645,1.645,0,0,0,0-3.29Z" transform="translate(-96.434 -330.629)" fill="#00223d"/>
            <path id="Trazado_213526" data-name="Trazado 213526" d="M223.512,156.891H244.9a1.645,1.645,0,0,0,0-3.29H223.512a1.645,1.645,0,1,0,0,3.29Z" transform="translate(-179.091 -123.987)" fill="#00223d"/>
            <path id="Trazado_213527" data-name="Trazado 213527" d="M223.512,284.891H244.9a1.645,1.645,0,1,0,0-3.29H223.512a1.645,1.645,0,1,0,0,3.29Z" transform="translate(-179.091 -227.308)" fill="#00223d"/>
            <path id="Trazado_213528" data-name="Trazado 213528" d="M223.512,412.891H244.9a1.645,1.645,0,0,0,0-3.29H223.512a1.645,1.645,0,0,0,0,3.29Z" transform="translate(-179.091 -330.63)" fill="#00223d"/>
            <path id="Trazado_213529" data-name="Trazado 213529" d="M379.324,139.119a1.645,1.645,0,0,0,2.326,0l8.226-8.226a1.645,1.645,0,0,0-2.326-2.326l-7.063,7.063L378.36,133.5a1.645,1.645,0,0,0-2.326,2.326Z" transform="translate(-303.161 -103.406)" fill="#00223d"/>
            <path id="Trazado_213530" data-name="Trazado 213530" d="M379.324,267.119a1.645,1.645,0,0,0,2.326,0l8.226-8.226a1.645,1.645,0,0,0-2.326-2.326l-7.063,7.063L378.36,261.5a1.645,1.645,0,0,0-2.326,2.326Z" transform="translate(-303.161 -206.728)" fill="#00223d"/>
            <path id="Trazado_213531" data-name="Trazado 213531" d="M379.324,395.119a1.645,1.645,0,0,0,2.326,0l8.226-8.226a1.645,1.645,0,0,0-2.326-2.326l-7.063,7.063L378.36,389.5a1.645,1.645,0,0,0-2.326,2.326Z" transform="translate(-303.161 -310.049)" fill="#00223d"/>
          </g>
        </g>
      </g>
    </g>
  </g>
</svg>
