<svg id="Grupo_172893" data-name="Grupo 172893" xmlns="http://www.w3.org/2000/svg" xmlns:xlink="http://www.w3.org/1999/xlink" width="434.164" height="272.323" viewBox="0 0 434.164 272.323">
  <defs>
    <clipPath id="clip-path">
      <rect id="Rectángulo_52976" data-name="Rectángulo 52976" width="434.164" height="272.323" fill="none"/>
    </clipPath>
  </defs>
  <rect id="Rectángulo_52947" data-name="Rectángulo 52947" width="364.099" height="237.659" transform="translate(69.471 0.001)" fill="#e5e5e5"/>
  <rect id="Rectángulo_52948" data-name="Rectángulo 52948" width="364.99" height="1" transform="translate(69.174 22.585)" fill="#fff"/>
  <rect id="Rectángulo_52949" data-name="Rectángulo 52949" width="364.99" height="1" transform="translate(69.174 57.516)" fill="#fff"/>
  <rect id="Rectángulo_52950" data-name="Rectángulo 52950" width="364.99" height="1" transform="translate(69.174 91.447)" fill="#fff"/>
  <rect id="Rectángulo_52951" data-name="Rectángulo 52951" width="364.99" height="1.001" transform="translate(69.174 126.399)" fill="#fff"/>
  <rect id="Rectángulo_52952" data-name="Rectángulo 52952" width="364.99" height="1" transform="translate(69.174 161.351)" fill="#fff"/>
  <rect id="Rectángulo_52953" data-name="Rectángulo 52953" width="364.99" height="1.001" transform="translate(69.174 195.679)" fill="#fff"/>
  <rect id="Rectángulo_52954" data-name="Rectángulo 52954" width="364.99" height="1" transform="translate(69.174 229.54)" fill="#fff"/>
  <path id="Trazado_213898" data-name="Trazado 213898" d="M10.4,164.6,3.99,162.829v-2.654l9.51,3.208v2.426l-9.51,3.208v-2.654Z"/>
  <g id="Grupo_172892" data-name="Grupo 172892">
    <g id="Grupo_172891" data-name="Grupo 172891" clip-path="url(#clip-path)">
      <path id="Trazado_213899" data-name="Trazado 213899" d="M13.5,153.68a2.783,2.783,0,0,1-.853.255,3.073,3.073,0,0,1,1.028,2.4,3.375,3.375,0,0,1-.808,2.315,2.6,2.6,0,0,1-2.039.919,2.689,2.689,0,0,1-2.321-1.121,5.529,5.529,0,0,1-.817-3.238v-1.169H7.145a1.567,1.567,0,0,0-1.055.338,1.333,1.333,0,0,0-.395,1.068A1.507,1.507,0,0,0,6,156.453a1.045,1.045,0,0,0,.843.365v2.54a2.552,2.552,0,0,1-1.529-.51,3.365,3.365,0,0,1-1.1-1.441,5.262,5.262,0,0,1-.4-2.092,4.157,4.157,0,0,1,.883-2.791,3.093,3.093,0,0,1,2.483-1.032H11.3a4.549,4.549,0,0,0,2.048-.378h.15Zm-1.767,2.1a2.175,2.175,0,0,0-.251-1.037,1.635,1.635,0,0,0-.672-.7H9.175v.949q0,1.906,1.319,2.03l.149.009a1.014,1.014,0,0,0,.782-.334,1.3,1.3,0,0,0,.308-.914"/>
      <rect id="Rectángulo_52955" data-name="Rectángulo 52955" width="13.5" height="2.549" transform="translate(0 146.86)"/>
      <path id="Trazado_213900" data-name="Trazado 213900" d="M8.657,145.164a5.642,5.642,0,0,1-2.522-.545,3.992,3.992,0,0,1-1.714-1.569,4.58,4.58,0,0,1-.606-2.377,4.334,4.334,0,0,1,1.177-3.143,4.73,4.73,0,0,1,3.2-1.357l.65-.018a4.97,4.97,0,0,1,3.512,1.222,4.735,4.735,0,0,1,0,6.56,5.057,5.057,0,0,1-3.586,1.227Zm.181-2.54a3.549,3.549,0,0,0,2.072-.51,1.83,1.83,0,0,0,.009-2.9,3.885,3.885,0,0,0-2.267-.519,3.516,3.516,0,0,0-2.059.519,1.686,1.686,0,0,0-.731,1.459,1.659,1.659,0,0,0,.727,1.441,3.949,3.949,0,0,0,2.249.51"/>
      <path id="Trazado_213901" data-name="Trazado 213901" d="M6.372,129.247a6.873,6.873,0,0,0-.07.914,1.861,1.861,0,0,0,.975,1.89H13.5v2.54H3.99v-2.4l1.134-.07A2.354,2.354,0,0,1,3.814,130a2.636,2.636,0,0,1,.115-.791Z"/>
      <rect id="Rectángulo_52956" data-name="Rectángulo 52956" width="1.986" height="8.007" transform="translate(13.5 120.985)"/>
      <path id="Trazado_213902" data-name="Trazado 213902" d="M10.872,114.842a.815.815,0,0,0-.733.461,5.252,5.252,0,0,0-.48,1.481q-.711,3.393-2.883,3.393a2.617,2.617,0,0,1-2.114-1.051,4.242,4.242,0,0,1-.848-2.746,4.561,4.561,0,0,1,.853-2.9A2.685,2.685,0,0,1,6.882,112.4v2.54a1.234,1.234,0,0,0-.9.351,1.5,1.5,0,0,0-.355,1.1,1.521,1.521,0,0,0,.29.993.916.916,0,0,0,.738.352.782.782,0,0,0,.681-.4,4.078,4.078,0,0,0,.449-1.348,11.066,11.066,0,0,1,.426-1.6,2.628,2.628,0,0,1,2.558-2.013,2.478,2.478,0,0,1,2.1,1.116,4.813,4.813,0,0,1,.8,2.883,5.044,5.044,0,0,1-.426,2.122,3.547,3.547,0,0,1-1.17,1.455,2.71,2.71,0,0,1-1.6.528v-2.408a1.331,1.331,0,0,0,1.038-.5,1.99,1.99,0,0,0,.36-1.248,1.853,1.853,0,0,0-.276-1.1.864.864,0,0,0-.726-.373"/>
      <path id="Trazado_213903" data-name="Trazado 213903" d="M13.675,106.36a4.665,4.665,0,0,1-1.283,3.4,4.561,4.561,0,0,1-3.419,1.315H8.727a5.743,5.743,0,0,1-2.561-.554,4.074,4.074,0,0,1-1.741-1.569,4.407,4.407,0,0,1-.611-2.316,3.945,3.945,0,0,1,1.231-3.072,5,5,0,0,1,3.489-1.12H9.571V108.5a2.36,2.36,0,0,0,1.494-.743,2.243,2.243,0,0,0,.563-1.568,2.742,2.742,0,0,0-1.064-2.294l1.4-1.248a3.794,3.794,0,0,1,1.26,1.547,5.07,5.07,0,0,1,.453,2.162m-7.813.29a1.589,1.589,0,0,0,.512,1.226,2.658,2.658,0,0,0,1.466.6v-3.533h-.2a1.888,1.888,0,0,0-1.31.457,1.634,1.634,0,0,0-.464,1.248"/>
      <path id="Trazado_213904" data-name="Trazado 213904" d="M8.674,101.377a5.572,5.572,0,0,1-3.523-1.042,3.373,3.373,0,0,1-1.336-2.808,2.96,2.96,0,0,1,1.071-2.434l-.9-.106v-2.3h9.193a4.057,4.057,0,0,1,2.17.566,3.64,3.64,0,0,1,1.406,1.6,5.594,5.594,0,0,1,.484,2.408,5.221,5.221,0,0,1-.418,2.039,3.63,3.63,0,0,1-1.076,1.5L14.2,99.672a2.971,2.971,0,0,0,1.063-2.3,2.182,2.182,0,0,0-.54-1.573,2.027,2.027,0,0,0-1.533-.563h-.511a2.939,2.939,0,0,1,.993,2.312,3.362,3.362,0,0,1-1.34,2.772,5.562,5.562,0,0,1-3.555,1.06Zm.182-2.54a3.49,3.49,0,0,0,2.035-.519,1.646,1.646,0,0,0,.736-1.423,1.761,1.761,0,0,0-.874-1.662H6.737a1.759,1.759,0,0,0-.874,1.644,1.658,1.658,0,0,0,.751,1.437,3.932,3.932,0,0,0,2.242.523"/>
      <path id="Trazado_213905" data-name="Trazado 213905" d="M12.533,85.038a3.185,3.185,0,0,1,1.143,2.6,3,3,0,0,1-.879,2.333,3.756,3.756,0,0,1-2.576.822H3.99v-2.54h6.15q1.488,0,1.488-1.354a1.833,1.833,0,0,0-.9-1.775H3.99V82.577H13.5v2.391Z"/>
      <path id="Trazado_213906" data-name="Trazado 213906" d="M6.372,75.317a6.873,6.873,0,0,0-.07.914,1.861,1.861,0,0,0,.975,1.89H13.5v2.54H3.99v-2.4l1.134-.07a2.354,2.354,0,0,1-1.31-2.118,2.636,2.636,0,0,1,.115-.791Z"/>
      <path id="Trazado_213907" data-name="Trazado 213907" d="M8.657,74.807a5.642,5.642,0,0,1-2.522-.545,3.992,3.992,0,0,1-1.714-1.569,4.58,4.58,0,0,1-.606-2.377,4.334,4.334,0,0,1,1.177-3.143,4.731,4.731,0,0,1,3.2-1.357l.65-.018a4.97,4.97,0,0,1,3.512,1.222,4.735,4.735,0,0,1,0,6.56,5.057,5.057,0,0,1-3.586,1.227Zm.181-2.54a3.549,3.549,0,0,0,2.072-.51,1.83,1.83,0,0,0,.009-2.9,3.885,3.885,0,0,0-2.267-.519,3.516,3.516,0,0,0-2.059.519,1.686,1.686,0,0,0-.731,1.459,1.659,1.659,0,0,0,.727,1.441,3.949,3.949,0,0,0,2.249.51"/>
      <path id="Trazado_213908" data-name="Trazado 213908" d="M218.883,272.147V264.5h-1.415v-1.864h1.415v-.808a3.282,3.282,0,0,1,.918-2.483,3.555,3.555,0,0,1,2.571-.884,5.994,5.994,0,0,1,1.292.174l-.026,1.953a3.281,3.281,0,0,0-.774-.079q-1.433,0-1.432,1.357v.77h1.889V264.5h-1.889v7.646Z"/>
      <path id="Trazado_213909" data-name="Trazado 213909" d="M230.335,271.18a3.185,3.185,0,0,1-2.6,1.143,3,3,0,0,1-2.333-.879,3.756,3.756,0,0,1-.822-2.576v-6.231h2.54v6.15q0,1.488,1.354,1.488a1.833,1.833,0,0,0,1.775-.9v-6.74H232.8v9.51H230.4Z"/>
      <path id="Trazado_213910" data-name="Trazado 213910" d="M237.094,262.637l.079,1.063a3.343,3.343,0,0,1,2.734-1.239,2.537,2.537,0,0,1,2.522,1.45,3.267,3.267,0,0,1,2.856-1.45,2.838,2.838,0,0,1,2.3.9,4.141,4.141,0,0,1,.756,2.712v6.073h-2.549v-6.078a1.821,1.821,0,0,0-.316-1.186,1.4,1.4,0,0,0-1.116-.374,1.584,1.584,0,0,0-1.582,1.093l.008,6.545h-2.54v-6.07a1.793,1.793,0,0,0-.325-1.2,1.413,1.413,0,0,0-1.107-.37,1.646,1.646,0,0,0-1.565.9v6.739h-2.54v-9.51Z"/>
      <path id="Trazado_213911" data-name="Trazado 213911" d="M255.807,272.148a2.783,2.783,0,0,1-.255-.853,3.073,3.073,0,0,1-2.4,1.028,3.379,3.379,0,0,1-2.316-.808,2.6,2.6,0,0,1-.918-2.039,2.686,2.686,0,0,1,1.121-2.321,5.528,5.528,0,0,1,3.238-.817h1.169v-.545a1.572,1.572,0,0,0-.338-1.055,1.335,1.335,0,0,0-1.068-.4,1.507,1.507,0,0,0-1.006.308,1.042,1.042,0,0,0-.365.843h-2.54a2.552,2.552,0,0,1,.51-1.529,3.365,3.365,0,0,1,1.441-1.1,5.262,5.262,0,0,1,2.092-.4,4.152,4.152,0,0,1,2.79.883,3.091,3.091,0,0,1,1.033,2.483v4.122a4.549,4.549,0,0,0,.378,2.048v.15Zm-2.1-1.767a2.175,2.175,0,0,0,1.037-.251,1.635,1.635,0,0,0,.7-.672v-1.635H254.5q-1.906,0-2.03,1.319l-.009.149a1.014,1.014,0,0,0,.334.782,1.3,1.3,0,0,0,.914.308"/>
      <path id="Trazado_213912" data-name="Trazado 213912" d="M259.55,267.322a5.726,5.726,0,0,1,1-3.542,3.234,3.234,0,0,1,2.729-1.318,2.912,2.912,0,0,1,2.293,1.037v-4.851h2.549v13.5h-2.294l-.123-1.011a2.988,2.988,0,0,1-2.443,1.186A3.228,3.228,0,0,1,260.565,271a5.915,5.915,0,0,1-1.015-3.679m2.54.181a3.776,3.776,0,0,0,.466,2.058,1.515,1.515,0,0,0,1.353.714,1.7,1.7,0,0,0,1.661-1v-3.769a1.674,1.674,0,0,0-1.643-1q-1.838,0-1.837,2.993"/>
      <path id="Trazado_213913" data-name="Trazado 213913" d="M269.693,267.3a5.628,5.628,0,0,1,.545-2.522,3.986,3.986,0,0,1,1.569-1.714,4.577,4.577,0,0,1,2.377-.606,4.33,4.33,0,0,1,3.142,1.177,4.727,4.727,0,0,1,1.358,3.2l.018.65A4.975,4.975,0,0,1,277.48,271a4.736,4.736,0,0,1-6.561,0,5.061,5.061,0,0,1-1.226-3.586Zm2.54.181a3.549,3.549,0,0,0,.51,2.072,1.83,1.83,0,0,0,2.9.009,3.885,3.885,0,0,0,.519-2.267,3.516,3.516,0,0,0-.519-2.059,1.686,1.686,0,0,0-1.459-.731,1.657,1.657,0,0,0-1.441.727,3.949,3.949,0,0,0-.51,2.249"/>
      <path id="Trazado_213914" data-name="Trazado 213914" d="M285.61,265.019a6.868,6.868,0,0,0-.914-.07,1.861,1.861,0,0,0-1.89.975v6.223h-2.54v-9.51h2.4l.07,1.134a2.354,2.354,0,0,1,2.118-1.31,2.636,2.636,0,0,1,.791.115Z"/>
      <path id="Trazado_213915" data-name="Trazado 213915" d="M31.24,18.651v1.512h-.178a3.115,3.115,0,0,0-2,.646,2.63,2.63,0,0,0-.911,1.747,2.5,2.5,0,0,1,1.86-.749,2.356,2.356,0,0,1,1.917.863,3.464,3.464,0,0,1,.711,2.272,3.4,3.4,0,0,1-.391,1.631,2.8,2.8,0,0,1-1.1,1.137,3.219,3.219,0,0,1-1.616.406A3,3,0,0,1,27.168,27.1a3.938,3.938,0,0,1-.9-2.71v-.661a5.933,5.933,0,0,1,.568-2.656,4.169,4.169,0,0,1,1.631-1.783,4.79,4.79,0,0,1,2.466-.639Zm-1.79,4.635a1.474,1.474,0,0,0-.806.23,1.4,1.4,0,0,0-.533.612v.557a2.473,2.473,0,0,0,.361,1.436,1.172,1.172,0,0,0,1.016.517,1.156,1.156,0,0,0,.955-.466,2.187,2.187,0,0,0,0-2.424,1.2,1.2,0,0,0-.99-.462"/>
      <path id="Trazado_213916" data-name="Trazado 213916" d="M39.942,24.168a4.683,4.683,0,0,1-.793,2.933,3.172,3.172,0,0,1-4.634.019,4.551,4.551,0,0,1-.819-2.857v-1.7a4.625,4.625,0,0,1,.8-2.939,3.178,3.178,0,0,1,4.625-.01,4.531,4.531,0,0,1,.818,2.854ZM38.108,22.3a3.394,3.394,0,0,0-.314-1.675,1.064,1.064,0,0,0-.981-.524,1.043,1.043,0,0,0-.955.5,3.162,3.162,0,0,0-.327,1.56v2.249a3.544,3.544,0,0,0,.308,1.681,1.048,1.048,0,0,0,.987.55,1.03,1.03,0,0,0,.971-.528,3.47,3.47,0,0,0,.311-1.614Z"/>
      <path id="Trazado_213917" data-name="Trazado 213917" d="M47.4,24.168a4.683,4.683,0,0,1-.793,2.933,3.172,3.172,0,0,1-4.634.019,4.551,4.551,0,0,1-.819-2.857v-1.7a4.625,4.625,0,0,1,.8-2.939,3.178,3.178,0,0,1,4.625-.01,4.531,4.531,0,0,1,.818,2.854ZM45.566,22.3a3.394,3.394,0,0,0-.314-1.675,1.064,1.064,0,0,0-.981-.524,1.043,1.043,0,0,0-.955.5,3.162,3.162,0,0,0-.327,1.56v2.249a3.544,3.544,0,0,0,.308,1.681,1.048,1.048,0,0,0,.987.55,1.03,1.03,0,0,0,.971-.528,3.47,3.47,0,0,0,.311-1.614Z"/>
      <path id="Trazado_213918" data-name="Trazado 213918" d="M54.859,24.168a4.683,4.683,0,0,1-.793,2.933,3.172,3.172,0,0,1-4.634.019,4.551,4.551,0,0,1-.819-2.857v-1.7a4.625,4.625,0,0,1,.8-2.939,3.178,3.178,0,0,1,4.625-.01,4.531,4.531,0,0,1,.818,2.854ZM53.025,22.3a3.394,3.394,0,0,0-.314-1.675,1.064,1.064,0,0,0-.981-.524,1.043,1.043,0,0,0-.955.5,3.162,3.162,0,0,0-.327,1.56v2.249a3.544,3.544,0,0,0,.308,1.681,1.048,1.048,0,0,0,.987.55,1.03,1.03,0,0,0,.971-.528,3.47,3.47,0,0,0,.311-1.614Z"/>
      <path id="Trazado_213919" data-name="Trazado 213919" d="M62.317,24.168a4.683,4.683,0,0,1-.793,2.933,3.172,3.172,0,0,1-4.634.019,4.551,4.551,0,0,1-.819-2.857v-1.7a4.625,4.625,0,0,1,.8-2.939,3.178,3.178,0,0,1,4.625-.01,4.531,4.531,0,0,1,.818,2.854ZM60.483,22.3a3.394,3.394,0,0,0-.314-1.675,1.064,1.064,0,0,0-.981-.524,1.043,1.043,0,0,0-.955.5,3.162,3.162,0,0,0-.327,1.56v2.249a3.544,3.544,0,0,0,.308,1.681,1.048,1.048,0,0,0,.987.55,1.03,1.03,0,0,0,.971-.528,3.47,3.47,0,0,0,.311-1.614Z"/>
      <path id="Trazado_213920" data-name="Trazado 213920" d="M26.536,58.2l.533-4.7h5.18v1.529H28.574l-.229,1.987a2.915,2.915,0,0,1,1.39-.348,2.666,2.666,0,0,1,2.07.818,3.273,3.273,0,0,1,.749,2.291,3.35,3.35,0,0,1-.378,1.6,2.671,2.671,0,0,1-1.082,1.1,3.374,3.374,0,0,1-1.663.391,3.584,3.584,0,0,1-1.556-.34,2.766,2.766,0,0,1-1.133-.955,2.6,2.6,0,0,1-.441-1.4h1.816a1.354,1.354,0,0,0,.4.9,1.275,1.275,0,0,0,.9.321,1.128,1.128,0,0,0,.959-.448,2.073,2.073,0,0,0,.336-1.266,1.715,1.715,0,0,0-.387-1.206,1.421,1.421,0,0,0-1.1-.419,1.589,1.589,0,0,0-1.06.343L28,58.558Z"/>
      <path id="Trazado_213921" data-name="Trazado 213921" d="M39.942,58.921a4.685,4.685,0,0,1-.793,2.933,3.173,3.173,0,0,1-4.634.018,4.548,4.548,0,0,1-.819-2.856v-1.7a4.622,4.622,0,0,1,.8-2.938,3.177,3.177,0,0,1,4.625-.011,4.533,4.533,0,0,1,.818,2.854ZM38.108,57.05a3.387,3.387,0,0,0-.314-1.674,1.064,1.064,0,0,0-.981-.524,1.042,1.042,0,0,0-.955.5,3.165,3.165,0,0,0-.327,1.56v2.25a3.539,3.539,0,0,0,.308,1.68,1.049,1.049,0,0,0,.987.551,1.032,1.032,0,0,0,.971-.528,3.473,3.473,0,0,0,.311-1.614Z"/>
      <path id="Trazado_213922" data-name="Trazado 213922" d="M47.4,58.921a4.685,4.685,0,0,1-.793,2.933,3.173,3.173,0,0,1-4.634.018,4.548,4.548,0,0,1-.819-2.856v-1.7a4.622,4.622,0,0,1,.8-2.938,3.177,3.177,0,0,1,4.625-.011,4.533,4.533,0,0,1,.818,2.854ZM45.566,57.05a3.387,3.387,0,0,0-.314-1.674,1.064,1.064,0,0,0-.981-.524,1.042,1.042,0,0,0-.955.5,3.165,3.165,0,0,0-.327,1.56v2.25a3.539,3.539,0,0,0,.308,1.68,1.049,1.049,0,0,0,.987.551,1.032,1.032,0,0,0,.971-.528,3.473,3.473,0,0,0,.311-1.614Z"/>
      <path id="Trazado_213923" data-name="Trazado 213923" d="M54.859,58.921a4.685,4.685,0,0,1-.793,2.933,3.173,3.173,0,0,1-4.634.018,4.548,4.548,0,0,1-.819-2.856v-1.7a4.622,4.622,0,0,1,.8-2.938,3.177,3.177,0,0,1,4.625-.011,4.533,4.533,0,0,1,.818,2.854ZM53.025,57.05a3.387,3.387,0,0,0-.314-1.674,1.064,1.064,0,0,0-.981-.524,1.042,1.042,0,0,0-.955.5,3.165,3.165,0,0,0-.327,1.56v2.25a3.539,3.539,0,0,0,.308,1.68,1.049,1.049,0,0,0,.987.551,1.032,1.032,0,0,0,.971-.528,3.473,3.473,0,0,0,.311-1.614Z"/>
      <path id="Trazado_213924" data-name="Trazado 213924" d="M62.317,58.921a4.685,4.685,0,0,1-.793,2.933,3.173,3.173,0,0,1-4.634.018,4.548,4.548,0,0,1-.819-2.856v-1.7a4.622,4.622,0,0,1,.8-2.938,3.177,3.177,0,0,1,4.625-.011,4.533,4.533,0,0,1,.818,2.854ZM60.483,57.05a3.387,3.387,0,0,0-.314-1.674,1.064,1.064,0,0,0-.981-.524,1.042,1.042,0,0,0-.955.5,3.165,3.165,0,0,0-.327,1.56v2.25a3.539,3.539,0,0,0,.308,1.68,1.049,1.049,0,0,0,.987.551,1.032,1.032,0,0,0,.971-.528,3.473,3.473,0,0,0,.311-1.614Z"/>
      <path id="Trazado_213925" data-name="Trazado 213925" d="M31.69,93.838h1.048v1.479H31.69v2H29.856v-2h-3.79l-.082-1.155,3.853-6.088H31.69Zm-3.878,0h2.044V90.575l-.121.21Z"/>
      <path id="Trazado_213926" data-name="Trazado 213926" d="M39.942,93.5a4.683,4.683,0,0,1-.793,2.933,3.172,3.172,0,0,1-4.634.019A4.551,4.551,0,0,1,33.7,93.59v-1.7a4.625,4.625,0,0,1,.8-2.939,3.178,3.178,0,0,1,4.625-.01,4.531,4.531,0,0,1,.818,2.854Zm-1.834-1.87a3.394,3.394,0,0,0-.314-1.675,1.064,1.064,0,0,0-.981-.524,1.043,1.043,0,0,0-.955.5,3.162,3.162,0,0,0-.327,1.56v2.249a3.544,3.544,0,0,0,.308,1.681,1.048,1.048,0,0,0,.987.55,1.03,1.03,0,0,0,.971-.528,3.47,3.47,0,0,0,.311-1.614Z"/>
      <path id="Trazado_213927" data-name="Trazado 213927" d="M47.4,93.5a4.683,4.683,0,0,1-.793,2.933,3.172,3.172,0,0,1-4.634.019,4.551,4.551,0,0,1-.819-2.857v-1.7a4.625,4.625,0,0,1,.8-2.939,3.178,3.178,0,0,1,4.625-.01,4.531,4.531,0,0,1,.818,2.854Zm-1.834-1.87a3.394,3.394,0,0,0-.314-1.675,1.064,1.064,0,0,0-.981-.524,1.043,1.043,0,0,0-.955.5,3.162,3.162,0,0,0-.327,1.56v2.249a3.544,3.544,0,0,0,.308,1.681,1.048,1.048,0,0,0,.987.55,1.03,1.03,0,0,0,.971-.528,3.47,3.47,0,0,0,.311-1.614Z"/>
      <path id="Trazado_213928" data-name="Trazado 213928" d="M54.859,93.5a4.683,4.683,0,0,1-.793,2.933,3.172,3.172,0,0,1-4.634.019,4.551,4.551,0,0,1-.819-2.857v-1.7a4.625,4.625,0,0,1,.8-2.939,3.178,3.178,0,0,1,4.625-.01,4.531,4.531,0,0,1,.818,2.854Zm-1.834-1.87a3.394,3.394,0,0,0-.314-1.675,1.064,1.064,0,0,0-.981-.524,1.043,1.043,0,0,0-.955.5,3.162,3.162,0,0,0-.327,1.56v2.249a3.544,3.544,0,0,0,.308,1.681,1.048,1.048,0,0,0,.987.55,1.03,1.03,0,0,0,.971-.528,3.47,3.47,0,0,0,.311-1.614Z"/>
      <path id="Trazado_213929" data-name="Trazado 213929" d="M62.317,93.5a4.683,4.683,0,0,1-.793,2.933,3.172,3.172,0,0,1-4.634.019,4.551,4.551,0,0,1-.819-2.857v-1.7a4.625,4.625,0,0,1,.8-2.939,3.178,3.178,0,0,1,4.625-.01,4.531,4.531,0,0,1,.818,2.854Zm-1.834-1.87a3.394,3.394,0,0,0-.314-1.675,1.064,1.064,0,0,0-.981-.524,1.043,1.043,0,0,0-.955.5,3.162,3.162,0,0,0-.327,1.56v2.249a3.544,3.544,0,0,0,.308,1.681,1.048,1.048,0,0,0,.987.55,1.03,1.03,0,0,0,.971-.528,3.47,3.47,0,0,0,.311-1.614Z"/>
      <path id="Trazado_213930" data-name="Trazado 213930" d="M28.129,126.813h.978a1.371,1.371,0,0,0,1.034-.35,1.277,1.277,0,0,0,.337-.925,1.132,1.132,0,0,0-.334-.871,1.293,1.293,0,0,0-.917-.311,1.356,1.356,0,0,0-.882.289.923.923,0,0,0-.356.752H26.155a2.258,2.258,0,0,1,.39-1.3,2.6,2.6,0,0,1,1.092-.9,3.629,3.629,0,0,1,1.546-.325,3.456,3.456,0,0,1,2.3.7,2.393,2.393,0,0,1,.831,1.933,1.945,1.945,0,0,1-.387,1.168,2.516,2.516,0,0,1-1.016.819,2.153,2.153,0,0,1,1.549,2.158,2.433,2.433,0,0,1-.9,1.974,3.617,3.617,0,0,1-2.377.743,3.422,3.422,0,0,1-2.263-.731,2.382,2.382,0,0,1-.879-1.93h1.834a1.066,1.066,0,0,0,.39.852,1.627,1.627,0,0,0,1.987-.017,1.192,1.192,0,0,0,.372-.917q0-1.383-1.524-1.383h-.971Z"/>
      <path id="Trazado_213931" data-name="Trazado 213931" d="M39.942,128.425a4.683,4.683,0,0,1-.793,2.933,3.172,3.172,0,0,1-4.634.019,4.551,4.551,0,0,1-.819-2.857v-1.7a4.625,4.625,0,0,1,.8-2.939,3.178,3.178,0,0,1,4.625-.01,4.531,4.531,0,0,1,.818,2.854Zm-1.834-1.87a3.394,3.394,0,0,0-.314-1.675,1.064,1.064,0,0,0-.981-.524,1.043,1.043,0,0,0-.955.5,3.162,3.162,0,0,0-.327,1.56v2.249a3.544,3.544,0,0,0,.308,1.681,1.048,1.048,0,0,0,.987.55,1.03,1.03,0,0,0,.971-.528,3.47,3.47,0,0,0,.311-1.614Z"/>
      <path id="Trazado_213932" data-name="Trazado 213932" d="M47.4,128.425a4.683,4.683,0,0,1-.793,2.933,3.172,3.172,0,0,1-4.634.019,4.551,4.551,0,0,1-.819-2.857v-1.7a4.625,4.625,0,0,1,.8-2.939,3.178,3.178,0,0,1,4.625-.01,4.531,4.531,0,0,1,.818,2.854Zm-1.834-1.87a3.394,3.394,0,0,0-.314-1.675,1.064,1.064,0,0,0-.981-.524,1.043,1.043,0,0,0-.955.5,3.162,3.162,0,0,0-.327,1.56v2.249a3.544,3.544,0,0,0,.308,1.681,1.048,1.048,0,0,0,.987.55,1.03,1.03,0,0,0,.971-.528,3.47,3.47,0,0,0,.311-1.614Z"/>
      <path id="Trazado_213933" data-name="Trazado 213933" d="M54.859,128.425a4.683,4.683,0,0,1-.793,2.933,3.172,3.172,0,0,1-4.634.019,4.551,4.551,0,0,1-.819-2.857v-1.7a4.625,4.625,0,0,1,.8-2.939,3.178,3.178,0,0,1,4.625-.01,4.531,4.531,0,0,1,.818,2.854Zm-1.834-1.87a3.394,3.394,0,0,0-.314-1.675,1.064,1.064,0,0,0-.981-.524,1.043,1.043,0,0,0-.955.5,3.162,3.162,0,0,0-.327,1.56v2.249a3.544,3.544,0,0,0,.308,1.681,1.048,1.048,0,0,0,.987.55,1.03,1.03,0,0,0,.971-.528,3.47,3.47,0,0,0,.311-1.614Z"/>
      <path id="Trazado_213934" data-name="Trazado 213934" d="M62.317,128.425a4.683,4.683,0,0,1-.793,2.933,3.172,3.172,0,0,1-4.634.019,4.551,4.551,0,0,1-.819-2.857v-1.7a4.625,4.625,0,0,1,.8-2.939,3.178,3.178,0,0,1,4.625-.01,4.531,4.531,0,0,1,.818,2.854Zm-1.834-1.87a3.394,3.394,0,0,0-.314-1.675,1.064,1.064,0,0,0-.981-.524,1.043,1.043,0,0,0-.955.5,3.162,3.162,0,0,0-.327,1.56v2.249a3.544,3.544,0,0,0,.308,1.681,1.048,1.048,0,0,0,.987.55,1.03,1.03,0,0,0,.971-.528,3.47,3.47,0,0,0,.311-1.614Z"/>
      <path id="Trazado_213935" data-name="Trazado 213935" d="M32.6,165.217H26.263V163.96l2.99-3.186a7.453,7.453,0,0,0,.911-1.174,1.9,1.9,0,0,0,.3-.953,1.415,1.415,0,0,0-.311-.968,1.128,1.128,0,0,0-.889-.353,1.213,1.213,0,0,0-.981.429,1.7,1.7,0,0,0-.358,1.127H26.079a3.026,3.026,0,0,1,.4-1.542,2.843,2.843,0,0,1,1.139-1.1,3.471,3.471,0,0,1,1.67-.4,3.276,3.276,0,0,1,2.218.685,2.426,2.426,0,0,1,.791,1.936,3.1,3.1,0,0,1-.356,1.4,7.736,7.736,0,0,1-1.219,1.658l-2.1,2.215H32.6Z"/>
      <path id="Trazado_213936" data-name="Trazado 213936" d="M39.942,161.4a4.683,4.683,0,0,1-.793,2.933,3.172,3.172,0,0,1-4.634.019,4.551,4.551,0,0,1-.819-2.857v-1.7a4.625,4.625,0,0,1,.8-2.939,3.178,3.178,0,0,1,4.625-.01,4.531,4.531,0,0,1,.818,2.854Zm-1.834-1.87a3.394,3.394,0,0,0-.314-1.675,1.064,1.064,0,0,0-.981-.524,1.043,1.043,0,0,0-.955.5,3.162,3.162,0,0,0-.327,1.56v2.249a3.544,3.544,0,0,0,.308,1.681,1.048,1.048,0,0,0,.987.55,1.03,1.03,0,0,0,.971-.528,3.47,3.47,0,0,0,.311-1.614Z"/>
      <path id="Trazado_213937" data-name="Trazado 213937" d="M47.4,161.4a4.683,4.683,0,0,1-.793,2.933,3.172,3.172,0,0,1-4.634.019,4.551,4.551,0,0,1-.819-2.857v-1.7a4.625,4.625,0,0,1,.8-2.939,3.178,3.178,0,0,1,4.625-.01,4.531,4.531,0,0,1,.818,2.854Zm-1.834-1.87a3.394,3.394,0,0,0-.314-1.675,1.064,1.064,0,0,0-.981-.524,1.043,1.043,0,0,0-.955.5,3.162,3.162,0,0,0-.327,1.56v2.249a3.544,3.544,0,0,0,.308,1.681,1.048,1.048,0,0,0,.987.55,1.03,1.03,0,0,0,.971-.528,3.47,3.47,0,0,0,.311-1.614Z"/>
      <path id="Trazado_213938" data-name="Trazado 213938" d="M54.859,161.4a4.683,4.683,0,0,1-.793,2.933,3.172,3.172,0,0,1-4.634.019,4.551,4.551,0,0,1-.819-2.857v-1.7a4.625,4.625,0,0,1,.8-2.939,3.178,3.178,0,0,1,4.625-.01,4.531,4.531,0,0,1,.818,2.854Zm-1.834-1.87a3.394,3.394,0,0,0-.314-1.675,1.064,1.064,0,0,0-.981-.524,1.043,1.043,0,0,0-.955.5,3.162,3.162,0,0,0-.327,1.56v2.249a3.544,3.544,0,0,0,.308,1.681,1.048,1.048,0,0,0,.987.55,1.03,1.03,0,0,0,.971-.528,3.47,3.47,0,0,0,.311-1.614Z"/>
      <path id="Trazado_213939" data-name="Trazado 213939" d="M62.317,161.4a4.683,4.683,0,0,1-.793,2.933,3.172,3.172,0,0,1-4.634.019,4.551,4.551,0,0,1-.819-2.857v-1.7a4.625,4.625,0,0,1,.8-2.939,3.178,3.178,0,0,1,4.625-.01,4.531,4.531,0,0,1,.818,2.854Zm-1.834-1.87a3.394,3.394,0,0,0-.314-1.675,1.064,1.064,0,0,0-.981-.524,1.043,1.043,0,0,0-.955.5,3.162,3.162,0,0,0-.327,1.56v2.249a3.544,3.544,0,0,0,.308,1.681,1.048,1.048,0,0,0,.987.55,1.03,1.03,0,0,0,.971-.528,3.47,3.47,0,0,0,.311-1.614Z"/>
      <path id="Trazado_213940" data-name="Trazado 213940" d="M30.719,201.039H28.885v-7.081l-2.19.677v-1.48l3.827-1.371h.2Z"/>
      <path id="Trazado_213941" data-name="Trazado 213941" d="M39.942,197.217a4.683,4.683,0,0,1-.793,2.933,3.172,3.172,0,0,1-4.634.019,4.551,4.551,0,0,1-.819-2.857v-1.7a4.625,4.625,0,0,1,.8-2.939,3.178,3.178,0,0,1,4.625-.01,4.531,4.531,0,0,1,.818,2.854Zm-1.834-1.87a3.394,3.394,0,0,0-.314-1.675,1.064,1.064,0,0,0-.981-.524,1.043,1.043,0,0,0-.955.5,3.162,3.162,0,0,0-.327,1.56v2.249a3.544,3.544,0,0,0,.308,1.681,1.048,1.048,0,0,0,.987.55,1.03,1.03,0,0,0,.971-.528,3.47,3.47,0,0,0,.311-1.614Z"/>
      <path id="Trazado_213942" data-name="Trazado 213942" d="M47.4,197.217a4.683,4.683,0,0,1-.793,2.933,3.172,3.172,0,0,1-4.634.019,4.551,4.551,0,0,1-.819-2.857v-1.7a4.625,4.625,0,0,1,.8-2.939,3.178,3.178,0,0,1,4.625-.01,4.531,4.531,0,0,1,.818,2.854Zm-1.834-1.87a3.394,3.394,0,0,0-.314-1.675,1.064,1.064,0,0,0-.981-.524,1.043,1.043,0,0,0-.955.5,3.162,3.162,0,0,0-.327,1.56v2.249a3.544,3.544,0,0,0,.308,1.681,1.048,1.048,0,0,0,.987.55,1.03,1.03,0,0,0,.971-.528,3.47,3.47,0,0,0,.311-1.614Z"/>
      <path id="Trazado_213943" data-name="Trazado 213943" d="M54.859,197.217a4.683,4.683,0,0,1-.793,2.933,3.172,3.172,0,0,1-4.634.019,4.551,4.551,0,0,1-.819-2.857v-1.7a4.625,4.625,0,0,1,.8-2.939,3.178,3.178,0,0,1,4.625-.01,4.531,4.531,0,0,1,.818,2.854Zm-1.834-1.87a3.394,3.394,0,0,0-.314-1.675,1.064,1.064,0,0,0-.981-.524,1.043,1.043,0,0,0-.955.5,3.162,3.162,0,0,0-.327,1.56v2.249a3.544,3.544,0,0,0,.308,1.681,1.048,1.048,0,0,0,.987.55,1.03,1.03,0,0,0,.971-.528,3.47,3.47,0,0,0,.311-1.614Z"/>
      <path id="Trazado_213944" data-name="Trazado 213944" d="M62.317,197.217a4.683,4.683,0,0,1-.793,2.933,3.172,3.172,0,0,1-4.634.019,4.551,4.551,0,0,1-.819-2.857v-1.7a4.625,4.625,0,0,1,.8-2.939,3.178,3.178,0,0,1,4.625-.01,4.531,4.531,0,0,1,.818,2.854Zm-1.834-1.87a3.394,3.394,0,0,0-.314-1.675,1.064,1.064,0,0,0-.981-.524,1.043,1.043,0,0,0-.955.5,3.162,3.162,0,0,0-.327,1.56v2.249a3.544,3.544,0,0,0,.308,1.681,1.048,1.048,0,0,0,.987.55,1.03,1.03,0,0,0,.971-.528,3.47,3.47,0,0,0,.311-1.614Z"/>
      <path id="Trazado_213945" data-name="Trazado 213945" d="M60.167,231.106a4.683,4.683,0,0,1-.793,2.933,3.172,3.172,0,0,1-4.634.019,4.551,4.551,0,0,1-.819-2.857v-1.7a4.625,4.625,0,0,1,.8-2.939,3.178,3.178,0,0,1,4.625-.01,4.531,4.531,0,0,1,.818,2.854Zm-1.834-1.87a3.394,3.394,0,0,0-.314-1.675,1.064,1.064,0,0,0-.981-.524,1.043,1.043,0,0,0-.955.5,3.162,3.162,0,0,0-.327,1.56v2.249a3.544,3.544,0,0,0,.308,1.681,1.048,1.048,0,0,0,.987.55,1.03,1.03,0,0,0,.971-.528,3.47,3.47,0,0,0,.311-1.614Z"/>
      <path id="Trazado_213946" data-name="Trazado 213946" d="M152.46,252.109l-.006.222.038.007,2-4.215h1.968l-4.145,7.9a4.935,4.935,0,0,1-1,1.244,2.219,2.219,0,0,1-1.517.5,2.034,2.034,0,0,1-.4-.037c-.129-.025-.283-.061-.46-.108l.488-1.353c.043.009.093.018.153.026a1.21,1.21,0,0,0,.159.013,1.035,1.035,0,0,0,.676-.238,1.817,1.817,0,0,0,.453-.549l.292-.521-.869-6.874h1.968Z"/>
      <path id="Trazado_213947" data-name="Trazado 213947" d="M158.674,255.124a2.391,2.391,0,0,1-2.056-.958,3.065,3.065,0,0,1-.464-2.412l.038-.254a4.6,4.6,0,0,1,1.184-2.552,3.026,3.026,0,0,1,2.27-.952,2.135,2.135,0,0,1,1.866.848,2.978,2.978,0,0,1,.381,2.257l-.159,1.009h-3.8a1.823,1.823,0,0,0,.235,1.157,1.024,1.024,0,0,0,.92.429,3.239,3.239,0,0,0,.946-.126,5.1,5.1,0,0,0,.9-.387l.311,1.144a3.807,3.807,0,0,1-1.114.568,4.5,4.5,0,0,1-1.457.229m.743-5.7a.945.945,0,0,0-.752.4,2.629,2.629,0,0,0-.479,1.032l.012.031h1.943l.025-.164a1.594,1.594,0,0,0-.079-.956.681.681,0,0,0-.67-.339"/>
      <path id="Trazado_213948" data-name="Trazado 213948" d="M166.032,253.1a.566.566,0,0,0-.178-.533,2.2,2.2,0,0,0-.92-.388,3.376,3.376,0,0,1-1.6-.732,1.4,1.4,0,0,1-.368-1.325,2.317,2.317,0,0,1,.94-1.523,3.182,3.182,0,0,1,1.98-.6,2.576,2.576,0,0,1,1.844.623,1.589,1.589,0,0,1,.479,1.548l-.012.038h-1.771a.9.9,0,0,0-.118-.678.713.713,0,0,0-.625-.254.955.955,0,0,0-.635.222.867.867,0,0,0-.317.545.547.547,0,0,0,.152.524,2.147,2.147,0,0,0,.933.359,3.336,3.336,0,0,1,1.638.745,1.483,1.483,0,0,1,.362,1.356,2.236,2.236,0,0,1-.987,1.533,3.583,3.583,0,0,1-2.073.567,2.474,2.474,0,0,1-1.9-.7,1.7,1.7,0,0,1-.482-1.574l.012-.038h1.676a.908.908,0,0,0,.187.8,1.035,1.035,0,0,0,.746.247,1.143,1.143,0,0,0,.7-.2.854.854,0,0,0,.336-.552"/>
      <path id="Trazado_213949" data-name="Trazado 213949" d="M337.582,249.015a2.936,2.936,0,0,1,.927-.759,2.365,2.365,0,0,1,1.085-.261,1.5,1.5,0,0,1,1.346.664,2.767,2.767,0,0,1,.165,2.041l-.857,4.291h-1.834l.856-4.295a1.445,1.445,0,0,0-.034-1.005.794.794,0,0,0-.7-.267,1.208,1.208,0,0,0-.581.153,1.86,1.86,0,0,0-.517.419l-1,4.995h-1.828l1.371-6.869h1.708Z"/>
      <path id="Trazado_213950" data-name="Trazado 213950" d="M341.955,251.493a4.5,4.5,0,0,1,1.2-2.548,3.217,3.217,0,0,1,2.383-.949,2.313,2.313,0,0,1,2.051.987,3.381,3.381,0,0,1,.431,2.51l-.019.134a4.525,4.525,0,0,1-1.2,2.552,3.221,3.221,0,0,1-2.383.945,2.312,2.312,0,0,1-2.05-.983,3.363,3.363,0,0,1-.426-2.514Zm1.8.131a3.235,3.235,0,0,0,.032,1.527.8.8,0,0,0,.844.545,1.157,1.157,0,0,0,.99-.573,3.768,3.768,0,0,0,.54-1.5l.019-.134a3.194,3.194,0,0,0-.041-1.508.8.8,0,0,0-.835-.557,1.165,1.165,0,0,0-1,.583,3.643,3.643,0,0,0-.53,1.482Z"/>
      <rect id="Rectángulo_52957" data-name="Rectángulo 52957" width="76.665" height="2" transform="translate(120.772 8.184)" fill="#12263f"/>
      <rect id="Rectángulo_52958" data-name="Rectángulo 52958" width="76.665" height="2" transform="translate(120.772 184.62)" fill="#12263f"/>
      <rect id="Rectángulo_52959" data-name="Rectángulo 52959" width="2" height="176.436" transform="translate(158.104 9.184)" fill="#12263f"/>
      <rect id="Rectángulo_52960" data-name="Rectángulo 52960" width="147.564" height="70.574" transform="translate(86.046 87.957)" fill="#cc5a49"/>
      <path id="Trazado_213951" data-name="Trazado 213951" d="M234.109,159.031H85.545V87.457H234.109Zm-147.564-1H233.109V88.457H86.545Z" fill="#12263f"/>
      <rect id="Rectángulo_52961" data-name="Rectángulo 52961" width="147.564" height="25.307" transform="translate(268.184 190.789)" fill="#4586ac"/>
      <path id="Trazado_213952" data-name="Trazado 213952" d="M416.248,216.6H267.684V190.288H416.248Zm-147.564-1H415.248V191.288H268.684Z" fill="#13263d"/>
      <rect id="Rectángulo_52962" data-name="Rectángulo 52962" width="147.564" height="1" transform="translate(86.283 110.269)" fill="#14263e"/>
      <rect id="Rectángulo_52963" data-name="Rectángulo 52963" width="147.802" height="1" transform="translate(268.184 203.744)" fill="#13263d"/>
      <rect id="Rectángulo_52964" data-name="Rectángulo 52964" width="74.376" height="1" transform="translate(305.966 225.516)" fill="#13263d"/>
      <rect id="Rectángulo_52965" data-name="Rectángulo 52965" width="74.376" height="1" transform="translate(305.966 152.566)" fill="#13263d"/>
      <rect id="Rectángulo_52966" data-name="Rectángulo 52966" width="1" height="72.95" transform="translate(342.154 153.066)" fill="#13263d"/>
      <rect id="Rectángulo_52967" data-name="Rectángulo 52967" width="4.634" height="28.218" transform="translate(340.629 124.848)" fill="#13263d"/>
      <rect id="Rectángulo_52968" data-name="Rectángulo 52968" width="3.089" height="25.129" transform="translate(341.61 101.085)" fill="#13263d"/>
      <path id="Trazado_213953" data-name="Trazado 213953" d="M345.2,110.472h-4.5a.572.572,0,0,1-.572-.572v-1.114a.572.572,0,0,1,.572-.571h4.5a.572.572,0,0,1,.572.571V109.9a.572.572,0,0,1-.572.572" fill="#13263d"/>
      <path id="Trazado_213954" data-name="Trazado 213954" d="M345.2,104.635h-4.5a.572.572,0,0,1-.572-.572v-1.114a.572.572,0,0,1,.572-.571h4.5a.572.572,0,0,1,.572.571v1.114a.572.572,0,0,1-.572.572" fill="#13263d"/>
      <path id="Trazado_213955" data-name="Trazado 213955" d="M345.2,115.907h-4.5a.572.572,0,0,1-.572-.572v-1.114a.572.572,0,0,1,.572-.571h4.5a.572.572,0,0,1,.572.571v1.114a.572.572,0,0,1-.572.572" fill="#13263d"/>
      <path id="Trazado_213956" data-name="Trazado 213956" d="M345.2,119.959h-4.5a.572.572,0,0,1-.572-.572v-1.114a.572.572,0,0,1,.572-.571h4.5a.572.572,0,0,1,.572.571v1.114a.572.572,0,0,1-.572.572" fill="#13263d"/>
      <path id="Trazado_213957" data-name="Trazado 213957" d="M345.2,122.944h-4.5a.572.572,0,0,1-.572-.572v-1.114a.572.572,0,0,1,.572-.571h4.5a.572.572,0,0,1,.572.571v1.114a.572.572,0,0,1-.572.572" fill="#13263d"/>
      <path id="Trazado_213958" data-name="Trazado 213958" d="M343.154,97.316a6.421,6.421,0,0,1,1.545,3.963h-3.09a7.44,7.44,0,0,1,1.545-3.963" fill="#13263d"/>
      <rect id="Rectángulo_52969" data-name="Rectángulo 52969" width="4.989" height="1" transform="translate(64.482 22.586)" fill="#12263f"/>
      <rect id="Rectángulo_52970" data-name="Rectángulo 52970" width="4.989" height="1" transform="translate(64.482 57.516)" fill="#12263f"/>
      <rect id="Rectángulo_52971" data-name="Rectángulo 52971" width="4.989" height="1" transform="translate(64.482 91.447)" fill="#12263f"/>
      <rect id="Rectángulo_52972" data-name="Rectángulo 52972" width="4.989" height="1" transform="translate(64.482 126.399)" fill="#12263f"/>
      <rect id="Rectángulo_52973" data-name="Rectángulo 52973" width="4.989" height="1" transform="translate(64.482 161.351)" fill="#12263f"/>
      <rect id="Rectángulo_52974" data-name="Rectángulo 52974" width="4.989" height="1" transform="translate(64.482 195.679)" fill="#12263f"/>
      <rect id="Rectángulo_52975" data-name="Rectángulo 52975" width="4.989" height="1" transform="translate(64.482 229.541)" fill="#12263f"/>
    </g>
  </g>
</svg>
