<svg id="Grupo_172958" data-name="Grupo 172958" xmlns="http://www.w3.org/2000/svg" xmlns:xlink="http://www.w3.org/1999/xlink" width="266.257" height="314.689" viewBox="0 0 266.257 314.689">
  <defs>
    <clipPath id="clip-path">
      <rect id="Rectángulo_53002" data-name="Rectángulo 53002" width="266.257" height="314.689" fill="none"/>
    </clipPath>
    <clipPath id="clip-path-2">
      <path id="Trazado_214029" data-name="Trazado 214029" d="M3.622,152.215A128.792,128.792,0,1,0,132.413,23.423,128.792,128.792,0,0,0,3.622,152.215" fill="none"/>
    </clipPath>
  </defs>
  <g id="Grupo_172953" data-name="Grupo 172953">
    <g id="Grupo_172952" data-name="Grupo 172952" clip-path="url(#clip-path)">
      <path id="Trazado_214027" data-name="Trazado 214027" d="M261.206,152.215A128.792,128.792,0,1,1,132.414,23.423,128.792,128.792,0,0,1,261.206,152.215" fill="#66c2a5"/>
    </g>
  </g>
  <g id="Grupo_172955" data-name="Grupo 172955">
    <g id="Grupo_172954" data-name="Grupo 172954" clip-path="url(#clip-path-2)">
      <path id="Trazado_214028" data-name="Trazado 214028" d="M5.7,156.948l258.772-4.733,1.782,96.337-59.881,56.317L82.337,308.077,23.168,263.166,0,198.295Z" fill="#fc8d62"/>
    </g>
  </g>
  <g id="Grupo_172957" data-name="Grupo 172957">
    <g id="Grupo_172956" data-name="Grupo 172956" clip-path="url(#clip-path)">
      <path id="Trazado_214030" data-name="Trazado 214030" d="M107.285,97.123l.738-6.5h7.172v2.118h-5.089l-.316,2.751A4.028,4.028,0,0,1,111.715,95a3.688,3.688,0,0,1,2.865,1.134,4.528,4.528,0,0,1,1.037,3.172,4.647,4.647,0,0,1-.523,2.22,3.687,3.687,0,0,1-1.5,1.52,4.676,4.676,0,0,1-2.3.541,4.965,4.965,0,0,1-2.154-.471,3.8,3.8,0,0,1-1.568-1.322,3.6,3.6,0,0,1-.611-1.943h2.513a1.874,1.874,0,0,0,.559,1.244,1.767,1.767,0,0,0,1.252.444,1.56,1.56,0,0,0,1.327-.62,2.864,2.864,0,0,0,.466-1.753,2.375,2.375,0,0,0-.536-1.67,1.969,1.969,0,0,0-1.521-.58,2.2,2.2,0,0,0-1.467.474l-.247.229Z"/>
      <path id="Trazado_214031" data-name="Trazado 214031" d="M125.848,98.125a6.477,6.477,0,0,1-1.1,4.06,4.389,4.389,0,0,1-6.416.027,6.293,6.293,0,0,1-1.133-3.955V95.9a6.4,6.4,0,0,1,1.111-4.069,4.4,4.4,0,0,1,6.4-.014,6.276,6.276,0,0,1,1.134,3.951Zm-2.54-2.59a4.685,4.685,0,0,0-.435-2.318,1.47,1.47,0,0,0-1.358-.726,1.446,1.446,0,0,0-1.323.69,4.387,4.387,0,0,0-.452,2.161v3.114a4.911,4.911,0,0,0,.426,2.327,1.451,1.451,0,0,0,1.367.761,1.425,1.425,0,0,0,1.344-.731,4.791,4.791,0,0,0,.431-2.234Z"/>
      <path id="Trazado_214032" data-name="Trazado 214032" d="M127.8,102.167a1.276,1.276,0,0,1,.409-.983,1.584,1.584,0,0,1,2.056,0,1.276,1.276,0,0,1,.409.983,1.262,1.262,0,0,1-.4.972,1.617,1.617,0,0,1-2.066,0,1.262,1.262,0,0,1-.4-.972"/>
      <path id="Trazado_214033" data-name="Trazado 214033" d="M139.682,90.487v2.092h-.247a4.313,4.313,0,0,0-2.773.9,3.645,3.645,0,0,0-1.261,2.417,3.461,3.461,0,0,1,2.575-1.037,3.265,3.265,0,0,1,2.655,1.195,4.794,4.794,0,0,1,.984,3.147,4.718,4.718,0,0,1-.54,2.259,3.882,3.882,0,0,1-1.53,1.573,4.443,4.443,0,0,1-2.237.562,4.148,4.148,0,0,1-3.265-1.406,5.457,5.457,0,0,1-1.243-3.753v-.914a8.223,8.223,0,0,1,.786-3.678,5.769,5.769,0,0,1,2.259-2.469,6.618,6.618,0,0,1,3.415-.884ZM137.2,96.9a2.025,2.025,0,0,0-1.116.32,1.92,1.92,0,0,0-.738.847v.771a3.43,3.43,0,0,0,.5,1.988,1.621,1.621,0,0,0,1.407.715,1.6,1.6,0,0,0,1.322-.645,3.024,3.024,0,0,0,0-3.355A1.662,1.662,0,0,0,137.2,96.9"/>
      <path id="Trazado_214034" data-name="Trazado 214034" d="M143.083,93.079a2.533,2.533,0,0,1,.765-1.912,2.779,2.779,0,0,1,2-.733,2.808,2.808,0,0,1,2.021.726,2.573,2.573,0,0,1,.765,1.963v.633a2.5,2.5,0,0,1-.765,1.907,3.159,3.159,0,0,1-4.021,0,2.563,2.563,0,0,1-.769-1.957Zm1.688.688a1.2,1.2,0,0,0,.3.853,1.041,1.041,0,0,0,.795.323,1,1,0,0,0,.783-.327,1.273,1.273,0,0,0,.29-.875v-.655a1.246,1.246,0,0,0-.29-.857,1.126,1.126,0,0,0-1.582,0,1.269,1.269,0,0,0-.3.9Zm1.6,8.69-1.239-.668,6.249-10,1.239.668Zm2.831-2.179a2.493,2.493,0,0,1,.773-1.911,2.8,2.8,0,0,1,2-.726,2.843,2.843,0,0,1,2.017.716,2.565,2.565,0,0,1,.769,1.973v.633a2.522,2.522,0,0,1-.756,1.9,2.792,2.792,0,0,1-2.013.724,2.821,2.821,0,0,1-2.03-.729,2.549,2.549,0,0,1-.764-1.934Zm1.687.7a1.184,1.184,0,0,0,.316.831,1.029,1.029,0,0,0,.791.345q1.073,0,1.073-1.194v-.671a1.21,1.21,0,0,0-.3-.854,1.133,1.133,0,0,0-1.582,0,1.248,1.248,0,0,0-.3.88Z"/>
      <path id="Trazado_214035" data-name="Trazado 214035" d="M114.422,223.351h1.45V225.4h-1.45v2.768h-2.54V225.4h-5.247l-.114-1.6,5.335-8.428h2.566Zm-5.37,0h2.83v-4.518l-.167.29Z"/>
      <path id="Trazado_214036" data-name="Trazado 214036" d="M123.176,223.052a3.209,3.209,0,0,1-2.32.975,3.426,3.426,0,0,1-2.716-1.165,4.594,4.594,0,0,1-1.019-3.141,4.913,4.913,0,0,1,.549-2.308,4.053,4.053,0,0,1,1.534-1.635,4.268,4.268,0,0,1,2.214-.584,4.076,4.076,0,0,1,2.25.633,4.171,4.171,0,0,1,1.53,1.82,6.521,6.521,0,0,1,.553,2.715v.941a7.4,7.4,0,0,1-1.59,5.027,6.016,6.016,0,0,1-4.509,1.952l-.624.008v-2.117l.562-.01q3.314-.148,3.586-3.111m-1.7-.967a1.783,1.783,0,0,0,1.059-.315,2.117,2.117,0,0,0,.672-.765v-1.047a3.5,3.5,0,0,0-.492-2,1.528,1.528,0,0,0-1.318-.711,1.487,1.487,0,0,0-1.257.7,2.981,2.981,0,0,0-.492,1.754,2.885,2.885,0,0,0,.479,1.719,1.562,1.562,0,0,0,1.349.672"/>
      <path id="Trazado_214037" data-name="Trazado 214037" d="M127.8,226.919a1.275,1.275,0,0,1,.409-.983,1.584,1.584,0,0,1,2.056,0,1.275,1.275,0,0,1,.409.983,1.26,1.26,0,0,1-.4.971,1.614,1.614,0,0,1-2.066,0,1.26,1.26,0,0,1-.4-.971"/>
      <path id="Trazado_214038" data-name="Trazado 214038" d="M140.306,223.351h1.45V225.4h-1.45v2.768h-2.54V225.4h-5.247l-.114-1.6,5.335-8.428h2.566Zm-5.37,0h2.83v-4.518l-.167.29Z"/>
      <path id="Trazado_214039" data-name="Trazado 214039" d="M143.083,217.831a2.533,2.533,0,0,1,.765-1.912,2.779,2.779,0,0,1,2-.733,2.808,2.808,0,0,1,2.021.726,2.573,2.573,0,0,1,.765,1.963v.633a2.5,2.5,0,0,1-.765,1.907,3.159,3.159,0,0,1-4.021,0,2.563,2.563,0,0,1-.769-1.957Zm1.688.688a1.2,1.2,0,0,0,.3.853,1.041,1.041,0,0,0,.795.323,1,1,0,0,0,.783-.327,1.273,1.273,0,0,0,.29-.875v-.655a1.246,1.246,0,0,0-.29-.857,1.126,1.126,0,0,0-1.582-.005,1.269,1.269,0,0,0-.3.9Zm1.6,8.69-1.239-.668,6.249-10,1.239.668Zm2.831-2.179a2.493,2.493,0,0,1,.773-1.911,2.8,2.8,0,0,1,2-.726,2.843,2.843,0,0,1,2.017.716,2.565,2.565,0,0,1,.769,1.973v.633a2.522,2.522,0,0,1-.756,1.9,2.792,2.792,0,0,1-2.013.724,2.821,2.821,0,0,1-2.03-.729,2.549,2.549,0,0,1-.764-1.934Zm1.687.7a1.184,1.184,0,0,0,.316.831,1.029,1.029,0,0,0,.791.345q1.073,0,1.073-1.194v-.671a1.21,1.21,0,0,0-.3-.854,1.133,1.133,0,0,0-1.582,0,1.248,1.248,0,0,0-.3.88Z"/>
      <path id="Trazado_214040" data-name="Trazado 214040" d="M120.881.175l.079,1.1A3.321,3.321,0,0,1,123.694,0a2.758,2.758,0,0,1,2.249.888,4.138,4.138,0,0,1,.756,2.654V9.685h-2.54v-6.1a1.658,1.658,0,0,0-.351-1.177,1.576,1.576,0,0,0-1.169-.365,1.749,1.749,0,0,0-1.609.916V9.685h-2.54V.175Z"/>
      <path id="Trazado_214041" data-name="Trazado 214041" d="M128.228,4.842a5.628,5.628,0,0,1,.545-2.522A3.986,3.986,0,0,1,130.342.606,4.577,4.577,0,0,1,132.719,0a4.331,4.331,0,0,1,3.142,1.177,4.727,4.727,0,0,1,1.358,3.2l.018.65a4.975,4.975,0,0,1-1.222,3.512,4.736,4.736,0,0,1-6.561,0,5.061,5.061,0,0,1-1.226-3.586Zm2.54.181a3.549,3.549,0,0,0,.51,2.072,1.83,1.83,0,0,0,2.9.009,3.885,3.885,0,0,0,.519-2.267,3.516,3.516,0,0,0-.519-2.059,1.686,1.686,0,0,0-1.459-.731,1.657,1.657,0,0,0-1.441.727,3.949,3.949,0,0,0-.51,2.249"/>
      <path id="Trazado_214042" data-name="Trazado 214042" d="M124.006,306.858l-.009.308.053.008,2.769-5.836h2.724L123.8,312.272a6.83,6.83,0,0,1-1.389,1.723,3.066,3.066,0,0,1-2.1.694,2.9,2.9,0,0,1-.559-.053c-.178-.035-.391-.085-.637-.149l.677-1.872c.059.012.129.023.211.035a1.533,1.533,0,0,0,.22.018,1.433,1.433,0,0,0,.936-.33,2.506,2.506,0,0,0,.628-.76l.4-.721-1.2-9.519h2.725Z"/>
      <path id="Trazado_214043" data-name="Trazado 214043" d="M132.611,311.033a3.314,3.314,0,0,1-2.848-1.328,4.25,4.25,0,0,1-.642-3.339l.053-.352a6.365,6.365,0,0,1,1.639-3.533,4.186,4.186,0,0,1,3.142-1.319,2.954,2.954,0,0,1,2.584,1.174,4.121,4.121,0,0,1,.528,3.124l-.22,1.4h-5.256a2.532,2.532,0,0,0,.325,1.6,1.419,1.419,0,0,0,1.275.6,4.459,4.459,0,0,0,1.309-.176,6.973,6.973,0,0,0,1.24-.536l.43,1.586a5.3,5.3,0,0,1-1.542.786,6.261,6.261,0,0,1-2.017.318m1.028-7.893a1.313,1.313,0,0,0-1.042.55,3.655,3.655,0,0,0-.663,1.428l.018.043h2.689l.035-.228a2.2,2.2,0,0,0-.11-1.323.944.944,0,0,0-.927-.47"/>
      <path id="Trazado_214044" data-name="Trazado 214044" d="M142.8,308.229a.786.786,0,0,0-.246-.738,3.041,3.041,0,0,0-1.275-.536,4.688,4.688,0,0,1-2.214-1.015,1.939,1.939,0,0,1-.51-1.833,3.209,3.209,0,0,1,1.3-2.109,4.4,4.4,0,0,1,2.742-.835,3.566,3.566,0,0,1,2.553.861,2.2,2.2,0,0,1,.664,2.144l-.018.053h-2.452a1.252,1.252,0,0,0-.163-.94.988.988,0,0,0-.865-.352,1.33,1.33,0,0,0-.879.308,1.2,1.2,0,0,0-.44.756.758.758,0,0,0,.211.724,2.956,2.956,0,0,0,1.292.5,4.631,4.631,0,0,1,2.268,1.033,2.053,2.053,0,0,1,.5,1.877,3.1,3.1,0,0,1-1.367,2.123,4.962,4.962,0,0,1-2.87.786,3.426,3.426,0,0,1-2.628-.976,2.353,2.353,0,0,1-.667-2.18l.017-.052h2.32a1.251,1.251,0,0,0,.26,1.107,1.427,1.427,0,0,0,1.032.343,1.579,1.579,0,0,0,.967-.281,1.184,1.184,0,0,0,.466-.765"/>
    </g>
  </g>
</svg>
