<svg xmlns="http://www.w3.org/2000/svg" xmlns:xlink="http://www.w3.org/1999/xlink" width="1327.991" height="608.28" viewBox="0 0 1327.991 608.28">
  <defs>
    <linearGradient id="linear-gradient" x1="0.5" x2="0.5" y2="1" gradientUnits="objectBoundingBox">
      <stop offset="0" stop-color="#7e7e7e"/>
      <stop offset="1" stop-color="#fff"/>
    </linearGradient>
    <clipPath id="clip-path">
      <ellipse id="Elipse_4979" data-name="Elipse 4979" cx="44.421" cy="36.392" rx="44.421" ry="36.392" fill="none"/>
    </clipPath>
  </defs>
  <g id="Grupo_172826" data-name="Grupo 172826" transform="translate(-135.991 -915.174)" opacity="0.962">
    <g id="Grupo_149857" data-name="Grupo 149857" transform="translate(135.991 915.174)">
      <rect id="Rectángulo_44012" data-name="Rectángulo 44012" width="1327.991" height="295.914" transform="translate(0 312.367)" opacity="0.15" fill="url(#linear-gradient)"/>
      <rect id="Rectángulo_44432" data-name="Rectángulo 44432" width="1327.991" height="312.253" transform="translate(1327.991 312.253) rotate(180)" opacity="0.15" fill="url(#linear-gradient)"/>
    </g>
    <g id="Grupo_149858" data-name="Grupo 149858" transform="translate(188.839 1080.733)" opacity="0.711">
      <path id="Trazado_174289" data-name="Trazado 174289" d="M197.961,383.022c-62.9,0-113.883,41.772-113.883,93.3s50.987,93.3,113.883,93.3,113.883-41.772,113.883-93.3S260.857,383.022,197.961,383.022Zm0,167.95c-50.324,0-91.119-33.422-91.119-74.65s40.8-74.65,91.119-74.65,91.119,33.422,91.119,74.65S248.285,550.972,197.961,550.972Z" transform="translate(586.304 -170.433)" fill="#fdfdfd"/>
      <g id="Grupo_124665" data-name="Grupo 124665" transform="translate(0 53.493)" opacity="0.23">
        <path id="Trazado_174290" data-name="Trazado 174290" d="M59.688,310.732-111.288,450.806a17.354,17.354,0,0,1-21.126,0h0c-5.834-4.779-5.834-12.528,0-17.308L38.562,293.425a17.356,17.356,0,0,1,21.126,0h0C65.522,298.2,65.522,305.953,59.688,310.732Z" transform="translate(136.79 -289.84)" fill="none" stroke="#8f9294" stroke-miterlimit="10" stroke-width="2"/>
        <path id="Trazado_174291" data-name="Trazado 174291" d="M57.955,404.109l-130.5,106.916a13.248,13.248,0,0,1-16.125,0h0c-4.454-3.649-4.454-9.563,0-13.211L41.829,390.9a13.249,13.249,0,0,1,16.126,0h0C62.408,394.546,62.408,400.461,57.955,404.109Z" transform="translate(128.113 -323.22)" fill="none" stroke="#8f9294" stroke-miterlimit="10" stroke-width="2"/>
      </g>
      <g id="Grupo_124669" data-name="Grupo 124669" transform="translate(1141.729 235.732)">
        <g id="Grupo_124668" data-name="Grupo 124668">
          <line id="Línea_1655" data-name="Línea 1655" x1="10.948" y2="8.969" fill="none" stroke="#d8d9da" stroke-miterlimit="10" stroke-width="0.78"/>
          <line id="Línea_1656" data-name="Línea 1656" x1="10.948" y2="8.969" transform="translate(5.334)" fill="none" stroke="#d8d9da" stroke-miterlimit="10" stroke-width="0.78"/>
          <line id="Línea_1657" data-name="Línea 1657" x1="10.948" y2="8.969" transform="translate(10.667)" fill="none" stroke="#d8d9da" stroke-miterlimit="10" stroke-width="0.78"/>
          <line id="Línea_1658" data-name="Línea 1658" x1="10.948" y2="8.969" transform="translate(16.001)" fill="none" stroke="#d8d9da" stroke-miterlimit="10" stroke-width="0.78"/>
          <line id="Línea_1659" data-name="Línea 1659" x1="10.948" y2="8.969" transform="translate(21.335)" fill="none" stroke="#d8d9da" stroke-miterlimit="10" stroke-width="0.78"/>
          <line id="Línea_1660" data-name="Línea 1660" x1="10.948" y2="8.969" transform="translate(26.668)" fill="none" stroke="#d8d9da" stroke-miterlimit="10" stroke-width="0.78"/>
          <line id="Línea_1661" data-name="Línea 1661" x1="10.948" y2="8.969" transform="translate(32.002)" fill="none" stroke="#d8d9da" stroke-miterlimit="10" stroke-width="0.78"/>
          <line id="Línea_1662" data-name="Línea 1662" x1="10.948" y2="8.969" transform="translate(37.336)" fill="none" stroke="#d8d9da" stroke-miterlimit="10" stroke-width="0.78"/>
          <line id="Línea_1663" data-name="Línea 1663" x1="10.948" y2="8.969" transform="translate(42.669)" fill="none" stroke="#d8d9da" stroke-miterlimit="10" stroke-width="0.78"/>
          <line id="Línea_1664" data-name="Línea 1664" x1="10.948" y2="8.969" transform="translate(48.003)" fill="none" stroke="#d8d9da" stroke-miterlimit="10" stroke-width="0.78"/>
          <line id="Línea_1665" data-name="Línea 1665" x1="10.948" y2="8.969" transform="translate(53.336)" fill="none" stroke="#d8d9da" stroke-miterlimit="10" stroke-width="0.78"/>
          <line id="Línea_1666" data-name="Línea 1666" x1="10.948" y2="8.969" transform="translate(58.67)" fill="none" stroke="#d8d9da" stroke-miterlimit="10" stroke-width="0.78"/>
          <line id="Línea_1667" data-name="Línea 1667" x1="10.948" y2="8.969" transform="translate(64.004)" fill="none" stroke="#d8d9da" stroke-miterlimit="10" stroke-width="0.78"/>
        </g>
      </g>
      <g id="Grupo_149859" data-name="Grupo 149859" transform="translate(205.347 86.949)" opacity="0.394">
        <g id="Grupo_124677" data-name="Grupo 124677">
          <g id="Grupo_124673" data-name="Grupo 124673">
            <line id="Línea_1668" data-name="Línea 1668" y2="7.237" transform="translate(4.417)" fill="none" stroke="#8f9294" stroke-miterlimit="10" stroke-width="0.388"/>
            <line id="Línea_1669" data-name="Línea 1669" x2="8.834" transform="translate(0 3.619)" fill="none" stroke="#8f9294" stroke-miterlimit="10" stroke-width="0.388"/>
          </g>
          <g id="Grupo_124674" data-name="Grupo 124674" transform="translate(24.072)">
            <line id="Línea_1670" data-name="Línea 1670" y2="7.237" transform="translate(4.417)" fill="none" stroke="#8f9294" stroke-miterlimit="10" stroke-width="0.388"/>
            <line id="Línea_1671" data-name="Línea 1671" x2="8.834" transform="translate(0 3.619)" fill="none" stroke="#8f9294" stroke-miterlimit="10" stroke-width="0.388"/>
          </g>
          <g id="Grupo_124675" data-name="Grupo 124675" transform="translate(48.144)">
            <line id="Línea_1672" data-name="Línea 1672" y2="7.237" transform="translate(4.417)" fill="none" stroke="#8f9294" stroke-miterlimit="10" stroke-width="0.388"/>
            <line id="Línea_1673" data-name="Línea 1673" x2="8.834" transform="translate(0 3.619)" fill="none" stroke="#8f9294" stroke-miterlimit="10" stroke-width="0.388"/>
          </g>
          <g id="Grupo_124676" data-name="Grupo 124676" transform="translate(72.215)">
            <line id="Línea_1674" data-name="Línea 1674" y2="7.237" transform="translate(4.417)" fill="none" stroke="#8f9294" stroke-miterlimit="10" stroke-width="0.388"/>
            <line id="Línea_1675" data-name="Línea 1675" x2="8.834" transform="translate(0 3.619)" fill="none" stroke="#8f9294" stroke-miterlimit="10" stroke-width="0.388"/>
          </g>
        </g>
        <g id="Grupo_124682" data-name="Grupo 124682" transform="translate(0 15.017)">
          <g id="Grupo_124678" data-name="Grupo 124678">
            <line id="Línea_1676" data-name="Línea 1676" y2="7.237" transform="translate(4.417)" fill="none" stroke="#8f9294" stroke-miterlimit="10" stroke-width="0.388"/>
            <line id="Línea_1677" data-name="Línea 1677" x2="8.834" transform="translate(0 3.619)" fill="none" stroke="#8f9294" stroke-miterlimit="10" stroke-width="0.388"/>
          </g>
          <g id="Grupo_124679" data-name="Grupo 124679" transform="translate(24.072)">
            <line id="Línea_1678" data-name="Línea 1678" y2="7.237" transform="translate(4.417)" fill="none" stroke="#8f9294" stroke-miterlimit="10" stroke-width="0.388"/>
            <line id="Línea_1679" data-name="Línea 1679" x2="8.834" transform="translate(0 3.619)" fill="none" stroke="#8f9294" stroke-miterlimit="10" stroke-width="0.388"/>
          </g>
          <g id="Grupo_124680" data-name="Grupo 124680" transform="translate(48.144)">
            <line id="Línea_1680" data-name="Línea 1680" y2="7.237" transform="translate(4.417)" fill="none" stroke="#8f9294" stroke-miterlimit="10" stroke-width="0.388"/>
            <line id="Línea_1681" data-name="Línea 1681" x2="8.834" transform="translate(0 3.619)" fill="none" stroke="#8f9294" stroke-miterlimit="10" stroke-width="0.388"/>
          </g>
          <g id="Grupo_124681" data-name="Grupo 124681" transform="translate(72.215)">
            <line id="Línea_1682" data-name="Línea 1682" y2="7.237" transform="translate(4.417)" fill="none" stroke="#8f9294" stroke-miterlimit="10" stroke-width="0.388"/>
            <line id="Línea_1683" data-name="Línea 1683" x2="8.834" transform="translate(0 3.619)" fill="none" stroke="#8f9294" stroke-miterlimit="10" stroke-width="0.388"/>
          </g>
        </g>
        <g id="Grupo_124687" data-name="Grupo 124687" transform="translate(0 30.034)">
          <g id="Grupo_124683" data-name="Grupo 124683">
            <line id="Línea_1684" data-name="Línea 1684" y2="7.237" transform="translate(4.417)" fill="none" stroke="#8f9294" stroke-miterlimit="10" stroke-width="0.388"/>
            <line id="Línea_1685" data-name="Línea 1685" x2="8.834" transform="translate(0 3.619)" fill="none" stroke="#8f9294" stroke-miterlimit="10" stroke-width="0.388"/>
          </g>
          <g id="Grupo_124684" data-name="Grupo 124684" transform="translate(24.072)">
            <line id="Línea_1686" data-name="Línea 1686" y2="7.237" transform="translate(4.417)" fill="none" stroke="#8f9294" stroke-miterlimit="10" stroke-width="0.388"/>
            <line id="Línea_1687" data-name="Línea 1687" x2="8.834" transform="translate(0 3.619)" fill="none" stroke="#8f9294" stroke-miterlimit="10" stroke-width="0.388"/>
          </g>
          <g id="Grupo_124685" data-name="Grupo 124685" transform="translate(48.144)">
            <line id="Línea_1688" data-name="Línea 1688" y2="7.237" transform="translate(4.417)" fill="none" stroke="#8f9294" stroke-miterlimit="10" stroke-width="0.388"/>
            <line id="Línea_1689" data-name="Línea 1689" x2="8.834" transform="translate(0 3.619)" fill="none" stroke="#8f9294" stroke-miterlimit="10" stroke-width="0.388"/>
          </g>
          <g id="Grupo_124686" data-name="Grupo 124686" transform="translate(72.215)">
            <line id="Línea_1690" data-name="Línea 1690" y2="7.237" transform="translate(4.417)" fill="none" stroke="#8f9294" stroke-miterlimit="10" stroke-width="0.388"/>
            <line id="Línea_1691" data-name="Línea 1691" x2="8.834" transform="translate(0 3.619)" fill="none" stroke="#8f9294" stroke-miterlimit="10" stroke-width="0.388"/>
          </g>
        </g>
        <g id="Grupo_124692" data-name="Grupo 124692" transform="translate(0 45.051)">
          <g id="Grupo_124688" data-name="Grupo 124688">
            <line id="Línea_1692" data-name="Línea 1692" y2="7.237" transform="translate(4.417)" fill="none" stroke="#8f9294" stroke-miterlimit="10" stroke-width="0.388"/>
            <line id="Línea_1693" data-name="Línea 1693" x2="8.834" transform="translate(0 3.619)" fill="none" stroke="#8f9294" stroke-miterlimit="10" stroke-width="0.388"/>
          </g>
          <g id="Grupo_124689" data-name="Grupo 124689" transform="translate(24.072)">
            <line id="Línea_1694" data-name="Línea 1694" y2="7.237" transform="translate(4.417)" fill="none" stroke="#8f9294" stroke-miterlimit="10" stroke-width="0.388"/>
            <line id="Línea_1695" data-name="Línea 1695" x2="8.834" transform="translate(0 3.619)" fill="none" stroke="#8f9294" stroke-miterlimit="10" stroke-width="0.388"/>
          </g>
          <g id="Grupo_124690" data-name="Grupo 124690" transform="translate(48.144)">
            <line id="Línea_1696" data-name="Línea 1696" y2="7.237" transform="translate(4.417)" fill="none" stroke="#8f9294" stroke-miterlimit="10" stroke-width="0.388"/>
            <line id="Línea_1697" data-name="Línea 1697" x2="8.834" transform="translate(0 3.619)" fill="none" stroke="#8f9294" stroke-miterlimit="10" stroke-width="0.388"/>
          </g>
          <g id="Grupo_124691" data-name="Grupo 124691" transform="translate(72.215)">
            <line id="Línea_1698" data-name="Línea 1698" y2="7.237" transform="translate(4.417)" fill="none" stroke="#8f9294" stroke-miterlimit="10" stroke-width="0.388"/>
            <line id="Línea_1699" data-name="Línea 1699" x2="8.834" transform="translate(0 3.619)" fill="none" stroke="#8f9294" stroke-miterlimit="10" stroke-width="0.388"/>
          </g>
        </g>
      </g>
      <rect id="Rectángulo_35685" data-name="Rectángulo 35685" width="97.944" height="6.728" transform="translate(990.729 0)" fill="none" stroke="#8f9294" stroke-linecap="round" stroke-linejoin="round" stroke-width="1"/>
      <g id="Grupo_124746" data-name="Grupo 124746" transform="translate(844.972 63.638)" opacity="0.367">
        <g id="Grupo_124745" data-name="Grupo 124745" transform="translate(0)" clip-path="url(#clip-path)">
          <path id="Trazado_174310" data-name="Trazado 174310" d="M501.577,136.445C489.291,147.129,476.1,157.073,463.81,167.8" transform="translate(-468.586 -138.152)" fill="none" stroke="#606060" stroke-miterlimit="10" stroke-width="0.655"/>
          <path id="Trazado_174311" data-name="Trazado 174311" d="M507.19,136.393c-13.685,12.015-28.989,23.688-43.418,35.554" transform="translate(-468.579 -138.134)" fill="none" stroke="#606060" stroke-miterlimit="10" stroke-width="0.655"/>
          <path id="Trazado_174312" data-name="Trazado 174312" d="M512.364,136.4c-16.245,13.305-32.6,26.707-48.72,39.921" transform="translate(-468.554 -138.138)" fill="none" stroke="#606060" stroke-miterlimit="10" stroke-width="0.655"/>
          <path id="Trazado_174313" data-name="Trazado 174313" d="M517.526,136.55q-26.553,21.759-53.831,44.094" transform="translate(-468.564 -138.188)" fill="none" stroke="#606060" stroke-miterlimit="10" stroke-width="0.655"/>
          <path id="Trazado_174314" data-name="Trazado 174314" d="M523.855,136.489c-19.8,15.844-39.849,31.84-60.086,48.309" transform="translate(-468.578 -138.167)" fill="none" stroke="#606060" stroke-miterlimit="10" stroke-width="0.655"/>
          <path id="Trazado_174315" data-name="Trazado 174315" d="M527.971,136.579c-20.768,17.513-41.349,33.942-62.457,51.667-.527.433-1.583.433-1.862,1.026" transform="translate(-468.556 -138.197)" fill="none" stroke="#606060" stroke-miterlimit="10" stroke-width="0.655"/>
          <path id="Trazado_174316" data-name="Trazado 174316" d="M533.749,136.461c-12.784,11.106-26.5,21.05-40.226,32.29-10.026,8.647-20.053,16-29.661,24.627" transform="translate(-468.597 -138.157)" fill="none" stroke="#606060" stroke-miterlimit="10" stroke-width="0.655"/>
          <path id="Trazado_174317" data-name="Trazado 174317" d="M537.292,137.765c-24.261,20.188-49.592,39.643-73.522,60.375" transform="translate(-468.579 -138.6)" fill="none" stroke="#606060" stroke-miterlimit="10" stroke-width="0.655"/>
          <path id="Trazado_174318" data-name="Trazado 174318" d="M537.262,144.249c-24.21,19.8-49.013,40.116-73.382,60.2" transform="translate(-468.6 -140.801)" fill="none" stroke="#606060" stroke-miterlimit="10" stroke-width="0.655"/>
          <path id="Trazado_174319" data-name="Trazado 174319" d="M539.925,147.767c-25.286,20.931-51.144,41.251-76.027,62.22" transform="translate(-468.604 -141.996)" fill="none" stroke="#606060" stroke-miterlimit="10" stroke-width="0.655"/>
          <path id="Trazado_174320" data-name="Trazado 174320" d="M545.127,147.736c-27.376,22.249-53.762,45.163-81.511,66.718" transform="translate(-468.549 -141.985)" fill="none" stroke="#606060" stroke-miterlimit="10" stroke-width="0.655"/>
          <path id="Trazado_174321" data-name="Trazado 174321" d="M550.692,147.97l-83.487,68.4" transform="translate(-469.244 -142.065)" fill="none" stroke="#606060" stroke-miterlimit="10" stroke-width="0.655"/>
          <path id="Trazado_174322" data-name="Trazado 174322" d="M557.061,147.974c-27.874,22.525-55.315,45.438-83.446,68.434" transform="translate(-470.487 -142.066)" fill="none" stroke="#606060" stroke-miterlimit="10" stroke-width="0.655"/>
          <path id="Trazado_174323" data-name="Trazado 174323" d="M561.069,150.913c-26.94,21.88-53.325,44.361-81.012,66.509" transform="translate(-471.735 -143.064)" fill="none" stroke="#606060" stroke-miterlimit="10" stroke-width="0.655"/>
          <path id="Trazado_174324" data-name="Trazado 174324" d="M562.482,157.09c-25.516,20.826-49.791,42.443-75.953,62.428" transform="translate(-472.989 -145.161)" fill="none" stroke="#606060" stroke-miterlimit="10" stroke-width="0.655"/>
          <path id="Trazado_174325" data-name="Trazado 174325" d="M563.548,164.17c-23.739,19.176-46.959,38.632-70.519,57.731" transform="translate(-474.248 -147.564)" fill="none" stroke="#606060" stroke-miterlimit="10" stroke-width="0.655"/>
          <path id="Trazado_174326" data-name="Trazado 174326" d="M564.966,170.164c-21.782,17.811-43.418,35.969-65.413,53.734" transform="translate(-475.513 -149.599)" fill="none" stroke="#606060" stroke-miterlimit="10" stroke-width="0.655"/>
          <path id="Trazado_174327" data-name="Trazado 174327" d="M566.146,176.763q-30.212,24.718-60.2,49.428" transform="translate(-476.751 -151.84)" fill="none" stroke="#606060" stroke-miterlimit="10" stroke-width="0.655"/>
          <path id="Trazado_174328" data-name="Trazado 174328" d="M567.479,183.234c-18.091,15.231-36.561,30.363-54.971,45.09" transform="translate(-478.023 -154.037)" fill="none" stroke="#606060" stroke-miterlimit="10" stroke-width="0.655"/>
          <path id="Trazado_174329" data-name="Trazado 174329" d="M568.659,189.833c-16.443,13.466-33.329,27.3-49.727,40.761" transform="translate(-479.268 -156.277)" fill="none" stroke="#606060" stroke-miterlimit="10" stroke-width="0.655"/>
          <path id="Trazado_174330" data-name="Trazado 174330" d="M569.768,196.537q-22.081,18.1-44.4,36.353" transform="translate(-480.515 -158.553)" fill="none" stroke="#606060" stroke-miterlimit="10" stroke-width="0.655"/>
          <path id="Trazado_174331" data-name="Trazado 174331" d="M571.178,202.6q-15.364,12.534-30.648,25.135-4.363,3.607-8.714,7.227" transform="translate(-481.765 -160.612)" fill="none" stroke="#606060" stroke-miterlimit="10" stroke-width="0.655"/>
          <path id="Trazado_174332" data-name="Trazado 174332" d="M572.392,209.851c-11.15,9.324-22.76,18.835-34.117,27.579" transform="translate(-483.016 -163.073)" fill="none" stroke="#606060" stroke-miterlimit="10" stroke-width="0.655"/>
        </g>
      </g>
      <ellipse id="Elipse_4980" data-name="Elipse 4980" cx="4.324" cy="3.542" rx="4.324" ry="3.542" transform="translate(1121.116 92.724)" fill="none" stroke="#606060" stroke-miterlimit="10" stroke-width="0.655"/>
      <g id="Grupo_124749" data-name="Grupo 124749" transform="translate(1162.136 67.891)">
        <g id="Grupo_124668-2" data-name="Grupo 124668" transform="translate(0 0)">
          <line id="Línea_1655-2" data-name="Línea 1655" x1="8.613" y2="7.056" fill="none" stroke="#d8d9da" stroke-miterlimit="10" stroke-width="0.78"/>
          <line id="Línea_1656-2" data-name="Línea 1656" x1="8.613" y2="7.056" transform="translate(4.196)" fill="none" stroke="#d8d9da" stroke-miterlimit="10" stroke-width="0.78"/>
          <line id="Línea_1657-2" data-name="Línea 1657" x1="8.613" y2="7.056" transform="translate(8.392)" fill="none" stroke="#d8d9da" stroke-miterlimit="10" stroke-width="0.78"/>
          <line id="Línea_1658-2" data-name="Línea 1658" x1="8.613" y2="7.056" transform="translate(12.589)" fill="none" stroke="#d8d9da" stroke-miterlimit="10" stroke-width="0.78"/>
          <line id="Línea_1659-2" data-name="Línea 1659" x1="8.613" y2="7.056" transform="translate(16.785)" fill="none" stroke="#d8d9da" stroke-miterlimit="10" stroke-width="0.78"/>
          <line id="Línea_1660-2" data-name="Línea 1660" x1="8.613" y2="7.056" transform="translate(20.981)" fill="none" stroke="#d8d9da" stroke-miterlimit="10" stroke-width="0.78"/>
          <line id="Línea_1661-2" data-name="Línea 1661" x1="8.613" y2="7.056" transform="translate(25.177)" fill="none" stroke="#d8d9da" stroke-miterlimit="10" stroke-width="0.78"/>
          <line id="Línea_1662-2" data-name="Línea 1662" x1="8.613" y2="7.056" transform="translate(29.373)" fill="none" stroke="#d8d9da" stroke-miterlimit="10" stroke-width="0.78"/>
          <line id="Línea_1663-2" data-name="Línea 1663" x1="8.613" y2="7.056" transform="translate(33.57)" fill="none" stroke="#d8d9da" stroke-miterlimit="10" stroke-width="0.78"/>
          <line id="Línea_1664-2" data-name="Línea 1664" x1="8.613" y2="7.056" transform="translate(37.766)" fill="none" stroke="#d8d9da" stroke-miterlimit="10" stroke-width="0.78"/>
          <line id="Línea_1665-2" data-name="Línea 1665" x1="8.613" y2="7.056" transform="translate(41.962)" fill="none" stroke="#d8d9da" stroke-miterlimit="10" stroke-width="0.78"/>
          <line id="Línea_1666-2" data-name="Línea 1666" x1="8.613" y2="7.056" transform="translate(46.158)" fill="none" stroke="#d8d9da" stroke-miterlimit="10" stroke-width="0.78"/>
          <line id="Línea_1667-2" data-name="Línea 1667" x1="8.613" y2="7.056" transform="translate(50.354)" fill="none" stroke="#d8d9da" stroke-miterlimit="10" stroke-width="0.78"/>
        </g>
      </g>
    </g>
  </g>
</svg>
