<svg id="Grupo_157254" data-name="Grupo 157254" xmlns="http://www.w3.org/2000/svg" xmlns:xlink="http://www.w3.org/1999/xlink" width="55.886" height="56.503" viewBox="0 0 55.886 56.503">
  <defs>
    <clipPath id="clip-path">
      <path id="Trazado_197565" data-name="Trazado 197565" d="M17.791,6.709A2.529,2.529,0,1,1,20.32,9.27a2.555,2.555,0,0,1-2.529-2.56M27.778,0H27.61a38.441,38.441,0,0,0-6.441.55c-5.7,1.007-6.74,3.117-6.74,7.007v5.137h13.48v1.713H9.37A8.417,8.417,0,0,0,.949,21.241,28.683,28.683,0,0,0,0,28.006v.135a28.883,28.883,0,0,0,.949,6.8c.959,3.991,3.247,6.834,7.165,6.834h4.635V35.617a8.566,8.566,0,0,1,8.421-8.374H34.633a6.791,6.791,0,0,0,6.74-6.85V7.558c0-3.653-3.082-6.4-6.74-7.007A41.948,41.948,0,0,0,27.828,0Z" fill="none"/>
    </clipPath>
    <linearGradient id="linear-gradient" x1="0.249" y1="0.929" x2="0.255" y2="0.929" gradientUnits="objectBoundingBox">
      <stop offset="0" stop-color="#5a9fd4"/>
      <stop offset="1" stop-color="#306998"/>
    </linearGradient>
    <clipPath id="clip-path-2">
      <path id="Trazado_197567" data-name="Trazado 197567" d="M47.223,63.724A2.53,2.53,0,1,1,49.752,66.3a2.547,2.547,0,0,1-2.529-2.577m10.1-35.066v5.986A8.646,8.646,0,0,1,48.9,43.19H35.44a6.876,6.876,0,0,0-6.74,6.85V62.876c0,3.653,3.176,5.8,6.74,6.85a22.545,22.545,0,0,0,13.464,0c3.394-.983,6.74-2.961,6.74-6.85V57.738H42.18V56.026h20.2c3.918,0,5.377-2.732,6.74-6.834,1.408-4.222,1.348-8.283,0-13.7-.968-3.9-2.817-6.834-6.74-6.834Z" transform="translate(-28.7 -28.658)" fill="none"/>
    </clipPath>
    <linearGradient id="linear-gradient-2" x1="0.067" y1="0.753" x2="0.073" y2="0.753" gradientUnits="objectBoundingBox">
      <stop offset="0" stop-color="#ffd43b"/>
      <stop offset="1" stop-color="#ffe873"/>
    </linearGradient>
  </defs>
  <g id="Grupo_157251" data-name="Grupo 157251">
    <g id="Grupo_157250" data-name="Grupo 157250" clip-path="url(#clip-path)">
      <path id="Trazado_197564" data-name="Trazado 197564" d="M-40.684,3.576,3.544,42,41.6-2.659-2.632-41.084Z" transform="translate(20.231 20.429)" fill="url(#linear-gradient)"/>
    </g>
  </g>
  <g id="Grupo_157253" data-name="Grupo 157253" transform="translate(14.429 14.408)">
    <g id="Grupo_157252" data-name="Grupo 157252" clip-path="url(#clip-path-2)">
      <path id="Trazado_197566" data-name="Trazado 197566" d="M70.748,37.341l-33.8-48.284L-10.805,23.141l33.8,48.284Z" transform="translate(-9.056 -8.966)" fill="url(#linear-gradient-2)"/>
    </g>
  </g>
</svg>
