<svg xmlns="http://www.w3.org/2000/svg" width="105.772" height="99.535" viewBox="0 0 105.772 99.535">
  <g id="Grupo_157196" data-name="Grupo 157196" opacity="0.5" style="mix-blend-mode: screen;isolation: isolate">
    <g id="Grupo_156501" data-name="Grupo 156501" transform="translate(0.001)">
      <path id="Trazado_196828" data-name="Trazado 196828" d="M570.583,362.426A1.584,1.584,0,1,1,569,360.843,1.585,1.585,0,0,1,570.583,362.426Z" transform="translate(-567.416 -360.843)" fill="#fff"/>
      <path id="Trazado_196829" data-name="Trazado 196829" d="M575.843,362.426a1.584,1.584,0,1,1-1.584-1.583A1.584,1.584,0,0,1,575.843,362.426Z" transform="translate(-564.784 -360.843)" fill="#fff"/>
      <path id="Trazado_196830" data-name="Trazado 196830" d="M581.1,362.426a1.584,1.584,0,1,1-1.583-1.583A1.584,1.584,0,0,1,581.1,362.426Z" transform="translate(-562.151 -360.843)" fill="#fff"/>
      <path id="Trazado_196831" data-name="Trazado 196831" d="M586.364,362.426a1.584,1.584,0,1,1-1.583-1.583A1.584,1.584,0,0,1,586.364,362.426Z" transform="translate(-559.519 -360.843)" fill="#fff"/>
      <path id="Trazado_196832" data-name="Trazado 196832" d="M591.624,362.426a1.584,1.584,0,1,1-1.583-1.583A1.584,1.584,0,0,1,591.624,362.426Z" transform="translate(-556.886 -360.843)" fill="#fff"/>
      <path id="Trazado_196833" data-name="Trazado 196833" d="M596.885,362.426a1.585,1.585,0,1,1-1.585-1.583A1.585,1.585,0,0,1,596.885,362.426Z" transform="translate(-554.254 -360.843)" fill="#fff"/>
      <path id="Trazado_196834" data-name="Trazado 196834" d="M602.145,362.426a1.584,1.584,0,1,1-1.585-1.583A1.585,1.585,0,0,1,602.145,362.426Z" transform="translate(-551.621 -360.843)" fill="#fff"/>
      <path id="Trazado_196835" data-name="Trazado 196835" d="M607.405,362.426a1.584,1.584,0,1,1-1.585-1.583A1.585,1.585,0,0,1,607.405,362.426Z" transform="translate(-548.989 -360.843)" fill="#fff"/>
      <path id="Trazado_196836" data-name="Trazado 196836" d="M612.665,362.426a1.585,1.585,0,1,1-1.584-1.583A1.585,1.585,0,0,1,612.665,362.426Z" transform="translate(-546.356 -360.843)" fill="#fff"/>
      <path id="Trazado_196837" data-name="Trazado 196837" d="M617.925,362.426a1.585,1.585,0,1,1-1.584-1.583A1.585,1.585,0,0,1,617.925,362.426Z" transform="translate(-543.724 -360.843)" fill="#fff"/>
      <path id="Trazado_196838" data-name="Trazado 196838" d="M623.185,362.426a1.584,1.584,0,1,1-1.584-1.583A1.585,1.585,0,0,1,623.185,362.426Z" transform="translate(-541.091 -360.843)" fill="#fff"/>
      <path id="Trazado_196839" data-name="Trazado 196839" d="M628.444,362.426a1.584,1.584,0,1,1-1.584-1.583A1.585,1.585,0,0,1,628.444,362.426Z" transform="translate(-538.458 -360.843)" fill="#fff"/>
      <path id="Trazado_196840" data-name="Trazado 196840" d="M633.7,362.426a1.584,1.584,0,1,1-1.585-1.583A1.584,1.584,0,0,1,633.7,362.426Z" transform="translate(-535.826 -360.843)" fill="#fff"/>
      <path id="Trazado_196841" data-name="Trazado 196841" d="M638.965,362.426a1.584,1.584,0,1,1-1.583-1.583A1.584,1.584,0,0,1,638.965,362.426Z" transform="translate(-533.193 -360.843)" fill="#fff"/>
    </g>
    <g id="Grupo_156502" data-name="Grupo 156502" transform="translate(0 8.03)">
      <circle id="Elipse_6051" data-name="Elipse 6051" cx="1.584" cy="1.584" r="1.584" fill="#fff"/>
      <circle id="Elipse_6052" data-name="Elipse 6052" cx="1.584" cy="1.584" r="1.584" transform="translate(7.893)" fill="#fff"/>
      <path id="Trazado_196842" data-name="Trazado 196842" d="M581.1,367.778a1.584,1.584,0,1,1-1.583-1.583A1.583,1.583,0,0,1,581.1,367.778Z" transform="translate(-562.15 -366.194)" fill="#fff"/>
      <path id="Trazado_196843" data-name="Trazado 196843" d="M586.364,367.778a1.584,1.584,0,1,1-1.583-1.583A1.583,1.583,0,0,1,586.364,367.778Z" transform="translate(-559.518 -366.194)" fill="#fff"/>
      <path id="Trazado_196844" data-name="Trazado 196844" d="M591.624,367.778a1.584,1.584,0,1,1-1.583-1.583A1.583,1.583,0,0,1,591.624,367.778Z" transform="translate(-556.885 -366.194)" fill="#fff"/>
      <path id="Trazado_196845" data-name="Trazado 196845" d="M596.885,367.778A1.585,1.585,0,1,1,595.3,366.2,1.584,1.584,0,0,1,596.885,367.778Z" transform="translate(-554.253 -366.194)" fill="#fff"/>
      <path id="Trazado_196846" data-name="Trazado 196846" d="M602.145,367.778a1.584,1.584,0,1,1-1.585-1.583A1.584,1.584,0,0,1,602.145,367.778Z" transform="translate(-551.62 -366.194)" fill="#fff"/>
      <path id="Trazado_196847" data-name="Trazado 196847" d="M607.405,367.778a1.584,1.584,0,1,1-1.585-1.583A1.584,1.584,0,0,1,607.405,367.778Z" transform="translate(-548.988 -366.194)" fill="#fff"/>
      <circle id="Elipse_6053" data-name="Elipse 6053" cx="1.584" cy="1.584" r="1.584" transform="translate(63.141)" fill="#fff"/>
      <circle id="Elipse_6054" data-name="Elipse 6054" cx="1.584" cy="1.584" r="1.584" transform="translate(71.034)" fill="#fff"/>
      <circle id="Elipse_6055" data-name="Elipse 6055" cx="1.584" cy="1.584" r="1.584" transform="translate(78.926)" fill="#fff"/>
      <path id="Trazado_196848" data-name="Trazado 196848" d="M628.444,367.778a1.584,1.584,0,1,1-1.584-1.583A1.584,1.584,0,0,1,628.444,367.778Z" transform="translate(-538.457 -366.194)" fill="#fff"/>
      <path id="Trazado_196849" data-name="Trazado 196849" d="M633.7,367.778a1.584,1.584,0,1,1-1.585-1.583A1.583,1.583,0,0,1,633.7,367.778Z" transform="translate(-535.825 -366.194)" fill="#fff"/>
      <path id="Trazado_196850" data-name="Trazado 196850" d="M638.965,367.778a1.584,1.584,0,1,1-1.583-1.583A1.583,1.583,0,0,1,638.965,367.778Z" transform="translate(-533.193 -366.194)" fill="#fff"/>
    </g>
    <g id="Grupo_156503" data-name="Grupo 156503" transform="translate(0 16.061)">
      <circle id="Elipse_6056" data-name="Elipse 6056" cx="1.584" cy="1.584" r="1.584" fill="#fff"/>
      <circle id="Elipse_6057" data-name="Elipse 6057" cx="1.584" cy="1.584" r="1.584" transform="translate(7.893)" fill="#fff"/>
      <path id="Trazado_196851" data-name="Trazado 196851" d="M581.1,373.132a1.584,1.584,0,1,1-1.583-1.584A1.582,1.582,0,0,1,581.1,373.132Z" transform="translate(-562.15 -371.547)" fill="#fff"/>
      <path id="Trazado_196852" data-name="Trazado 196852" d="M586.364,373.132a1.584,1.584,0,1,1-1.583-1.584A1.582,1.582,0,0,1,586.364,373.132Z" transform="translate(-559.518 -371.547)" fill="#fff"/>
      <path id="Trazado_196853" data-name="Trazado 196853" d="M591.624,373.132a1.584,1.584,0,1,1-1.583-1.584A1.582,1.582,0,0,1,591.624,373.132Z" transform="translate(-556.885 -371.547)" fill="#fff"/>
      <path id="Trazado_196854" data-name="Trazado 196854" d="M596.885,373.132a1.585,1.585,0,1,1-1.585-1.584A1.584,1.584,0,0,1,596.885,373.132Z" transform="translate(-554.253 -371.547)" fill="#fff"/>
      <path id="Trazado_196855" data-name="Trazado 196855" d="M602.145,373.132a1.584,1.584,0,1,1-1.585-1.584A1.584,1.584,0,0,1,602.145,373.132Z" transform="translate(-551.62 -371.547)" fill="#fff"/>
      <path id="Trazado_196856" data-name="Trazado 196856" d="M607.405,373.132a1.584,1.584,0,1,1-1.585-1.584A1.584,1.584,0,0,1,607.405,373.132Z" transform="translate(-548.988 -371.547)" fill="#fff"/>
      <circle id="Elipse_6058" data-name="Elipse 6058" cx="1.584" cy="1.584" r="1.584" transform="translate(63.141)" fill="#fff"/>
      <circle id="Elipse_6059" data-name="Elipse 6059" cx="1.584" cy="1.584" r="1.584" transform="translate(71.034)" fill="#fff"/>
      <circle id="Elipse_6060" data-name="Elipse 6060" cx="1.584" cy="1.584" r="1.584" transform="translate(78.926)" fill="#fff"/>
      <path id="Trazado_196857" data-name="Trazado 196857" d="M628.444,373.132a1.584,1.584,0,1,1-1.584-1.584A1.584,1.584,0,0,1,628.444,373.132Z" transform="translate(-538.457 -371.547)" fill="#fff"/>
      <path id="Trazado_196858" data-name="Trazado 196858" d="M633.7,373.132a1.584,1.584,0,1,1-1.585-1.584A1.583,1.583,0,0,1,633.7,373.132Z" transform="translate(-535.825 -371.547)" fill="#fff"/>
      <path id="Trazado_196859" data-name="Trazado 196859" d="M638.965,373.132a1.584,1.584,0,1,1-1.583-1.584A1.582,1.582,0,0,1,638.965,373.132Z" transform="translate(-533.193 -371.547)" fill="#fff"/>
    </g>
    <g id="Grupo_156504" data-name="Grupo 156504" transform="translate(0.001 24.092)">
      <path id="Trazado_196860" data-name="Trazado 196860" d="M570.583,378.483A1.584,1.584,0,1,1,569,376.9,1.584,1.584,0,0,1,570.583,378.483Z" transform="translate(-567.416 -376.899)" fill="#fff"/>
      <path id="Trazado_196861" data-name="Trazado 196861" d="M575.843,378.483a1.584,1.584,0,1,1-1.584-1.584A1.583,1.583,0,0,1,575.843,378.483Z" transform="translate(-564.784 -376.899)" fill="#fff"/>
      <path id="Trazado_196862" data-name="Trazado 196862" d="M581.1,378.483a1.584,1.584,0,1,1-1.583-1.584A1.582,1.582,0,0,1,581.1,378.483Z" transform="translate(-562.151 -376.899)" fill="#fff"/>
      <path id="Trazado_196863" data-name="Trazado 196863" d="M586.364,378.483a1.584,1.584,0,1,1-1.583-1.584A1.582,1.582,0,0,1,586.364,378.483Z" transform="translate(-559.519 -376.899)" fill="#fff"/>
      <path id="Trazado_196864" data-name="Trazado 196864" d="M591.624,378.483a1.584,1.584,0,1,1-1.583-1.584A1.582,1.582,0,0,1,591.624,378.483Z" transform="translate(-556.886 -376.899)" fill="#fff"/>
      <path id="Trazado_196865" data-name="Trazado 196865" d="M596.885,378.483A1.585,1.585,0,1,1,595.3,376.9,1.584,1.584,0,0,1,596.885,378.483Z" transform="translate(-554.254 -376.899)" fill="#fff"/>
      <path id="Trazado_196866" data-name="Trazado 196866" d="M602.145,378.483a1.584,1.584,0,1,1-1.585-1.584A1.584,1.584,0,0,1,602.145,378.483Z" transform="translate(-551.621 -376.899)" fill="#fff"/>
      <path id="Trazado_196867" data-name="Trazado 196867" d="M607.405,378.483a1.584,1.584,0,1,1-1.585-1.584A1.584,1.584,0,0,1,607.405,378.483Z" transform="translate(-548.989 -376.899)" fill="#fff"/>
      <path id="Trazado_196868" data-name="Trazado 196868" d="M612.665,378.483a1.585,1.585,0,1,1-1.584-1.584A1.584,1.584,0,0,1,612.665,378.483Z" transform="translate(-546.356 -376.899)" fill="#fff"/>
      <path id="Trazado_196869" data-name="Trazado 196869" d="M617.925,378.483a1.585,1.585,0,1,1-1.584-1.584A1.584,1.584,0,0,1,617.925,378.483Z" transform="translate(-543.724 -376.899)" fill="#fff"/>
      <path id="Trazado_196870" data-name="Trazado 196870" d="M623.185,378.483A1.584,1.584,0,1,1,621.6,376.9,1.584,1.584,0,0,1,623.185,378.483Z" transform="translate(-541.091 -376.899)" fill="#fff"/>
      <path id="Trazado_196871" data-name="Trazado 196871" d="M628.444,378.483a1.584,1.584,0,1,1-1.584-1.584A1.584,1.584,0,0,1,628.444,378.483Z" transform="translate(-538.458 -376.899)" fill="#fff"/>
      <path id="Trazado_196872" data-name="Trazado 196872" d="M633.7,378.483a1.584,1.584,0,1,1-1.585-1.584A1.583,1.583,0,0,1,633.7,378.483Z" transform="translate(-535.826 -376.899)" fill="#fff"/>
      <path id="Trazado_196873" data-name="Trazado 196873" d="M638.965,378.483a1.584,1.584,0,1,1-1.583-1.584A1.582,1.582,0,0,1,638.965,378.483Z" transform="translate(-533.193 -376.899)" fill="#fff"/>
    </g>
    <g id="Grupo_156505" data-name="Grupo 156505" transform="translate(0.001 32.122)">
      <path id="Trazado_196874" data-name="Trazado 196874" d="M570.583,383.836A1.584,1.584,0,1,1,569,382.251,1.584,1.584,0,0,1,570.583,383.836Z" transform="translate(-567.416 -382.251)" fill="#fff"/>
      <path id="Trazado_196875" data-name="Trazado 196875" d="M575.843,383.836a1.584,1.584,0,1,1-1.584-1.585A1.583,1.583,0,0,1,575.843,383.836Z" transform="translate(-564.784 -382.251)" fill="#fff"/>
      <path id="Trazado_196876" data-name="Trazado 196876" d="M581.1,383.836a1.584,1.584,0,1,1-1.583-1.585A1.582,1.582,0,0,1,581.1,383.836Z" transform="translate(-562.151 -382.251)" fill="#fff"/>
      <path id="Trazado_196877" data-name="Trazado 196877" d="M586.364,383.836a1.584,1.584,0,1,1-1.583-1.585A1.582,1.582,0,0,1,586.364,383.836Z" transform="translate(-559.519 -382.251)" fill="#fff"/>
      <path id="Trazado_196878" data-name="Trazado 196878" d="M591.624,383.836a1.584,1.584,0,1,1-1.583-1.585A1.582,1.582,0,0,1,591.624,383.836Z" transform="translate(-556.886 -382.251)" fill="#fff"/>
      <path id="Trazado_196879" data-name="Trazado 196879" d="M596.885,383.836a1.585,1.585,0,1,1-1.585-1.585A1.584,1.584,0,0,1,596.885,383.836Z" transform="translate(-554.254 -382.251)" fill="#fff"/>
      <path id="Trazado_196880" data-name="Trazado 196880" d="M602.145,383.836a1.584,1.584,0,1,1-1.585-1.585A1.584,1.584,0,0,1,602.145,383.836Z" transform="translate(-551.621 -382.251)" fill="#fff"/>
      <path id="Trazado_196881" data-name="Trazado 196881" d="M607.405,383.836a1.584,1.584,0,1,1-1.585-1.585A1.584,1.584,0,0,1,607.405,383.836Z" transform="translate(-548.989 -382.251)" fill="#fff"/>
      <path id="Trazado_196882" data-name="Trazado 196882" d="M612.665,383.836a1.585,1.585,0,1,1-1.584-1.585A1.584,1.584,0,0,1,612.665,383.836Z" transform="translate(-546.356 -382.251)" fill="#fff"/>
      <path id="Trazado_196883" data-name="Trazado 196883" d="M617.925,383.836a1.585,1.585,0,1,1-1.584-1.585A1.584,1.584,0,0,1,617.925,383.836Z" transform="translate(-543.724 -382.251)" fill="#fff"/>
      <path id="Trazado_196884" data-name="Trazado 196884" d="M623.185,383.836a1.584,1.584,0,1,1-1.584-1.585A1.584,1.584,0,0,1,623.185,383.836Z" transform="translate(-541.091 -382.251)" fill="#fff"/>
      <path id="Trazado_196885" data-name="Trazado 196885" d="M628.444,383.836a1.584,1.584,0,1,1-1.584-1.585A1.584,1.584,0,0,1,628.444,383.836Z" transform="translate(-538.458 -382.251)" fill="#fff"/>
      <path id="Trazado_196886" data-name="Trazado 196886" d="M633.7,383.836a1.584,1.584,0,1,1-1.585-1.585A1.583,1.583,0,0,1,633.7,383.836Z" transform="translate(-535.826 -382.251)" fill="#fff"/>
      <path id="Trazado_196887" data-name="Trazado 196887" d="M638.965,383.836a1.584,1.584,0,1,1-1.583-1.585A1.582,1.582,0,0,1,638.965,383.836Z" transform="translate(-533.193 -382.251)" fill="#fff"/>
    </g>
    <g id="Grupo_156506" data-name="Grupo 156506" transform="translate(0.001 40.153)">
      <path id="Trazado_196888" data-name="Trazado 196888" d="M570.583,389.188A1.584,1.584,0,1,1,569,387.6,1.585,1.585,0,0,1,570.583,389.188Z" transform="translate(-567.416 -387.603)" fill="#fff"/>
      <path id="Trazado_196889" data-name="Trazado 196889" d="M575.843,389.188a1.584,1.584,0,1,1-1.584-1.585A1.584,1.584,0,0,1,575.843,389.188Z" transform="translate(-564.784 -387.603)" fill="#fff"/>
      <path id="Trazado_196890" data-name="Trazado 196890" d="M581.1,389.188a1.584,1.584,0,1,1-1.583-1.585A1.584,1.584,0,0,1,581.1,389.188Z" transform="translate(-562.151 -387.603)" fill="#fff"/>
      <path id="Trazado_196891" data-name="Trazado 196891" d="M586.364,389.188a1.584,1.584,0,1,1-1.583-1.585A1.584,1.584,0,0,1,586.364,389.188Z" transform="translate(-559.519 -387.603)" fill="#fff"/>
      <path id="Trazado_196892" data-name="Trazado 196892" d="M591.624,389.188a1.584,1.584,0,1,1-1.583-1.585A1.584,1.584,0,0,1,591.624,389.188Z" transform="translate(-556.886 -387.603)" fill="#fff"/>
      <path id="Trazado_196893" data-name="Trazado 196893" d="M596.885,389.188A1.585,1.585,0,1,1,595.3,387.6,1.585,1.585,0,0,1,596.885,389.188Z" transform="translate(-554.254 -387.603)" fill="#fff"/>
      <path id="Trazado_196894" data-name="Trazado 196894" d="M602.145,389.188a1.584,1.584,0,1,1-1.585-1.585A1.585,1.585,0,0,1,602.145,389.188Z" transform="translate(-551.621 -387.603)" fill="#fff"/>
      <path id="Trazado_196895" data-name="Trazado 196895" d="M607.405,389.188a1.584,1.584,0,1,1-1.585-1.585A1.585,1.585,0,0,1,607.405,389.188Z" transform="translate(-548.989 -387.603)" fill="#fff"/>
      <path id="Trazado_196896" data-name="Trazado 196896" d="M612.665,389.188a1.585,1.585,0,1,1-1.584-1.585A1.585,1.585,0,0,1,612.665,389.188Z" transform="translate(-546.356 -387.603)" fill="#fff"/>
      <path id="Trazado_196897" data-name="Trazado 196897" d="M617.925,389.188a1.585,1.585,0,1,1-1.584-1.585A1.585,1.585,0,0,1,617.925,389.188Z" transform="translate(-543.724 -387.603)" fill="#fff"/>
      <path id="Trazado_196898" data-name="Trazado 196898" d="M623.185,389.188A1.584,1.584,0,1,1,621.6,387.6,1.585,1.585,0,0,1,623.185,389.188Z" transform="translate(-541.091 -387.603)" fill="#fff"/>
      <path id="Trazado_196899" data-name="Trazado 196899" d="M628.444,389.188a1.584,1.584,0,1,1-1.584-1.585A1.585,1.585,0,0,1,628.444,389.188Z" transform="translate(-538.458 -387.603)" fill="#fff"/>
      <path id="Trazado_196900" data-name="Trazado 196900" d="M633.7,389.188a1.584,1.584,0,1,1-1.585-1.585A1.584,1.584,0,0,1,633.7,389.188Z" transform="translate(-535.826 -387.603)" fill="#fff"/>
      <path id="Trazado_196901" data-name="Trazado 196901" d="M638.965,389.188a1.584,1.584,0,1,1-1.583-1.585A1.584,1.584,0,0,1,638.965,389.188Z" transform="translate(-533.193 -387.603)" fill="#fff"/>
    </g>
    <g id="Grupo_156507" data-name="Grupo 156507" transform="translate(0 48.183)">
      <circle id="Elipse_6061" data-name="Elipse 6061" cx="1.584" cy="1.584" r="1.584" fill="#fff"/>
      <circle id="Elipse_6062" data-name="Elipse 6062" cx="1.584" cy="1.584" r="1.584" transform="translate(7.893)" fill="#fff"/>
      <path id="Trazado_196902" data-name="Trazado 196902" d="M581.1,394.539a1.584,1.584,0,1,1-1.583-1.584A1.584,1.584,0,0,1,581.1,394.539Z" transform="translate(-562.15 -392.955)" fill="#fff"/>
      <path id="Trazado_196903" data-name="Trazado 196903" d="M586.364,394.539a1.584,1.584,0,1,1-1.583-1.584A1.584,1.584,0,0,1,586.364,394.539Z" transform="translate(-559.518 -392.955)" fill="#fff"/>
      <path id="Trazado_196904" data-name="Trazado 196904" d="M591.624,394.539a1.584,1.584,0,1,1-1.583-1.584A1.584,1.584,0,0,1,591.624,394.539Z" transform="translate(-556.885 -392.955)" fill="#fff"/>
      <path id="Trazado_196905" data-name="Trazado 196905" d="M596.885,394.539a1.585,1.585,0,1,1-1.585-1.584A1.585,1.585,0,0,1,596.885,394.539Z" transform="translate(-554.253 -392.955)" fill="#fff"/>
      <path id="Trazado_196906" data-name="Trazado 196906" d="M602.145,394.539a1.584,1.584,0,1,1-1.585-1.584A1.585,1.585,0,0,1,602.145,394.539Z" transform="translate(-551.62 -392.955)" fill="#fff"/>
      <path id="Trazado_196907" data-name="Trazado 196907" d="M607.405,394.539a1.584,1.584,0,1,1-1.585-1.584A1.585,1.585,0,0,1,607.405,394.539Z" transform="translate(-548.988 -392.955)" fill="#fff"/>
      <circle id="Elipse_6063" data-name="Elipse 6063" cx="1.584" cy="1.584" r="1.584" transform="translate(63.141)" fill="#fff"/>
      <circle id="Elipse_6064" data-name="Elipse 6064" cx="1.584" cy="1.584" r="1.584" transform="translate(71.034)" fill="#fff"/>
      <circle id="Elipse_6065" data-name="Elipse 6065" cx="1.584" cy="1.584" r="1.584" transform="translate(78.926)" fill="#fff"/>
      <path id="Trazado_196908" data-name="Trazado 196908" d="M628.444,394.539a1.584,1.584,0,1,1-1.584-1.584A1.585,1.585,0,0,1,628.444,394.539Z" transform="translate(-538.457 -392.955)" fill="#fff"/>
      <path id="Trazado_196909" data-name="Trazado 196909" d="M633.7,394.539a1.584,1.584,0,1,1-1.585-1.584A1.584,1.584,0,0,1,633.7,394.539Z" transform="translate(-535.825 -392.955)" fill="#fff"/>
      <path id="Trazado_196910" data-name="Trazado 196910" d="M638.965,394.539a1.584,1.584,0,1,1-1.583-1.584A1.584,1.584,0,0,1,638.965,394.539Z" transform="translate(-533.193 -392.955)" fill="#fff"/>
    </g>
    <g id="Grupo_156508" data-name="Grupo 156508" transform="translate(0.001 56.214)">
      <path id="Trazado_196911" data-name="Trazado 196911" d="M570.583,399.892A1.584,1.584,0,1,1,569,398.307,1.585,1.585,0,0,1,570.583,399.892Z" transform="translate(-567.416 -398.307)" fill="#fff"/>
      <path id="Trazado_196912" data-name="Trazado 196912" d="M575.843,399.892a1.584,1.584,0,1,1-1.584-1.585A1.584,1.584,0,0,1,575.843,399.892Z" transform="translate(-564.784 -398.307)" fill="#fff"/>
      <path id="Trazado_196913" data-name="Trazado 196913" d="M581.1,399.892a1.584,1.584,0,1,1-1.583-1.585A1.584,1.584,0,0,1,581.1,399.892Z" transform="translate(-562.151 -398.307)" fill="#fff"/>
      <path id="Trazado_196914" data-name="Trazado 196914" d="M586.364,399.892a1.584,1.584,0,1,1-1.583-1.585A1.584,1.584,0,0,1,586.364,399.892Z" transform="translate(-559.519 -398.307)" fill="#fff"/>
      <path id="Trazado_196915" data-name="Trazado 196915" d="M591.624,399.892a1.584,1.584,0,1,1-1.583-1.585A1.584,1.584,0,0,1,591.624,399.892Z" transform="translate(-556.886 -398.307)" fill="#fff"/>
      <path id="Trazado_196916" data-name="Trazado 196916" d="M596.885,399.892a1.585,1.585,0,1,1-1.585-1.585A1.585,1.585,0,0,1,596.885,399.892Z" transform="translate(-554.254 -398.307)" fill="#fff"/>
      <path id="Trazado_196917" data-name="Trazado 196917" d="M602.145,399.892a1.584,1.584,0,1,1-1.585-1.585A1.585,1.585,0,0,1,602.145,399.892Z" transform="translate(-551.621 -398.307)" fill="#fff"/>
      <path id="Trazado_196918" data-name="Trazado 196918" d="M607.405,399.892a1.584,1.584,0,1,1-1.585-1.585A1.585,1.585,0,0,1,607.405,399.892Z" transform="translate(-548.989 -398.307)" fill="#fff"/>
      <path id="Trazado_196919" data-name="Trazado 196919" d="M612.665,399.892a1.585,1.585,0,1,1-1.584-1.585A1.585,1.585,0,0,1,612.665,399.892Z" transform="translate(-546.356 -398.307)" fill="#fff"/>
      <path id="Trazado_196920" data-name="Trazado 196920" d="M617.925,399.892a1.585,1.585,0,1,1-1.584-1.585A1.585,1.585,0,0,1,617.925,399.892Z" transform="translate(-543.724 -398.307)" fill="#fff"/>
      <path id="Trazado_196921" data-name="Trazado 196921" d="M623.185,399.892a1.584,1.584,0,1,1-1.584-1.585A1.585,1.585,0,0,1,623.185,399.892Z" transform="translate(-541.091 -398.307)" fill="#fff"/>
      <path id="Trazado_196922" data-name="Trazado 196922" d="M628.444,399.892a1.584,1.584,0,1,1-1.584-1.585A1.585,1.585,0,0,1,628.444,399.892Z" transform="translate(-538.458 -398.307)" fill="#fff"/>
      <path id="Trazado_196923" data-name="Trazado 196923" d="M633.7,399.892a1.584,1.584,0,1,1-1.585-1.585A1.584,1.584,0,0,1,633.7,399.892Z" transform="translate(-535.826 -398.307)" fill="#fff"/>
      <path id="Trazado_196924" data-name="Trazado 196924" d="M638.965,399.892a1.584,1.584,0,1,1-1.583-1.585A1.584,1.584,0,0,1,638.965,399.892Z" transform="translate(-533.193 -398.307)" fill="#fff"/>
    </g>
    <g id="Grupo_156509" data-name="Grupo 156509" transform="translate(0.001 64.244)">
      <path id="Trazado_196925" data-name="Trazado 196925" d="M570.583,405.244A1.584,1.584,0,1,1,569,403.659,1.585,1.585,0,0,1,570.583,405.244Z" transform="translate(-567.416 -403.659)" fill="#fff"/>
      <path id="Trazado_196926" data-name="Trazado 196926" d="M575.843,405.244a1.584,1.584,0,1,1-1.584-1.585A1.584,1.584,0,0,1,575.843,405.244Z" transform="translate(-564.784 -403.659)" fill="#fff"/>
      <path id="Trazado_196927" data-name="Trazado 196927" d="M581.1,405.244a1.584,1.584,0,1,1-1.583-1.585A1.584,1.584,0,0,1,581.1,405.244Z" transform="translate(-562.151 -403.659)" fill="#fff"/>
      <path id="Trazado_196928" data-name="Trazado 196928" d="M586.364,405.244a1.584,1.584,0,1,1-1.583-1.585A1.584,1.584,0,0,1,586.364,405.244Z" transform="translate(-559.519 -403.659)" fill="#fff"/>
      <path id="Trazado_196929" data-name="Trazado 196929" d="M591.624,405.244a1.584,1.584,0,1,1-1.583-1.585A1.584,1.584,0,0,1,591.624,405.244Z" transform="translate(-556.886 -403.659)" fill="#fff"/>
      <path id="Trazado_196930" data-name="Trazado 196930" d="M596.885,405.244a1.585,1.585,0,1,1-1.585-1.585A1.585,1.585,0,0,1,596.885,405.244Z" transform="translate(-554.254 -403.659)" fill="#fff"/>
      <path id="Trazado_196931" data-name="Trazado 196931" d="M602.145,405.244a1.584,1.584,0,1,1-1.585-1.585A1.585,1.585,0,0,1,602.145,405.244Z" transform="translate(-551.621 -403.659)" fill="#fff"/>
      <path id="Trazado_196932" data-name="Trazado 196932" d="M607.405,405.244a1.584,1.584,0,1,1-1.585-1.585A1.585,1.585,0,0,1,607.405,405.244Z" transform="translate(-548.989 -403.659)" fill="#fff"/>
      <path id="Trazado_196933" data-name="Trazado 196933" d="M612.665,405.244a1.585,1.585,0,1,1-1.584-1.585A1.585,1.585,0,0,1,612.665,405.244Z" transform="translate(-546.356 -403.659)" fill="#fff"/>
      <path id="Trazado_196934" data-name="Trazado 196934" d="M617.925,405.244a1.585,1.585,0,1,1-1.584-1.585A1.585,1.585,0,0,1,617.925,405.244Z" transform="translate(-543.724 -403.659)" fill="#fff"/>
      <path id="Trazado_196935" data-name="Trazado 196935" d="M623.185,405.244a1.584,1.584,0,1,1-1.584-1.585A1.585,1.585,0,0,1,623.185,405.244Z" transform="translate(-541.091 -403.659)" fill="#fff"/>
      <path id="Trazado_196936" data-name="Trazado 196936" d="M628.444,405.244a1.584,1.584,0,1,1-1.584-1.585A1.585,1.585,0,0,1,628.444,405.244Z" transform="translate(-538.458 -403.659)" fill="#fff"/>
      <path id="Trazado_196937" data-name="Trazado 196937" d="M633.7,405.244a1.584,1.584,0,1,1-1.585-1.585A1.584,1.584,0,0,1,633.7,405.244Z" transform="translate(-535.826 -403.659)" fill="#fff"/>
      <path id="Trazado_196938" data-name="Trazado 196938" d="M638.965,405.244a1.584,1.584,0,1,1-1.583-1.585A1.584,1.584,0,0,1,638.965,405.244Z" transform="translate(-533.193 -403.659)" fill="#fff"/>
    </g>
    <g id="Grupo_156510" data-name="Grupo 156510" transform="translate(0.001 72.275)">
      <path id="Trazado_196939" data-name="Trazado 196939" d="M570.583,410.6A1.584,1.584,0,1,1,569,409.011,1.585,1.585,0,0,1,570.583,410.6Z" transform="translate(-567.416 -409.011)" fill="#fff"/>
      <path id="Trazado_196940" data-name="Trazado 196940" d="M575.843,410.6a1.584,1.584,0,1,1-1.584-1.585A1.584,1.584,0,0,1,575.843,410.6Z" transform="translate(-564.784 -409.011)" fill="#fff"/>
      <path id="Trazado_196941" data-name="Trazado 196941" d="M581.1,410.6a1.584,1.584,0,1,1-1.583-1.585A1.584,1.584,0,0,1,581.1,410.6Z" transform="translate(-562.151 -409.011)" fill="#fff"/>
      <path id="Trazado_196942" data-name="Trazado 196942" d="M586.364,410.6a1.584,1.584,0,1,1-1.583-1.585A1.584,1.584,0,0,1,586.364,410.6Z" transform="translate(-559.519 -409.011)" fill="#fff"/>
      <path id="Trazado_196943" data-name="Trazado 196943" d="M591.624,410.6a1.584,1.584,0,1,1-1.583-1.585A1.584,1.584,0,0,1,591.624,410.6Z" transform="translate(-556.886 -409.011)" fill="#fff"/>
      <path id="Trazado_196944" data-name="Trazado 196944" d="M596.885,410.6a1.585,1.585,0,1,1-1.585-1.585A1.585,1.585,0,0,1,596.885,410.6Z" transform="translate(-554.254 -409.011)" fill="#fff"/>
      <path id="Trazado_196945" data-name="Trazado 196945" d="M602.145,410.6a1.584,1.584,0,1,1-1.585-1.585A1.585,1.585,0,0,1,602.145,410.6Z" transform="translate(-551.621 -409.011)" fill="#fff"/>
      <path id="Trazado_196946" data-name="Trazado 196946" d="M607.405,410.6a1.584,1.584,0,1,1-1.585-1.585A1.585,1.585,0,0,1,607.405,410.6Z" transform="translate(-548.989 -409.011)" fill="#fff"/>
      <path id="Trazado_196947" data-name="Trazado 196947" d="M612.665,410.6a1.585,1.585,0,1,1-1.584-1.585A1.585,1.585,0,0,1,612.665,410.6Z" transform="translate(-546.356 -409.011)" fill="#fff"/>
      <path id="Trazado_196948" data-name="Trazado 196948" d="M617.925,410.6a1.585,1.585,0,1,1-1.584-1.585A1.585,1.585,0,0,1,617.925,410.6Z" transform="translate(-543.724 -409.011)" fill="#fff"/>
      <path id="Trazado_196949" data-name="Trazado 196949" d="M623.185,410.6a1.584,1.584,0,1,1-1.584-1.585A1.585,1.585,0,0,1,623.185,410.6Z" transform="translate(-541.091 -409.011)" fill="#fff"/>
      <path id="Trazado_196950" data-name="Trazado 196950" d="M628.444,410.6a1.584,1.584,0,1,1-1.584-1.585A1.585,1.585,0,0,1,628.444,410.6Z" transform="translate(-538.458 -409.011)" fill="#fff"/>
      <path id="Trazado_196951" data-name="Trazado 196951" d="M633.7,410.6a1.584,1.584,0,1,1-1.585-1.585A1.584,1.584,0,0,1,633.7,410.6Z" transform="translate(-535.826 -409.011)" fill="#fff"/>
      <path id="Trazado_196952" data-name="Trazado 196952" d="M638.965,410.6a1.584,1.584,0,1,1-1.583-1.585A1.584,1.584,0,0,1,638.965,410.6Z" transform="translate(-533.193 -409.011)" fill="#fff"/>
    </g>
    <g id="Grupo_156511" data-name="Grupo 156511" transform="translate(0.001 80.305)">
      <path id="Trazado_196953" data-name="Trazado 196953" d="M570.583,415.948A1.584,1.584,0,1,1,569,414.363,1.585,1.585,0,0,1,570.583,415.948Z" transform="translate(-567.416 -414.363)" fill="#fff"/>
      <path id="Trazado_196954" data-name="Trazado 196954" d="M575.843,415.948a1.584,1.584,0,1,1-1.584-1.585A1.584,1.584,0,0,1,575.843,415.948Z" transform="translate(-564.784 -414.363)" fill="#fff"/>
      <path id="Trazado_196955" data-name="Trazado 196955" d="M581.1,415.948a1.584,1.584,0,1,1-1.583-1.585A1.584,1.584,0,0,1,581.1,415.948Z" transform="translate(-562.151 -414.363)" fill="#fff"/>
      <path id="Trazado_196956" data-name="Trazado 196956" d="M586.364,415.948a1.584,1.584,0,1,1-1.583-1.585A1.584,1.584,0,0,1,586.364,415.948Z" transform="translate(-559.519 -414.363)" fill="#fff"/>
      <path id="Trazado_196957" data-name="Trazado 196957" d="M591.624,415.948a1.584,1.584,0,1,1-1.583-1.585A1.584,1.584,0,0,1,591.624,415.948Z" transform="translate(-556.886 -414.363)" fill="#fff"/>
      <path id="Trazado_196958" data-name="Trazado 196958" d="M596.885,415.948a1.585,1.585,0,1,1-1.585-1.585A1.585,1.585,0,0,1,596.885,415.948Z" transform="translate(-554.254 -414.363)" fill="#fff"/>
      <path id="Trazado_196959" data-name="Trazado 196959" d="M602.145,415.948a1.584,1.584,0,1,1-1.585-1.585A1.585,1.585,0,0,1,602.145,415.948Z" transform="translate(-551.621 -414.363)" fill="#fff"/>
      <path id="Trazado_196960" data-name="Trazado 196960" d="M607.405,415.948a1.584,1.584,0,1,1-1.585-1.585A1.585,1.585,0,0,1,607.405,415.948Z" transform="translate(-548.989 -414.363)" fill="#fff"/>
      <path id="Trazado_196961" data-name="Trazado 196961" d="M612.665,415.948a1.585,1.585,0,1,1-1.584-1.585A1.585,1.585,0,0,1,612.665,415.948Z" transform="translate(-546.356 -414.363)" fill="#fff"/>
      <path id="Trazado_196962" data-name="Trazado 196962" d="M617.925,415.948a1.585,1.585,0,1,1-1.584-1.585A1.585,1.585,0,0,1,617.925,415.948Z" transform="translate(-543.724 -414.363)" fill="#fff"/>
      <path id="Trazado_196963" data-name="Trazado 196963" d="M623.185,415.948a1.584,1.584,0,1,1-1.584-1.585A1.585,1.585,0,0,1,623.185,415.948Z" transform="translate(-541.091 -414.363)" fill="#fff"/>
      <path id="Trazado_196964" data-name="Trazado 196964" d="M628.444,415.948a1.584,1.584,0,1,1-1.584-1.585A1.585,1.585,0,0,1,628.444,415.948Z" transform="translate(-538.458 -414.363)" fill="#fff"/>
      <path id="Trazado_196965" data-name="Trazado 196965" d="M633.7,415.948a1.584,1.584,0,1,1-1.585-1.585A1.584,1.584,0,0,1,633.7,415.948Z" transform="translate(-535.826 -414.363)" fill="#fff"/>
      <path id="Trazado_196966" data-name="Trazado 196966" d="M638.965,415.948a1.584,1.584,0,1,1-1.583-1.585A1.584,1.584,0,0,1,638.965,415.948Z" transform="translate(-533.193 -414.363)" fill="#fff"/>
    </g>
    <g id="Grupo_156512" data-name="Grupo 156512" transform="translate(0 88.336)">
      <circle id="Elipse_6066" data-name="Elipse 6066" cx="1.584" cy="1.584" r="1.584" transform="translate(0 0.001)" fill="#fff"/>
      <circle id="Elipse_6067" data-name="Elipse 6067" cx="1.584" cy="1.584" r="1.584" transform="translate(7.893 0.001)" fill="#fff"/>
      <path id="Trazado_196967" data-name="Trazado 196967" d="M581.1,421.3a1.584,1.584,0,1,1-1.583-1.585A1.584,1.584,0,0,1,581.1,421.3Z" transform="translate(-562.15 -419.715)" fill="#fff"/>
      <path id="Trazado_196968" data-name="Trazado 196968" d="M586.364,421.3a1.584,1.584,0,1,1-1.583-1.585A1.584,1.584,0,0,1,586.364,421.3Z" transform="translate(-559.518 -419.715)" fill="#fff"/>
      <path id="Trazado_196969" data-name="Trazado 196969" d="M591.624,421.3a1.584,1.584,0,1,1-1.583-1.585A1.584,1.584,0,0,1,591.624,421.3Z" transform="translate(-556.885 -419.715)" fill="#fff"/>
      <path id="Trazado_196970" data-name="Trazado 196970" d="M596.885,421.3a1.585,1.585,0,1,1-1.585-1.585A1.585,1.585,0,0,1,596.885,421.3Z" transform="translate(-554.253 -419.715)" fill="#fff"/>
      <path id="Trazado_196971" data-name="Trazado 196971" d="M602.145,421.3a1.584,1.584,0,1,1-1.585-1.585A1.585,1.585,0,0,1,602.145,421.3Z" transform="translate(-551.62 -419.715)" fill="#fff"/>
      <path id="Trazado_196972" data-name="Trazado 196972" d="M607.405,421.3a1.584,1.584,0,1,1-1.585-1.585A1.585,1.585,0,0,1,607.405,421.3Z" transform="translate(-548.988 -419.715)" fill="#fff"/>
      <circle id="Elipse_6068" data-name="Elipse 6068" cx="1.584" cy="1.584" r="1.584" transform="translate(63.141 0.001)" fill="#fff"/>
      <circle id="Elipse_6069" data-name="Elipse 6069" cx="1.584" cy="1.584" r="1.584" transform="translate(71.034 0.001)" fill="#fff"/>
      <circle id="Elipse_6070" data-name="Elipse 6070" cx="1.584" cy="1.584" r="1.584" transform="translate(78.926 0.001)" fill="#fff"/>
      <path id="Trazado_196973" data-name="Trazado 196973" d="M628.444,421.3a1.584,1.584,0,1,1-1.584-1.585A1.585,1.585,0,0,1,628.444,421.3Z" transform="translate(-538.457 -419.715)" fill="#fff"/>
      <path id="Trazado_196974" data-name="Trazado 196974" d="M633.7,421.3a1.584,1.584,0,1,1-1.585-1.585A1.584,1.584,0,0,1,633.7,421.3Z" transform="translate(-535.825 -419.715)" fill="#fff"/>
      <path id="Trazado_196975" data-name="Trazado 196975" d="M638.965,421.3a1.584,1.584,0,1,1-1.583-1.585A1.584,1.584,0,0,1,638.965,421.3Z" transform="translate(-533.193 -419.715)" fill="#fff"/>
    </g>
    <g id="Grupo_156513" data-name="Grupo 156513" transform="translate(0.001 96.366)">
      <path id="Trazado_196976" data-name="Trazado 196976" d="M570.583,426.651A1.584,1.584,0,1,1,569,425.067,1.585,1.585,0,0,1,570.583,426.651Z" transform="translate(-567.416 -425.067)" fill="#fff"/>
      <path id="Trazado_196977" data-name="Trazado 196977" d="M575.843,426.651a1.584,1.584,0,1,1-1.584-1.585A1.584,1.584,0,0,1,575.843,426.651Z" transform="translate(-564.784 -425.067)" fill="#fff"/>
      <path id="Trazado_196978" data-name="Trazado 196978" d="M581.1,426.651a1.584,1.584,0,1,1-1.583-1.585A1.584,1.584,0,0,1,581.1,426.651Z" transform="translate(-562.151 -425.067)" fill="#fff"/>
      <path id="Trazado_196979" data-name="Trazado 196979" d="M586.364,426.651a1.584,1.584,0,1,1-1.583-1.585A1.584,1.584,0,0,1,586.364,426.651Z" transform="translate(-559.519 -425.067)" fill="#fff"/>
      <path id="Trazado_196980" data-name="Trazado 196980" d="M591.624,426.651a1.584,1.584,0,1,1-1.583-1.585A1.584,1.584,0,0,1,591.624,426.651Z" transform="translate(-556.886 -425.067)" fill="#fff"/>
      <path id="Trazado_196981" data-name="Trazado 196981" d="M596.885,426.651a1.585,1.585,0,1,1-1.585-1.585A1.585,1.585,0,0,1,596.885,426.651Z" transform="translate(-554.254 -425.067)" fill="#fff"/>
      <path id="Trazado_196982" data-name="Trazado 196982" d="M602.145,426.651a1.584,1.584,0,1,1-1.585-1.585A1.585,1.585,0,0,1,602.145,426.651Z" transform="translate(-551.621 -425.067)" fill="#fff"/>
      <path id="Trazado_196983" data-name="Trazado 196983" d="M607.405,426.651a1.584,1.584,0,1,1-1.585-1.585A1.585,1.585,0,0,1,607.405,426.651Z" transform="translate(-548.989 -425.067)" fill="#fff"/>
      <path id="Trazado_196984" data-name="Trazado 196984" d="M612.665,426.651a1.585,1.585,0,1,1-1.584-1.585A1.585,1.585,0,0,1,612.665,426.651Z" transform="translate(-546.356 -425.067)" fill="#fff"/>
      <path id="Trazado_196985" data-name="Trazado 196985" d="M617.925,426.651a1.585,1.585,0,1,1-1.584-1.585A1.585,1.585,0,0,1,617.925,426.651Z" transform="translate(-543.724 -425.067)" fill="#fff"/>
      <path id="Trazado_196986" data-name="Trazado 196986" d="M623.185,426.651a1.584,1.584,0,1,1-1.584-1.585A1.585,1.585,0,0,1,623.185,426.651Z" transform="translate(-541.091 -425.067)" fill="#fff"/>
      <path id="Trazado_196987" data-name="Trazado 196987" d="M628.444,426.651a1.584,1.584,0,1,1-1.584-1.585A1.585,1.585,0,0,1,628.444,426.651Z" transform="translate(-538.458 -425.067)" fill="#fff"/>
      <path id="Trazado_196988" data-name="Trazado 196988" d="M633.7,426.651a1.584,1.584,0,1,1-1.585-1.585A1.584,1.584,0,0,1,633.7,426.651Z" transform="translate(-535.826 -425.067)" fill="#fff"/>
      <path id="Trazado_196989" data-name="Trazado 196989" d="M638.965,426.651a1.584,1.584,0,1,1-1.583-1.585A1.584,1.584,0,0,1,638.965,426.651Z" transform="translate(-533.193 -425.067)" fill="#fff"/>
    </g>
  </g>
</svg>
